<svg version="1" xmlns="http://www.w3.org/2000/svg" width="436" height="436" viewBox="0 0 327.000000 327.000000"><path d="M56.8 102.7c-.8 1-3.4 4.5-5.6 7.8-2.3 3.3-5.5 7.9-7.2 10.3-1.6 2.3-3 4.5-3 4.7 0 .3-2.1 3.3-4.7 6.7-2.6 3.4-6.6 9-8.9 12.4-2.3 3.5-4.7 6.9-5.3 7.6-4.1 5-6.1 7.7-6.1 8.2 0 .4-3 4.3-6.6 8.8-4.8 5.9-6.3 8.3-5.4 9.2.7.7 1.5.7 2.4.1 6.4-4.6 12-8.5 17.1-11.8 3.3-2.2 6.2-4.4 6.5-4.8 1.3-2 12.3-5 18.2-5 6.2 0 14.8 2.9 14.8 5.1 0 .5.8 1.1 1.8 1.5.9.3 4 2.6 6.7 5 9.3 8.4 14.4 9.5 26.8 5.9 4.4-1.3 9.5-2.4 11.2-2.4 3.8 0 12.5 2.4 18 5 14.1 6.7 24.9 3.8 30.1-8 1.8-4 1.8-4 4.3-2.3 1.4.9 3.1 2.1 3.8 2.7 2.6 2.3 4 3.3 9.6 7 3.1 2.1 5.7 4.2 5.7 4.7s.4.9.9.9 4.1 2.4 8.1 5.2c8.1 6.1 7.8 4.2 4.1 22.1-1.3 6-2 11.5-1.7 12.3 1.2 3.1 6.6.9 6.6-2.8 0-3 3.7-2.2 4.8 1l1 2.9 10.2.1c6 .1 10.8-.2 11.6-.9.8-.7 1.4-.7 1.9.1.9 1.4 12.8 1.3 14.3-.2.8-.8 1.2-.9 1.2-.1 0 .7 2.3 1.1 6.4 1.1 6.2 0 6.5-.2 7.6-2.9 1.6-3.9 4.6-3.8 5.3.1.6 2.9.6 2.9 7.4 2.7l6.8-.2.3-6.5.3-6.5 2.7 6.5c2.5 5.9 3 6.5 5.7 6.5h3v-31h-3c-2.8 0-3 .3-3.5 4.4l-.5 4.4-2.3-4.7c-2-4.3-2.5-4.7-5.5-4.4l-3.2.3v13.2c0 12.8-.6 15.7-1.9 9.1-.3-1.8-1.4-7.6-2.4-12.8l-1.8-9.5h-3.8c-3.7 0-3.9.2-5.2 4.5-.8 2.5-2.2 9-3.3 14.5l-1.9 10-.1-14.8-.1-14.8-3.7.3-3.8.3V214l-4-.3-4-.2-.2-9.5c-.1-5.2-.2-10.3-.2-11.3-.1-1.3-1-1.7-3.6-1.7H228l-.1 6.2c0 3.5 0 10.1-.1 14.8 0 5.9-.2 7.4-.7 5-.4-2.3-1.2-3.4-2.1-3.2-.7.2-2.3.1-3.4-.2-2-.5-2.1-1.2-2-10.3 0-5.4-.2-10.4-.4-11.1-.2-.6-1.9-1.2-3.8-1.2h-3.3l-.3 14.2-.3 14.3-3-14c-2.7-12.7-3.2-14-5.3-14.3-2.3-.4-10.4-8.1-27.8-26.8-15.2-16.3-21.1-22.8-23.1-25-3.2-3.7-17.7-19.7-20.1-22.2l-2.4-2.4-2.8 3.3c-1.6 1.9-2.9 3.8-3 4.3 0 .5-.6 1.4-1.3 2-.8.6-5.3 6.2-10.1 12.3-4.9 6.2-9.4 11.3-10.1 11.3-1.5 0-12.5-12-23.6-25.5-4.1-5-8.1-9.8-8.9-10.8-.8-1-2.3-2.8-3.4-4-1-1.2-2.5-3.2-3.3-4.5-1.8-2.6-4.4-2.8-6.5-.5zm5.2 20.2c0 .6 2.9 3.9 10.3 12.1 2.7 2.9 10 11.4 15.6 18.1.7.9 2.9 3.2 4.7 5.2l3.3 3.6-5.2-.5c-10.3-.9-16.5-3.5-22.8-9.4-4.2-4-12-7.6-18.3-8.5l-4.7-.7 2-2.2c1.2-1.2 2.1-2.5 2.1-2.9 0-.4 1.5-2.8 3.4-5.4 1.8-2.7 4.1-6.2 5-8 1.1-2.1 2.1-3 3.1-2.7.8.4 1.5.9 1.5 1.3zm70.3 14.4c.7.7 3.9 4.4 7.2 8.2 3.3 3.9 6.5 7.4 7 8 3.8 3.6 3.8 4.3-.2 8.1-7.6 7.3-14.7 7.7-26.2 1.8-1.4-.8-3.6-1.4-4.8-1.4-3.7 0-3.4-1.6 1.5-7.8 2.6-3.4 6.7-8.8 9.2-12.1 2.5-3.3 4.6-6 4.8-6 .2-.1.9.5 1.5 1.2z"/><path d="M179.5 113.2c-.3.7-.4 11-.3 22.8l.3 21.5h11l.3-8.3.3-8.2h9.4l-.3 23-.3 23H212v-17h8.9c6.6 0 10.1-.5 13.4-1.9 13.9-6 12.2-22.1-2.8-25.7l-5-1.2 6-.2c3.3-.1 7.2-.1 8.7 0 1.5.1 4.8-1.1 7.3-2.5 4.4-2.6 4.5-2.6 4.5-.6 0 2.7 3.1 3.5 10.7 2.7 3.2-.3 6.5-.5 7.3-.5 54.2 1 55 1 55-2.6 0-1-1.1-1.5-3.5-1.5-2.8 0-3.5-.4-3.5-1.9 0-1.1-.4-2.3-1-2.6-.5-.3-1-2.1-1-4 0-3-1.3-4.5-4-4.5-1.5 0-7 5.1-6.5 6 .3.5-1.4 2.2-3.7 3.9-3 2.2-5.3 3.1-8.2 3.1-3.1 0-3.7-.3-2.8-1.2 1.9-1.9 1.4-4.6-.9-5.9-1.3-.6-5.2-1-9.6-.7-6.8.3-7.8.6-9.9 3.1-1.3 1.6-2.2 3.3-1.9 3.8.4.5-1 .9-2.9.9-3.4 0-3.5-.1-2.4-2 1-1.6 1-2.4.1-4-.8-1.2-.9-2.1-.3-2.5 1.7-1 .1-2.5-2.6-2.5-1.4 0-3.4.9-4.6 2-2.9 2.6-3.4 1.9-1.4-2.1 2.3-4.6 2.1-4.9-2.9-4.9H248l-4 8c-3.9 7.7-4.1 8-7.5 8h-3.6l1.6-3c2.3-4.4 1.9-5-3-5-4.2 0-4.6.2-6.5 4-2.4 4.7-2.5 6.9-.5 8.4 1.2.9-.8 1.1-8.5 1.1-5.5 0-10-.3-10-.7 0-.5 1.1-.8 2.5-.8 4 0 10.4-3.7 12.5-7.3 4-6.5 1.3-14.4-6.3-18.4-4.4-2.4-34.4-3.3-35.2-1.1zM209 123c2.6 2.6 2.5 3.6-.5 6.5-2.1 2.2-3.3 2.5-10 2.5H191v-11h8c6.7 0 8.3.3 10 2zm73.7 11.5c0 .8-.6 1.5-1.4 1.5-.7 0-1.3-.7-1.3-1.5s.6-1.5 1.3-1.5c.8 0 1.4.7 1.4 1.5zm26.3.5c0 .5-.5 1-1.1 1-.5 0-.7-.5-.4-1 .3-.6.8-1 1.1-1 .2 0 .4.4.4 1zm-104.3 6.6c-.3.3-1.2.4-1.9.1-.8-.3-.5-.6.6-.6 1.1-.1 1.7.2 1.3.5zm24.1 10c2.7 1.8 2.9 6.1.5 8-1.1.8-4.7 1.3-9.5 1.4H212v-11h7.3c4.9 0 8 .5 9.5 1.6z"/><path d="M230.3 118c-1.2.5-2.7 1.8-3.3 2.9-2.4 4.6 5.8 8 10.8 4.5 2.7-1.8 2.8-3.6.5-5.6-2.5-2.2-5.4-2.8-8-1.8zM304.2 150.7c-1 1.6-2.5 4.4-3.2 6.3-2.9 7.4-3.8 8.5-7 8.6-2.7.1-3-.2-2.4-2 .4-1.2 1.1-2.6 1.6-3.3 1.8-2.3-.4-3.3-7.3-3.3-8.5 0-13.2 1.8-15.4 5.9-1.3 2.5-2.1 3.1-4.5 2.9-2.9-.2-2.9-.2-.9-2.1 4.2-4-.6-7-10.1-6.3-5.4.3-6.8.8-8.7 3.1-2.9 3.3-2.9 4.1.3 7 2.5 2.3 3.4 2.5 13 2.5 6.1 0 10.5-.4 10.9-1 .5-.7 1.1-.8 1.9-.1.6.5 7.6 1 15.4 1 12.9.1 14.7-.1 17.2-1.9 3.5-2.5 3.6-2.5 4.3 0 .4 1.8 1.4 2 7.4 2 6.6 0 9.3-1 9.3-3.5 0-.6-1.6-1-3.5-.9-3.9.2-4 .1-2.4-2.7.7-1.4.7-2.4 0-3.3-.6-.6-.8-2.2-.4-3.4.4-1.8.1-2.2-1.9-2.2-1.4 0-3.5.9-4.8 2-3.1 2.7-3.4 2-1.3-2.4 1.5-3.2 1.5-3.8.3-4.6-2.8-1.8-5.8-1.1-7.8 1.7zm-47 12.8c.3 1.5.1 2.5-.7 2.5-1.8 0-2.3-.9-1.8-3.1.7-2.7 2-2.4 2.5.6zm25.5 0c-.4.8-1.1 1.5-1.7 1.5-1.4 0-1.3-2.7.3-3.3 1.6-.6 2.1-.1 1.4 1.8zM35.7 185.7c-.4.3-.7 4.4-.7 9 0 5.9.4 8.3 1.3 8.4 7.7.7 13.1-.5 14.5-3.3.9-1.9 1.1-2 1.1-.5.1 1.9 5.4 4.7 8 4.2.9-.2 2.1-.4 2.8-.4.6-.1 1.9-.8 2.8-1.7 1.5-1.5 1.7-1.5 3.3 0 1.7 1.4 5.1 2.1 9.5 1.7.9 0 2.6-1 3.7-2.1l2-2v2c0 1.6.7 2 3.4 2 4 0 4.4-.7 4.1-7.7-.1-2.9.1-5 .4-4.7.3.3.6 3.1.6 6.2.1 5.7.1 5.7 3.3 6 3 .3 3.2.1 3.2-3v-3.3l2.1 3.2c1.6 2.5 2.8 3.3 5 3.3h3l-.3-8.8c-.3-8.5-.3-8.7-2.8-8.7-1.9 0-2.6.6-3 2.8l-.5 2.8-1.8-3c-1.9-3.3-5.3-4.1-7.5-1.9-.9.9-1.5.9-2.4 0-1.7-1.7-5.5-1.5-6.2.4-.3.9-.6 3.1-.6 5 0 3.3 0 3.3-2 1.6-1.7-1.4-1.8-1.8-.5-2 2.2-.5 1.8-2.8-.7-4.6-3.2-2.2-8-2-11.4.6-1.6 1.2-2.6 1.8-2.2 1.3 1.1-1.2-1.1-3.5-3.2-3.5-2.3 0-3 2-3 8.2 0 7.5-2.4 5.8-2.8-2-.3-6.1-.3-6.2-3.2-6.2-2.2 0-3.1.6-3.8 2.7-.6 1.6-1.1 2.2-1.1 1.4-.2-2.5-3.5-4-8.7-4.1-2.8 0-5.4.3-5.7.7zm15 9c-.3 1-.5.4-.5-1.2 0-1.7.2-2.4.5-1.8.2.7.2 2.1 0 3zm18.9 1c-1 1.1-1.9.7-2.2-1-.2-1.5 0-1.6 1.2-.6.8.6 1.2 1.4 1 1.6zM111.2 186.2c-1.6 1.6-1.6 15.4-.1 16.4 1.9 1.1 13.3.8 13.7-.4.2-.7 1.3-.7 3.5.3 3.6 1.4 7.1 1.1 10.3-1 1.8-1.2 2.3-1.2 3.5 0 1.3 1.3 5 2 9.2 1.6 2.4-.2 5.7-3.7 5.7-6.1 0-1-1-2.8-2.2-4-1.8-1.7-1.9-2-.5-2 2.4 0 2.1-2.6-.5-4.4-3.3-2.3-8.5-2-11.1.6l-2.2 2.3-2.2-2.3c-2.5-2.5-7.2-2.9-10.3-1-1.5 1-2.2 1-3.2 0-1.6-1.6-12-1.6-13.6 0zm14.5 7.3c1 2.2.8 2.7-.8 3.5-1.7.9-1.8.8-1.3-1.9.6-2.8.4-3-3.2-3.4l-3.9-.4 4-.1c3.4-.2 4.2.2 5.2 2.3zm15-.8c.4 1 1.1 2.1 1.6 2.4.5.4.5.9-.2 1.3-.6.4-1.1.2-1.1-.3 0-.6-.9-2-2-3.1-1.6-1.6-1.7-2-.5-2 .9 0 1.9.8 2.2 1.7zM167.1 187.1c-1.3 1.3-2 2.7-1.6 3.8.3 1-.1 2.4-1 3.1-2.1 1.7-1.9 5.3.4 7.4 1.4 1.3 3.8 1.8 9.1 1.8 7.6.1 9.8-.9 8.5-3.9-.4-1-.7-3-.6-4.6.2-2.1-.2-2.7-1.8-2.7-1.5 0-2.1-.6-2.1-2.1 0-4.7-6.9-6.5-10.9-2.8zM295 193c-3.1 3.1-4 6.4-4 14.1 0 7.3.8 9.8 4.3 13.6 4.6 5.1 13.7.4 13.7-7.2 0-3.3-.2-3.5-3.5-3.5-2.8 0-3.5.4-3.5 2 0 1.1-.4 2-1 2-1.8 0-3.2-4.3-2.7-8.7.5-4.8 2.3-7.7 3.1-5.2.2.8.7 2.2 1 3.1.4 1.2 1.6 1.8 3.7 1.8h3.2l-.6-4.6c-.9-8.3-8.6-12.5-13.7-7.4zM310.5 191.9c-.6.6-.9 7.4-.7 16.1l.3 15.1 7.7-.3 7.7-.3.3-4.2.3-4.2-4.3-.3c-3-.2-4.3-.7-4.3-1.8 0-.9.7-1.4 1.7-1.2 3.2.5 5.8-1.7 5.8-4.8 0-2.4-.5-3-2.2-3.2-1.3 0-2.9-.2-3.7-.2-.8-.1-1.6-.6-1.8-1.3-.3-.8 1.1-1.3 3.9-1.5 4.3-.3 4.3-.3 4.6-4.6l.3-4.2h-7.3c-4.1 0-7.8.4-8.3.9zM36.7 207.8c-1.4.3-1.7 1.7-1.7 8.8v8.4h7.9c5.4 0 8.1-.4 8.4-1.3.4-1 .6-1 .6 0 .1.9 2 1.3 6.2 1.3 5.3 0 6.4-.3 8.9-2.9 2.7-2.6 3-2.7 3.5-1 .9 2.6 4.1 4.1 8.6 4.1 6.9-.1 7.9-1.3 7.9-9.7 0-7.5-.6-8.7-4.2-7.7-1.5.3-1.8 1.6-1.8 6.4 0 7.9-2.4 7.6-2.8-.4-.3-6-1.6-7.3-6-5.7-1.5.6-2.2 1.7-2.3 3.6 0 2.7-.1 2.7-1.1.7-1.9-3.9-4.2-4.6-16.8-4.4-.8 0-4.2-.1-7.6-.3-3.3-.1-6.8-.1-7.7.1zm14.5 8.2c-.4 5.2-2.2 6-2.2 1 0-2.5-.4-2.9-3.2-3.3l-3.3-.4 3.7-.1c2-.1 4-.7 4.3-1.2 1-1.6 1-1.3.7 4zm10.6-.3c.2 1.1-.4 2.6-1.3 3.3-1.3 1.1-1.5.8-1.5-2.5 0-3.9 2.2-4.6 2.8-.8zM93.3 208c-5.1 2.1-6.9 10.8-3 14.7 2.4 2.4 7.1 3.2 11 1.8 2-.7 3.7-.9 3.7-.4 0 1.2 5.8 1.1 6.2-.1.5-1.7 4.6-2 5.2-.4.6 1.6 7.6 2 7.6.4 0-1.3-5.1-14.2-6.1-15.5-.6-.9-3.3-1.1-7-.6-.3.1-1.4 2.7-2.4 6-1.5 4.6-2.2 5.6-3.2 4.6-1.3-1.3-5.9-.9-6.9.6-1.2 2-2.4.7-2.4-2.6 0-3.8 1-4.4 3-1.9 1.7 1.9 6.4 1.4 6.8-.7.8-4.3-7.3-8.2-12.5-5.9zM122.2 208.6c-1.8 1.3-.9 4.4 1.2 4.4 1.1 0 1.6 1.5 1.8 5.7l.3 5.8h7l.3-5.6c.2-4.7.6-5.8 2.2-6.2 1.8-.5 2 0 2 5.9v6.4h7v-7.8c0-8.8-.9-10.4-5-9.2-1.6.5-3.1.6-3.4.3-1-1-11.9-.8-13.4.3zM151 207.7c-3.8 1.5-6 4.7-6 8.8 0 6.9 6.7 10.9 13.7 8 8.3-3.5 6.4-15.9-2.7-17-1.9-.2-4.2-.2-5 .2zm5 8.8c0 2.4-.5 3.5-1.5 3.5s-1.5-1.1-1.5-3.5.5-3.5 1.5-3.5 1.5 1.1 1.5 3.5z"/><path d="M166.8 207.8c-1.5.3-1.8 1.6-1.8 8.8v8.4h2.9c2.7 0 3-.3 3.3-3.8l.3-3.7 2.4 3.8c2 3.3 2.8 3.8 5.5 3.5l3.1-.3.3-7.3c.3-8.2-.6-10.2-4.3-9.4-1.9.3-2.5 1.1-2.5 3v2.5l-2-2.5c-2.1-2.7-4.4-3.6-7.2-3z"/></svg>