<svg xmlns="http://www.w3.org/2000/svg" width="398" height="137.052" viewBox="0 0 398 137.052">
  <g id="Group_5" data-name="Group 5" transform="translate(-290.121 -140.588)">
    <path id="Path_1" data-name="Path 1" d="M298.074,211.453h1.389a3.646,3.646,0,0,0,2.3-.554,1.772,1.772,0,0,0,.664-1.421,1.949,1.949,0,0,0-.577-1.427,3.033,3.033,0,0,0-2.163-.586h-1.615Zm-5.695-7.623H301.8a6.554,6.554,0,0,1,4.61,1.427,5.275,5.275,0,0,1,1.534,4.062,5.443,5.443,0,0,1-1.671,4.235,7.36,7.36,0,0,1-5.1,1.524h-3.1v6.637h-5.695Z" transform="translate(1.986 55.622)" fill="#039da6"/>
    <path id="Path_2" data-name="Path 2" d="M330.48,214.893l-2.024-6.428-2,6.428Zm1.177,3.868h-6.435l-.895,2.953h-5.789l6.9-17.883h6.184l6.894,17.883h-5.937Z" transform="translate(24.993 55.622)" fill="#039da6"/>
    <g id="Group_1" data-name="Group 1" transform="translate(397.854 259.45)">
      <path id="Path_3" data-name="Path 3" d="M353.134,211.074h2.391a8.807,8.807,0,0,0,1.5-.242,1.511,1.511,0,0,0,.921-.562,1.781,1.781,0,0,0-.207-2.366,3.484,3.484,0,0,0-2.114-.462h-2.492Zm-5.693,10.638V203.829h9.448a14.034,14.034,0,0,1,4.017.44,4.272,4.272,0,0,1,2.24,1.63,5.365,5.365,0,0,1,.2,5.464,5.009,5.009,0,0,1-1.789,1.75,6.984,6.984,0,0,1-1.99.709,5.708,5.708,0,0,1,1.475.66,5.537,5.537,0,0,1,.906.94,7.016,7.016,0,0,1,.8,1.111l2.744,5.182h-6.405l-3.03-5.466a4.159,4.159,0,0,0-1.026-1.378,2.427,2.427,0,0,0-1.389-.415h-.5v7.259Z" transform="translate(-347.441 -203.829)" fill="#039da6"/>
    </g>
    <path id="Path_4" data-name="Path 4" d="M374.6,203.83h17.233v4.415h-5.783v13.468h-5.669V208.245H374.6Z" transform="translate(74.299 55.621)" fill="#039da6"/>
    <path id="Path_5" data-name="Path 5" d="M402.431,203.83h5.293l6.909,9.894V203.83h5.343v17.884h-5.343l-6.871-9.82v9.82h-5.33Z" transform="translate(98.777 55.621)" fill="#039da6"/>
    <path id="Path_6" data-name="Path 6" d="M431.04,203.83h15.194v3.817h-9.512v2.844h8.822v3.646h-8.822v3.526h9.787v4.05H431.04Z" transform="translate(123.939 55.621)" fill="#039da6"/>
    <g id="Group_2" data-name="Group 2" transform="translate(290.121 140.588)">
      <path id="Path_7" data-name="Path 7" d="M463.9,211.074H466.3a8.782,8.782,0,0,0,1.5-.242,1.511,1.511,0,0,0,.921-.562,1.781,1.781,0,0,0-.207-2.366,3.487,3.487,0,0,0-2.116-.462H463.9Zm-5.693,10.638V203.829h9.448a14.034,14.034,0,0,1,4.017.44,4.272,4.272,0,0,1,2.24,1.63,5.365,5.365,0,0,1,.2,5.464,5.009,5.009,0,0,1-1.789,1.75,6.984,6.984,0,0,1-1.99.709,5.708,5.708,0,0,1,1.475.66,5.538,5.538,0,0,1,.906.94,7.012,7.012,0,0,1,.8,1.111l2.744,5.182h-6.405l-3.03-5.466a4.158,4.158,0,0,0-1.026-1.378,2.427,2.427,0,0,0-1.389-.415h-.5v7.259Z" transform="translate(-142.284 -84.967)" fill="#039da6"/>
      <path id="Path_8" data-name="Path 8" d="M485.53,215.938l5.394-.329a3.951,3.951,0,0,0,.712,1.953,3.033,3.033,0,0,0,2.5,1.086,2.814,2.814,0,0,0,1.872-.558,1.569,1.569,0,0,0,.03-2.53,7.378,7.378,0,0,0-2.9-1.037,12.5,12.5,0,0,1-5.319-2.169,4.32,4.32,0,0,1-1.6-3.455,4.592,4.592,0,0,1,.819-2.6,5.387,5.387,0,0,1,2.464-1.928,11.774,11.774,0,0,1,4.513-.7,9.4,9.4,0,0,1,5.362,1.276,5.466,5.466,0,0,1,2.2,4.054l-5.343.306a2.766,2.766,0,0,0-.895-1.755,2.911,2.911,0,0,0-1.883-.549,2.309,2.309,0,0,0-1.489.406,1.242,1.242,0,0,0-.5.994.979.979,0,0,0,.413.769,4.633,4.633,0,0,0,1.9.66,24.074,24.074,0,0,1,5.325,1.581,5.519,5.519,0,0,1,2.34,1.983,4.914,4.914,0,0,1,.733,2.644,5.561,5.561,0,0,1-.977,3.171,6.051,6.051,0,0,1-2.727,2.2,11.284,11.284,0,0,1-4.419.752q-4.68,0-6.481-1.759a6.833,6.833,0,0,1-2.041-4.464" transform="translate(-118.258 -85.11)" fill="#039da6"/>
      <path id="Path_9" data-name="Path 9" d="M495.894,185.615c-10.751-3.255-18.412-5.018-21.1-12.478a15.27,15.27,0,0,1,.94-11.392c4.569-8.68,16.4-8.68,16.53-8.68a34.375,34.375,0,0,1,27.552,14.376l9.813-9.9a50.034,50.034,0,0,0-37.365-16.953c-2.284,0-22.174.406-29.971,15.326a26.537,26.537,0,0,0-1.613,21.428c4.7,13.292,19.085,16.412,31.583,20.208,6.856,2.111,12.461,3.59,16.4,6.3h18.453c-5.819-11.685-19.231-14.542-31.224-18.237" transform="translate(-141.468 -140.588)" fill="#172e55"/>
      <path id="Path_10" data-name="Path 10" d="M515.442,184.3c-2.823,6.781-9.678,11.121-21.37,11.256-10.208,0-21.494-5.383-26.636-13.125h-2.02l-8.706,8.785a50.613,50.613,0,0,0,37.363,16.818c16.934-.135,30.508-7.324,35.346-18.853a25.463,25.463,0,0,0,1.861-6.749H516.069a12.679,12.679,0,0,1-.628,1.868" transform="translate(-143.606 -103.788)" fill="#172e55"/>
      <path id="Path_11" data-name="Path 11" d="M462.581,181.764l-1.24,1.252h2.02c-.272-.412-.541-.827-.78-1.252" transform="translate(-139.532 -104.374)" fill="#172e55"/>
      <path id="Path_12" data-name="Path 12" d="M305.039,153.714h25c5.242,0,9.542,6.1,9.542,13.292,0,7.052-4.031,13.157-9.138,13.563h-25.4Zm0,39.332h25.67c5.52.284,10.317,4.385,12.726,10.234h15.451a31.047,31.047,0,0,0-12.05-17.423,26.894,26.894,0,0,0,7.661-18.851c0-14.1-10.886-25.768-24.462-25.768H290.121V203.28h14.918Z" transform="translate(-290.121 -140.016)" fill="#172e55"/>
      <path id="Path_13" data-name="Path 13" d="M330.038,194.226h-25V182.458H290.121V206.7h39.917c14.237,0,26.174-10.365,29.213-24.246H344.012c-2.216,6.883-7.625,11.768-13.974,11.768" transform="translate(-290.121 -103.763)" fill="#172e55"/>
    </g>
    <path id="Path_14" data-name="Path 14" d="M371.442,163.751l14.822,39.53h15l-25.249-62.042h-9.14l-25.247,62.042h14.865Z" transform="translate(45.297 0.572)" fill="#172e55"/>
    <path id="Path_15" data-name="Path 15" d="M377.665,206.7h16.128l-9.867-24.245H368.471Z" transform="translate(68.909 36.825)" fill="#172e55"/>
    <path id="Path_16" data-name="Path 16" d="M333.033,206.7h16.128l9.07-24.245H342.9Z" transform="translate(37.741 36.825)" fill="#172e55"/>
    <rect id="Rectangle_1" data-name="Rectangle 1" width="14.918" height="24.246" transform="translate(567.133 219.283)" fill="#172e55"/>
    <rect id="Rectangle_2" data-name="Rectangle 2" width="14.918" height="62.042" transform="translate(567.133 141.81)" fill="#172e55"/>
    <g id="Group_3" data-name="Group 3" transform="translate(470.405 140.588)">
      <path id="Path_17" data-name="Path 17" d="M425.244,185.615c-10.751-3.255-18.412-5.018-21.1-12.478a15.27,15.27,0,0,1,.94-11.392c4.569-8.68,16.4-8.68,16.53-8.68a34.375,34.375,0,0,1,27.552,14.376l9.813-9.9a50.034,50.034,0,0,0-37.365-16.953c-2.284,0-22.174.406-29.971,15.326a26.537,26.537,0,0,0-1.613,21.428c4.7,13.292,19.084,16.412,31.583,20.208,6.856,2.111,12.461,3.59,16.4,6.3h18.453a30.8,30.8,0,0,0-5.214-6.875c-6.3-6.217-12.051-7.135-26.01-11.362" transform="translate(-383.889 -140.588)" fill="#172e55"/>
      <path id="Path_18" data-name="Path 18" d="M444.775,184.3c-2.823,6.781-9.678,11.121-21.37,11.256-10.208,0-21.494-5.383-26.636-13.125h-2.02l-8.706,8.785A50.613,50.613,0,0,0,423.4,208.033c16.934-.135,30.508-7.324,35.346-18.853a25.458,25.458,0,0,0,1.861-6.749H445.4a12.69,12.69,0,0,1-.628,1.868" transform="translate(-386.042 -103.788)" fill="#172e55"/>
      <path id="Path_19" data-name="Path 19" d="M391.914,181.764l-1.24,1.252h2.02c-.272-.412-.541-.827-.78-1.252" transform="translate(-381.968 -104.374)" fill="#172e55"/>
    </g>
    <rect id="Rectangle_3" data-name="Rectangle 3" width="31.865" height="9.102" transform="translate(290.121 207.015)" fill="#c5ced3"/>
    <rect id="Rectangle_4" data-name="Rectangle 4" width="30.728" height="9.102" transform="translate(331.179 207.015)" fill="#c5ced3"/>
    <rect id="Rectangle_5" data-name="Rectangle 5" width="29.519" height="9.102" transform="translate(371.101 207.015)" fill="#c5ced3"/>
    <rect id="Rectangle_6" data-name="Rectangle 6" width="30.39" height="9.102" transform="translate(409.813 207.015)" fill="#c5ced3"/>
    <rect id="Rectangle_7" data-name="Rectangle 7" width="31.149" height="9.102" transform="translate(449.396 207.015)" fill="#c5ced3"/>
    <rect id="Rectangle_8" data-name="Rectangle 8" width="31.369" height="9.102" transform="translate(489.739 207.015)" fill="#c5ced3"/>
    <rect id="Rectangle_9" data-name="Rectangle 9" width="30.739" height="9.102" transform="translate(530.301 207.015)" fill="#c5ced3"/>
    <rect id="Rectangle_10" data-name="Rectangle 10" width="30.454" height="9.102" transform="translate(570.233 207.015)" fill="#c5ced3"/>
    <rect id="Rectangle_11" data-name="Rectangle 11" width="30.249" height="9.102" transform="translate(609.879 207.015)" fill="#c5ced3"/>
    <rect id="Rectangle_12" data-name="Rectangle 12" width="28.6" height="9.102" transform="translate(649.322 207.015)" fill="#c5ced3"/>
    <g id="Group_4" data-name="Group 4" transform="translate(675.167 140.612)">
      <path id="Path_20" data-name="Path 20" d="M503.3,145.815a1.212,1.212,0,0,1-.35.872,1.134,1.134,0,0,1-.853.363h-2v-2.47h2a1.134,1.134,0,0,1,.853.363,1.209,1.209,0,0,1,.35.872m-.737,2.312a2.23,2.23,0,0,0,.758-.293,2.3,2.3,0,0,0,.592-.521,2.5,2.5,0,0,0,.389-.7,2.348,2.348,0,0,0-.039-1.724,2.38,2.38,0,0,0-1.254-1.265,2.252,2.252,0,0,0-.912-.186h-3.146v7.388H500.1v-2.645h1.086l1.923,2.645h1.417Zm-1.088-6.349a5.109,5.109,0,0,0-2.067.421,5.217,5.217,0,0,0-1.671,1.156,5.617,5.617,0,0,0-1.126,1.707,5.424,5.424,0,0,0,0,4.173,5.474,5.474,0,0,0,1.126,1.7,5.221,5.221,0,0,0,1.671,1.147,5.079,5.079,0,0,0,2.067.423,5.018,5.018,0,0,0,2.06-.423,5.383,5.383,0,0,0,1.669-1.147,5.251,5.251,0,0,0,1.126-1.7,5.54,5.54,0,0,0,0-4.173,5.367,5.367,0,0,0-2.795-2.862,5.048,5.048,0,0,0-2.06-.421m0,11.9a6.391,6.391,0,0,1-4.582-1.911,6.776,6.776,0,0,1-1.389-2.077,6.282,6.282,0,0,1-.515-2.537,6.369,6.369,0,0,1,.515-2.549,6.643,6.643,0,0,1,1.389-2.077,6.557,6.557,0,0,1,2.058-1.4,6.194,6.194,0,0,1,2.524-.521,6.13,6.13,0,0,1,2.515.521,6.711,6.711,0,0,1,2.058,1.4,6.427,6.427,0,0,1,1.389,2.077,6.493,6.493,0,0,1,.506,2.549,6.4,6.4,0,0,1-.506,2.537,6.548,6.548,0,0,1-3.447,3.479,6.247,6.247,0,0,1-2.515.509" transform="translate(-494.987 -140.601)" fill="#172e55"/>
    </g>
  </g>
</svg>
