<svg id="Layer_1" data-name="Layer 1" xmlns="http://www.w3.org/2000/svg" xmlns:xlink="http://www.w3.org/1999/xlink" viewBox="0 0 211.08 97.11"><defs><style>.cls-1{fill:url(#linear-gradient);}.cls-2{fill:url(#linear-gradient-2);}.cls-3{fill:url(#linear-gradient-3);}.cls-4{fill:url(#linear-gradient-4);}.cls-5{fill:#f15e24;}.cls-6{fill:#1b3360;}</style><linearGradient id="linear-gradient" x1="-956.73" y1="30.03" x2="-926.93" y2="30.03" gradientTransform="matrix(-1, 0, 0, 1, -799.2, 0)" gradientUnits="userSpaceOnUse"><stop offset="0.26" stop-color="#1b3360"/><stop offset="0.63" stop-color="#72748e"/></linearGradient><linearGradient id="linear-gradient-2" x1="53.55" y1="23.89" x2="94.6" y2="23.89" gradientUnits="userSpaceOnUse"><stop offset="0.51" stop-color="#84cfe3"/><stop offset="1" stop-color="#00a8cb"/></linearGradient><linearGradient id="linear-gradient-3" x1="94.6" y1="23.89" x2="135.66" y2="23.89" xlink:href="#linear-gradient-2"/><linearGradient id="linear-gradient-4" x1="97.92" y1="30.03" x2="127.73" y2="30.03" gradientUnits="userSpaceOnUse"><stop offset="0.37" stop-color="#72748e"/><stop offset="0.74" stop-color="#1b3360"/></linearGradient></defs><title>logo-color</title><path class="cls-1" d="M127.73,27.28,149.2,39.66l-21.48-18V14.64l29.81,30.78L127.73,32.08Z"/><path class="cls-2" d="M61.39,39.55,94.6,16.63V23L62.7,41.15l31.9-13.4v4.92L53.55,45.62,94.6,2.17v9Z"/><path class="cls-3" d="M117.28,36.76,122.88,39l-4.68-2.64,2.59-1.16,3.44,2.44-3-2.65,3-1.36,11.35,12-22.4-7.06Zm4.37-6L94.6,2.17v8.95l24,21.43Zm-7.91,4.56L94.6,27.75v4.92L110,37.52Zm4-2.32L94.6,16.63V23l20.46,11.53Z"/><path class="cls-4" d="M106.25,39.66l21.48-12.38v4.8L97.92,45.43l8.69-9,2.53.8Zm10.68-13.87,2.61,2.76,8.19-6.85V14.64Z"/><path class="cls-5" d="M20.86,91a6.14,6.14,0,0,1,6.27-6.24A5.32,5.32,0,0,1,32,87.27l-1.92,1.36a3.32,3.32,0,0,0-3-1.6,4,4,0,0,0,0,8,3.47,3.47,0,0,0,3.14-1.79l2,1.34a5.74,5.74,0,0,1-5.09,2.69A6.15,6.15,0,0,1,20.86,91Z"/><path class="cls-5" d="M36.23,84.92h2.51v4.92h5.21V84.92h2.51V97.11H43.95v-5H38.73v5H36.23Z"/><path class="cls-5" d="M55.25,84.82h.22L61,97.11H58.41l-.57-1.38H52.89l-.57,1.38H49.89Zm1.68,8.82-.88-2.11c-.36-.86-.73-2.19-.73-2.19a22.15,22.15,0,0,1-.72,2.19l-.88,2.11Z"/><path class="cls-5" d="M64.84,84.8H65l6,6.59,5.91-6.59h.22V97.11H74.74V92.54c0-.82.09-2.13.09-2.13a21.56,21.56,0,0,1-1.31,1.72l-2.42,2.71h-.23l-2.42-2.71a21.56,21.56,0,0,1-1.31-1.72s.09,1.31.09,2.13v4.57h-2.4Z"/><path class="cls-5" d="M81.85,84.92h4.71c2.28,0,3.55,1.43,3.55,3.15a2.26,2.26,0,0,1-1.72,2.24,2.92,2.92,0,0,1,2.47,3c0,2.17-1.54,3.76-4.09,3.76H81.85Zm4.44,4.5c.81,0,1.34-.45,1.34-1.15a1.09,1.09,0,0,0-1.22-1.15H84.36v2.29Zm.38,5.48a1.58,1.58,0,0,0,1.67-1.68,1.62,1.62,0,0,0-1.81-1.67H84.36V94.9Z"/><path class="cls-5" d="M94.93,84.92H103v2.2H97.44v2.72h4.89V92H97.44V94.9h5.81v2.2H94.93Z"/><path class="cls-5" d="M147.4,84.92h8.06v2.2H149.9v2.72h4.89V92H149.9V94.9h5.81v2.2H147.4Z"/><path class="cls-5" d="M116.72,97.11h-2.9l-2-3.08a4.84,4.84,0,0,1-.72.05h-.86v3h-2.51V84.92h3.37c3.41,0,5.45,1.63,5.45,4.61a3.79,3.79,0,0,1-2.35,3.78ZM111,91.89c2,0,2.94-.65,2.94-2.37s-.93-2.4-2.94-2.4h-.79v4.77Z"/><path class="cls-5" d="M133.9,92.92a5.72,5.72,0,0,0,.43-2.28h2.26a7.18,7.18,0,0,1-1.2,4.12l1.9,2.35h-3l-.61-.75a5.74,5.74,0,0,1-3.14.91c-3,0-4.73-1.51-4.73-3.58,0-1.76.9-2.65,2.81-3.6a3.9,3.9,0,0,1-.84-2.42A2.94,2.94,0,0,1,131,84.78c1.94,0,3.15,1.13,3.15,2.83,0,1.17-.68,2.11-2.22,2.92Zm-4.1-1.42a2.07,2.07,0,0,0-1.33,2c0,1,.65,1.61,2.11,1.61a3.72,3.72,0,0,0,1.77-.43ZM132,87.59a.84.84,0,0,0-.93-.88.91.91,0,0,0-1,.91,2.09,2.09,0,0,0,.64,1.4l0,.05C131.69,88.58,132,88.15,132,87.59Z"/><path class="cls-5" d="M161.32,84.92h3.75c3.75,0,6.42,2.49,6.42,6.09s-2.65,6.09-6.42,6.09h-3.75Zm3.62,10c2.71,0,3.94-1.61,3.94-3.89s-1.24-3.89-3.94-3.89h-1.11V94.9Z"/><path class="cls-5" d="M175.21,91a6.14,6.14,0,0,1,6.27-6.24,5.32,5.32,0,0,1,4.87,2.49l-1.92,1.36a3.32,3.32,0,0,0-3-1.6,4,4,0,0,0,0,8,3.47,3.47,0,0,0,3.14-1.79l2,1.34a5.74,5.74,0,0,1-5.09,2.69A6.15,6.15,0,0,1,175.21,91Z"/><path class="cls-6" d="M9.92,74.41A10,10,0,0,1,6,73.63,9.66,9.66,0,0,1,2.85,71.5,9.86,9.86,0,0,1,.76,68.26,10.87,10.87,0,0,1,0,64.16a11,11,0,0,1,.73-4,9.69,9.69,0,0,1,9.19-6.23,10.43,10.43,0,0,1,3.81.72A7.09,7.09,0,0,1,16.82,57l.08.11-2.2,1.6-.08-.11a5.4,5.4,0,0,0-2.1-1.71,6.24,6.24,0,0,0-2.61-.57A6.57,6.57,0,0,0,7,56.94a7.29,7.29,0,0,0-2.28,1.72,8,8,0,0,0-1.5,2.51,8.48,8.48,0,0,0-.54,3,8.78,8.78,0,0,0,.54,3.09,7.75,7.75,0,0,0,1.48,2.49A7,7,0,0,0,7,71.41,6.87,6.87,0,0,0,9.92,72,6.86,6.86,0,0,0,13,71.34a7.07,7.07,0,0,0,2.38-2l.08-.11,1.91,1.61-.08.1a8.08,8.08,0,0,1-3.19,2.6A10.28,10.28,0,0,1,9.92,74.41Z"/><path class="cls-6" d="M26.06,74.24a7.55,7.55,0,0,1-2.77-.5,6.45,6.45,0,0,1-2.19-1.4,6.58,6.58,0,0,1-1.44-2.15,7.54,7.54,0,0,1,0-5.54A6.58,6.58,0,0,1,21.1,62.5a6.47,6.47,0,0,1,2.19-1.4,7.93,7.93,0,0,1,5.53,0A6.44,6.44,0,0,1,31,62.5a6.59,6.59,0,0,1,1.44,2.15,7.54,7.54,0,0,1,0,5.54A6.58,6.58,0,0,1,31,72.34a6.44,6.44,0,0,1-2.19,1.4A7.55,7.55,0,0,1,26.06,74.24Zm0-11.42a4.43,4.43,0,0,0-1.81.36A4.17,4.17,0,0,0,22,65.61a5.57,5.57,0,0,0,0,3.63,4.17,4.17,0,0,0,2.27,2.43,4.79,4.79,0,0,0,3.62,0,4.16,4.16,0,0,0,2.27-2.43,5.55,5.55,0,0,0,0-3.63,4.17,4.17,0,0,0-2.27-2.42A4.45,4.45,0,0,0,26.06,62.83Z"/><rect class="cls-6" x="36.21" y="53.1" width="2.38" height="20.82"/><path class="cls-6" d="M48.73,74.24a7.55,7.55,0,0,1-2.77-.5,6.45,6.45,0,0,1-2.19-1.4,6.58,6.58,0,0,1-1.44-2.15,7.54,7.54,0,0,1,0-5.54,6.58,6.58,0,0,1,1.44-2.15A6.47,6.47,0,0,1,46,61.1a7.93,7.93,0,0,1,5.53,0,6.44,6.44,0,0,1,2.19,1.4,6.59,6.59,0,0,1,1.44,2.15,7.54,7.54,0,0,1,0,5.54,6.58,6.58,0,0,1-1.44,2.15,6.44,6.44,0,0,1-2.19,1.4A7.55,7.55,0,0,1,48.73,74.24Zm0-11.42a4.43,4.43,0,0,0-1.81.36,4.17,4.17,0,0,0-2.27,2.42,5.57,5.57,0,0,0,0,3.63,4.17,4.17,0,0,0,2.27,2.43,4.79,4.79,0,0,0,3.62,0,4.16,4.16,0,0,0,2.27-2.43,5.55,5.55,0,0,0,0-3.63,4.17,4.17,0,0,0-2.27-2.42A4.45,4.45,0,0,0,48.73,62.83Z"/><path class="cls-6" d="M58.68,73.92V64.08q0-.87-.05-1.62t-.05-1.4v-.13h2.28v.13c0,.34,0,.68,0,1s0,.44,0,.66a3.69,3.69,0,0,1,.44-.58,4.6,4.6,0,0,1,1-.8,5.12,5.12,0,0,1,1.26-.56,5.22,5.22,0,0,1,1.51-.21l.45,0a2.07,2.07,0,0,1,.47.12l.09,0-.15,2.41-.16,0a3.86,3.86,0,0,0-1.1-.16,3.11,3.11,0,0,0-2.73,1.21,5.87,5.87,0,0,0-.86,3.39v6.33Z"/><path class="cls-6" d="M72.38,74.24A6.81,6.81,0,0,1,70.51,74,4.74,4.74,0,0,1,69,73.25,3.68,3.68,0,0,1,67.92,72a3.53,3.53,0,0,1-.4-1.69,3.69,3.69,0,0,1,.85-2.56,5.12,5.12,0,0,1,2.08-1.37,10.18,10.18,0,0,1,2.64-.55c.93-.07,1.8-.11,2.58-.11h.68v-.25a2.49,2.49,0,0,0-.78-2,3.37,3.37,0,0,0-2.24-.68,6.1,6.1,0,0,0-2,.33,4.77,4.77,0,0,0-1.71,1l-.1.09L68,62.69l.09-.09a6.14,6.14,0,0,1,2.37-1.51,8.31,8.31,0,0,1,2.78-.48A5.53,5.53,0,0,1,77.45,62a5.89,5.89,0,0,1,1.29,4.14v5.46q0,.54.05,1.12c0,.39.08.74.13,1.06l0,.15h-2.3l0-.1a4.58,4.58,0,0,1-.13-1c0-.22,0-.42,0-.61a4.85,4.85,0,0,1-4.11,2Zm2-6.44a7.52,7.52,0,0,0-3.18.56,1.8,1.8,0,0,0-1.12,1.76,1.71,1.71,0,0,0,.74,1.59,3.58,3.58,0,0,0,1.93.48,3.78,3.78,0,0,0,1.56-.3,3.29,3.29,0,0,0,1.11-.8,3.46,3.46,0,0,0,.68-1.17,4.84,4.84,0,0,0,.27-1.44V67.8Z"/><path class="cls-6" d="M88.12,74.24a6.42,6.42,0,0,1-2.55-.51A6.23,6.23,0,0,1,83.5,72.3a6.7,6.7,0,0,1-1.37-2.16,7.63,7.63,0,0,1,0-5.43,6.59,6.59,0,0,1,1.39-2.16,6.27,6.27,0,0,1,2.15-1.43,7.36,7.36,0,0,1,2.78-.51,5.81,5.81,0,0,1,2.6.58,6.39,6.39,0,0,1,1.89,1.43V53.1h2.38V73.92H92.93v-2a5,5,0,0,1-1.75,1.58A6,6,0,0,1,88.12,74.24Zm.44-11.42a4.43,4.43,0,0,0-1.81.36,4.17,4.17,0,0,0-2.27,2.42,5.57,5.57,0,0,0,0,3.63,4.17,4.17,0,0,0,2.27,2.43,4.79,4.79,0,0,0,3.62,0,4.16,4.16,0,0,0,2.27-2.43,5.55,5.55,0,0,0,0-3.63,4.17,4.17,0,0,0-2.27-2.42A4.45,4.45,0,0,0,88.55,62.83Z"/><path class="cls-6" d="M105.16,74.24a7.55,7.55,0,0,1-2.77-.5,6.42,6.42,0,0,1-2.19-1.4,6.58,6.58,0,0,1-1.44-2.15,7.55,7.55,0,0,1,0-5.54,6.59,6.59,0,0,1,1.44-2.15,6.44,6.44,0,0,1,2.19-1.4,7.93,7.93,0,0,1,5.53,0,6.47,6.47,0,0,1,2.19,1.4,6.61,6.61,0,0,1,1.44,2.15,7.55,7.55,0,0,1,0,5.54,6.61,6.61,0,0,1-1.44,2.15,6.45,6.45,0,0,1-2.19,1.4A7.56,7.56,0,0,1,105.16,74.24Zm0-11.42a4.43,4.43,0,0,0-1.81.36,4.16,4.16,0,0,0-2.27,2.42,5.55,5.55,0,0,0,0,3.63,4.16,4.16,0,0,0,2.27,2.43,4.78,4.78,0,0,0,3.62,0,4.17,4.17,0,0,0,2.27-2.43,5.57,5.57,0,0,0,0-3.63A4.17,4.17,0,0,0,107,63.18,4.45,4.45,0,0,0,105.16,62.83Z"/><path class="cls-6" d="M127.75,74.41a9.84,9.84,0,0,1-1.71-.15,8.34,8.34,0,0,1-1.64-.47,6.72,6.72,0,0,1-1.48-.83,5.08,5.08,0,0,1-1.2-1.27l-.07-.1,2.17-1.78.08.13a3.92,3.92,0,0,0,1.68,1.55,5.21,5.21,0,0,0,2.31.53,5.14,5.14,0,0,0,1.44-.21,4.38,4.38,0,0,0,1.31-.62,3.38,3.38,0,0,0,.94-1,2.59,2.59,0,0,0,.36-1.37,3,3,0,0,0-.28-1.39,2.56,2.56,0,0,0-.88-.92,7,7,0,0,0-1.55-.72L127,65a14.26,14.26,0,0,1-1.92-.75,6,6,0,0,1-1.54-1.06,4.58,4.58,0,0,1-1-1.51,5.92,5.92,0,0,1,.18-4.58,5.26,5.26,0,0,1,1.51-1.77,6.83,6.83,0,0,1,2.13-1.07,9,9,0,0,1,5.51.15,6,6,0,0,1,2.46,1.79l.08.1-2.09,1.82L132.2,58a3.26,3.26,0,0,0-1.46-1.29,4.74,4.74,0,0,0-1.93-.41,5.86,5.86,0,0,0-1.46.19,4.32,4.32,0,0,0-1.28.55,2.75,2.75,0,0,0-.9,1,2.81,2.81,0,0,0-.34,1.4,2.94,2.94,0,0,0,.19,1.1,2.3,2.3,0,0,0,.63.86,4.78,4.78,0,0,0,1.22.74,17,17,0,0,0,1.91.7q1.12.36,2.17.76a7.48,7.48,0,0,1,1.88,1.05,4.73,4.73,0,0,1,1.31,1.61,6,6,0,0,1-.1,5,5.41,5.41,0,0,1-1.55,1.8,6.7,6.7,0,0,1-2.21,1.05A9.57,9.57,0,0,1,127.75,74.41Z"/><path class="cls-6" d="M137.67,80.11V60.93h2.38v1.69a6.26,6.26,0,0,1,1.89-1.44,5.81,5.81,0,0,1,2.6-.58,7.37,7.37,0,0,1,2.78.51,6.25,6.25,0,0,1,2.15,1.43,6.6,6.6,0,0,1,1.39,2.16,7.63,7.63,0,0,1,0,5.43,6.74,6.74,0,0,1-1.37,2.16,6.25,6.25,0,0,1-2.07,1.43,6.42,6.42,0,0,1-2.55.51,6,6,0,0,1-3.07-.77,5.2,5.2,0,0,1-1.75-1.57v8.2Zm6.76-17.29a4.43,4.43,0,0,0-1.81.36,4.17,4.17,0,0,0-2.27,2.42,5.57,5.57,0,0,0,0,3.63,4.17,4.17,0,0,0,2.27,2.43,4.79,4.79,0,0,0,3.62,0,4.25,4.25,0,0,0,1.38-1,4.21,4.21,0,0,0,.88-1.45,5.55,5.55,0,0,0,0-3.63,4.17,4.17,0,0,0-2.27-2.42A4.45,4.45,0,0,0,144.44,62.83Z"/><path class="cls-6" d="M154.39,73.92V64.08q0-.87-.05-1.62t-.05-1.4v-.13h2.28v.13c0,.34,0,.68,0,1s0,.44,0,.66a3.69,3.69,0,0,1,.44-.58,4.6,4.6,0,0,1,1-.8,5.12,5.12,0,0,1,1.26-.56,5.22,5.22,0,0,1,1.51-.21l.45,0a2.07,2.07,0,0,1,.47.12l.09,0-.15,2.41-.16,0a3.86,3.86,0,0,0-1.1-.16,3.11,3.11,0,0,0-2.73,1.21,5.87,5.87,0,0,0-.86,3.39v6.33Z"/><path class="cls-6" d="M164.15,73.92v-13h2.38v13Zm1.19-16.15a1.68,1.68,0,0,1-1.2-2.86,1.67,1.67,0,0,1,2.39,0,1.66,1.66,0,0,1-1.19,2.86Z"/><path class="cls-6" d="M179.45,73.92V66.15a4,4,0,0,0-.68-2.45,2.48,2.48,0,0,0-2.1-.87,4,4,0,0,0-1.72.34,3,3,0,0,0-1.17,1,4.41,4.41,0,0,0-.69,1.5,7.85,7.85,0,0,0-.23,2v6.33h-2.38V64.08q0-.87-.05-1.62t-.05-1.4v-.13h2.28v.13c0,.34,0,.68,0,1s0,.44,0,.66a3.72,3.72,0,0,1,.44-.58,4.58,4.58,0,0,1,1-.8,5.12,5.12,0,0,1,1.25-.56,5.23,5.23,0,0,1,1.51-.21,5.75,5.75,0,0,1,2.21.39,4.24,4.24,0,0,1,1.56,1.09,4.45,4.45,0,0,1,.91,1.7,7.53,7.53,0,0,1,.29,2.14v8Z"/><path class="cls-6" d="M191.49,80.44a10.13,10.13,0,0,1-3.43-.55A8.17,8.17,0,0,1,185.14,78l-.09-.09,1.7-1.94.1.11A7.3,7.3,0,0,0,189,77.67a5.7,5.7,0,0,0,2.54.54,5.64,5.64,0,0,0,2.3-.41,3.62,3.62,0,0,0,1.43-1.1,4.23,4.23,0,0,0,.74-1.6,8.27,8.27,0,0,0,.22-1.9V71.92a4.55,4.55,0,0,1-1.85,1.57,6,6,0,0,1-2.56.58,7.64,7.64,0,0,1-2.79-.5,6.56,6.56,0,0,1-2.19-1.39,6.19,6.19,0,0,1-1.42-2.11,7,7,0,0,1-.5-2.66,7.79,7.79,0,0,1,.5-2.85,6,6,0,0,1,1.4-2.15,6.2,6.2,0,0,1,2.18-1.35,8.11,8.11,0,0,1,2.82-.47,6,6,0,0,1,1.33.15,5.61,5.61,0,0,1,1.29.47,4.7,4.7,0,0,1,1.13.81,4.35,4.35,0,0,1,.65.79V60.93h2.38V73.21a7.39,7.39,0,0,1-1.82,5.38A7.07,7.07,0,0,1,191.49,80.44Zm.27-17.61a4.36,4.36,0,0,0-1.78.36,4,4,0,0,0-1.37,1,4.51,4.51,0,0,0-.89,1.45,5.07,5.07,0,0,0-.32,1.81,4.38,4.38,0,0,0,2.67,4.09,4.2,4.2,0,0,0,1.69.34,4.53,4.53,0,0,0,1.88-.37,4.13,4.13,0,0,0,2.24-2.41,5,5,0,0,0,.29-1.71,5.15,5.15,0,0,0-.32-1.84,4.22,4.22,0,0,0-.9-1.44,4,4,0,0,0-1.39-.93A4.79,4.79,0,0,0,191.76,62.83Z"/><path class="cls-6" d="M205.87,74.24a7.34,7.34,0,0,1-2.87-.51,5.25,5.25,0,0,1-2.19-1.91l-.07-.1,1.89-1.46.08.1A5.28,5.28,0,0,0,204,71.58a3.42,3.42,0,0,0,1.82.44,4.58,4.58,0,0,0,1-.11,2.82,2.82,0,0,0,.87-.34,1.9,1.9,0,0,0,.61-.57,1.43,1.43,0,0,0,.22-.81,1.3,1.3,0,0,0-.21-.77,1.9,1.9,0,0,0-.57-.52,3.37,3.37,0,0,0-.84-.35c-.32-.09-.66-.17-1-.24-.6-.13-1.18-.27-1.72-.44a5.7,5.7,0,0,1-1.46-.65,3.15,3.15,0,0,1-1-1.06,3.29,3.29,0,0,1-.38-1.67,3.35,3.35,0,0,1,.43-1.7,3.68,3.68,0,0,1,1.13-1.21,5.47,5.47,0,0,1,1.56-.72,6.39,6.39,0,0,1,1.78-.25,6,6,0,0,1,2.57.56A4.06,4.06,0,0,1,210.66,63l.06.11-2,1.31-.07-.12a3.16,3.16,0,0,0-1-1.06,2.84,2.84,0,0,0-1.55-.4,3.64,3.64,0,0,0-.85.1,2.65,2.65,0,0,0-.76.31,1.77,1.77,0,0,0-.54.52,1.2,1.2,0,0,0-.21.7.86.86,0,0,0,.23.6,2.15,2.15,0,0,0,.67.47,6,6,0,0,0,1,.37,12.25,12.25,0,0,0,1.2.27,12.61,12.61,0,0,1,1.62.43,4.81,4.81,0,0,1,1.37.71,3.24,3.24,0,0,1,.94,1.13,3.72,3.72,0,0,1,.34,1.66,3.82,3.82,0,0,1-.45,1.91,3.74,3.74,0,0,1-1.2,1.28,5.21,5.21,0,0,1-1.67.71A8.2,8.2,0,0,1,205.87,74.24Z"/><path class="cls-5" d="M192.29,85.22a.07.07,0,0,1,.06.06v.61a.07.07,0,0,1-.06.06h-.89v2.69a.07.07,0,0,1-.06.06h-.69a.07.07,0,0,1-.06-.06V86h-.89a.07.07,0,0,1-.06-.06v-.61a.07.07,0,0,1,.06-.06Zm3.71,0h-.06l0,0L194.32,87l-1.59-1.75,0,0h-.05a.06.06,0,0,0-.06.06v3.37a.06.06,0,0,0,.06.06h.66a.06.06,0,0,0,.06-.06V87.4c0-.11,0-.25,0-.36.07.09.16.21.23.29l.66.74,0,0h.06l0,0,.66-.74.23-.29c0,.12,0,.25,0,.36v1.25a.06.06,0,0,0,.06.06H196a.06.06,0,0,0,.06-.06V85.29A.06.06,0,0,0,196,85.22Z"/></svg>