<svg xmlns="http://www.w3.org/2000/svg" viewBox="0 0 75 62.56"><defs><style>.cls-1{fill:#f2f2f2;}.cls-1,.cls-2,.cls-3,.cls-4{stroke:#333e48;stroke-linecap:round;stroke-linejoin:round;stroke-width:3px;}.cls-2{fill:#fff;}.cls-3{fill:none;}.cls-4{fill:#dee3e7;}</style></defs><title>aid-kit</title><g id="Layer_2" data-name="Layer 2"><g id="Layer_1-2" data-name="Layer 1"><path class="cls-1" d="M4.5,21.62h66a0,0,0,0,1,0,0V51.06a10,10,0,0,1-10,10h-46a10,10,0,0,1-10-10V21.62A0,0,0,0,1,4.5,21.62Z"/><circle class="cls-2" cx="37.5" cy="40.5" r="12.3"/><line class="cls-3" x1="37.5" y1="45.25" x2="37.5" y2="35.74"/><line class="cls-3" x1="32.74" y1="40.5" x2="42.26" y2="40.5"/><path class="cls-4" d="M4.5,10.66h66a3,3,0,0,1,3,3v7a1,1,0,0,1-1,1H2.5a1,1,0,0,1-1-1v-7A3,3,0,0,1,4.5,10.66Z"/><path class="cls-3" d="M27.3,1.5H47.7a3,3,0,0,1,3,3v6.16a0,0,0,0,1,0,0H24.3a0,0,0,0,1,0,0V4.5A3,3,0,0,1,27.3,1.5Z"/></g></g></svg>