<svg xmlns="http://www.w3.org/2000/svg" viewBox="0 0 75 72.59"><defs><style>.cls-1{fill:#f2f2f2;}.cls-1,.cls-2{stroke:#3c3b72;}.cls-1,.cls-2,.cls-3{stroke-linecap:round;stroke-linejoin:round;stroke-width:3px;}.cls-2{fill:none;}.cls-3{fill:#dee3e7;stroke:#333e48;}</style></defs><title>apron</title><g id="Layer_2" data-name="Layer 2"><g id="Layer_1-2" data-name="Layer 1"><path class="cls-1" d="M16.09,36.9V68.58a2.52,2.52,0,0,0,2.52,2.52H56.39a2.52,2.52,0,0,0,2.52-2.52V36.9A50.79,50.79,0,0,1,48.55,19.33H26.45A50.79,50.79,0,0,1,16.09,36.9Z"/><path class="cls-2" d="M35.22,1.5h4.56a8.78,8.78,0,0,1,8.78,8.78v9a0,0,0,0,1,0,0H26.44a0,0,0,0,1,0,0v-9A8.78,8.78,0,0,1,35.22,1.5Z"/><rect class="cls-3" x="28.32" y="36.86" width="18.37" height="17.83" rx="1" ry="1"/><path class="cls-2" d="M73.5,55.52H71.56a5,5,0,0,1-5-5V40.64a3.78,3.78,0,0,0-3.78-3.78H58.91"/><path class="cls-2" d="M1.5,55.52H3.44a5,5,0,0,0,5-5V40.64a3.78,3.78,0,0,1,3.78-3.78h3.83"/></g></g></svg>