<svg xmlns="http://www.w3.org/2000/svg" viewBox="0 0 276.87 178.59"><defs><style>.cls-1{opacity:0.3;}.cls-2{fill:none;stroke:#fff;stroke-linecap:round;stroke-linejoin:round;stroke-width:5px;}</style></defs><title>book</title><g id="Layer_2" data-name="Layer 2"><g id="Layer_1-2" data-name="Layer 1"><g class="cls-1"><path class="cls-2" d="M138.43,22.43A19.3,19.3,0,0,0,119.24,3L22.74,2.5,3.34,21.69,2.5,176.09"/><path class="cls-2" d="M138.43,22.43A19.29,19.29,0,0,0,119.24,3"/><path class="cls-2" d="M138.43,176.09a19.29,19.29,0,0,0-19.19-19.4"/><line class="cls-2" x1="119.24" y1="3.03" x2="22.74" y2="2.5"/><line class="cls-2" x1="22.74" y1="2.5" x2="21.9" y2="156.89"/><line class="cls-2" x1="21.9" y1="156.89" x2="119.24" y2="156.68"/><line class="cls-2" x1="2.5" y1="176.09" x2="3.34" y2="21.69"/><line class="cls-2" x1="3.34" y1="21.69" x2="22.74" y2="2.5"/><line class="cls-2" x1="2.5" y1="176.09" x2="21.9" y2="156.89"/><line class="cls-2" x1="2.5" y1="176.09" x2="138.43" y2="176.09"/><line class="cls-2" x1="138.43" y1="176.09" x2="138.43" y2="22.43"/><line class="cls-2" x1="51.38" y1="60.55" x2="109.28" y2="60.87"/><line class="cls-2" x1="51.48" y1="41.26" x2="109.38" y2="41.57"/><line class="cls-2" x1="51.27" y1="79.85" x2="109.17" y2="80.17"/><line class="cls-2" x1="51.17" y1="99.15" x2="109.07" y2="99.47"/><line class="cls-2" x1="51.06" y1="118.45" x2="108.96" y2="118.77"/><path class="cls-2" d="M138.43,22.43A19.3,19.3,0,0,1,157.63,3l96.5-.53,19.4,19.19.84,154.39"/><path class="cls-2" d="M138.43,22.43A19.29,19.29,0,0,1,157.63,3"/><path class="cls-2" d="M138.43,176.09a19.29,19.29,0,0,1,19.19-19.4"/><line class="cls-2" x1="157.63" y1="3.03" x2="254.12" y2="2.5"/><line class="cls-2" x1="254.12" y1="2.5" x2="254.96" y2="156.89"/><line class="cls-2" x1="254.96" y1="156.89" x2="157.63" y2="156.68"/><line class="cls-2" x1="274.37" y1="176.09" x2="273.53" y2="21.69"/><line class="cls-2" x1="273.53" y1="21.69" x2="254.12" y2="2.5"/><line class="cls-2" x1="274.37" y1="176.09" x2="254.96" y2="156.89"/><line class="cls-2" x1="274.37" y1="176.09" x2="138.43" y2="176.09"/><line class="cls-2" x1="138.43" y1="176.09" x2="138.43" y2="22.43"/><line class="cls-2" x1="225.49" y1="60.55" x2="167.59" y2="60.87"/><line class="cls-2" x1="225.39" y1="41.26" x2="167.49" y2="41.57"/><line class="cls-2" x1="225.6" y1="79.85" x2="167.7" y2="80.17"/><line class="cls-2" x1="225.7" y1="99.15" x2="167.8" y2="99.47"/><line class="cls-2" x1="225.81" y1="118.45" x2="167.91" y2="118.77"/></g></g></g></svg>