<svg width="389" height="373" viewBox="0 0 389 373" fill="none" xmlns="http://www.w3.org/2000/svg">
<path fill-rule="evenodd" clip-rule="evenodd" d="M109.124 37.521C108.788 37.6742 108.496 37.9105 108.277 38.2075C108.057 38.5045 107.917 38.8525 107.869 39.2187C108.137 42.2658 105.692 42.2586 103.922 42.0482C99.1193 41.4823 94.447 44.2972 89.6079 42.3311C88.7808 41.9974 87.4314 42.6794 86.4011 43.0058C84.094 43.7313 81.8232 44.5294 79.5088 45.1824C71.7677 47.5112 63.8234 50.0723 58.2442 55.724C48.3846 65.7142 39.3811 76.4154 33.2215 89.0174C30.958 93.6462 28.7016 98.3982 25.6182 102.548C17.3547 113.648 13.894 126.628 10.0997 139.273C6.32702 151.708 4.36815 164.666 2.11908 177.493C-0.0836327 189.288 -0.572342 201.34 0.668072 213.275C3.20009 235.671 6.17466 257.901 17.9134 278.157C28.3969 296.295 41.7753 312.031 59.1656 324.393C80.2053 339.332 103.617 349.597 129.591 354.001C137.767 355.38 146.139 355.931 154.446 356.388C165.01 356.969 175.595 357.172 186.18 357.317C190.852 357.382 195.691 357.513 200.19 356.519C208.896 354.589 217.486 351.919 226.097 349.496C251.555 342.342 273.342 328.87 292.372 311.958C304.133 301.511 313.339 288.466 323.627 276.532C324.702 275.166 325.585 273.66 326.253 272.055C332.369 258.96 338.174 245.719 344.594 232.762C353.707 214.356 354.708 194.782 354.802 175.004C354.802 168.605 354.802 162.192 354.802 154.291C357.305 141.958 352.872 129.624 346.386 117.515C334.401 95.3511 317.576 77.0031 297.4 61.4772C277.928 46.4738 255.168 36.9914 231.814 28.7714C219.873 24.5707 207.51 21.9154 194.814 21.9807C183.568 22.0387 172.323 23.214 161.114 24.4619C143.201 26.4861 126.362 32.7835 109.124 37.521ZM257.555 260.745L247.717 270.938L241.913 264.133L256.801 259.62C257.062 259.997 257.301 260.382 257.555 260.745ZM75.9393 243.528C70.9116 244.45 66.2829 243.942 61.2696 240.518C68.1401 237.434 71.6226 241.918 75.9393 243.528ZM271.238 164.717H253.638C258.085 162.156 263.171 162.315 271.238 164.717ZM292.111 153.682C286.401 156.119 280.779 154.625 275.134 154.248C269.642 153.878 264.143 153.66 258.651 153.065C269.831 153.312 281.033 151.143 292.111 153.682ZM228.267 144.091C228.267 144.178 228.267 144.257 228.267 144.345H216.869C216.869 144.257 216.869 144.178 216.869 144.091H228.267ZM193.834 142.64L193.508 143.235H180.695C180.695 143.039 180.695 142.835 180.695 142.64H193.834ZM174.732 141.493C174.732 141.653 174.732 141.813 174.732 141.979H166.171C166.171 141.82 166.171 141.66 166.171 141.493H174.732ZM279.988 133.019C279.908 132.599 279.828 132.171 279.749 131.742L285.712 130.814C283.572 134.231 281.526 132.483 279.988 133.019ZM267.001 106.321L260.378 107.917C262.902 105.392 263.628 102.04 266.965 106.321H267.001ZM223.471 94.9884C219.727 96.8166 205.776 97.4623 196.185 96.1056C204.934 93.1238 213.967 95.1117 223.471 94.9884V94.9884ZM172.729 95.5252H156.289C163.501 89.9243 165.51 89.83 172.729 95.5252V95.5252ZM225.691 80.558C217.515 81.0296 210.455 82.5894 203.462 79.6874C208.475 75.4214 214.925 75.6464 225.706 80.558H225.691ZM249.241 69.2184C232.997 64.6767 216.898 59.5474 199.703 58.6768C217.594 56.5003 234.18 59.8013 249.256 69.2184H249.241Z" fill="white"/>
<path d="M118.113 370.006H81.1123C79.8622 370.004 78.6638 369.507 77.7798 368.623C76.8959 367.739 76.3984 366.54 76.3965 365.29V288.387C76.3984 287.137 76.8959 285.938 77.7798 285.054C78.6638 284.17 79.8622 283.673 81.1123 283.671H118.113C119.363 283.673 120.562 284.17 121.446 285.054C122.329 285.938 122.827 287.137 122.829 288.387V365.29C122.827 366.54 122.329 367.739 121.446 368.623C120.562 369.507 119.363 370.004 118.113 370.006V370.006Z" fill="#FFCC66" stroke="#333E48" stroke-width="3" stroke-miterlimit="10"/>
<path d="M205.9 370.731H168.899C167.457 370.729 166.074 370.155 165.054 369.135C164.034 368.115 163.46 366.732 163.458 365.29V215.835C163.46 214.393 164.034 213.01 165.054 211.99C166.074 210.97 167.457 210.396 168.899 210.394H205.9C207.343 210.396 208.726 210.97 209.746 211.99C210.766 213.01 211.339 214.393 211.341 215.835V365.29C211.339 366.732 210.766 368.115 209.746 369.135C208.726 370.155 207.343 370.729 205.9 370.731V370.731Z" fill="#F2F2F2" stroke="#333E48" stroke-width="3" stroke-miterlimit="10"/>
<path d="M293.685 370.731H256.684C255.242 370.729 253.859 370.155 252.839 369.135C251.819 368.115 251.245 366.732 251.243 365.29V120.794C251.245 119.352 251.819 117.969 252.839 116.949C253.859 115.929 255.242 115.355 256.684 115.353H293.685C295.128 115.355 296.511 115.929 297.531 116.949C298.551 117.969 299.125 119.352 299.127 120.794V365.29C299.125 366.732 298.551 368.115 297.531 369.135C296.511 370.155 295.128 370.729 293.685 370.731V370.731Z" fill="#E6E6E6" stroke="#333E48" stroke-width="3" stroke-miterlimit="10"/>
<path d="M382.285 370.369H345.284C344.034 370.367 342.836 369.869 341.952 368.985C341.068 368.101 340.57 366.903 340.568 365.653V21.0376C340.57 19.7875 341.068 18.5891 341.952 17.7051C342.836 16.8212 344.034 16.3237 345.284 16.3218H382.285C383.535 16.3237 384.733 16.8212 385.617 17.7051C386.501 18.5891 386.999 19.7875 387.001 21.0376V365.653C386.999 366.903 386.501 368.101 385.617 368.985C384.733 369.869 383.535 370.367 382.285 370.369V370.369Z" fill="#FFCC66" stroke="#333E48" stroke-width="3" stroke-miterlimit="10"/>
<path d="M152.169 157.527C152.302 156.469 152.203 155.394 151.877 154.379C151.551 153.364 151.006 152.432 150.281 151.65C149.556 150.868 148.669 150.254 147.681 149.852C146.694 149.449 145.63 149.268 144.565 149.321L131.666 125.663L128.764 135.82L137.6 157.505C137.811 159.289 138.669 160.933 140.012 162.126C141.355 163.319 143.088 163.978 144.884 163.978C146.681 163.978 148.414 163.319 149.757 162.126C151.099 160.933 151.958 159.289 152.169 157.505V157.527Z" fill="#D0D0D0" stroke="#333E48" stroke-width="3" stroke-miterlimit="10"/>
<path d="M52.8027 250.936L59.9852 256.181L83.6367 230.97L73.0298 223.229L52.8027 250.936Z" fill="#D0D0D0" stroke="#333E48" stroke-width="3" stroke-miterlimit="10"/>
<path d="M68.9745 272.984L46.375 256.486L52.7449 247.78L66.6021 257.893C68.9176 259.58 70.4683 262.117 70.9132 264.947C71.3581 267.777 70.6608 270.668 68.9745 272.984Z" fill="#2F2E41" stroke="#333E48" stroke-width="3" stroke-miterlimit="10"/>
<path d="M90.8119 278.7H99.7066L103.936 244.391H90.8047L90.8119 278.7Z" fill="#D0D0D0" stroke="#333E48" stroke-width="3" stroke-miterlimit="10"/>
<path d="M116.858 286.957H88.9043V276.154H106.055C108.92 276.154 111.668 277.292 113.694 279.318C115.72 281.344 116.858 284.092 116.858 286.957V286.957Z" fill="#2F2E41" stroke="#333E48" stroke-width="3" stroke-miterlimit="10"/>
<path d="M117.526 144.888C117.526 144.888 121.879 186.968 110.996 215.988L103.016 271.126H89.231L90.6821 205.831L85.6035 147.79C85.6035 147.79 95.7606 121.672 117.526 144.888Z" fill="#2F2E41" stroke="#333E48" stroke-width="3" stroke-miterlimit="10"/>
<path d="M70.3676 147.79L84.8777 197.85L56.583 242.831L70.7304 254.802L103.015 204.379L93.5838 142.711L70.3676 147.79Z" fill="#2F2E41" stroke="#333E48" stroke-width="3" stroke-miterlimit="10"/>
<path d="M102.711 43.6148C113.121 43.6148 121.56 35.176 121.56 24.7661C121.56 14.3563 113.121 5.91748 102.711 5.91748C92.3011 5.91748 83.8623 14.3563 83.8623 24.7661C83.8623 35.176 92.3011 43.6148 102.711 43.6148Z" fill="#D0D0D0" stroke="#333E48" stroke-width="3" stroke-miterlimit="10"/>
<path d="M92.4952 42.2291C92.4952 42.2291 103.378 34.9741 115.711 50.9352L118.976 151.418C118.976 151.418 109.545 138.359 89.9559 150.692C70.3672 163.026 66.0142 149.241 66.0142 149.241C66.0142 149.241 52.2296 45.4939 92.4952 42.2291Z" fill="#CCCCCC" stroke="#333E48" stroke-width="3" stroke-miterlimit="10"/>
<path d="M114.833 50.6807C117.963 50.85 120.92 52.1705 123.135 54.3884C125.35 56.6063 126.667 59.5648 126.833 62.6951L129.133 106.436L144.368 147.79L135.662 155.045L107.367 105.71L101.563 65.1618C101.293 63.3012 101.44 61.4038 101.992 59.6066C102.544 57.8093 103.488 56.157 104.756 54.7689C106.024 53.3808 107.584 52.2914 109.324 51.5794C111.065 50.8675 112.941 50.5506 114.818 50.6517L114.833 50.6807Z" fill="#CCCCCC" stroke="#333E48" stroke-width="3" stroke-miterlimit="10"/>
<path d="M88.8597 38.899C91.9431 42.1783 97.6601 40.4226 98.0664 35.9317C98.1 35.5843 98.1 35.2344 98.0664 34.887C97.856 32.8991 96.7097 31.0999 96.9854 29.0031C97.047 28.4791 97.2418 27.9796 97.5512 27.5521C100.003 24.2656 105.771 29.0031 108.086 26.0431C109.537 24.2148 107.839 21.3418 108.927 19.3031C110.378 16.6115 114.63 17.9392 117.3 16.4664C120.274 14.8268 120.093 10.2633 118.141 7.48464C115.754 4.09652 111.568 2.29001 107.433 2.03609C103.297 1.78216 99.1909 2.89944 95.3312 4.40849C90.9782 6.12069 86.6251 8.47858 83.8972 12.3383C80.6179 17.025 80.2697 23.3297 81.9384 28.8145C82.9396 32.1156 86.3422 36.2219 88.8597 38.899Z" fill="#2F2E41" stroke="#333E48" stroke-width="3" stroke-miterlimit="10"/>
</svg>
