<svg xmlns="http://www.w3.org/2000/svg" viewBox="0 0 45.77 47.53"><defs><style>.cls-1{fill:#fc6;fill-rule:evenodd;}</style></defs><title>circle</title><g id="Layer_2" data-name="Layer 2"><g id="Layer_1-2" data-name="Layer 1"><path class="cls-1" d="M18.19.23C17.11.33,16,.6,15,.78A16.58,16.58,0,0,0,3.74,7.55a17.56,17.56,0,0,0-3.32,9.7A12.58,12.58,0,0,1,.36,19.1a27.19,27.19,0,0,0,.2,9.79,21.21,21.21,0,0,0,3.73,8.44,36.59,36.59,0,0,0,6.81,7.09,10.72,10.72,0,0,0,5.62,2.52c1.48.19,3,.31,4.46.45a10.29,10.29,0,0,0,2,.14c2.1-.21,4.2-.45,6.29-.76,3.45-.52,6.21-2.41,8.78-4.63.14-.12.24-.28.37-.41a17.13,17.13,0,0,0,2.79-4A13.53,13.53,0,0,0,42.55,35a10.68,10.68,0,0,1,1-2.52,16.51,16.51,0,0,0,2.08-10.55A31,31,0,0,0,41.44,9.35,16.78,16.78,0,0,0,28.76.78C27.86.66,26.95.65,26,.55,24.48.38,22.93.18,21.38,0l0,.21C20.3.21,19.24.14,18.19.23ZM8.66,4.14c-.51.46-.89.84-1.3,1.17a15.58,15.58,0,0,0-4.89,7.51c-.36,1.06-.76,2.12-1.14,3.17C1.33,11.79,5.41,5.23,8.66,4.14ZM5.39,8.54l.16.15-1.14,2A3.3,3.3,0,0,1,5.39,8.54ZM3.3,13.69,1.93,18.53A9.3,9.3,0,0,1,3.3,13.69Zm1.22.22C5.23,12.47,6,11.08,6.78,9.66A3.19,3.19,0,0,1,8.51,8.25l-1,1.25a15.43,15.43,0,0,0-3.12,7.59c-.25,1.87-.48,3.74-.77,5.61A13.52,13.52,0,0,1,4.53,13.9ZM3.61,27.67a9.76,9.76,0,0,1-.93-8.13C2.67,22.44,3.8,25,3.61,27.67Zm-2.85-6a5,5,0,0,1,.56,2.55A23.67,23.67,0,0,0,2.74,33c.21.64.49,1.25.74,1.87C.91,30.78.47,26.28.76,21.63ZM2,26A47.53,47.53,0,0,1,5.21,36.07C2.8,33.1,2.25,29.58,2,26Zm2.45,2.77C5.9,33.67,9.57,36.93,13,40.53a5.47,5.47,0,0,1-3.23-1.72A23.44,23.44,0,0,1,5.4,32.15a6.94,6.94,0,0,1-1-3.1C4.42,28.95,4.45,28.84,4.46,28.73Zm2,8.42c-.43-1.08-.82-2.18-1.22-3.27l.14-.11L8.47,38.6A2.54,2.54,0,0,1,6.5,37.15Zm-1.4.37a2.81,2.81,0,0,1,1.8,2.28Zm2.56,1.83a6.41,6.41,0,0,1,3,1.83c1,1.3,2.27,2.45,3.33,3.58C11.49,44.21,9.25,42.22,7.66,39.36Zm10.45,6.71a12.27,12.27,0,0,1-6.72-5l1.34.87a16.42,16.42,0,0,0,7.8,2.6,31.93,31.93,0,0,1,4.7.91,16,16,0,0,1-5.1,1A6.36,6.36,0,0,1,18.11,46.07Zm6.77.58a9.32,9.32,0,0,1,4-1A10.25,10.25,0,0,1,24.88,46.64Zm8.62-1.71-1.58.7-.1-.22,1.6-.68ZM27,44.38l2.86-.55A3,3,0,0,1,27,44.38Zm13.81-9.51a10.47,10.47,0,0,1-4.36,5.05A25.71,25.71,0,0,1,29,43.27a21.08,21.08,0,0,1-5.54.52,5.64,5.64,0,0,1-1.28-.26c-1.37-.39-2.72-.84-4.1-1.18a11.44,11.44,0,0,1-5.57-3.11A43.69,43.69,0,0,1,7.11,33a24.13,24.13,0,0,1-2.83-7.2,1.64,1.64,0,0,1,0-.54,66.57,66.57,0,0,1,1.16-9.55A17.2,17.2,0,0,1,9.74,8.05c2.16-2.45,5-3.39,8.05-4.1a31.9,31.9,0,0,1,4.32-.65,10.62,10.62,0,0,1,5.3,1.08,34,34,0,0,1,6.85,3.86A8.27,8.27,0,0,1,36.68,11a36.61,36.61,0,0,1,2.87,7.79c.1.37.24.72.36,1.08l.35-.09a55.14,55.14,0,0,0-2-7.26c.13.17.27.33.4.51s.28.43.4.65a25.13,25.13,0,0,1,3.2,13.57A21.41,21.41,0,0,1,40.86,34.87ZM28.56,3.65a9.37,9.37,0,0,1,1,.41c.09,0,.09.25.12.4h0l.11,0h.94l0,.23-.93-.23h-.12v0L28.5,3.79Zm4.3,1.14c3.91,1.23,8.83,8.3,9.28,13.31-.4-1-.75-1.77-1-2.58a18.41,18.41,0,0,0-5.24-7.43A43.76,43.76,0,0,1,32.86,4.79Zm11,13a23.69,23.69,0,0,1,.08,9.67c-.07.28-.13.57-.21.85a5,5,0,0,1-.23.49c-.08-1.07-.18-1.92-.2-2.78,0-1.21,0-2.41,0-3.62A21.85,21.85,0,0,0,38.63,8.8l-.37-.49A15.47,15.47,0,0,1,43.87,17.8ZM40.65,9.35A28.13,28.13,0,0,0,32.3,2.63C34.76,3,39.2,6.6,40.65,9.35ZM7.79,7c.85-2.65,5.1-5.24,9.28-5.14C14.13,3.7,10.56,4.55,7.79,7Z"/><path class="cls-1" d="M29.86,4.5l-.11,0h0v0Z"/></g></g></svg>