<svg width="777" height="347" viewBox="0 0 777 347" fill="none" xmlns="http://www.w3.org/2000/svg">
<path d="M89.28 172.43C137.48 172.43 176.56 219.78 176.56 278.2C176.56 336.62 2 336.61 2 278.2C2 219.79 41.08 172.43 89.28 172.43Z" fill="#4D4D4D" stroke="#333E48" stroke-width="3" stroke-miterlimit="10"/>
<path d="M183.85 123.63V144.45L173.16 156.83C173.16 156.83 168.66 155.14 168.66 143.89L166.97 127.57L183.85 123.63Z" fill="#CECECE" stroke="#333E48" stroke-width="3" stroke-miterlimit="10"/>
<path d="M173.16 144.45C173.16 144.45 190.61 132.63 191.16 128.69C191.71 124.75 216.5 106.74 212.56 118C208.62 129.26 196.23 134.35 196.23 134.35C196.23 134.35 186.66 160.24 178.23 159.68C169.8 159.12 169.78 148.35 173.16 144.45Z" fill="#CECECE" stroke="#333E48" stroke-width="3" stroke-miterlimit="10"/>
<path d="M163.03 271.08L161.34 281.21L170.35 278.96V271.08H163.03Z" fill="#CECECE" stroke="#333E48" stroke-width="3" stroke-miterlimit="10"/>
<path d="M164.72 276.71C164.72 276.71 175.13 270.54 175.5 273.35C175.87 276.16 180.43 286.84 182.68 287.97C184.93 289.1 187.75 301.48 182.68 300.91C178.76 300.47 164.37 292.91 158.08 289.58C157.306 289.163 156.722 288.465 156.446 287.63C156.171 286.795 156.226 285.886 156.6 285.09C156.968 284.406 157.222 283.666 157.35 282.9C157.4 281.77 164.72 276.71 164.72 276.71Z" fill="#303030" stroke="#333E48" stroke-width="3" stroke-miterlimit="10"/>
<path d="M159.65 162.46C159.65 162.46 200.73 181.6 196.8 196.23C192.87 210.86 178.23 272.77 178.23 272.77C178.23 272.77 161.91 276.71 160.78 272.77C159.65 268.83 171.47 207.48 170.35 205.23C169.23 202.98 148.4 188.35 148.4 188.35L105.63 170.35L123.63 153.47L159.65 162.46Z" fill="#666666" stroke="#333E48" stroke-width="3" stroke-miterlimit="10"/>
<path d="M190.61 274.46L195.67 287.4L186.67 291.34L181.04 281.21L190.61 274.46Z" fill="#CECECE" stroke="#333E48" stroke-width="3" stroke-miterlimit="10"/>
<path d="M160.22 70.1601C160.22 70.1601 155.15 76.9101 159.09 80.2901C163.03 83.6701 160.22 96.0501 160.22 96.0501L155.15 110.12L134.89 106.18V83.1001L136.02 71.8401C136.02 71.8401 146.15 62.2701 147.28 54.9601C148.41 47.6501 160.22 70.1601 160.22 70.1601Z" fill="#CECECE" stroke="#333E48" stroke-width="3" stroke-miterlimit="10"/>
<path opacity="0.1" d="M160.22 70.1601C160.22 70.1601 155.15 76.9101 159.09 80.2901C163.03 83.6701 160.22 96.0501 160.22 96.0501L155.15 110.12L134.89 106.18V83.1001L136.02 71.8401C136.02 71.8401 146.15 62.2701 147.28 54.9601C148.41 47.6501 160.22 70.1601 160.22 70.1601Z" fill="black" stroke="#333E48" stroke-width="3" stroke-miterlimit="10"/>
<path d="M126.45 157.96C126.45 157.96 152.9 187.22 152.9 188.35C152.9 189.48 166.97 212.55 166.97 212.55L194.5 273.9C194.5 273.9 183.81 288.53 179.3 287.41C174.79 286.29 142.72 221 142.72 221C142.72 221 137.09 206.37 121.9 203C106.71 199.63 94.9 187.8 100.51 174.3C106.12 160.8 126.45 157.96 126.45 157.96Z" fill="#666666" stroke="#333E48" stroke-width="3" stroke-miterlimit="10"/>
<path d="M160.22 74.1001C170.167 74.1001 178.23 66.0367 178.23 56.0901C178.23 46.1434 170.167 38.0801 160.22 38.0801C150.273 38.0801 142.21 46.1434 142.21 56.0901C142.21 66.0367 150.273 74.1001 160.22 74.1001Z" fill="#CECECE" stroke="#333E48" stroke-width="3" stroke-miterlimit="10"/>
<path d="M159.65 85.3502C159.65 85.3502 157.4 98.3502 155.15 99.4302C152.9 100.51 151.21 104.5 146.15 98.8702C141.09 93.2402 136.58 81.9902 136.58 81.9902L119.13 103.35L117.44 162.44C117.44 162.44 137.14 157.37 143.33 162.44C149.52 167.51 163.03 166.94 163.03 166.94L160.22 155.68L162.5 136.57L161.94 119.12L161.38 106.74L159.65 85.3502Z" fill="#F2F2F2" stroke="#333E48" stroke-width="3" stroke-miterlimit="10"/>
<path d="M157.67 75.8801C157.67 75.8801 165.28 79.7301 165.84 81.9801C166.4 84.2301 176.5 88.7301 176.5 88.7301C176.5 88.7301 180.5 92.6701 180.5 94.9201C180.5 97.1701 166.99 123.06 166.99 123.06C166.99 123.06 164.18 140.51 165.3 143.88C166.42 147.25 163.05 160.2 163.05 160.2L169.8 168.08H163.61C163.61 168.08 156.86 164.7 156.86 163.01C156.86 161.32 157.99 149.5 158.55 144.44C159.11 139.38 159.11 121.37 157.99 115.17C156.87 108.97 157.43 92.6601 157.43 88.7201C157.43 84.7801 157.67 75.8801 157.67 75.8801Z" fill="#404040" stroke="#333E48" stroke-width="3" stroke-miterlimit="10"/>
<path d="M140.24 67.3501C140.24 67.3501 137.71 67.9201 130.39 70.1701C123.07 72.4201 111.82 75.8001 107.88 80.3001C105.114 83.6287 102.663 87.2074 100.56 90.9901L102.81 131.51C102.81 131.51 98.3102 139.95 98.8702 144.45C99.4302 148.95 103.94 149.52 100.56 159.08C97.1802 168.64 90.4302 177.08 96.6202 178.22C102.81 179.36 119.13 175.41 126.45 177.66C133.77 179.91 142.21 169.22 142.21 169.22C142.21 169.22 130.95 170.35 132.64 165.84C134.33 161.33 152.9 110.69 148.96 99.4301C145.02 88.1701 140.24 67.3501 140.24 67.3501Z" fill="#404040" stroke="#333E48" stroke-width="3" stroke-miterlimit="10"/>
<path d="M177.66 92.1101L180.5 94.3501C180.5 94.3501 188.38 122.49 186.13 125.35C183.88 128.21 165.87 134.35 164.74 130.42C163.61 126.49 177.66 92.1101 177.66 92.1101Z" fill="#404040" stroke="#333E48" stroke-width="3" stroke-miterlimit="10"/>
<path d="M94.3702 111.81C94.3702 111.81 85.9302 136.01 85.9302 142.81C85.9302 149.61 87.0602 188.96 87.0602 188.96C87.0602 188.96 87.6202 205.84 99.4402 199.09C111.26 192.34 99.4402 187.83 99.4402 187.83C99.4402 187.83 100 143.35 104.5 137.13C109 130.91 110.69 121.93 110.69 121.93L94.3702 111.81Z" fill="#CECECE" stroke="#333E48" stroke-width="3" stroke-miterlimit="10"/>
<path d="M186.67 286.84C186.67 286.84 195.11 282.34 196.8 285.71C198.49 289.08 207.49 307.66 206.37 309.91C205.25 312.16 199.05 321.17 191.74 318.91C184.43 316.65 183.86 304.84 183.86 304.84L183.29 291.35L186.67 286.84Z" fill="#303030" stroke="#333E48" stroke-width="3" stroke-miterlimit="10"/>
<path d="M163.74 51.7401C162.5 52.3201 161.03 52.6701 160.25 53.8001C159.814 54.7173 159.46 55.671 159.19 56.6501C158.734 57.5696 157.942 58.2785 156.978 58.6303C156.014 58.9821 154.951 58.9498 154.01 58.5401C153.781 57.4177 153.129 56.4261 152.19 55.7701C151.716 55.4572 151.154 55.3048 150.587 55.3354C150.02 55.366 149.478 55.578 149.04 55.9401C147.88 57.0501 148.29 58.9401 147.75 60.4801C147.247 61.5561 146.549 62.5293 145.69 63.3501C144.46 64.7701 143.48 66.4401 141.99 67.5901C140.5 68.7401 138.26 69.2501 136.78 68.0801C136.211 67.5279 135.799 66.8334 135.588 66.0685C135.377 65.3037 135.374 64.4964 135.58 63.7301C135.88 62.1801 136.58 60.7301 137.05 59.2201C138.42 54.2201 136.24 48.9801 136.91 43.8801C137.79 37.3501 143.34 32.1801 149.5 29.9401C152.078 28.8913 154.9 28.5931 157.64 29.0801C160.47 29.7101 162.89 31.5201 165.64 32.5501C168.54 33.6501 171.69 33.8501 174.73 34.4901C177.77 35.1301 180.89 36.3801 182.65 38.9401C183.88 40.7201 184.3 42.9401 185.32 44.8401C186.493 47.0222 188.393 48.7242 190.69 49.6501L187.5 49.4601C188.039 50.8922 188.918 52.1721 190.06 53.1901C188.556 53.4958 186.993 53.288 185.62 52.6001C185.646 53.2597 185.806 53.907 186.092 54.5021C186.377 55.0972 186.782 55.6274 187.28 56.0601C184.81 55.9901 182.21 55.8701 180.12 54.5501C179.12 53.9001 178.26 53.0001 177.3 52.2701C175.15 50.841 172.752 49.8237 170.23 49.2701C168.93 48.9001 167.36 48.3801 166.23 49.2101C165.16 49.8901 165.01 51.1401 163.74 51.7401Z" fill="#303030" stroke="#333E48" stroke-width="3" stroke-miterlimit="10"/>
<path d="M109 84.2302L100.56 90.9802L89.2998 116.87C89.2998 116.87 105.06 129.25 109 127.56C112.94 125.87 119.69 96.0502 119.69 96.0502L109 84.2302Z" fill="#404040" stroke="#333E48" stroke-width="3" stroke-miterlimit="10"/>
<path d="M235.62 115.12L200.1 134.63C199.894 134.768 199.661 134.859 199.416 134.896C199.172 134.934 198.922 134.917 198.684 134.848C198.447 134.778 198.227 134.657 198.042 134.493C197.856 134.329 197.709 134.127 197.61 133.9L188.91 115.71C188.744 115.191 188.77 114.63 188.983 114.129C189.195 113.628 189.581 113.22 190.07 112.98L219.56 97.78C219.923 97.56 220.355 97.4822 220.773 97.5616C221.19 97.641 221.563 97.8719 221.82 98.21L236.55 112.09C236.694 112.342 236.786 112.619 236.821 112.907C236.857 113.195 236.835 113.486 236.757 113.765C236.678 114.044 236.546 114.305 236.366 114.533C236.186 114.76 235.964 114.949 235.71 115.09L235.62 115.12Z" fill="#303030" stroke="#333E48" stroke-width="3" stroke-miterlimit="10"/>
<path d="M233.25 112.43L199.95 131.47L191.08 115.5L219.65 99.9602L233.25 112.43Z" fill="#FFCC66" stroke="#333E48" stroke-width="3" stroke-miterlimit="10"/>
<path d="M205.313 106.93C205.486 106.723 205.482 106.434 205.304 106.285C205.126 106.137 204.841 106.185 204.668 106.392C204.495 106.6 204.498 106.889 204.676 107.038C204.855 107.186 205.14 107.138 205.313 106.93Z" fill="#F2F2F2" stroke="#333E48" stroke-width="3" stroke-miterlimit="10"/>
<path d="M217.56 123.178C217.677 123.038 217.676 122.845 217.557 122.746C217.438 122.647 217.247 122.68 217.13 122.82C217.014 122.96 217.015 123.153 217.134 123.252C217.253 123.351 217.444 123.318 217.56 123.178Z" fill="#F2F2F2"/>
<path d="M619.56 0H298.84V170.3H619.56V0Z" fill="#F2F2F2"/>
<path opacity="0.3" d="M356.52 95.42C369.477 95.42 379.98 84.9166 379.98 71.96C379.98 59.0034 369.477 48.5 356.52 48.5C343.563 48.5 333.06 59.0034 333.06 71.96C333.06 84.9166 343.563 95.42 356.52 95.42Z" fill="#777777"/>
<path d="M451.13 95.42C464.087 95.42 474.59 84.9166 474.59 71.96C474.59 59.0034 464.087 48.5 451.13 48.5C438.173 48.5 427.67 59.0034 427.67 71.96C427.67 84.9166 438.173 95.42 451.13 95.42Z" fill="#FFCC66"/>
<path d="M545.73 95.42C558.686 95.42 569.19 84.9166 569.19 71.96C569.19 59.0034 558.686 48.5 545.73 48.5C532.773 48.5 522.27 59.0034 522.27 71.96C522.27 84.9166 532.773 95.42 545.73 95.42Z" fill="#FFCC66"/>
<path opacity="0.3" d="M388.19 113.01H324.08V119.26H388.19V113.01Z" fill="#777777"/>
<path opacity="0.3" d="M483.57 113.01H419.46V119.26H483.57V113.01Z" fill="#777777"/>
<path d="M578.96 113.01H514.85V119.26H578.96V113.01Z" fill="#777777"/>
<path d="M559.61 95.0899C572.567 95.0899 583.07 84.5865 583.07 71.6299C583.07 58.6733 572.567 48.1699 559.61 48.1699C546.654 48.1699 536.15 58.6733 536.15 71.6299C536.15 84.5865 546.654 95.0899 559.61 95.0899Z" fill="#777777"/>
<path d="M642.05 289.18C665.384 289.18 684.3 267.726 684.3 241.26C684.3 214.795 665.384 193.34 642.05 193.34C618.716 193.34 599.8 214.795 599.8 241.26C599.8 267.726 618.716 289.18 642.05 289.18Z" fill="#363636" stroke="#333E48" stroke-width="3" stroke-miterlimit="10"/>
<path d="M660.61 154.56L597.11 156.56C597.11 156.56 531.97 217.7 578.37 234.3C578.37 234.3 644.49 237.15 658.17 226.41C658.17 226.35 675.26 158.96 660.61 154.56ZM657.68 172.63L589.79 177.03C589.79 177.03 594.67 160.42 614.21 160.42C633.75 160.42 655.73 156.02 657.68 166.28C659.63 176.54 657.68 172.63 657.68 172.63Z" fill="#404040" stroke="#333E48" stroke-width="3" stroke-miterlimit="10"/>
<path d="M725.57 193.15L642.04 190.22L661.58 107.67C661.58 107.67 739.73 101.81 737.78 121.84C735.83 141.87 725.57 193.15 725.57 193.15Z" fill="#363636" stroke="#333E48" stroke-width="3" stroke-miterlimit="10"/>
<path d="M644.94 232.61C644.94 232.61 594.67 241.51 576.6 215.13C558.53 188.75 644.98 202.92 644.98 202.92L652.31 222.92L644.94 232.61Z" fill="#363636" stroke="#333E48" stroke-width="3" stroke-miterlimit="10"/>
<path d="M629.84 344.57C642.52 344.57 652.8 334.29 652.8 321.61C652.8 308.929 642.52 298.65 629.84 298.65C617.159 298.65 606.88 308.929 606.88 321.61C606.88 334.29 617.159 344.57 629.84 344.57Z" fill="#363636" stroke="#333E48" stroke-width="3" stroke-miterlimit="10"/>
<path d="M632.04 338.22C639.998 338.22 646.45 330.783 646.45 321.61C646.45 312.437 639.998 305 632.04 305C624.081 305 617.63 312.437 617.63 321.61C617.63 330.783 624.081 338.22 632.04 338.22Z" fill="#404040" stroke="#333E48" stroke-width="3" stroke-miterlimit="10"/>
<path d="M755.37 105.23C755.37 105.23 736.37 94.4801 735.37 119.88L719.22 238.09H726.06L744.62 111.58C744.62 111.58 753.9 113.05 755.37 113.05C756.84 113.05 755.37 105.23 755.37 105.23Z" fill="#404040" stroke="#333E48" stroke-width="3" stroke-miterlimit="10"/>
<path d="M774.35 118.27C774.178 118.899 773.873 119.485 773.456 119.987C773.039 120.489 772.519 120.895 771.932 121.18C771.344 121.464 770.703 121.619 770.051 121.634C769.398 121.65 768.75 121.526 768.15 121.27L746.05 111.82L750.05 102.99L771.83 112.91C772.818 113.359 773.614 114.144 774.076 115.126C774.537 116.109 774.635 117.223 774.35 118.27Z" fill="#363636" stroke="#333E48" stroke-width="3" stroke-miterlimit="10"/>
<path d="M640.1 229.78C640.1 229.78 604.93 225.87 595.16 259.58C585.39 293.29 586.37 319.17 578.06 317.22C569.75 315.27 552.17 308.43 552.17 308.43L553.64 318.69C553.64 318.69 584.41 334.32 589.3 317.69C594.19 301.06 597.12 240.03 624.96 241.49C652.8 242.95 657.69 240.02 657.69 240.02L640.1 229.78Z" fill="#404040" stroke="#333E48" stroke-width="3" stroke-miterlimit="10"/>
<path d="M573.18 213.66C573.18 213.66 545.83 217.08 535.08 237.11C524.33 257.14 518.96 293.28 518.96 293.28H529.22C529.22 293.28 535.08 221.48 565.85 225.39L573.18 213.66Z" fill="#404040" stroke="#333E48" stroke-width="3" stroke-miterlimit="10"/>
<path d="M554.62 325.52L511.14 298.65C511.14 298.65 508.7 288.88 536.54 284.97C536.54 284.97 589.18 303.38 584.11 310.29C579.04 317.2 561.94 327.96 554.62 325.52Z" fill="#363636" stroke="#333E48" stroke-width="3" stroke-miterlimit="10"/>
<path d="M635.33 171.11C636.67 172.57 661.33 196 661.33 196C661.33 196 658.85 212.35 632.5 214.35L588.57 217.73C588.57 217.73 580.27 248.2 570.4 257.94C560.53 267.68 565.06 268.22 561.4 272.94C557.74 277.66 562.9 278.94 557.27 279.42C551.64 279.9 540.03 273.08 539.9 267.82C539.897 265.975 540.309 264.152 541.107 262.488C541.906 260.825 543.069 259.362 544.51 258.21C545.97 256.87 549.67 244.07 551.88 241.36C554.09 238.65 562.49 206.08 562.49 206.08C562.49 206.08 570.87 190.32 582.49 189.08C594.11 187.84 607.02 182.18 607.02 182.18" fill="#E6E6E6"/>
<path d="M635.33 171.11C636.67 172.57 661.33 196 661.33 196C661.33 196 658.85 212.35 632.5 214.35L588.57 217.73C588.57 217.73 580.27 248.2 570.4 257.94C560.53 267.68 565.06 268.22 561.4 272.94C557.74 277.66 562.9 278.94 557.27 279.42C551.64 279.9 540.03 273.08 539.9 267.82C539.897 265.975 540.309 264.152 541.107 262.488C541.906 260.825 543.069 259.362 544.51 258.21C545.97 256.87 549.67 244.07 551.88 241.36C554.09 238.65 562.49 206.08 562.49 206.08C562.49 206.08 570.87 190.32 582.49 189.08C594.11 187.84 607.02 182.18 607.02 182.18" stroke="#333E48" stroke-width="3" stroke-miterlimit="10"/>
<path d="M592.72 92.8901C592.72 92.8901 583.48 67.7701 577.15 75.7701C570.82 83.7701 587.33 96.9201 587.33 96.9201L592.72 92.8901Z" fill="#757575" stroke="#333E48" stroke-width="3" stroke-miterlimit="10"/>
<path d="M641.41 106L636.15 103.77C636.15 103.77 626.49 110.3 625.85 112.42C625.21 114.54 626.59 113.8 622.8 115.66C619.01 117.52 608.64 122.04 607.26 122.78C605.88 123.52 590.26 95.92 594.01 91.95C594.01 91.95 587.01 94.4699 583.85 93.5099C583.85 93.5099 591.79 131.99 593 137.21C594.21 142.43 597 143.04 602.28 143.21C607.56 143.38 639.5 134.07 639.5 134.07L641.41 106Z" fill="#999999" stroke="#333E48" stroke-width="3" stroke-miterlimit="10"/>
<path d="M559.06 271.4C559.06 271.4 558.79 276.86 559.71 277.49C560.63 278.12 566.25 291.4 557.58 292.68C548.91 293.96 544.14 292.29 542.04 293C539.94 293.71 505.36 290.85 505.63 285.39C505.9 279.93 523.19 281.39 523.19 281.39C523.19 281.39 540.32 273.3 543.52 268.25C546.72 263.2 559.06 271.4 559.06 271.4Z" fill="#666666" stroke="#333E48" stroke-width="3" stroke-miterlimit="10"/>
<path d="M576.91 300.16C576.91 300.16 571.65 323.08 567.79 322.84C563.93 322.6 536.69 309.35 533.34 306.73C529.04 303.36 529.21 297.4 534.15 298.65C539.09 299.9 553.06 298.78 555.43 296.26L561.54 289.77L576.91 300.16Z" fill="#666666" stroke="#333E48" stroke-width="3" stroke-miterlimit="10"/>
<path d="M630.83 172.84C632.27 174.2 676.11 211.38 676.11 211.38C676.11 211.38 674.86 227.87 648.72 231.81L605.15 238.35C605.15 238.35 599.08 269.35 589.95 279.77C580.82 290.19 585.37 290.41 582.02 295.41C578.67 300.41 583.95 301.3 578.37 302.17C572.79 303.04 560.71 297.1 560.2 291.87C560.062 290.03 560.342 288.182 561.017 286.464C561.692 284.747 562.746 283.204 564.1 281.95C565.46 280.51 568.21 267.47 570.23 264.61C572.25 261.75 578.23 228.61 578.23 228.61C578.23 228.61 585.5 212.35 596.95 210.28C608.4 208.21 620.95 201.61 620.95 201.61" fill="#E6E6E6"/>
<path d="M630.83 172.84C632.27 174.2 676.11 211.38 676.11 211.38C676.11 211.38 674.86 227.87 648.72 231.81L605.15 238.35C605.15 238.35 599.08 269.35 589.95 279.77C580.82 290.19 585.37 290.41 582.02 295.41C578.67 300.41 583.95 301.3 578.37 302.17C572.79 303.04 560.71 297.1 560.2 291.87C560.062 290.03 560.342 288.182 561.017 286.464C561.692 284.747 562.746 283.204 564.1 281.95C565.46 280.51 568.21 267.47 570.23 264.61C572.25 261.75 578.23 228.61 578.23 228.61C578.23 228.61 585.5 212.35 596.95 210.28C608.4 208.21 620.95 201.61 620.95 201.61" stroke="#333E48" stroke-width="3" stroke-miterlimit="10"/>
<path d="M682.07 84.4701C682.07 84.4701 678.95 97.1701 683.7 103.68C688.45 110.19 651.94 107.09 651.94 107.09C651.94 107.09 661.82 86.4901 658.17 81.6901C654.52 76.8901 682.07 84.4701 682.07 84.4701Z" fill="#757575" stroke="#333E48" stroke-width="3" stroke-miterlimit="10"/>
<path d="M635.41 104.43C631 109.11 632.5 135.68 632.5 135.68L635.32 159.4C635.32 159.4 631.95 163.7 633.05 165.4C634.15 167.1 635.95 168.81 632.48 169.62C629.01 170.43 620.99 171.72 623.55 175.49C624.389 176.559 625.287 177.581 626.24 178.55C627.06 179.41 628.03 180.42 629.13 181.55C631.71 184.15 634.99 187.36 638.63 190.73C639.664 191.69 640.72 192.663 641.8 193.65C655.68 206.21 672.94 219.5 676.51 213.12C682.51 202.44 686.64 200.91 686.37 191.82C686.1 182.73 693.79 159.35 693.79 159.35C693.79 159.35 702.74 119.52 690.13 107.65L688.13 104.5C687.215 103.032 685.861 101.89 684.26 101.235C682.659 100.58 680.892 100.445 679.21 100.85C673.05 102.32 663.62 104.35 659.53 104.02C653.21 103.51 654.6 100.91 654.6 100.91C654.6 100.91 639.82 99.75 635.41 104.43Z" fill="#999999" stroke="#333E48" stroke-width="3" stroke-miterlimit="10"/>
<path d="M615.92 189.35C615.92 189.35 590.2 195.73 593.98 204.72C597.76 213.71 619.98 197.28 619.98 197.28L615.92 189.35Z" fill="#757575" stroke="#333E48" stroke-width="3" stroke-miterlimit="10"/>
<path opacity="0.1" d="M645.82 170.64L629.14 181.56C632.45 184.91 636.92 189.23 641.8 193.66C646.43 191.17 651.15 188.47 655.38 185.76C670.84 175.84 684.09 150.93 690.02 138.85C695.95 126.77 691.12 117.46 691.12 117.46C687.187 115.717 683.024 114.545 678.76 113.98C671.03 112.81 645.82 170.64 645.82 170.64Z" fill="black" stroke="#333E48" stroke-width="3" stroke-miterlimit="10"/>
<path opacity="0.1" d="M643.61 167.2L626.24 178.57C627.06 179.43 628.03 180.44 629.13 181.57C631.71 184.17 634.99 187.38 638.63 190.75C643.56 188.12 648.63 185.23 653.17 182.33C668.63 172.41 681.88 147.5 687.81 135.42C693.74 123.34 677.81 127.67 677.81 127.67C677.81 127.67 686.1 123.92 678.36 122.75C670.62 121.58 643.61 167.2 643.61 167.2Z" fill="black" stroke="#333E48" stroke-width="3" stroke-miterlimit="10"/>
<path d="M690.36 115.35C690.36 115.35 695.19 124.66 689.26 136.74C683.33 148.82 670.07 173.74 654.62 183.65C639.17 193.56 617.05 203.35 617.05 203.35C617.05 203.35 614.95 191.86 611.41 190.57L645.06 168.57C645.06 168.57 670.27 110.74 678.01 111.91C682.27 112.463 686.428 113.622 690.36 115.35Z" fill="#999999" stroke="#333E48" stroke-width="3" stroke-miterlimit="10"/>
<path d="M622.02 238.09V295.23H628.37V237.11L622.02 238.09Z" fill="#404040" stroke="#333E48" stroke-width="3" stroke-miterlimit="10"/>
<path d="M631.3 273.25C631.3 273.25 643.51 321.12 635.7 327.96C635.7 327.96 625.44 297.68 617.63 301.58L620.07 273.25H631.3Z" fill="#363636" stroke="#333E48" stroke-width="3" stroke-miterlimit="10"/>
<path d="M726.06 169.21L662.56 171.21C662.56 171.21 606.39 225.92 652.79 242.52C652.79 242.52 709.94 251.8 723.62 241.05C723.62 241.02 740.72 173.61 726.06 169.21ZM723.13 187.28L655.24 191.68C655.24 191.68 660.12 175.07 679.66 175.07C699.2 175.07 721.18 170.67 723.13 180.93C725.08 191.19 723.13 187.28 723.13 187.28Z" fill="#404040" stroke="#333E48" stroke-width="3" stroke-miterlimit="10"/>
<path d="M711.65 344.57C746.853 344.57 775.39 312.205 775.39 272.28C775.39 232.355 746.853 199.99 711.65 199.99C676.448 199.99 647.91 232.355 647.91 272.28C647.91 312.205 676.448 344.57 711.65 344.57Z" fill="#4D4D4D" stroke="#333E48" stroke-width="3" stroke-miterlimit="10"/>
<path d="M714.58 326.01C741.15 326.01 762.69 301.954 762.69 272.28C762.69 242.606 741.15 218.55 714.58 218.55C688.009 218.55 666.47 242.606 666.47 272.28C666.47 301.954 688.009 326.01 714.58 326.01Z" fill="#808080" stroke="#333E48" stroke-width="3" stroke-miterlimit="10"/>
<path d="M671.18 92.2799C682.662 92.2799 691.97 82.9719 691.97 71.4899C691.97 60.0079 682.662 50.7 671.18 50.7C659.698 50.7 650.39 60.0079 650.39 71.4899C650.39 82.9719 659.698 92.2799 671.18 92.2799Z" fill="#757575" stroke="#333E48" stroke-width="3" stroke-miterlimit="10"/>
<path d="M682.68 79.1C682.17 78.48 682.68 77.57 683.12 76.9C685.51 73.32 685.96 68.22 683.34 64.8C682.3 63.5421 681.005 62.5195 679.54 61.8C677.477 60.7195 675.227 60.0408 672.91 59.8C671.677 59.7816 670.458 59.5411 669.31 59.09C668.59 58.72 665.16 57.52 664.43 57.18C662.82 56.41 660.57 56.74 659.54 55.29C658.51 53.84 659.47 51.99 660.44 50.57C662.63 47.35 668.17 44.68 671.97 43.83C674.86 43.19 677.87 44.09 680.54 45.35C683.622 46.8786 686.547 48.7074 689.27 50.81C693.01 53.58 696.7 56.65 698.94 60.73C701.18 64.81 701.73 70.12 699.19 74.02C698.66 74.83 698.01 75.57 697.52 76.4C696.31 78.4 696.09 80.89 695.24 83.1C694.605 84.7125 693.638 86.1739 692.403 87.39C691.168 88.606 689.692 89.5496 688.07 90.16C685.47 91.16 682.27 91.39 680.74 93.69L680.02 88.88C679.832 88.2728 679.859 87.6194 680.095 87.0294C680.332 86.4395 680.764 85.9489 681.32 85.64L685 82.54C685.733 82.0411 686.289 81.3237 686.59 80.49C687.39 77.11 683.5 80.13 682.68 79.1Z" fill="#303030" stroke="#333E48" stroke-width="3" stroke-miterlimit="10"/>
</svg>
