<svg xmlns="http://www.w3.org/2000/svg" viewBox="0 0 75 55.48"><defs><style>.cls-1{fill:#f2f2f2;}.cls-1,.cls-2,.cls-3{stroke:#3c3b72;stroke-linecap:round;stroke-linejoin:round;stroke-width:3px;}.cls-2{fill:#fffaf0;}.cls-3{fill:none;}</style></defs><title>drill</title><g id="Layer_2" data-name="Layer 2"><g id="Layer_1-2" data-name="Layer 1"><path class="cls-1" d="M13.37,1.5H37.92a4,4,0,0,1,4,4V23.71a4,4,0,0,1-4,4H13A11.5,11.5,0,0,1,1.5,16.21V13.37A11.87,11.87,0,0,1,13.37,1.5Z"/><path class="cls-2" d="M41.92,6.63h7.17a2,2,0,0,1,2,2v12a2,2,0,0,1-2,2H41.92a0,0,0,0,1,0,0v-16A0,0,0,0,1,41.92,6.63Z"/><line class="cls-3" x1="73.5" y1="14.61" x2="58.9" y2="14.61"/><path class="cls-1" d="M14.26,27.71H27.95a0,0,0,0,1,0,0V47.87a6.1,6.1,0,0,1-6.1,6.1H20.36a6.1,6.1,0,0,1-6.1-6.1V27.71a0,0,0,0,1,0,0Z"/><path class="cls-2" d="M51.09,9.48H56.9a2,2,0,0,1,2,2v6.26a2,2,0,0,1-2,2H51.09a0,0,0,0,1,0,0V9.48A0,0,0,0,1,51.09,9.48Z"/><path class="cls-2" d="M27.95,27.71h5.6a0,0,0,0,1,0,0v6.51a3,3,0,0,1-3,3h-2.6a0,0,0,0,1,0,0V27.71A0,0,0,0,1,27.95,27.71Z"/></g></g></svg>