<?xml version="1.0" encoding="utf-8"?>
<!-- Generator: Adobe Illustrator 21.0.2, SVG Export Plug-In . SVG Version: 6.00 Build 0)  -->
<svg version="1.1" id="Layer_1" xmlns="http://www.w3.org/2000/svg" xmlns:xlink="http://www.w3.org/1999/xlink" x="0px" y="0px"
	 viewBox="0 0 481 489" style="enable-background:new 0 0 481 489;" xml:space="preserve">
<style type="text/css">
	.st0{fill:#E6E6E6;stroke:#FFFFFF;stroke-width:3;stroke-miterlimit:10;}
	.st1{fill:#FFFFFF;stroke:#414141;stroke-width:3;stroke-miterlimit:10;}
	.st2{fill:#808080;stroke:#414141;stroke-width:3;stroke-miterlimit:10;}
	.st3{fill:#FFCC66;stroke:#414141;stroke-width:3;stroke-miterlimit:10;}
</style>
<path class="st0" d="M241,472.8c125,0,226.6-101.7,226.6-226.6c0-125-101.7-226.6-226.6-226.6c-125,0-226.6,101.6-226.6,226.6
	C14.4,371.1,116,472.8,241,472.8z M241,21.7c123.8,0,224.5,100.7,224.5,224.5c0,123.8-100.7,224.5-224.5,224.5
	C117.2,470.7,16.5,370,16.5,246.2C16.5,122.4,117.2,21.7,241,21.7L241,21.7z"/>
<path class="st0" d="M241,409.3c32.3,0,63.8-9.6,90.6-27.5s47.7-43.4,60.1-73.2c12.3-29.8,15.6-62.6,9.3-94.2
	c-6.3-31.6-21.8-60.7-44.6-83.5c-22.8-22.8-51.9-38.4-83.5-44.7c-31.6-6.3-64.4-3.1-94.2,9.3c-29.8,12.3-55.3,33.2-73.2,60.1
	c-17.9,26.8-27.5,58.3-27.5,90.6c0,43.3,17.2,84.7,47.8,115.3C156.3,392.1,197.8,409.3,241,409.3L241,409.3z M241,85.3
	c31.8,0,62.9,9.4,89.4,27.1c26.5,17.7,47.1,42.8,59.3,72.2c12.2,29.4,15.4,61.8,9.1,93c-6.2,31.2-21.5,59.9-44.1,82.4
	c-22.5,22.5-51.2,37.8-82.4,44c-31.2,6.2-63.6,3-93-9.2c-29.4-12.2-54.5-32.8-72.2-59.3c-17.7-26.5-27.1-57.6-27.1-89.4
	c0.1-42.7,17-83.6,47.2-113.7C157.4,102.2,198.3,85.2,241,85.3L241,85.3z"/>
<path class="st0" d="M241,345c19.6,0,38.7-5.8,54.9-16.7c16.3-10.9,28.9-26.3,36.4-44.4c7.5-18.1,9.4-38,5.6-57.1
	c-3.8-19.2-13.2-36.8-27.1-50.6s-31.5-23.3-50.6-27.1c-19.2-3.8-39.1-1.9-57.1,5.6c-18.1,7.5-33.5,20.2-44.4,36.4
	c-10.9,16.3-16.7,35.4-16.7,54.9c0,26.2,10.4,51.4,29,69.9C189.6,334.6,214.8,345,241,345L241,345z M241,149.5
	c19.1,0,37.8,5.7,53.7,16.3c15.9,10.6,28.3,25.7,35.6,43.4s9.2,37.1,5.5,55.9c-3.7,18.8-12.9,36-26.5,49.5
	c-13.5,13.5-30.8,22.7-49.5,26.5c-18.8,3.7-38.2,1.8-55.9-5.5c-17.7-7.3-32.8-19.7-43.4-35.6c-10.6-15.9-16.3-34.6-16.3-53.7l0,0
	c0-25.6,10.2-50.2,28.4-68.4C190.8,159.7,215.4,149.5,241,149.5L241,149.5z"/>
<path class="st1" d="M241,296.4c-27.7,0-50.2-22.5-50.2-50.2c0-27.7,22.5-50.2,50.2-50.2s50.2,22.5,50.2,50.2
	C291.2,273.9,268.7,296.4,241,296.4z"/>
<path class="st2" d="M205.1,38.3c-8.8,0-15.9-7.1-15.9-15.9c0-8.8,7.1-15.9,15.9-15.9c8.8,0,15.9,7.1,15.9,15.9
	C221,31.2,213.9,38.3,205.1,38.3z"/>
<path class="st2" d="M404.7,416.8c-8.8,0-15.9-7.1-15.9-15.9c0-8.8,7.1-15.9,15.9-15.9c8.8,0,15.9,7.1,15.9,15.9
	C420.7,409.7,413.5,416.8,404.7,416.8z"/>
<path class="st3" d="M401.5,280c-8.8,0-15.9-7.1-15.9-15.9c0-8.8,7.1-15.9,15.9-15.9s15.9,7.1,15.9,15.9
	C417.5,272.9,410.3,280,401.5,280z"/>
<path class="st3" d="M106.8,172.7c-8.8,0-15.9-7.1-15.9-15.9c0-8.8,7.1-15.9,15.9-15.9s15.9,7.1,15.9,15.9
	C122.7,165.6,115.5,172.7,106.8,172.7z"/>
<path class="st3" d="M42.4,370.8c-8.8,0-15.9-7.1-15.9-15.9c0-8.8,7.1-15.9,15.9-15.9c8.8,0,15.9,7.1,15.9,15.9
	C58.3,363.7,51.1,370.8,42.4,370.8z"/>
<path class="st2" d="M85.7,304.5c-8.8,0-15.9-7.1-15.9-15.9c0-8.8,7.1-15.9,15.9-15.9c8.8,0,15.9,7.1,15.9,15.9
	C101.6,297.3,94.5,304.5,85.7,304.5z"/>
<path class="st2" d="M435.8,148.6c-8.8,0-15.9-7.1-15.9-15.9c0-8.8,7.1-15.9,15.9-15.9c8.8,0,15.9,7.1,15.9,15.9
	C451.7,141.4,444.6,148.6,435.8,148.6z"/>
<path class="st2" d="M181.8,480.5c-8.8,0-15.9-7.1-15.9-15.9c0-8.8,7.1-15.9,15.9-15.9c8.8,0,15.9,7.1,15.9,15.9
	C197.7,473.4,190.6,480.5,181.8,480.5z"/>
</svg>
