<svg xmlns="http://www.w3.org/2000/svg" viewBox="0 0 75 73.67"><defs><style>.cls-1{fill:none;}.cls-1,.cls-3{stroke:#3c3b72;}.cls-1,.cls-2,.cls-3{stroke-linecap:round;stroke-linejoin:round;stroke-width:3px;}.cls-2{fill:#dee3e7;stroke:#333e48;}.cls-3{fill:#fffaf0;}</style></defs><title>headset</title><g id="Layer_2" data-name="Layer 2"><g id="Layer_1-2" data-name="Layer 1"><path class="cls-1" d="M61.63,38V28.74A27.24,27.24,0,0,0,34.4,1.5h0A27.24,27.24,0,0,0,7.16,28.74V38"/><path class="cls-1" d="M67.3,47.51h3.65a2.55,2.55,0,0,1,2.55,2.55v3a15.3,15.3,0,0,1-15.3,15.3H52.57"/><path class="cls-2" d="M7.87,37.58h2.44a2.51,2.51,0,0,1,2.51,2.51V55.44a2,2,0,0,1-2,2H5.36A3.86,3.86,0,0,1,1.5,53.58V43.95A6.37,6.37,0,0,1,7.87,37.58Z"/><path class="cls-2" d="M59.83,37.58H65.3a2,2,0,0,1,2,2V54.93a2.51,2.51,0,0,1-2.51,2.51H62.34A6.37,6.37,0,0,1,56,51.07V41.44a3.86,3.86,0,0,1,3.86-3.86Z" transform="translate(123.27 95.02) rotate(-180)"/><rect class="cls-3" x="38.22" y="64.52" width="14.34" height="7.65" rx="2" ry="2"/></g></g></svg>