<svg xmlns="http://www.w3.org/2000/svg" viewBox="0 0 132.46 110.08"><defs><style>.cls-1,.cls-2,.cls-3{fill:none;}.cls-1,.cls-2{stroke:#333e48;stroke-width:3px;}.cls-1{stroke-linecap:round;stroke-linejoin:round;}.cls-2{stroke-miterlimit:10;}</style></defs><title>icon-culinary</title><g id="Layer_2" data-name="Layer 2"><g id="Layer_1-2" data-name="Layer 1"><path class="cls-1" d="M28.18,90.21,17.75,79.79A3.11,3.11,0,0,1,18,75.15L31,64.94a3.11,3.11,0,0,1,4.12.25l7.65,7.65A3.11,3.11,0,0,1,43,77l-10.21,13A3.11,3.11,0,0,1,28.18,90.21Z"/><line class="cls-1" x1="50.49" y1="57.48" x2="22.96" y2="85"/><path class="cls-1" d="M113.75,54l-31-31A12.43,12.43,0,0,0,67,21.38L48.05,34a12.43,12.43,0,0,0-1.9,19.13L82.5,89.49a12.43,12.43,0,0,0,18.67-1.25L114.85,70.3A12.43,12.43,0,0,0,113.75,54Z"/><rect class="cls-1" x="72.93" y="50.14" width="31.27" height="15.86" rx="5.11" ry="5.11" transform="translate(67.01 -45.62) rotate(45)"/><circle class="cls-2" cx="69.23" cy="38.73" r="3.88" transform="translate(-7.11 60.3) rotate(-45)"/><rect class="cls-3" width="132.46" height="110.08"/></g></g></svg>