<svg xmlns="http://www.w3.org/2000/svg" viewBox="0 0 132.46 110.08"><defs><style>.cls-1,.cls-2{fill:none;}.cls-1{stroke:#333e48;stroke-linecap:round;stroke-linejoin:round;stroke-width:3px;}</style></defs><title>icon-design</title><g id="Layer_2" data-name="Layer 2"><g id="Layer_1-2" data-name="Layer 1"><rect class="cls-1" x="55.9" y="44.2" width="64.17" height="48" rx="8" ry="8" transform="translate(-22.45 82.19) rotate(-45)"/><circle class="cls-1" cx="82.33" cy="74.56" r="16" transform="translate(-28.61 80.05) rotate(-45)"/><circle class="cls-1" cx="82.33" cy="74.56" r="5.69" transform="translate(-28.61 80.05) rotate(-45)"/><polyline class="cls-1" points="108.39 66.18 108.43 60.36 98.91 50.84"/><rect class="cls-1" x="92.19" y="45.47" width="9" height="6.29" rx="2" ry="2" transform="translate(-6.06 82.61) rotate(-45)"/><polygon class="cls-1" points="22.89 58.52 10.61 65.97 8.13 51.81 22.89 58.52"/><path class="cls-1" d="M29.84,7.48H40.05a3,3,0,0,1,3,3v6.83a0,0,0,0,1,0,0H26.84a0,0,0,0,1,0,0V10.48a3,3,0,0,1,3-3Z" transform="translate(8.26 -13.35) rotate(24.43)"/><polygon class="cls-1" points="25.54 13.51 40.29 20.22 22.89 58.52 15.51 55.17 8.13 51.81 25.54 13.51"/><rect class="cls-1" x="8.93" y="48.16" width="16.21" height="7.34" transform="translate(11.1 106.06) rotate(-155.57)"/><rect class="cls-2" width="132.46" height="110.08"/></g></g></svg>