<svg xmlns="http://www.w3.org/2000/svg" viewBox="0 0 132.46 110.08"><defs><style>.cls-1,.cls-2{fill:none;}.cls-1{stroke:#333e48;stroke-linecap:round;stroke-linejoin:round;stroke-width:3px;}</style></defs><title>icon-engineering</title><g id="Layer_2" data-name="Layer 2"><g id="Layer_1-2" data-name="Layer 1"><polygon class="cls-1" points="104.63 41.69 104.63 102.87 43.45 102.87 104.63 41.69"/><polygon class="cls-1" points="72.77 90.5 93.36 71.01 93.36 90.5 72.77 90.5"/><line class="cls-1" x1="104.63" y1="56.96" x2="100.54" y2="56.96"/><line class="cls-1" x1="104.63" y1="66.52" x2="98.91" y2="66.52"/><line class="cls-1" x1="104.63" y1="76.09" x2="100.54" y2="76.09"/><line class="cls-1" x1="104.63" y1="85.66" x2="98.91" y2="85.66"/><line class="cls-1" x1="104.63" y1="95.22" x2="100.54" y2="95.22"/><path class="cls-1" d="M49.51,7.21,45.82,17.42A1.14,1.14,0,0,0,46,18.53l3.34,4a1.14,1.14,0,0,0,1.09.39l5.09-1a1.14,1.14,0,0,0,.86-.73L60.11,11a14.67,14.67,0,0,1-9.9,25.27,14.09,14.09,0,0,1-9.26-3.43,14.68,14.68,0,0,1,8.56-25.6Z"/><path class="cls-1" d="M50.21,36.25a14.09,14.09,0,0,1-9.26-3.43L28.13,68.3a4.94,4.94,0,0,0,3,6.32h0a4.94,4.94,0,0,0,6.32-3Z"/><rect class="cls-2" width="132.46" height="110.08"/></g></g></svg>