<svg xmlns="http://www.w3.org/2000/svg" viewBox="0 0 132.46 110.08"><defs><style>.cls-1,.cls-2{fill:none;}.cls-1{stroke:#333e48;stroke-linecap:round;stroke-linejoin:round;stroke-width:3px;}</style></defs><title>icon-nursing</title><g id="Layer_2" data-name="Layer 2"><g id="Layer_1-2" data-name="Layer 1"><line class="cls-1" x1="34.55" y1="79.9" x2="33.03" y2="66.95"/><rect class="cls-1" x="21.38" y="3.13" width="10.23" height="16.24" transform="translate(-1.13 3.16) rotate(-6.69)"/><path class="cls-1" d="M39.41,33.57l-18.83,15,1.26,10.77a1.24,1.24,0,0,0,1.37,1.09l17.86-2.1A1.24,1.24,0,0,0,42.16,57Z"/><polygon class="cls-1" points="37.6 18.12 17.28 20.5 20.58 48.62 39.41 33.57 37.6 18.12"/><path class="cls-1" d="M27.47,59.39H37.7a0,0,0,0,1,0,0V66a1,1,0,0,1-1,1H28.47a1,1,0,0,1-1-1V59.39A0,0,0,0,1,27.47,59.39Z" transform="translate(-7.14 4.23) rotate(-6.69)"/><line class="cls-1" x1="12.2" y1="21.1" x2="42.68" y2="17.52"/><line class="cls-1" x1="35.07" y1="2.07" x2="16.02" y2="4.3"/><rect class="cls-1" x="57.53" y="35.37" width="56.95" height="68.59" rx="7" ry="7" transform="translate(18.66 -18.17) rotate(13.51)"/><path class="cls-1" d="M83.23,96.62,61.67,91.44a1.33,1.33,0,0,1-1-1.6L72.63,40.2a1.33,1.33,0,0,1,1.6-1l36.11,8.68a1.33,1.33,0,0,1,1,1.6l-8.43,35.09Z"/><path class="cls-1" d="M81.55,36.16h22.13a0,0,0,0,1,0,0v10a2,2,0,0,1-2,2H83.55a2,2,0,0,1-2-2v-10a0,0,0,0,1,0,0Z" transform="translate(12.42 -20.47) rotate(13.51)"/><path class="cls-1" d="M89.61,81.39l13.27,3.19-19.66,12,3.19-13.27A2.65,2.65,0,0,1,89.61,81.39Z"/><rect class="cls-2" width="132.46" height="110.08"/></g></g></svg>