<svg xmlns="http://www.w3.org/2000/svg" viewBox="0 0 62.08 72.69"><defs><style>.cls-1{fill:#fff;}.cls-1,.cls-2,.cls-3,.cls-4{stroke:#333e48;stroke-linecap:round;stroke-linejoin:round;stroke-width:3px;}.cls-2{fill:#f2f2f2;}.cls-3{fill:none;}.cls-4{fill:#dee3e7;}</style></defs><title>icon-education2</title><g id="Layer_2" data-name="Layer 2"><g id="Layer_1-2" data-name="Layer 1"><path class="cls-1" d="M21.8,35.75H36.94a0,0,0,0,1,0,0V83.92a7.57,7.57,0,0,1-7.57,7.57h0a7.57,7.57,0,0,1-7.57-7.57V35.75a0,0,0,0,1,0,0Z" transform="translate(92.99 34.25) rotate(90)"/><path class="cls-2" d="M60.58,54.79A1.26,1.26,0,0,1,59.33,56H9.07A7.57,7.57,0,0,0,1.5,63.62V9.07A7.57,7.57,0,0,1,9.07,1.5H59.33a1.26,1.26,0,0,1,1.26,1.26Z"/><line class="cls-3" x1="56.42" y1="63.62" x2="12.87" y2="63.62"/><polygon class="cls-4" points="27.97 23.72 21.05 18.75 14.13 23.72 14.13 1.5 27.97 1.5 27.97 23.72"/><line class="cls-3" x1="60.58" y1="71.19" x2="56.42" y2="71.19"/></g></g></svg>