<svg xmlns="http://www.w3.org/2000/svg" viewBox="0 0 132.46 110.08"><defs><style>.cls-1,.cls-2{fill:none;}.cls-1{stroke:#333e48;stroke-linecap:round;stroke-linejoin:round;stroke-width:3px;}</style></defs><title>icon-ace</title><g id="Layer_2" data-name="Layer 2"><g id="Layer_1-2" data-name="Layer 1"><path class="cls-1" d="M35,84c14.38-17.88,37.65-17.88,52,0l-2,16.83H38Z"/><circle class="cls-1" cx="60.93" cy="49.93" r="14"/><path class="cls-1" d="M55.1,53.8a7,7,0,0,0,11.64,0"/><path class="cls-1" d="M118.65,29.57a10.74,10.74,0,0,0-21.47,0Z"/><polyline class="cls-1" points="50.95 72.65 60.91 85.06 70.9 72.65"/><line class="cls-1" x1="60.91" y1="84.05" x2="60.91" y2="99.86"/><path class="cls-1" d="M88.06,55.71C99.09,42,116.93,42,128,55.71l-1.53,12.91H90.36Z"/><circle class="cls-1" cx="107.92" cy="29.57" r="10.74"/><path class="cls-1" d="M4.5,39.82c9.15-11.38,24-11.38,33.1,0L36.34,50.53H6.41Z"/><circle class="cls-1" cx="20.98" cy="18.13" r="8.91"/><rect class="cls-2" width="132.46" height="110.08"/></g></g></svg>