<svg xmlns="http://www.w3.org/2000/svg" viewBox="0 0 132.46 110.08"><defs><style>.cls-1,.cls-2{fill:none;}.cls-1{stroke:#333e48;stroke-linecap:round;stroke-linejoin:round;stroke-width:3px;}</style></defs><title>icon-automotive</title><g id="Layer_2" data-name="Layer 2"><g id="Layer_1-2" data-name="Layer 1"><path class="cls-1" d="M15.7,77.24H6.48a5,5,0,0,1-4.89-5.93l8.85-45.74A6.6,6.6,0,0,1,17,19H93.36a7.92,7.92,0,0,1,7.34,4.94l9.51,23.4h2.87A17.89,17.89,0,0,1,131,65.2v12l-10-.17"/><line class="cls-1" x1="92.89" y1="77.24" x2="49.93" y2="77.24"/><path class="cls-1" d="M50,46.45V29.29A1.32,1.32,0,0,1,51.36,28H91.56a1.32,1.32,0,0,1,1.23.84L99.44,46a1.32,1.32,0,0,1-1.23,1.8H51.36A1.32,1.32,0,0,1,50,46.45Z"/><path class="cls-1" d="M41.35,46.45V29.29A1.32,1.32,0,0,0,40,28H26.5a1.32,1.32,0,0,0-1.23.84L21.95,46a1.32,1.32,0,0,0,1.23,1.8H40A1.32,1.32,0,0,0,41.35,46.45Z"/><circle class="cls-1" cx="106.93" cy="77.07" r="14.04"/><circle class="cls-1" cx="106.89" cy="77.04" r="5.74"/><circle class="cls-1" cx="32.81" cy="73.98" r="17.12"/><circle class="cls-1" cx="32.81" cy="73.98" r="6.88"/><path class="cls-1" d="M51,28h7.25a0,0,0,0,1,0,0V47.78a0,0,0,0,1,0,0H51a1,1,0,0,1-1-1V29A1,1,0,0,1,51,28Z"/><rect class="cls-2" width="132.46" height="110.08"/></g></g></svg>