<svg xmlns="http://www.w3.org/2000/svg" viewBox="0 0 132.46 110.08"><defs><style>.cls-1,.cls-2{fill:none;}.cls-1{stroke:#333e48;stroke-linecap:round;stroke-linejoin:round;stroke-width:3px;}</style></defs><title>icon-business</title><g id="Layer_2" data-name="Layer 2"><g id="Layer_1-2" data-name="Layer 1"><path class="cls-1" d="M99.4,24.82h0a144.87,144.87,0,0,0-66.1-.05l-.22.05"/><line class="cls-1" x1="66.24" y1="29.59" x2="66.24" y2="86.43"/><polygon class="cls-1" points="99.26 24.85 109.24 57.9 89.28 57.89 99.26 24.85"/><path class="cls-1" d="M81.47,88.66a53.09,53.09,0,0,0-30.44,0h0v8.51H81.47Z"/><path class="cls-1" d="M113,60.1V57.91H85.56V60.1c0,7.61,6.13,12.62,13.7,12.62S113,67.71,113,60.1Z"/><polygon class="cls-1" points="33.2 24.82 43.17 57.87 23.22 57.87 33.2 24.82"/><path class="cls-1" d="M46.9,60.06V57.87H19.5v2.19c0,7.61,6.13,12.62,13.7,12.62S46.9,67.67,46.9,60.06Z"/><circle class="cls-1" cx="66.35" cy="21.25" r="8.34"/><rect class="cls-2" width="132.46" height="110.08"/></g></g></svg>