<svg xmlns="http://www.w3.org/2000/svg" viewBox="0 0 132.46 110.08"><defs><style>.cls-1,.cls-2{fill:none;}.cls-1{stroke:#333e48;stroke-linecap:round;stroke-linejoin:round;stroke-width:3px;}</style></defs><title>icon-education</title><g id="Layer_2" data-name="Layer 2"><g id="Layer_1-2" data-name="Layer 1"><path class="cls-1" d="M54.47,54.81H72.92a0,0,0,0,1,0,0v60.91a6,6,0,0,1-6,6H60.49a6,6,0,0,1-6-6V54.81a0,0,0,0,1,0,0Z" transform="translate(151.97 24.58) rotate(90)"/><path class="cls-1" d="M102.23,77.52a1.53,1.53,0,0,1-1.53,1.53H39.45a9.22,9.22,0,0,0-9.22,9.22V21.8a9.23,9.23,0,0,1,9.23-9.23H100.7a1.53,1.53,0,0,1,1.53,1.53Z"/><line class="cls-1" x1="97.16" y1="88.28" x2="44.09" y2="88.28"/><polygon class="cls-1" points="62.48 39.66 54.05 33.6 45.62 39.66 45.62 12.58 62.48 12.58 62.48 39.66"/><line class="cls-1" x1="102.23" y1="97.5" x2="97.16" y2="97.5"/><rect class="cls-2" width="132.46" height="110.08"/></g></g></svg>