<svg xmlns="http://www.w3.org/2000/svg" viewBox="0 0 132.46 110.08"><defs><style>.cls-1,.cls-2{fill:none;}.cls-1{stroke:#333e48;stroke-linecap:round;stroke-linejoin:round;stroke-width:3px;}</style></defs><title>icon-it</title><g id="Layer_2" data-name="Layer 2"><g id="Layer_1-2" data-name="Layer 1"><path class="cls-1" d="M14.93,36.9h16a2,2,0,0,1,2,2V53.43a0,0,0,0,1,0,0h-20a0,0,0,0,1,0,0V38.9a2,2,0,0,1,2-2Z" transform="translate(3.77 92.06) rotate(-130.86)"/><rect class="cls-1" x="29.22" y="7.89" width="29" height="38.5" rx="4" ry="4" transform="translate(51.79 77.96) rotate(-130.86)"/><line class="cls-1" x1="24.64" y1="48.48" x2="25.96" y2="47.34"/><line class="cls-1" x1="19.89" y1="43" x2="21.22" y2="41.85"/><rect class="cls-1" x="58.51" y="60.85" width="63" height="44" rx="5" ry="5"/><rect class="cls-1" x="68.52" y="66.1" width="29" height="33.5" rx="2" ry="2" transform="translate(165.87 -0.17) rotate(90)"/><line class="cls-1" x1="113.74" y1="75.42" x2="107.01" y2="75.42"/><line class="cls-1" x1="113.74" y1="82.85" x2="107.01" y2="82.85"/><line class="cls-1" x1="113.74" y1="90.29" x2="107.01" y2="90.29"/><line class="cls-1" x1="73.33" y1="86.82" x2="73.33" y2="78.89"/><line class="cls-1" x1="81.58" y1="86.82" x2="81.58" y2="78.89"/><line class="cls-1" x1="92.45" y1="89.98" x2="92.45" y2="75.73"/><line class="cls-1" x1="74.95" y1="75.73" x2="79.95" y2="75.73"/><line class="cls-1" x1="88.58" y1="75.73" x2="91.7" y2="75.73"/><line class="cls-1" x1="74.95" y1="89.98" x2="79.95" y2="89.98"/><rect class="cls-2" width="132.46" height="110.08"/></g></g></svg>