<svg xmlns="http://www.w3.org/2000/svg" viewBox="0 0 75 68.26"><defs><style>.cls-1{fill:#dee3e7;stroke:#333e48;}.cls-1,.cls-2,.cls-3{stroke-linecap:round;stroke-linejoin:round;stroke-width:3px;}.cls-2{fill:#f2f2f2;}.cls-2,.cls-3{stroke:#3c3b72;}.cls-3{fill:#fffaf0;}.cls-4{fill:#3c3b72;}</style></defs><title>imac</title><g id="Layer_2" data-name="Layer 2"><g id="Layer_1-2" data-name="Layer 1"><path class="cls-1" d="M45.64,54.23,47.15,65.4A1.19,1.19,0,0,1,46,66.76H29a1.19,1.19,0,0,1-1.17-1.36l1.51-11.17Z"/><rect class="cls-2" x="1.5" y="1.5" width="72" height="52.73" rx="4" ry="4"/><path class="cls-3" d="M1.5,41.83h72a0,0,0,0,1,0,0v8.39a4,4,0,0,1-4,4H5.5a4,4,0,0,1-4-4V41.83a0,0,0,0,1,0,0Z"/><circle class="cls-4" cx="37.5" cy="48.03" r="2.11"/></g></g></svg>