<svg xmlns="http://www.w3.org/2000/svg" viewBox="0 0 169 42.01"><defs><style>.cls-1{fill:#fc6;}</style></defs><title>logo-yellow</title><g id="Layer_2" data-name="Layer 2"><g id="Layer_1-2" data-name="Layer 1"><path class="cls-1" d="M17.67,7.9v8.84c0,5.63-2.21,7.9-7.58,7.9H4.42V42H0V0H10.09C15.46,0,17.67,2.21,17.67,7.9Zm-4.47-.37c0-2.63-1-3.95-3.11-3.95H4.42V21.06h5.67c2.16,0,3.11-1.32,3.11-3.9Z"/><path class="cls-1" d="M40.39,7.9v8.84c0,5.63-2.21,7.9-7.58,7.9H27.14V42H22.72V0H32.8C38.17,0,40.39,2.21,40.39,7.9Zm-4.47-.37c0-2.63-1-3.95-3.11-3.95H27.14V21.06H32.8c2.16,0,3.11-1.32,3.11-3.9Z"/><path class="cls-1" d="M70.2,27.32v6.79c0,5.63-2.21,7.9-7.58,7.9H46.27V0H62.2c5.37,0,7.58,2.21,7.58,7.9V13c0,3.74-1,5.95-3.26,7.05C69.09,21,70.2,23.27,70.2,27.32ZM50.69,3.58v15H62.2c2.16,0,3.11-1.32,3.11-3.95V7.53c0-2.63-1-3.95-3.11-3.95ZM65.78,26.06c0-2.58-1-3.9-3.16-3.9H50.69V38.43H62.62c2.16,0,3.16-1.32,3.16-3.95Z"/><path class="cls-1" d="M122.48,38.43V42H75.78V0h61.78V3.58H80.2V18.37h49V22h-49V38.43Z"/><path class="cls-1" d="M160.52,33.38H135L131.25,42h-4.74L145.26,0h5L169,42h-4.74Zm-1.58-3.58L147.78,3.95,136.57,29.8Z"/></g></g></svg>