<svg width="294" height="337" viewBox="0 0 294 337" fill="none" xmlns="http://www.w3.org/2000/svg">
<path d="M262.701 160.714C246.627 160.714 233.596 147.684 233.596 131.609C233.596 115.535 246.627 102.504 262.701 102.504C278.775 102.504 291.806 115.535 291.806 131.609C291.806 147.684 278.775 160.714 262.701 160.714Z" fill="#FFDD98" stroke="#333E48" stroke-width="3" stroke-miterlimit="10"/>
<path d="M262.617 131.609H262.54L261.102 214.134H264.139L262.617 131.609Z" fill="#71787F" stroke="#333E48" stroke-width="3" stroke-miterlimit="10"/>
<path d="M178.528 141.323C154.083 141.323 134.267 121.507 134.267 97.0623C134.267 72.6179 154.083 52.8018 178.528 52.8018C202.972 52.8018 222.788 72.6179 222.788 97.0623C222.788 121.507 202.972 141.323 178.528 141.323Z" fill="#71787F" stroke="#333E48" stroke-width="3" stroke-miterlimit="10"/>
<path d="M178.409 97.062H178.29L176.102 222.55H180.716L178.409 97.062Z" fill="#71787F" stroke="#333E48" stroke-width="3" stroke-miterlimit="10"/>
<path d="M269.819 54.7935L262.343 48.8112C268.15 48.173 270.541 51.336 271.516 53.8467C276.054 51.9602 280.991 54.4288 280.991 54.4288L266.032 59.8641C266.787 57.8482 268.1 56.0893 269.819 54.7935Z" fill="#808080"/>
<path d="M191.039 6.0655L183.556 0.0832149C189.37 -0.554989 191.755 2.60798 192.743 5.11872C197.281 3.23216 202.218 5.70081 202.218 5.70081L187.259 11.1291C188.013 9.11659 189.324 7.3603 191.039 6.0655Z" fill="#808080"/>
<path d="M221.091 52.3595L213.615 46.3772C219.422 45.739 221.813 48.9019 222.788 51.4127C227.326 49.5261 232.263 51.9948 232.263 51.9948L217.29 57.43C218.048 55.4124 219.367 53.6532 221.091 52.3595Z" fill="#808080"/>
<path d="M41.0755 123.285H56.0908V138.3H41.0755V123.285Z" fill="#E6E6E6" stroke="#333E48" stroke-width="3" stroke-miterlimit="10"/>
<path d="M40.6546 157.481H55.6699V172.497H40.6546V157.481Z" fill="#E6E6E6" stroke="#333E48" stroke-width="3" stroke-miterlimit="10"/>
<path d="M40.241 191.685H55.2563V206.7H40.241V191.685Z" fill="#E6E6E6" stroke="#333E48" stroke-width="3" stroke-miterlimit="10"/>
<path d="M40.241 191.685H55.2563V206.7H40.241V191.685Z" fill="#E6E6E6" stroke="#333E48" stroke-width="3" stroke-miterlimit="10"/>
<path d="M9.15882 326.732L13.2615 327.216C16.5017 329.172 20.2748 329.909 24.5248 329.754C25.1131 329.737 25.6866 329.565 26.1884 329.258C26.6903 328.95 27.1032 328.517 27.3862 328.001C27.6317 327.549 27.7695 327.045 27.7887 326.531C27.8079 326.016 27.7081 325.504 27.497 325.035C27.286 324.565 26.9693 324.15 26.5718 323.823C26.1743 323.496 25.7065 323.265 25.2051 323.148L22.0842 322.447L14.559 315.083L10.0214 306.863L3.429 307.621L2.02635 318.056C1.85809 320.145 2.50791 322.217 3.83867 323.836C5.16943 325.455 7.07703 326.493 9.15882 326.732Z" fill="#CDCDCD" stroke="#333E48" stroke-width="3" stroke-miterlimit="10"/>
<path d="M73.0836 321.45L77.1092 322.397C80.1109 324.712 83.8069 325.904 88.0078 326.205C88.5933 326.256 89.182 326.154 89.7157 325.908C90.2495 325.662 90.7099 325.281 91.0515 324.803C91.3472 324.381 91.5414 323.897 91.6193 323.388C91.6971 322.879 91.6564 322.359 91.5003 321.868C91.3442 321.377 91.0769 320.929 90.7193 320.559C90.3617 320.188 89.9234 319.905 89.4385 319.732L86.4228 318.652L79.7813 310.482L76.2045 301.799H69.563L67.0102 312.011C66.6019 314.064 67.0069 316.196 68.1399 317.957C69.2729 319.718 71.0453 320.971 73.0836 321.45Z" fill="#CDCDCD" stroke="#333E48" stroke-width="3" stroke-miterlimit="10"/>
<path d="M76.3873 302.367L68.8832 303.524L57.0448 243.758L36.5452 208.818L11.7113 310.453L2.47488 312.186C3.51284 254.951 -1.54371 182.897 9.97903 174.172L60.1938 179.937L82.1382 238.848L76.3873 302.367Z" fill="#666666" stroke="#333E48" stroke-width="3" stroke-miterlimit="10"/>
<path d="M40.0025 85.2308C30.4354 85.2308 22.6798 77.4752 22.6798 67.9081C22.6798 58.3411 30.4354 50.5854 40.0025 50.5854C49.5696 50.5854 57.3252 58.3411 57.3252 67.9081C57.3252 77.4752 49.5696 85.2308 40.0025 85.2308Z" fill="#CDCDCD" stroke="#333E48" stroke-width="3" stroke-miterlimit="10"/>
<path d="M15.7513 94.474L36.5385 97.9385L41.7354 79.4586L26.72 74.8369L15.7513 94.474Z" fill="#CDCDCD" stroke="#333E48" stroke-width="3" stroke-miterlimit="10"/>
<path d="M7.08912 176.473L62.4937 181.67C58.0473 166.241 53.9796 150.811 57.2968 135.473C61.5048 121.777 57.4441 113.627 46.3282 107.175L38.824 90.4275L18.6119 88.1201C13.2591 96.7264 11.0695 106.928 12.4192 116.973C15.3086 138.812 14.5442 159.08 7.08912 176.473Z" fill="#474747" stroke="#333E48" stroke-width="3" stroke-miterlimit="10"/>
<path d="M77.0817 332.686C77.1407 333.221 76.9849 333.759 76.6483 334.179C76.3116 334.6 75.8218 334.87 75.2863 334.93H75.0829L68.5886 335C68.2364 334.972 67.9079 334.812 67.6686 334.552C67.4294 334.292 67.2971 333.951 67.2982 333.598C67.301 333.322 67.3849 333.053 67.5396 332.825C67.6943 332.597 67.9128 332.419 68.1679 332.314L70.0825 331.55L72.8878 327.65H75.118C76.2121 329.111 76.8951 330.837 77.0957 332.651L77.0817 332.686Z" fill="#CDCDCD" stroke="#333E48" stroke-width="3" stroke-miterlimit="10"/>
<path d="M92.6301 332.686C92.571 333.221 92.7269 333.759 93.0635 334.179C93.4001 334.6 93.89 334.87 94.4255 334.93H94.6289L101.123 335C101.475 334.972 101.804 334.812 102.043 334.552C102.282 334.292 102.415 333.951 102.414 333.598C102.411 333.322 102.327 333.053 102.172 332.825C102.017 332.597 101.799 332.419 101.544 332.314L99.6293 331.55L96.824 327.65H94.5938C93.4996 329.111 92.8167 330.837 92.6161 332.651L92.6301 332.686Z" fill="#CDCDCD" stroke="#333E48" stroke-width="3" stroke-miterlimit="10"/>
<path d="M97.3984 327.678H94.0531L82.341 276.944L76.2115 328.232H72.3121L67.0171 262.167L94.0531 261.887L97.3984 327.678Z" fill="#404040" stroke="#333E48" stroke-width="3" stroke-miterlimit="10"/>
<path d="M112.449 234.571H107.989V223.981L106.972 221.954C106.768 221.547 106.662 221.097 106.665 220.641C106.668 220.185 106.778 219.736 106.988 219.332C107.197 218.927 107.499 218.577 107.869 218.311C108.24 218.045 108.667 217.871 109.118 217.802C109.53 217.738 109.95 217.764 110.351 217.879C110.752 217.993 111.123 218.192 111.44 218.463C111.756 218.735 112.01 219.071 112.185 219.449C112.359 219.828 112.449 220.24 112.449 220.656V234.571Z" fill="#CDCDCD" stroke="#333E48" stroke-width="3" stroke-miterlimit="10"/>
<path d="M85.9672 208.376C80.2696 208.376 75.6508 203.757 75.6508 198.06C75.6508 192.362 80.2696 187.743 85.9672 187.743C91.6649 187.743 96.2837 192.362 96.2837 198.06C96.2837 203.757 91.6649 208.376 85.9672 208.376Z" fill="#CDCDCD" stroke="#333E48" stroke-width="3" stroke-miterlimit="10"/>
<path d="M79.557 203.354H90.147V215.621H79.557V203.354Z" fill="#CDCDCD" stroke="#333E48" stroke-width="3" stroke-miterlimit="10"/>
<path d="M51.8763 213.166L55.7757 215.305L60.8954 206.062L62.7819 204.786C63.1578 204.528 63.4675 204.185 63.6857 203.785C63.9039 203.385 64.0244 202.94 64.0374 202.484C64.0504 202.029 63.9555 201.577 63.7605 201.165C63.5654 200.753 63.2758 200.393 62.9152 200.115C62.5857 199.859 62.2048 199.678 61.7987 199.583C61.3925 199.489 60.9708 199.484 60.5623 199.567C60.1539 199.651 59.7684 199.823 59.4325 200.07C59.0965 200.317 58.818 200.634 58.6161 200.998L57.003 203.902L51.8763 213.166Z" fill="#CDCDCD" stroke="#333E48" stroke-width="3" stroke-miterlimit="10"/>
<path d="M55.025 205.024L61.1545 208.924L60.5935 213.384L67.8382 212.269L79.5432 211.715L91.8094 213.384L97.939 218.399L105.205 231.787L107.435 229.557L114.125 234.571L106.32 245.161L96.7607 237.748L95.1687 263.529C85.792 269.315 75.8823 268.747 65.622 264.083L67.2911 225.279L58.8752 220.825L51.1256 216.708L50.0105 210.018L55.025 205.024Z" fill="#808080" stroke="#333E48" stroke-width="3" stroke-miterlimit="10"/>
<path d="M83.7368 206.419C76.9624 206.419 71.4706 200.928 71.4706 194.153C71.4706 187.379 76.9624 181.887 83.7368 181.887C90.5112 181.887 96.0029 187.379 96.0029 194.153C96.0029 200.928 90.5112 206.419 83.7368 206.419Z" fill="#303030" stroke="#333E48" stroke-width="3" stroke-miterlimit="10"/>
<path d="M77.0465 185.794C73.9673 185.794 71.471 183.297 71.471 180.218C71.471 177.139 73.9673 174.643 77.0465 174.643C80.1258 174.643 82.6221 177.139 82.6221 180.218C82.6221 183.297 80.1258 185.794 77.0465 185.794Z" fill="#303030" stroke="#333E48" stroke-width="3" stroke-miterlimit="10"/>
<path d="M77.3204 184.875C76.213 185.456 74.9423 185.648 73.7126 185.42C72.4828 185.193 71.3654 184.558 70.5399 183.618C69.7144 182.679 69.2288 181.489 69.1611 180.24C69.0935 178.991 69.4477 177.756 70.1669 176.732C69.5254 177.218 68.9968 177.837 68.6174 178.547C68.2381 179.256 68.017 180.039 67.9694 180.842C67.9218 181.646 68.0488 182.45 68.3416 183.199C68.6345 183.948 69.0863 184.625 69.6659 185.183C70.2454 185.741 70.9391 186.167 71.699 186.432C72.4589 186.696 73.2671 186.792 74.0679 186.714C74.8687 186.636 75.643 186.386 76.3377 185.98C77.0324 185.574 77.6308 185.022 78.0918 184.363C77.8492 184.554 77.5912 184.726 77.3204 184.875Z" fill="#303030" stroke="#333E48" stroke-width="3" stroke-miterlimit="10"/>
<path d="M42.8923 193.803L42.5066 207.212C42.4531 209.06 43.1021 210.86 44.3228 212.249C45.5435 213.637 47.2452 214.512 49.085 214.695C50.2664 214.815 51.4593 214.646 52.5604 214.201C53.6615 213.756 54.6376 213.05 55.4043 212.143C56.171 211.236 56.7051 210.156 56.9604 208.996C57.2158 207.837 57.1846 206.632 56.8697 205.487L53.882 194.378L45.2207 147.025L45.7958 119.308L27.3159 118.733L30.7384 149.914L42.8923 193.803Z" fill="#CDCDCD" stroke="#333E48" stroke-width="3" stroke-miterlimit="10"/>
<path d="M26.1444 121.615C32.839 119.066 40.2371 119.066 46.9316 121.615L45.7745 98.5138C45.7745 97.3008 45.5356 96.0998 45.0714 94.9791C44.6072 93.8585 43.9269 92.8403 43.0692 91.9826C42.2115 91.125 41.1933 90.4446 40.0727 89.9804C38.952 89.5162 37.751 89.2773 36.538 89.2773C34.0884 89.2773 31.7391 90.2505 30.0069 91.9826C28.2747 93.7148 27.3016 96.0641 27.3016 98.5138L26.1444 121.615Z" fill="#474747" stroke="#333E48" stroke-width="3" stroke-miterlimit="10"/>
<path d="M40.3954 47.4503C46.1744 48.7688 52.7598 50.6413 53.1245 52.3595C59.0717 53.8604 63.5602 57.4511 64.4789 62.9215C64.556 63.3946 64.5282 63.879 64.3976 64.3403C64.267 64.8015 64.0367 65.2285 63.723 65.5911C63.4093 65.9536 63.0198 66.2428 62.5821 66.4384C62.1443 66.6339 61.669 66.7309 61.1897 66.7226C57.9566 66.6806 53.0964 66.372 49.8914 65.0325C40.5778 71.0358 39.0139 86.6402 43.0815 97.2933L36.6784 96.7042L30.0369 77.3196L28.3467 95.9398L13.7662 93.9761L15.6458 70.2293C16.2235 64.6325 18.1277 59.2542 21.2002 54.5407C21.5192 54.0676 21.8683 53.6154 22.2452 53.1871C24.471 50.6816 27.3335 48.8253 30.5291 47.8153C33.7246 46.8053 37.134 46.6791 40.3954 47.4503Z" fill="#808080" stroke="#333E48" stroke-width="3" stroke-miterlimit="10"/>
</svg>
