<svg xmlns="http://www.w3.org/2000/svg" viewBox="0 0 260.49 78.1"><defs><style>.cls-1{fill:#333e48;}</style></defs><title>mountains</title><g id="Layer_2" data-name="Layer 2"><g id="Layer_1-2" data-name="Layer 1"><path class="cls-1" d="M260.49,70.78c-1.5-1.27-3-2.56-4.58-3.85l-5.14-4.25q-3.13-2.58-6.25-5.17c-.67-.56-1.32-1.18-2-1.77l-.68-.64a49.39,49.39,0,0,0-7-5.13c-1.3-.84-2.64-1.71-3.91-2.63-2.5-1.82-3.81-1.08-5-.08-.9.74-1.79,1.49-2.68,2.24-1.26,1.07-2.57,2.17-3.89,3.21a21.28,21.28,0,0,1-2.25,1.48c-.42.25-.83.5-1.24.76a6,6,0,0,0-.83.68l-1.83,1.73c-1.36,1.29-2.77,2.63-4.2,3.89a7,7,0,0,1-1.3.83,7,7,0,0,0-1.54,1,34.32,34.32,0,0,0-2.46,2.7c-.37.44-.75.88-1.17,1.36-.76.85-1.54,1.73-2.34,2.55-.41.41-.85.8-1.32,1.21l-.45.39-2.11-1.51c-1.88-1.35-3.79-2.72-5.72-4.07-.6-.42-1.21-.81-1.83-1.19-.8-.5-1.62-1-2.38-1.6-1.84-1.4-3.66-2.82-5.48-4.25s-3.74-2.92-5.63-4.36A21.33,21.33,0,0,0,173.2,53c-.53-.31-1.07-.63-1.58-1-.78-.53-1.56-1.09-2.33-1.65-1.26-.91-2.56-1.85-3.9-2.67-1.88-1.14-4.49-.5-5.31.82l-.33.55a16.8,16.8,0,0,1-1.38,2c-.59.71-1.26,1.4-1.89,2.06-.38.4-.76.79-1.13,1.19s-.54.62-.81.94a11.92,11.92,0,0,1-1.46,1.57c-.76.64-1.6,1.25-2.41,1.83-.6.43-1.2.86-1.78,1.31a5.86,5.86,0,0,0-1,1.08l-1.08,1.35c-1,1.22-2,2.49-3,3.77a11.64,11.64,0,0,0-1,1.6l-.34.63-2.74,4.88c-1.43,0-2.65-1-3.83-1.9a8.68,8.68,0,0,0-2.8-1.7l-8.81-7.31.8,1.45-1.52-1.2.29-.33-.76-.84-.37.51-.32-.25.22-.52-1.11-1-.34.52-1.55-1.22,0,0-.1-.27.34-.5-12.22-8.06.31-.51-.46-.13c-2.71-.79-4,.46-5.06,1.93a3.92,3.92,0,0,1-.94.84,7.7,7.7,0,0,0-.7.55l-1.37,1.24c-1.28,1.15-2.6,2.33-3.77,3.61a20.24,20.24,0,0,0-1.82,2.42,24.06,24.06,0,0,1-1.42,2,12.82,12.82,0,0,1-1.78,1.64c-.31.25-.63.51-.94.79l-.12.1,0,.62-6.91,8.91L79.6,72l-2.32-2.06c-1.79-1.59-3.63-3.23-5.49-4.8s-3.92-3.27-5.89-4.88q-2-1.67-4.05-3.34c-.38-.32-.75-.67-1.11-1a14.52,14.52,0,0,0-1.68-1.47c-2.68-1.89-5.45-3.73-8.13-5.51l-.42-.28a3,3,0,0,0-3.59.06,49.14,49.14,0,0,0-5.46,3.75,18.89,18.89,0,0,0-2,1.92A20.07,20.07,0,0,1,37.77,56a16.83,16.83,0,0,1-2.27,1.52c-.4.24-.81.48-1.2.73a6.16,6.16,0,0,0-.83.67l-1.91,1.8c-1.42,1.34-2.88,2.72-4.36,4a5.91,5.91,0,0,1-1.15.73,7.08,7.08,0,0,0-1.2.75,3.76,3.76,0,0,0-.76,1,4,4,0,0,1-.49.69c-1.45,1.5-3,3-4.42,4.45l-.88.88c-.25.25-.52.49-.79.73l-.16.15c-.69-.54-1.17-.8-1.61-.67s-.62.52-.8,1.08l-.06.18.12.15c1.7,2.22,3.15,2,4.06,1.36A24.49,24.49,0,0,0,26.28,69a1.73,1.73,0,0,1,.74-.47,3.51,3.51,0,0,0,.78-.43c1.4-1.12,2.78-2.26,4.17-3.4l4.81-3.94,3.69-3,.1-.08c1.13-.93,2.31-1.89,3.43-2.88a1.39,1.39,0,0,0,.37-.73l0-.16,5.12-3.16c3.23,1.75,6.84,3.73,8.94,6.21l17.9,15.24,1.77,1.54,0,0,4.83,4,.23-.17a19.13,19.13,0,0,0,6.73-7.95.88.88,0,0,0,.05-.2l.82-1c.76-1,1.54-1.94,2.34-2.87.55-.63,1.14-1.25,1.71-1.85.41-.43.82-.86,1.21-1.29a6.88,6.88,0,0,0,1.47-2.21l4.07-3.61.23-.31,4.65-4.09,7.88,6,0,0,2.58,2c1.72,1.36,3.44,2.73,5.18,4.06,2.6,2,5.15,3.95,7.79,5.83,1.43,1,2.91,2,4.34,3,1.22.82,2.43,1.64,3.63,2.49a19.15,19.15,0,0,1,1.73,1.44l.87.77.32.28.22-.36a58.54,58.54,0,0,0,2.74-5.2c1.51-3.11,2.93-6,5.19-8.41l.91-.79c.65-.57,1.32-1.16,2-1.67a17.65,17.65,0,0,0,4.82-5A5.57,5.57,0,0,1,158,55.27a10.12,10.12,0,0,0,1-.89c1.48-1.53,2.65-2.81,3.68-4a2.16,2.16,0,0,1,2.54-.05l1.29.86c1.43,1,2.92,2,4.4,2.88a79.85,79.85,0,0,1,10.33,7.45,58.48,58.48,0,0,0,8,5.67l6.36,4.7,2.68,2.89.26-.18.51-.33a7.26,7.26,0,0,0,1.2-.87c.81-.77,1.6-1.56,2.39-2.35,1.18-1.18,2.39-2.39,3.65-3.52,1.58-1.41,3.24-2.8,4.84-4.14,1-.87,2.09-1.74,3.12-2.63.75-.64,1.48-1.3,2.2-2,1.11-1,2.26-2,3.44-3a11.54,11.54,0,0,1,2.17-1.25l1.12-.56a.66.66,0,0,0,.34-.21l2.12-2.68.37-.49.39-.29.91-.7c1-.82,2.26-.57,4.1.82,1.65,1.24,3.36,2.43,5,3.58,1.19.83,2.38,1.65,3.56,2.5a6.33,6.33,0,0,1,.89.84,8.6,8.6,0,0,0,.79.78l17.48,14.73Z"/><path class="cls-1" d="M178.43,23.7,171.55,18l-.69.35-.63-.41.77.22L170.38,17l-.77.55-.34-.24.08,0,.33-.74-.62-.4-.41-.11-.23.54-.44-.36.1,0,.36-.61-1.24-1-.38.55a7,7,0,0,1-1.62-1.83l0-.11L153.53,5.48l.37-.58-.32-.2-.66-.4c-.45-.27-.91-.54-1.34-.85-2.79-2-3.93-2.06-5.8-.37a67.83,67.83,0,0,1-5.32,4.34,12.35,12.35,0,0,0-2.89,3.41c-.3.46-.6.92-.92,1.36a13.4,13.4,0,0,1-1.87,1.93c-.33.3-.67.61-1,.94l-.1.1,0,.61a25.07,25.07,0,0,0-3.15,4.29c-1.52,2.42-3,4.7-5.62,6l-1.8-1.52c-1.5-1.27-3-2.56-4.58-3.85l-5.14-4.25q-3.13-2.58-6.25-5.17c-.67-.56-1.32-1.18-2-1.77l-.68-.64a49.39,49.39,0,0,0-7-5.13C96.19,2.9,94.85,2,93.58,1.11,91.08-.71,89.78,0,88.56,1c-.9.74-1.79,1.49-2.68,2.24C84.61,4.34,83.31,5.44,82,6.48A21.28,21.28,0,0,1,79.74,8c-.42.25-.83.5-1.24.76a6,6,0,0,0-.83.68l-1.83,1.73c-1.36,1.29-2.77,2.63-4.2,3.89a7,7,0,0,1-1.3.83,7,7,0,0,0-1.54,1,34.32,34.32,0,0,0-2.46,2.7c-.37.44-.75.88-1.17,1.36-.76.85-1.54,1.73-2.34,2.55-.41.41-.85.8-1.32,1.21l-.45.39L59,23.57c-1.88-1.35-3.79-2.72-5.72-4.07-.6-.42-1.21-.81-1.83-1.19-.8-.5-1.62-1-2.38-1.6-1.84-1.4-3.66-2.82-5.48-4.25S39.81,9.54,37.92,8.1a21.33,21.33,0,0,0-2.14-1.37c-.53-.31-1.07-.63-1.58-1-.78-.53-1.56-1.09-2.33-1.65-1.26-.91-2.56-1.85-3.9-2.67-1.88-1.14-4.49-.5-5.31.82l-.33.55a16.8,16.8,0,0,1-1.38,2c-.59.71-1.26,1.4-1.89,2.06-.38.4-.76.79-1.13,1.19s-.54.62-.81.94a11.92,11.92,0,0,1-1.46,1.57c-.76.64-1.6,1.25-2.41,1.83-.6.43-1.2.86-1.78,1.31a5.86,5.86,0,0,0-1,1.08L9.39,16.18c-1,1.22-2,2.49-3,3.77a11.64,11.64,0,0,0-1,1.6l-.34.63L2.36,27.07c-1.43,0-3.16,1.48-2,2.33a19.15,19.15,0,0,1,1.73,1.44L3,31.6l.32.28.22-.36a58.54,58.54,0,0,0,2.74-5.2c1.51-3.11,2.93-6,5.19-8.41l.91-.79c.65-.57,1.32-1.16,2-1.67a17.65,17.65,0,0,0,4.82-5A5.57,5.57,0,0,1,20.61,9a10.12,10.12,0,0,0,1-.89c1.48-1.53,2.65-2.81,3.68-4a2.16,2.16,0,0,1,2.54-.05l1.29.86c1.43,1,2.92,2,4.4,2.88a79.85,79.85,0,0,1,10.33,7.45,58.48,58.48,0,0,0,8,5.67l6.36,4.7,2.68,2.89.26-.18.51-.33a7.26,7.26,0,0,0,1.2-.87c.81-.77,1.6-1.56,2.39-2.35,1.18-1.18,2.39-2.39,3.65-3.52,1.58-1.41,3.24-2.8,4.84-4.14,1-.87,2.09-1.74,3.12-2.63.75-.64,1.48-1.3,2.2-2,1.11-1,2.26-2,3.44-3A11.54,11.54,0,0,1,84.7,8.31l1.12-.56a.66.66,0,0,0,.34-.21l2.12-2.68.37-.49L89,4.09l.91-.7c1-.82,2.26-.57,4.1.82,1.65,1.24,3.36,2.43,5,3.58,1.19.83,2.38,1.65,3.56,2.5a6.33,6.33,0,0,1,.89.84,8.6,8.6,0,0,0,.79.78L121.8,26.64l3.77,2.67.21-.14a24.83,24.83,0,0,0,6.08-5.65,13.44,13.44,0,0,0,1.31-2.24,6.87,6.87,0,0,1,2.65-3.35.74.74,0,0,0,.25-.25l1.09-1.42q2.09-2.71,4.16-5.44a1.37,1.37,0,0,0,.24-.64l4.89-3.89.09-.11a3.17,3.17,0,0,1,2.89-1.6L160,12.5l8.31,6.79A54.22,54.22,0,0,1,174.94,24C177.53,26.1,178.43,23.7,178.43,23.7Z"/></g></g></svg>