<svg xmlns="http://www.w3.org/2000/svg" viewBox="0 0 66.79 80.82"><defs><style>.cls-1{fill:#f2f2f2;}.cls-1,.cls-2,.cls-3,.cls-4{stroke:#333e48;stroke-linecap:round;stroke-linejoin:round;stroke-width:3px;}.cls-2{fill:none;}.cls-3{fill:#fff;}.cls-4{fill:#dee3e7;}</style></defs><title>mouse-brush</title><g id="Layer_2" data-name="Layer 2"><g id="Layer_1-2" data-name="Layer 1"><rect class="cls-1" x="-1.95" y="44.53" width="46.2" height="24.91" rx="12.45" ry="12.45" transform="translate(-24.01 97.66) rotate(-111.65)"/><path class="cls-2" d="M3,7.64s10.07,1,9.37,6.56c-.55,4.34-10.3.79-10.86,6.37C1,25.84,8.23,24.45,12.62,35.51l4.46,11.24"/><polygon class="cls-3" points="59.12 44.01 50.92 42.53 59.61 1.5 65.29 2.52 59.12 44.01"/><polygon class="cls-1" points="59.12 44.01 50.92 42.53 54.14 27.33 61.41 28.64 59.12 44.01"/><path class="cls-4" d="M51.92,42.71c-8.72,6.67-.34,19.9-.34,19.9,1.09-4.82,7.21-6.27,8.08-11.12,1.08-6-1.46-7.64-1.46-7.64Z"/></g></g></svg>