<svg xmlns="http://www.w3.org/2000/svg" viewBox="0 0 127.09 117.13"><title>pattern-rect</title><g id="Layer_2" data-name="Layer 2"><g id="Layer_1-2" data-name="Layer 1"><path d="M61,6.11a2.86,2.86,0,0,0-.63.41,14,14,0,0,0-1,1.1l-.48.55c-.31.35-.62.7-1,1-.17.17-.35.32-.54.49l-.18.16-.86-.61L54.09,7.59c-.24-.17-.49-.33-.74-.49s-.66-.42-1-.65c-.75-.57-1.49-1.15-2.23-1.73S48.62,3.54,47.85,3A8.73,8.73,0,0,0,47,2.4c-.21-.13-.44-.26-.64-.4l-.95-.67c-.51-.37-1-.75-1.58-1.09a1.7,1.7,0,0,0-2.16.33L41.51.8a6.82,6.82,0,0,1-.56.83c-.24.29-.51.57-.77.84L39.72,3l-.33.38a4.86,4.86,0,0,1-.59.64c-.31.26-.65.51-1,.74s-.49.35-.72.53a2.37,2.37,0,0,0-.41.44l-.44.55c-.4.5-.82,1-1.22,1.53a4.76,4.76,0,0,0-.39.65l-.14.26-1.11,2a2.74,2.74,0,0,1-1.56-.77,3.52,3.52,0,0,0-1.14-.69l-1.06-.88-.47.93.18.13c.58.42,1.18.82,1.76,1.22l1.48,1a7.9,7.9,0,0,1,.71.59l.35.31.13.11.09-.15A23.84,23.84,0,0,0,35,10.37,12.87,12.87,0,0,1,37.1,6.95l.37-.32c.26-.23.54-.47.82-.68a7.18,7.18,0,0,0,2-2.05,2.28,2.28,0,0,1,.56-.55A4.1,4.1,0,0,0,41.23,3c.6-.62,1.08-1.14,1.5-1.64a.88.88,0,0,1,1,0l.53.35c.58.39,1.19.79,1.79,1.17a32.48,32.48,0,0,1,4.2,3,23.79,23.79,0,0,0,3.25,2.31l2.59,1.91,1.09,1.18.11-.07.21-.13a3,3,0,0,0,.49-.35l1-1c.48-.48,1-1,1.49-1.43s1.32-1.14,2-1.69l1.27-1.07.48-.43L62.94,4.5c-.45.42-.9.85-1.36,1.26A2.86,2.86,0,0,1,61,6.11Z"/><path d="M106.3,30.61l-.65.85-.83,1.08-4.19-3.66-.1-.25,0,0-.5-.32a8.9,8.9,0,0,1-1-.68c-.3-.25-.59-.53-.88-.8a14,14,0,0,0-1.09-1c-.67-.52-1.39-1-2.08-1.47l-.74-.5-.36-.22a2.77,2.77,0,0,1-.53-.36A2.22,2.22,0,0,0,91,22.53l-.23.07.22.22-3.77,3.28.22.21v.07l-.44.49-.22-.21-.34.43.17.21-.06.06-.23-.21-.21.39.16.13-.48.53.11-.58-2.42,2.89a2.24,2.24,0,0,0-.89.7,1.69,1.69,0,0,1-1.26.76h0l-1.87-2-.24-.26a8,8,0,0,0-.62-.64c-.59-.53-1.21-1-1.8-1.55L76.2,27a4,4,0,0,0-.55-.43L74.73,26c-.42-.24-.85-.48-1.26-.75a8.63,8.63,0,0,1-.84-.65l-.47-.38-.64-.48c-.36-.27-.73-.55-1.08-.84a12,12,0,0,1-.88-.84l-.21-.22a1.93,1.93,0,0,0-2.26-.3,14.11,14.11,0,0,0-1.19,1.09c-.23.23-.46.45-.7.67s-.33.27-.49.39a5.17,5.17,0,0,0-.67.56c-.55.58-1.1,1.18-1.64,1.77s-1.06,1.16-1.6,1.73a7.81,7.81,0,0,1-.72.64c-.19.16-.39.32-.57.49-.59.55-1.17,1.12-1.74,1.67l-.6.58L56.9,31c-.25-.17-.49-.32-.72-.49-.44-.32-.87-.67-1.29-1l-.07-.05-.66-.54c-.45-.37-.91-.75-1.4-1.09A4.53,4.53,0,0,0,52,27.4a4.69,4.69,0,0,1-.67-.35c-.78-.52-1.55-1.06-2.3-1.59l-1-.7a4,4,0,0,0-.43-.27L47,24.19c-.38-.19-.78-.38-1.15-.61-.7-.42-1.39-.87-2.07-1.31l-1.42-.91a1.43,1.43,0,0,0-2,.06c-.38.37-.79.73-1.19,1.07A11.78,11.78,0,0,0,37,24.59l-.18.26c-.17.24-.34.49-.53.72l-1.76,2.1-1.46,1.74L31.83,31l-.49.61a10.3,10.3,0,0,1-3.22-2.48,17.36,17.36,0,0,0-1.93-1.75l-.1-.25,0,0-.55-.38a9.43,9.43,0,0,1-1.06-.79l-.58-.56A8.59,8.59,0,0,0,22.18,24l-.32-.19-.45.9.71.44a.84.84,0,0,0,.18.26l2.47,2.19.7.62a.38.38,0,0,0,.1.07,4.85,4.85,0,0,1,1.61,1.39,9.16,9.16,0,0,0,.86.9,17.1,17.1,0,0,0,3.3,2.29l.09.05,1.14-1.09,4.94-6a2.08,2.08,0,0,0,.21-.33,1.48,1.48,0,0,1,.22-.33c.35-.35.71-.68,1.07-1s1-1,1.51-1.46,1-.65,1.55-.31l.46.28.19.11.32.27,1.21,1a.44.44,0,0,0,.17.08l.51.22a7.57,7.57,0,0,1,1.08.52c.63.39,1.25.81,1.86,1.22l1.18.79,1.66,1.07c.86.55,1.74,1.11,2.6,1.69.68.46,1.37,1,2,1.44l1.32,1a4.77,4.77,0,0,0,.61.35l.26.14.13.07.67-1.19,1.87-1.9a14.08,14.08,0,0,0,2.43-2.33,18.87,18.87,0,0,1,3.08-3c.46-.38.92-.78,1.36-1.17l.4-.36a.92.92,0,0,1,1.06.05c.61.5,1.27,1,2.1,1.64.17.13.36.25.54.36a3.93,3.93,0,0,1,.78.57,12.25,12.25,0,0,0,2.7,2c.37.21.73.45,1.08.69l.48.31a22.22,22.22,0,0,1,3.4,3.45c.6.7,1.22,1.43,1.89,2.11l.12.12.1-.13.24-.31a4.43,4.43,0,0,1,.48-.58c.36-.34.73-.68,1.11-1s.89-.8,1.32-1.22c.79-.77,1.54-1.56,2.3-2.38.51-.54,1-1.09,1.49-1.65l.65-.73.08-.12,2.3-2.43,2.55,1.7,0,0,2.34,1.56a4.66,4.66,0,0,0,.92.9l.68.52c.33.25.66.5,1,.76.47.38.94.79,1.4,1.18l.48.41,0,0,0,.06a13.24,13.24,0,0,0,3.9,3.21l.11.06,1.32-1.57.07-.11h0L109.76,28l-1-.5c-.32.38-.64.75-1,1.13C107.28,29.3,106.78,30,106.3,30.61Z"/><path d="M124.26,46.43c-.65-.53-1.34-1-2-1.52l-.06,0c-.25-.18-.51-.35-.77-.52a10.87,10.87,0,0,1-1.3-1l-.64-.6A13.2,13.2,0,0,0,117,40.84l0,0h-.62l0,.08A2.33,2.33,0,0,0,114.83,42c-.11.15-.22.29-.34.43a26.33,26.33,0,0,1-2.19,2.16,7.47,7.47,0,0,1-.83.61,7.22,7.22,0,0,0-.92.68,11.75,11.75,0,0,0-1.58,1.8,10.54,10.54,0,0,0-.67,1.11c-.16.3-.33.61-.52.89a5.66,5.66,0,0,1-.49.61,5.64,5.64,0,0,0-.55.7,1.89,1.89,0,0,0-.21.72l0,.12L105,50.9l-2.8-2.32-.28.14-.26-.17.31.09-.25-.49-.31.22-.14-.1,0,0,.14-.3-.25-.16-.17,0L101,48l-.18-.15h0l.15-.25-.51-.39-.15.22a2.84,2.84,0,0,1-.66-.75l0,0L94.9,43.49l.15-.24-.13-.08L94.65,43c-.18-.11-.37-.22-.54-.34-1.14-.81-1.6-.84-2.36-.15a27.61,27.61,0,0,1-2.17,1.77,5,5,0,0,0-1.18,1.39c-.12.19-.24.37-.38.55a5.46,5.46,0,0,1-.76.78l-.41.38,0,0v.25a10.19,10.19,0,0,0-1.28,1.74,6,6,0,0,1-2.29,2.45l-.73-.62-1.86-1.57L78.55,48,76,45.85c-.27-.23-.54-.48-.8-.72l-.28-.26a20.06,20.06,0,0,0-2.84-2.09c-.53-.34-1.07-.69-1.59-1.07-1-.74-1.55-.44-2,0l-1.09.91c-.51.43-1,.88-1.58,1.31a8.65,8.65,0,0,1-.92.6l-.5.31a2.42,2.42,0,0,0-.34.28l-.75.71c-.55.53-1.13,1.07-1.71,1.58a2.83,2.83,0,0,1-.53.34,2.89,2.89,0,0,0-.63.42,13.88,13.88,0,0,0-1,1.1l-.48.55c-.31.35-.62.7-1,1-.17.17-.35.32-.54.49l-.18.16-.86-.61-2.33-1.65c-.24-.17-.49-.33-.74-.49s-.66-.42-1-.65c-.75-.57-1.49-1.15-2.23-1.73s-1.52-1.19-2.29-1.77A8.65,8.65,0,0,0,47,44c-.21-.13-.44-.26-.64-.4l-.95-.67c-.51-.37-1-.75-1.58-1.09a1.7,1.7,0,0,0-2.16.33l-.14.22a6.82,6.82,0,0,1-.56.83c-.24.29-.51.57-.77.84l-.46.49-.33.38a4.86,4.86,0,0,1-.59.64c-.31.26-.65.51-1,.74s-.49.35-.72.53a2.38,2.38,0,0,0-.41.44l-.44.55c-.4.5-.82,1-1.22,1.53a4.76,4.76,0,0,0-.39.65l-.14.26-1.11,2a2.73,2.73,0,0,1-1.56-.77,3.52,3.52,0,0,0-1.14-.69l-3.58-3,.32.59-.62-.49.12-.14-.31-.34-.15.21-.13-.1.09-.21L26,47l-.14.21-.63-.5v0l0-.11.14-.2-5-3.28.13-.21-.19-.05a1.67,1.67,0,0,0-2.06.78,1.6,1.6,0,0,1-.38.34,3.11,3.11,0,0,0-.29.22l-.56.51c-.52.47-1.06.95-1.54,1.47a8.24,8.24,0,0,0-.74,1,9.75,9.75,0,0,1-.58.8,5.24,5.24,0,0,1-.72.67l-.38.32,0,0v.25l-2.81,3.62L8.9,51.74l-.75-.67-.44.87.59.51h0l2,1.63.09-.07a7.78,7.78,0,0,0,2.74-3.23.35.35,0,0,0,0-.08l.33-.42c.31-.39.63-.79,1-1.17s.46-.51.69-.75l.49-.53a2.8,2.8,0,0,0,.6-.9l1.66-1.47.09-.13,1.89-1.67L23,46.12h0l1,.83c.7.55,1.4,1.11,2.11,1.65,1.06.81,2.1,1.61,3.17,2.37.58.42,1.18.82,1.76,1.22l1.48,1a7.9,7.9,0,0,1,.71.59l.35.31.13.11.09-.15c.42-.68.77-1.41,1.11-2.11a12.87,12.87,0,0,1,2.11-3.42l.37-.32c.26-.23.54-.47.82-.68a7.18,7.18,0,0,0,2-2.05,2.28,2.28,0,0,1,.56-.55,4.1,4.1,0,0,0,.42-.36c.6-.62,1.08-1.14,1.5-1.64a.88.88,0,0,1,1,0l.53.35c.58.39,1.19.79,1.79,1.17a32.48,32.48,0,0,1,4.2,3,23.79,23.79,0,0,0,3.25,2.31l2.59,1.91,1.09,1.18.11-.07.21-.13a3,3,0,0,0,.49-.35l1-1c.48-.48,1-1,1.49-1.43s1.32-1.14,2-1.69l1.27-1.07.9-.8c.45-.41.92-.83,1.4-1.22a4.69,4.69,0,0,1,.88-.51l.45-.23a.27.27,0,0,0,.14-.08l.86-1.09.15-.2.16-.12.37-.29c.42-.33.92-.23,1.67.33s1.37,1,2,1.46l1.45,1a2.6,2.6,0,0,1,.36.34,3.49,3.49,0,0,0,.32.32l7.11,6,1.54,1.09.08-.06a10.1,10.1,0,0,0,2.47-2.3,5.46,5.46,0,0,0,.53-.91,2.8,2.8,0,0,1,1.08-1.37.3.3,0,0,0,.1-.1l.44-.58,1.69-2.21a.56.56,0,0,0,.1-.26l2-1.58,0,0a1.29,1.29,0,0,1,1.17-.65l4.31,3.22,3.38,2.76a22,22,0,0,1,2.7,1.94A21.28,21.28,0,0,0,107,53.4l.14.07.07-.14.29-.61c.23-.49.44-1,.68-1.41a4,4,0,0,1,.31-.49c.1-.14.2-.28.28-.42s.18-.34.27-.52a4.39,4.39,0,0,1,.44-.78c.33-.43.69-.84,1-1.24s.47-.54.7-.81a.94.94,0,0,0,.15-.31.5.5,0,0,1,.12-.23c.24-.17.5-.34.76-.49a9.62,9.62,0,0,0,.95-.64,4.75,4.75,0,0,0,.69-.73c.11-.14.23-.28.35-.41.34-.37.71-.75,1.14-1.17l.4-.38c.18-.16.37-.33.54-.51a.58.58,0,0,1,.48-.18,1.35,1.35,0,0,1,.93.5,12.44,12.44,0,0,0,2.72,2.17l.41.27a23.15,23.15,0,0,1,3.44,2.63,25.87,25.87,0,0,0,2.14,1.79l.33.26.35-.69c-.54-.42-1.05-.88-1.55-1.34S124.7,46.79,124.26,46.43Z"/><path d="M115.49,63.55a1.25,1.25,0,0,0-1.48,0l-.15.13c-.82.72-1.67,1.46-2.47,2.23a3.44,3.44,0,0,0-.47.61,4.62,4.62,0,0,1-.3.41l-1.15,1.36c-.55.65-1.12,1.32-1.67,2s-1,1.3-1.5,1.94l-.65.86-.83,1.08-4.19-3.66-.1-.25,0,0-.5-.32a8.9,8.9,0,0,1-1-.68c-.3-.25-.59-.53-.88-.8a14,14,0,0,0-1.09-1c-.67-.52-1.39-1-2.08-1.47l-.74-.5-.36-.22a2.75,2.75,0,0,1-.53-.36A2.22,2.22,0,0,0,91,64.13l-.23.07.22.22-3.77,3.28.22.21V68l-.44.49-.22-.21-.34.43.17.21-.06.06-.23-.21-.21.39.16.13-.48.53.11-.58-2.42,2.89a2.24,2.24,0,0,0-.89.7,1.69,1.69,0,0,1-1.26.76h0l-1.87-2-.24-.26a7.89,7.89,0,0,0-.62-.64c-.59-.53-1.21-1-1.8-1.55l-.62-.53a4,4,0,0,0-.55-.43l-.92-.53c-.42-.24-.85-.48-1.26-.75a8.63,8.63,0,0,1-.84-.65l-.47-.38-.64-.48c-.36-.27-.73-.55-1.08-.84a12,12,0,0,1-.88-.84l-.21-.22a1.93,1.93,0,0,0-2.26-.3,14.19,14.19,0,0,0-1.19,1.09c-.23.23-.46.45-.7.67s-.33.27-.49.39a5.21,5.21,0,0,0-.67.56c-.55.58-1.1,1.18-1.64,1.77s-1.06,1.16-1.6,1.73a7.75,7.75,0,0,1-.72.64c-.19.16-.39.32-.57.49-.59.55-1.17,1.12-1.74,1.67l-.6.58-.26-.17c-.25-.17-.49-.32-.72-.49-.44-.32-.87-.67-1.29-1L54.82,71l-.66-.54c-.45-.37-.91-.75-1.4-1.1A4.53,4.53,0,0,0,52,69a4.64,4.64,0,0,1-.67-.35c-.78-.52-1.55-1.06-2.3-1.59l-1-.7a4,4,0,0,0-.43-.27L47,65.79c-.38-.19-.78-.38-1.15-.61-.7-.42-1.39-.87-2.07-1.31L42.36,63a1.43,1.43,0,0,0-2,.06c-.38.37-.79.73-1.19,1.07A11.76,11.76,0,0,0,37,66.2l-.18.26c-.17.24-.34.49-.53.72l-1.76,2.1L33.11,71l-1.28,1.56-.49.61a10.3,10.3,0,0,1-3.22-2.48,17.42,17.42,0,0,0-1.93-1.75l-.1-.25,0,0-.55-.38a9.49,9.49,0,0,1-1.06-.79l-.58-.56a8.57,8.57,0,0,0-1.66-1.37c-1-.55-1.91-1.15-2.82-1.77s-1.45-.64-2.3.18a4.76,4.76,0,0,1-.42.35l-.2.16-.13.11.24.24L13,68v.07a1.61,1.61,0,0,1-.35.7l-.24-.23-.3.33,0,.15.19.2.11-.09-.17.19L12,69.06l-.34.28.23.28.28-.24-.29.3-.2-.11-.23-.09-.06.45.36-.11a3.92,3.92,0,0,1-.32.27l0-.07-.3-.13L9.17,72.21,8,73.17,7.93,73a2.76,2.76,0,0,0-.46-.7,9.57,9.57,0,0,0-.8-.69c-.24-.2-.5-.4-.72-.62s-.58-.6-.85-.9S4.41,69.32,4,69A20.17,20.17,0,0,0,1.8,67.18a11.77,11.77,0,0,0-1.16-.67l-.2-.11L0,67.27l.09.05c.31.16.64.32.94.5a.87.87,0,0,1,.23.26,1.46,1.46,0,0,0,.25.29l1,.81c.5.4,1,.81,1.49,1.24a7.6,7.6,0,0,1,.73.79c.15.17.3.35.45.52s.28.28.43.42.35.32.5.5c.41.46.8.93,1.21,1.42l.58.7L8,74.69a12.53,12.53,0,0,0,2.55-2.36,13.09,13.09,0,0,1,2-2l2.34-2.74L18,64.43a2.05,2.05,0,0,1,1.45.68l2.62,1.62a.84.84,0,0,0,.18.26l2.47,2.19.7.62a.38.38,0,0,0,.1.07,4.85,4.85,0,0,1,1.61,1.39,9.16,9.16,0,0,0,.86.9,17.1,17.1,0,0,0,3.3,2.29l.09.05,1.14-1.09,4.94-6a2.08,2.08,0,0,0,.21-.33,1.48,1.48,0,0,1,.22-.33c.35-.35.71-.68,1.07-1s1-1,1.51-1.46,1-.65,1.55-.31l.46.28.19.11.32.27,1.21,1a.44.44,0,0,0,.17.08l.51.22a7.57,7.57,0,0,1,1.08.52c.63.39,1.25.81,1.86,1.22l1.18.79,1.66,1.07c.86.55,1.74,1.11,2.6,1.69.68.46,1.37,1,2,1.44l1.32,1a4.77,4.77,0,0,0,.61.35l.26.14.13.07.67-1.2,1.87-1.9a14.1,14.1,0,0,0,2.43-2.33,18.87,18.87,0,0,1,3.08-3c.46-.38.92-.78,1.36-1.17l.4-.36a.92.92,0,0,1,1.06.05c.61.5,1.27,1,2.1,1.64.17.13.36.25.54.36a4,4,0,0,1,.78.57,12.23,12.23,0,0,0,2.7,2c.37.21.73.45,1.08.69l.48.31a22.22,22.22,0,0,1,3.4,3.45c.6.7,1.22,1.43,1.89,2.11l.12.12.1-.13.24-.31a4.43,4.43,0,0,1,.48-.58c.36-.34.73-.68,1.11-1s.89-.8,1.32-1.22c.79-.77,1.54-1.56,2.3-2.38.51-.54,1-1.09,1.49-1.65l.65-.73.08-.12L91.69,65l2.55,1.7,0,0,2.34,1.56a4.65,4.65,0,0,0,.92.9l.68.52c.33.25.66.5,1,.76.47.38.94.79,1.4,1.18L101,72l0,0,0,.06a13.24,13.24,0,0,0,3.9,3.21l.11.06,1.32-1.57.07-.11h0l4.81-6,.7-.87a7.59,7.59,0,0,1,2.67-2.48l2.59,1.3.06.09a.83.83,0,0,0,.23.27l.72.46.55-1.08c-.17-.12-.35-.25-.53-.36C117.46,64.58,116.56,64.08,115.49,63.55Z"/><path d="M102.23,90.19l-.28.14-.26-.17.31.09-.25-.49-.31.22-.14-.1,0,0,.14-.3-.25-.16-.17,0-.1.22-.18-.15h0l.15-.25-.51-.4-.15.23a2.85,2.85,0,0,1-.66-.75l0,0L94.9,85.09l.15-.24-.13-.08-.27-.16c-.18-.11-.37-.22-.54-.34-1.14-.81-1.6-.84-2.36-.15a27.62,27.62,0,0,1-2.17,1.77,5,5,0,0,0-1.18,1.39c-.12.19-.24.37-.38.55a5.44,5.44,0,0,1-.76.78l-.41.38,0,0v.25A10.19,10.19,0,0,0,85.52,91a6,6,0,0,1-2.29,2.45l-.73-.62-1.86-1.57-2.09-1.73L76,87.45c-.27-.23-.54-.48-.8-.72l-.28-.26a20.06,20.06,0,0,0-2.84-2.09c-.53-.34-1.07-.69-1.59-1.07-1-.74-1.55-.44-2,0l-1.09.91c-.51.43-1,.88-1.58,1.31a8.65,8.65,0,0,1-.92.6l-.5.31a2.42,2.42,0,0,0-.34.28l-.75.71c-.55.53-1.13,1.07-1.71,1.58a2.83,2.83,0,0,1-.53.34,2.88,2.88,0,0,0-.63.42,14,14,0,0,0-1,1.1l-.48.55c-.31.35-.62.7-1,1-.17.17-.35.32-.54.49l-.18.16-.86-.61-2.33-1.65c-.24-.17-.49-.33-.74-.49s-.66-.42-1-.65c-.75-.57-1.49-1.15-2.23-1.73s-1.52-1.19-2.29-1.77A8.73,8.73,0,0,0,47,85.6c-.21-.13-.44-.26-.64-.4l-.95-.67c-.51-.37-1-.75-1.58-1.09a1.7,1.7,0,0,0-2.16.33l-.14.22a6.86,6.86,0,0,1-.56.83c-.24.29-.51.57-.77.84l-.46.49-.33.38a4.86,4.86,0,0,1-.59.64c-.31.26-.65.51-1,.74s-.49.35-.72.53a2.37,2.37,0,0,0-.41.44l-.44.55c-.4.5-.82,1-1.22,1.53a4.76,4.76,0,0,0-.39.65l-.14.26-1.11,2a2.74,2.74,0,0,1-1.56-.77,3.52,3.52,0,0,0-1.14-.69l-3.58-3,.32.59-.62-.49.12-.14-.31-.34-.15.21-.13-.1.09-.21L26,88.55l-.14.21-.63-.5v0l0-.11.14-.2-5-3.28.13-.21-.19-.05a1.67,1.67,0,0,0-2.06.78,1.6,1.6,0,0,1-.38.34,3.11,3.11,0,0,0-.29.22l-.56.51c-.52.47-1.06.95-1.54,1.47a8.24,8.24,0,0,0-.74,1,9.84,9.84,0,0,1-.58.8,5.24,5.24,0,0,1-.72.67l-.38.32,0,0v.25l-1.51,1.95,1.14.57a5.76,5.76,0,0,0,.5-.95.35.35,0,0,0,0-.08l.33-.42c.31-.39.63-.79,1-1.17s.46-.51.69-.75l.49-.53a2.8,2.8,0,0,0,.6-.9l1.66-1.47.09-.13,1.89-1.67L23,87.72h0l1,.83c.7.56,1.4,1.11,2.11,1.65,1.06.81,2.1,1.61,3.17,2.37.58.42,1.18.82,1.76,1.22l1.48,1a7.9,7.9,0,0,1,.71.59l.35.31.13.11.09-.15A23.84,23.84,0,0,0,35,93.57a12.87,12.87,0,0,1,2.11-3.42l.37-.32c.26-.23.54-.47.82-.68a7.18,7.18,0,0,0,2-2.05,2.27,2.27,0,0,1,.56-.55,4.1,4.1,0,0,0,.42-.36c.6-.62,1.08-1.14,1.5-1.64a.88.88,0,0,1,1,0l.53.35c.58.39,1.19.79,1.79,1.17a32.48,32.48,0,0,1,4.2,3,23.79,23.79,0,0,0,3.25,2.31l2.59,1.91,1.09,1.18.11-.07.21-.13a3,3,0,0,0,.49-.35l1-1c.48-.48,1-1,1.49-1.43s1.32-1.14,2-1.69l1.27-1.07.9-.8c.45-.41.92-.83,1.4-1.22a4.69,4.69,0,0,1,.88-.51l.45-.23a.27.27,0,0,0,.14-.08l.86-1.09.15-.2.16-.12.37-.29c.42-.33.92-.23,1.67.33s1.37,1,2,1.46l1.45,1a2.6,2.6,0,0,1,.36.34,3.49,3.49,0,0,0,.32.32l7.11,6,1.54,1.09.08-.06a10.1,10.1,0,0,0,2.47-2.3,5.47,5.47,0,0,0,.53-.91,2.79,2.79,0,0,1,1.08-1.37.3.3,0,0,0,.1-.1l.44-.58,1.69-2.21A.56.56,0,0,0,90,87l2-1.58,0,0a1.29,1.29,0,0,1,1.17-.65l4.31,3.22,3.38,2.76a22,22,0,0,1,2.7,1.94l1.08.84.46-.91L105,92.5Z"/><path d="M94.23,107.07l-.36-.22a2.77,2.77,0,0,1-.53-.36,2.22,2.22,0,0,0-2.31-.76l-.23.07L91,106l-3.77,3.28.22.21v.07l-.44.49-.22-.21-.34.43.17.21-.06.06-.23-.21-.21.39.16.13-.48.53.11-.58-2.42,2.89a2.24,2.24,0,0,0-.89.7,1.69,1.69,0,0,1-1.26.75h0l-1.87-2-.24-.26a8,8,0,0,0-.62-.64c-.59-.53-1.21-1-1.8-1.55l-.62-.53a4,4,0,0,0-.55-.43l-.92-.53c-.42-.24-.85-.48-1.26-.75a8.63,8.63,0,0,1-.84-.65l-.47-.38-.64-.48c-.36-.27-.73-.55-1.08-.84a12,12,0,0,1-.88-.84l-.21-.22a1.93,1.93,0,0,0-2.26-.3,14.11,14.11,0,0,0-1.19,1.09c-.23.23-.46.45-.7.67s-.33.27-.49.39a5.21,5.21,0,0,0-.67.56c-.55.58-1.1,1.18-1.64,1.77s-1.06,1.16-1.6,1.73a7.75,7.75,0,0,1-.72.64c-.19.16-.39.32-.57.49-.59.55-1.17,1.12-1.74,1.67l-.6.58-.26-.17c-.25-.17-.49-.32-.72-.5-.44-.32-.87-.67-1.29-1l-.07-.05-.66-.54c-.45-.37-.91-.75-1.4-1.09a4.5,4.5,0,0,0-.76-.41,4.64,4.64,0,0,1-.67-.35c-.78-.52-1.55-1.06-2.3-1.59l-1-.7a4,4,0,0,0-.43-.27l-.61-.31c-.38-.19-.78-.38-1.15-.61-.7-.42-1.39-.87-2.07-1.31l-1.42-.91a1.43,1.43,0,0,0-2,.06c-.38.37-.79.73-1.19,1.07l-.72.63,1.08.54c.35-.33.71-.66,1-1,.54-.56,1-.65,1.55-.31l.46.28.19.11.32.27,1.21,1a.44.44,0,0,0,.17.08l.51.22a7.57,7.57,0,0,1,1.08.52c.63.39,1.25.81,1.86,1.22l1.18.79,1.66,1.07c.86.55,1.74,1.11,2.6,1.69.68.46,1.37,1,2,1.44l1.32,1a4.77,4.77,0,0,0,.61.35l.26.14.13.07.67-1.2,1.87-1.9a14.07,14.07,0,0,0,2.43-2.33,18.87,18.87,0,0,1,3.08-3c.46-.38.92-.78,1.36-1.17l.4-.36a.92.92,0,0,1,1.06.05c.61.5,1.27,1,2.1,1.64.17.13.36.25.54.36a4,4,0,0,1,.78.57,12.22,12.22,0,0,0,2.7,2c.37.21.73.45,1.08.69l.48.31a22.22,22.22,0,0,1,3.4,3.45c.6.7,1.22,1.43,1.89,2.11l.12.12.1-.13.24-.31a4.43,4.43,0,0,1,.48-.58c.36-.34.73-.68,1.11-1s.89-.8,1.32-1.22c.79-.77,1.54-1.56,2.3-2.38.51-.54,1-1.09,1.49-1.65l.65-.73.08-.12,2.3-2.43,2.55,1.7,0,0,2.26,1.51.44-.87c-.63-.48-1.3-.94-1.95-1.38Z"/></g></g></svg>