<svg width="241" height="24" viewBox="0 0 241 24" fill="none" xmlns="http://www.w3.org/2000/svg">
<path d="M236.955 19.1898L236.205 18.6127L232.763 15.9296C232.575 15.7872 232.395 15.6373 232.208 15.4799C231.783 15.1106 231.326 14.7795 230.843 14.4906C229.27 13.5387 227.826 12.3902 226.545 11.0729C225.893 10.4658 225.225 9.83625 224.528 9.25165C223.515 8.41223 222.443 7.61777 221.407 6.8458L221.31 6.77085C220.92 6.47855 220.515 6.20874 220.11 5.93892C219.398 5.48823 218.718 4.9873 218.077 4.43995C217.74 4.13266 217.41 3.81038 217.072 3.4956C215.933 2.3186 214.656 1.28196 213.27 0.407715H213.217H212.25L212.182 0.535129C211.679 0.631108 211.201 0.831426 210.78 1.12317C210.359 1.41491 210.004 1.79161 209.737 2.22897C209.565 2.46131 209.385 2.68615 209.197 2.89601C208.109 4.0864 206.949 5.21017 205.725 6.2612C205.311 6.60774 204.872 6.92337 204.412 7.20555C203.901 7.5177 203.415 7.86849 202.957 8.25484C202.027 9.10152 201.185 10.0407 200.445 11.0579C200.05 11.6166 199.692 12.1999 199.372 12.8042C199.117 13.2689 198.847 13.7486 198.547 14.1983C198.319 14.5318 198.068 14.8498 197.797 15.1501C197.479 15.4914 197.188 15.8572 196.927 16.2444C196.742 16.5932 196.627 16.9753 196.59 17.3686C196.59 17.436 196.59 17.5035 196.59 17.5635L194.28 16.0645L189.915 12.392L189.472 12.6168L189.067 12.347L189.555 12.4894L189.165 11.7399L188.67 12.0847L188.46 11.9273H188.512L188.722 11.4551L188.325 11.2003L188.062 11.1254L187.912 11.4701L187.627 11.2378H187.695L187.927 10.8481L187.14 10.226L186.892 10.5782C186.484 10.2473 186.139 9.84625 185.872 9.39406V9.31911L178.485 4.26757L178.725 3.90032L178.522 3.77291L178.11 3.51059C177.825 3.33821 177.525 3.15833 177.255 2.96346C175.477 1.68184 174.75 1.62938 173.55 2.69365C172.454 3.66744 171.31 4.58548 170.122 5.44426C169.374 6.04548 168.742 6.77673 168.255 7.60278C168.067 7.89508 167.872 8.18738 167.662 8.47219C167.3 8.91768 166.896 9.32684 166.454 9.69385C166.237 9.88122 166.019 10.0761 165.802 10.2859L165.734 10.3459V10.7356C164.956 11.5673 164.272 12.4822 163.695 13.4638C162.704 15.0002 161.774 16.4617 160.072 17.2861L158.924 16.2968L156.022 13.816L152.752 11.0729L148.784 7.7302C148.357 7.37044 147.944 6.98071 147.547 6.59098L147.112 6.17876C145.735 4.94578 144.252 3.83719 142.679 2.86603C141.854 2.3189 140.999 1.75679 140.197 1.1647C138.607 -0.0119959 137.767 0.415211 136.979 1.08225C136.402 1.54693 135.832 2.02661 135.254 2.49878C134.444 3.17332 133.604 3.87034 132.749 4.52989C132.289 4.87247 131.805 5.18299 131.302 5.45925L130.507 5.93892C130.319 6.07075 130.141 6.21603 129.974 6.37362L128.699 7.47537C127.822 8.29231 126.914 9.13923 125.992 9.94118C125.734 10.146 125.455 10.3219 125.159 10.4658C124.801 10.6317 124.468 10.8461 124.169 11.1029C123.599 11.6425 123.082 12.2421 122.579 12.8192C122.339 13.0965 122.099 13.3813 121.829 13.6811C121.342 14.2207 120.839 14.7754 120.329 15.3C120.067 15.5623 119.782 15.8022 119.482 16.0495L119.197 16.2968L117.854 15.3225C116.662 14.4456 115.447 13.5612 114.224 12.6918C113.841 12.422 113.474 12.1672 113.054 11.9423C112.634 11.7175 112.027 11.2828 111.554 10.908C110.384 10.0086 109.221 9.08676 108.066 8.1649C106.911 7.24303 105.689 6.27619 104.489 5.35432C104.055 5.0295 103.602 4.73164 103.131 4.46243C102.794 4.26757 102.449 4.05771 102.126 3.83287C101.624 3.4881 101.136 3.12835 100.626 2.7611C99.8314 2.1765 98.9989 1.56192 98.1514 1.03728C96.9589 0.287797 95.2788 0.69252 94.7463 1.53194L94.5363 1.8842C94.2692 2.33414 93.971 2.76489 93.6439 3.17332C93.2613 3.6305 92.8338 4.06521 92.4213 4.48492C92.1738 4.73225 91.9263 4.98707 91.6713 5.2344C91.4163 5.48174 91.3263 5.62414 91.1538 5.8265C90.8706 6.18744 90.5569 6.52345 90.2163 6.83081C89.7213 7.23553 89.1813 7.61777 88.6638 7.98502C88.2813 8.25484 87.9138 8.52465 87.5238 8.80945C87.2805 9.01121 87.0638 9.24289 86.8788 9.49898L86.1813 10.3534C85.5363 11.1029 84.8763 11.9348 84.2537 12.7443C84.0157 13.0659 83.805 13.4068 83.6238 13.7636C83.5563 13.8985 83.4812 14.0334 83.4062 14.1683L81.6287 17.2712C80.7036 17.1387 79.8474 16.7069 79.1912 16.042C78.6751 15.564 78.0715 15.1899 77.4137 14.9403L71.8187 10.2185L72.3211 11.1479L71.3537 10.3984L71.5412 10.1885L71.0536 9.64138L70.8211 9.96366L70.6187 9.80627L70.7611 9.469L70.0562 8.84693L69.8386 9.1767L68.8561 8.42722L68.7961 8.25484L69.0136 7.93256L61.2436 2.72363L61.446 2.39385L61.1535 2.31141C60.5589 2.08187 59.9009 2.07704 59.303 2.29782C58.7051 2.51861 58.2084 2.94983 57.906 3.51059C57.7373 3.72314 57.5315 3.90342 57.2985 4.04272C57.1408 4.1499 56.9904 4.26759 56.8485 4.39498L55.9635 5.14447C55.1156 5.86786 54.3046 6.6333 53.5335 7.4379C53.1044 7.90771 52.7107 8.40875 52.3559 8.93687C52.0729 9.36729 51.7675 9.78257 51.441 10.181C51.0887 10.5601 50.7048 10.9086 50.2934 11.2228L49.686 11.7175L49.611 11.7849V12.1821L45.1109 17.8333L43.1608 16.0795C42.6658 15.6448 42.1783 15.1951 41.6608 14.7529C40.5283 13.7336 39.3584 12.6693 38.1809 11.6575C37.0034 10.6457 35.6909 9.55145 34.4309 8.50966C33.5758 7.76017 32.7133 7.07814 31.8583 6.35114C31.6108 6.14878 31.3857 5.91644 31.1532 5.69159C30.8217 5.35129 30.4658 5.03567 30.0883 4.74724C28.3783 3.52558 26.6157 2.33389 24.9132 1.18718L24.6432 0.99981C24.3122 0.751695 23.9095 0.61757 23.4957 0.61757C23.0819 0.61757 22.6792 0.751695 22.3482 0.99981C21.1246 1.70701 19.9518 2.49837 18.8382 3.36819C18.3869 3.74185 17.9633 4.14763 17.5706 4.58235C17.2257 4.96444 16.8575 5.32488 16.4681 5.66161C15.9951 6.02165 15.4934 6.34249 14.9681 6.62096L14.2181 7.07814C14.0298 7.2065 13.8518 7.34934 13.6856 7.50535L12.4556 8.64457C11.5406 9.49149 10.5956 10.3684 9.64309 11.2078C9.41328 11.3911 9.16129 11.5447 8.89308 11.665C8.62651 11.7944 8.375 11.9528 8.14307 12.1372C7.94312 12.3113 7.77551 12.5193 7.64804 12.7518C7.55895 12.9098 7.45342 13.0581 7.3331 13.1939C6.39559 14.1458 4.453 16.027 3.50799 16.9414L2.94549 17.5035C2.78049 17.6609 2.60053 17.8108 2.42803 17.9682L2.32301 18.0581C1.84327 17.6576 1.26166 17.3982 0.643007 17.3086C0.380504 17.3836 0.598028 17.7583 0.478027 18.1181V18.8226C2.27804 20.4565 2.79549 19.9468 3.418 19.3997C5.13551 17.9007 7.87304 15.6897 9.05055 13.876C9.18237 13.7368 9.34761 13.6336 9.53057 13.5762C9.70688 13.5087 9.87339 13.418 10.0256 13.3064C10.9256 12.5919 11.8206 11.8749 12.7106 11.1553L15.8081 8.66705L18.1782 6.75586L18.2607 6.72588C19.0107 6.13379 19.7606 5.52671 20.4656 4.90463C20.5885 4.77589 20.6718 4.61461 20.7057 4.43995C20.7024 4.40505 20.7024 4.36992 20.7057 4.33502L23.9982 2.34888C26.0532 3.48061 28.3557 4.76972 29.6757 6.35863L41.0459 16.1919L42.1709 17.1887L45.2384 19.7669L45.3884 19.662C47.2785 18.4327 48.7917 16.7053 49.7609 14.6704C49.7649 14.6281 49.7649 14.5854 49.7609 14.543L50.2934 13.891C50.7809 13.2839 51.2834 12.6618 51.7934 12.0697C52.1384 11.665 52.5435 11.2753 52.8885 10.893L53.6385 10.0761C54.043 9.67298 54.3642 9.19418 54.5835 8.66705L57.2086 6.38112L57.3585 6.18625L60.3585 3.59303L65.3611 7.46788L66.9961 8.77948C68.0911 9.66387 69.1786 10.5408 70.2886 11.4027C71.9386 12.6918 73.5586 13.9509 75.2387 15.1501C76.1462 15.8097 77.0837 16.4617 77.9912 17.0838C78.7412 17.6159 79.5362 18.1406 80.3012 18.6877C80.6869 18.9779 81.055 19.2908 81.4037 19.6245L81.9513 20.1117L82.1612 20.2916L82.3037 20.0592C82.9534 18.9891 83.5467 17.8859 84.0813 16.754C84.9203 14.8093 86.0563 13.0066 87.4488 11.4102L88.0338 10.9155C88.4538 10.5558 88.8813 10.166 89.3388 9.85874C90.5933 9.03446 91.6716 7.96961 92.5113 6.72588C92.7551 6.38778 93.0573 6.09589 93.4038 5.86397C93.636 5.69137 93.8565 5.50358 94.0638 5.30186C95.0163 4.33502 95.7663 3.51808 96.4339 2.73862C96.6706 2.56733 96.9553 2.47511 97.2476 2.47511C97.5398 2.47511 97.8247 2.56733 98.0614 2.73862L98.8789 3.29324C99.7939 3.91531 100.731 4.55987 101.676 5.15946C103.988 6.58705 106.182 8.19602 108.239 9.97116C109.829 11.3343 111.53 12.5627 113.324 13.6436L117.367 16.6416L119.062 18.5078L119.227 18.3954L119.557 18.1855C119.826 18.0311 120.077 17.8476 120.307 17.6384C120.832 17.1512 121.342 16.6491 121.852 16.1394C122.602 15.3899 123.397 14.6405 124.207 13.891C125.219 12.9916 126.292 12.1147 127.327 11.2678C127.994 10.7206 128.669 10.166 129.329 9.60391C129.829 9.19919 130.302 8.78697 130.747 8.36726C131.497 7.73019 132.202 7.07814 132.997 6.47855C133.433 6.16639 133.901 5.90016 134.392 5.6841L135.142 5.33933C135.228 5.31576 135.305 5.2691 135.367 5.20443C135.824 4.64231 136.274 4.0727 136.732 3.50309L136.972 3.1958L137.219 3.00843L137.804 2.56624C138.472 2.04909 139.252 2.21398 140.429 3.11336C141.472 3.91531 142.567 4.67978 143.617 5.42178C144.367 5.96141 145.117 6.49354 145.867 7.04067C146.071 7.20542 146.259 7.38857 146.429 7.58779C146.586 7.76375 146.753 7.92901 146.932 8.08245L158.032 17.5934L160.432 19.3172L160.559 19.2348C162.058 18.2682 163.384 17.0572 164.482 15.6523C164.811 15.207 165.095 14.73 165.329 14.2282C165.656 13.3539 166.256 12.6077 167.04 12.0997C167.103 12.0591 167.156 12.0054 167.197 11.9423L167.902 11.0429C168.802 9.88871 169.702 8.742 170.587 7.58779C170.671 7.46461 170.725 7.32341 170.745 7.17557L173.887 4.71726L173.947 4.64981C174.133 4.32803 174.405 4.06394 174.732 3.88671C175.059 3.70947 175.428 3.62599 175.8 3.64549L182.55 8.75699L187.8 13.134C189.282 14.0515 190.691 15.0813 192.015 16.2144C193.66 17.6318 195.438 18.8868 197.325 19.9618L197.542 20.0742L197.647 19.8569C197.797 19.5346 197.947 19.2198 198.105 18.905C198.465 18.1555 198.81 17.4061 199.185 16.7015C199.334 16.4397 199.502 16.1891 199.687 15.9521C199.848 15.7374 199.999 15.5148 200.137 15.285C200.287 15.0302 200.422 14.7529 200.557 14.4756C200.747 14.0478 200.981 13.6409 201.255 13.2614C201.772 12.5944 202.35 11.9498 202.905 11.3277C203.272 10.908 203.655 10.4883 204.007 10.0611C204.118 9.91579 204.2 9.75033 204.247 9.57393C204.278 9.44005 204.343 9.31625 204.435 9.21418C204.817 8.94436 205.23 8.69703 205.635 8.46469C206.153 8.16295 206.654 7.83266 207.135 7.47537C207.537 7.13086 207.904 6.74668 208.23 6.32866C208.41 6.11131 208.59 5.89395 208.777 5.69159C209.317 5.12198 209.91 4.52989 210.585 3.87034C210.787 3.66798 211.005 3.48061 211.222 3.28574C211.44 3.09088 211.8 2.7686 212.07 2.48379C212.165 2.38295 212.282 2.30496 212.412 2.25564C212.542 2.20633 212.682 2.18696 212.82 2.19899C213.103 2.22813 213.377 2.3142 213.626 2.45202C213.874 2.58985 214.093 2.77657 214.267 3.00094C215.516 4.33479 216.945 5.48767 218.512 6.42609L219.157 6.85329C221.076 8.07491 222.874 9.4752 224.528 11.0354C225.593 12.0387 226.71 12.9868 227.873 13.876C228.39 14.2807 228.908 14.6854 229.373 15.1051L229.433 15.1501C229.692 15.3977 229.998 15.5913 230.333 15.7197L233.333 18.1256L240.375 23.6943L240.555 22.0079L236.955 19.1898Z" fill="#323E48"/>
</svg>
