<svg xmlns="http://www.w3.org/2000/svg" viewBox="0 0 105.49 87.86"><defs><style>.cls-1{fill:none;}</style></defs><title>pattern</title><g id="Layer_2" data-name="Layer 2"><g id="Layer_1-2" data-name="Layer 1"><rect class="cls-1" x="0.76" width="104.6" height="87.86"/><path d="M1.29,10.82l1.1-1.19a.82.82,0,0,0,.32-.26l0,0,.49-.54A10.61,10.61,0,0,0,4.27,7.53,9.4,9.4,0,0,1,6,5.69l.22-.19A5.14,5.14,0,0,0,7.59,4,.58.58,0,0,1,8,3.64a.62.62,0,0,1,.52.13l.5.36.39.27,1.11.83.35.29a5.69,5.69,0,0,0,.67.51c.27.17.55.31.83.45s.45.23.66.35a.62.62,0,0,1,.16.18,1,1,0,0,0,.17.2l.7.57c.35.28.71.57,1.05.87a5.33,5.33,0,0,1,.52.56l.32.36.3.29a5,5,0,0,1,.35.35c.29.33.56.65.85,1l.41.49.08,0A8.82,8.82,0,0,0,19.73,10a9.21,9.21,0,0,1,1.41-1.37l1.65-1.93L25,4.43a1.45,1.45,0,0,1,1,.48L27.85,6a.59.59,0,0,0,.13.18l1.74,1.54.49.43.07.05a3.41,3.41,0,0,1,1.14,1,6.45,6.45,0,0,0,.6.64,12,12,0,0,0,2.32,1.61l.07,0,.8-.77,3.47-4.23a1.47,1.47,0,0,0,.15-.23A1,1,0,0,1,39,6.05l.76-.72c.36-.33.72-.67,1.06-1s.69-.46,1.09-.22l.32.19.14.08.22.19.85.73a.3.3,0,0,0,.12.05l.36.15a5.33,5.33,0,0,1,.76.36c.44.27.88.57,1.31.86l.83.56L48,8c.6.38,1.23.78,1.83,1.19s1,.68,1.42,1l.93.67a3.35,3.35,0,0,0,.43.24l.18.1.09,0,.47-.84,1.32-1.34a9.91,9.91,0,0,0,1.71-1.64,13.29,13.29,0,0,1,2.17-2.13c.33-.27.65-.55,1-.82l.28-.25a.65.65,0,0,1,.74,0c.43.35.89.72,1.48,1.15.12.09.25.17.38.25a2.77,2.77,0,0,1,.55.4,8.61,8.61,0,0,0,1.9,1.43c.26.15.51.32.76.48l.34.22a15.65,15.65,0,0,1,2.4,2.43c.42.5.86,1,1.33,1.48l.08.08.07-.09.17-.22a3.13,3.13,0,0,1,.34-.41l.78-.71c.31-.28.63-.56.93-.86.56-.54,1.08-1.1,1.62-1.67.36-.38.7-.77,1.05-1.16l.46-.51.06-.08,1.62-1.71L78.63,6V6l1.65,1.1a3.27,3.27,0,0,0,.65.63l.48.37.69.53c.33.27.66.55,1,.83l.34.29,0,0,0,0a9.32,9.32,0,0,0,2.75,2.26l.08,0L87.19,11l.05-.08h0l3.38-4.2.49-.61A5.34,5.34,0,0,1,93,4.41l1.83.92,0,.06a.59.59,0,0,0,.16.19l1.27.81.05,0,1.38.87L99.5,8.41l1.56,1a1.52,1.52,0,0,0,.26.12.83.83,0,0,1,.29.15,11.94,11.94,0,0,0,2.82,2.06.73.73,0,0,0,.6.08.81.81,0,0,0,.44-.5l0-.05,0,0c-.12-.17-.22-.28-.36-.29s-.22.07-.34.2l-.07,0-.31-.22L104,10.6l-1.73-1.27a2,2,0,0,1-.22-.21,1.79,1.79,0,0,0-.31-.27,3.17,3.17,0,0,0-.41-.21,2.75,2.75,0,0,1-.41-.21c-.56-.38-1.12-.77-1.67-1.15l-.74-.52a2.84,2.84,0,0,0-.3-.19l-.42-.21A7.92,7.92,0,0,1,97,5.92c-.23-.15-.46-.32-.68-.49a9.2,9.2,0,0,0-.76-.54c-.56-.35-1.2-.7-2-1.07a.88.88,0,0,0-1,0l-.1.09c-.58.51-1.17,1-1.74,1.57a2.43,2.43,0,0,0-.33.43,3.28,3.28,0,0,1-.21.29l-.81,1c-.39.46-.79.93-1.18,1.4s-.72.91-1.06,1.36l-.46.6-.58.76L83.13,8.7l-.07-.17,0,0-.35-.22A6.29,6.29,0,0,1,82,7.8c-.21-.18-.42-.37-.62-.56a9.9,9.9,0,0,0-.77-.69c-.47-.37-1-.71-1.46-1l-.52-.35L78.36,5A2,2,0,0,1,78,4.75a1.57,1.57,0,0,0-1.63-.53l-.16.05.15.16L73.7,6.74l.15.15v0l-.31.34-.15-.15-.24.3.12.15,0,0-.16-.15-.15.27.12.09-.34.38.07-.41-1.71,2a1.57,1.57,0,0,0-.63.5,1.19,1.19,0,0,1-.88.53h0L68.23,9.45l-.17-.18a5.62,5.62,0,0,0-.44-.45c-.42-.37-.85-.74-1.27-1.09l-.44-.37a2.85,2.85,0,0,0-.39-.3l-.65-.38c-.29-.17-.6-.34-.89-.53a6.08,6.08,0,0,1-.59-.46l-.33-.27-.45-.34c-.25-.19-.52-.39-.76-.59a8.39,8.39,0,0,1-.62-.59l-.15-.15a1.36,1.36,0,0,0-1.59-.21,10,10,0,0,0-.84.77l-.49.47c-.11.1-.23.19-.35.28a3.64,3.64,0,0,0-.47.4c-.39.41-.77.83-1.15,1.25s-.75.82-1.13,1.22a5.5,5.5,0,0,1-.51.45c-.13.11-.27.22-.4.34L52.95,9.89l-.42.41-.18-.12-.51-.35c-.31-.23-.61-.47-.91-.71l0,0-.46-.38c-.32-.26-.64-.53-1-.77a3.21,3.21,0,0,0-.54-.29,3.28,3.28,0,0,1-.47-.24c-.55-.36-1.09-.75-1.62-1.12l-.7-.49a2.81,2.81,0,0,0-.3-.19l-.43-.22c-.27-.13-.55-.27-.81-.43-.49-.3-1-.62-1.46-.92l-1-.64a1,1,0,0,0-1.43,0c-.27.26-.56.51-.84.75a8.28,8.28,0,0,0-1.47,1.48l-.13.18c-.12.17-.24.35-.37.5L36.62,7.84l-1,1.22-.9,1.1-.35.43a7.26,7.26,0,0,1-2.27-1.74,12.24,12.24,0,0,0-1.36-1.23l-.07-.17,0,0-.39-.27a6.64,6.64,0,0,1-.75-.56l-.41-.39a6,6,0,0,0-1.17-1c-.67-.39-1.34-.81-2-1.25s-1-.45-1.62.13a3.39,3.39,0,0,1-.3.24l-.14.11-.09.08.17.17-2.5,2.23V7a1.13,1.13,0,0,1-.25.49L21,7.32l-.21.23,0,.11.14.14L21,7.74l-.12.14-.16-.19-.24.2.16.2.2-.17-.21.21-.14-.08L20.31,8l0,.32.25-.08-.23.19,0-.05-.21-.09L18.74,9.91l-.8.68-.07-.13a1.94,1.94,0,0,0-.32-.49A6.73,6.73,0,0,0,17,9.47c-.17-.14-.35-.28-.51-.44s-.41-.42-.6-.63-.49-.53-.76-.78a14.2,14.2,0,0,0-1.57-1.26,8.32,8.32,0,0,0-.82-.47c-.25-.13-.51-.27-.75-.43-.75-.5-1.46-1-2.11-1.53l-.35-.3a2.58,2.58,0,0,0-1.36-.77l0-.05H7.69l0,0A5.42,5.42,0,0,0,6.44,4.2l-.3.42a4.4,4.4,0,0,1-.66.67c-.14.12-.27.24-.4.37l0,0c-.34.34-.69.69-1,1.06s-.42.54-.61.81A5.69,5.69,0,0,1,2,9.08a2.45,2.45,0,0,0-.46.45l-.18.2L0,11.18v.31l.49.33Z"/><path d="M105.37,25.45,105,25.2,103.47,24l-.25-.2a4.12,4.12,0,0,0-.61-.44,9.82,9.82,0,0,1-1.94-1.52c-.29-.27-.59-.55-.91-.81s-.94-.73-1.41-1.07l0,0-.54-.37a7.67,7.67,0,0,1-.92-.67l-.45-.42a9.3,9.3,0,0,0-1.72-1.37h-.46l0,.06a1.64,1.64,0,0,0-1.08.79c-.08.1-.15.2-.24.3a18.55,18.55,0,0,1-1.54,1.52,5.28,5.28,0,0,1-.59.43,5.08,5.08,0,0,0-.65.48A8.28,8.28,0,0,0,89,21.93a7.42,7.42,0,0,0-.47.78c-.11.21-.23.43-.37.63a4,4,0,0,1-.34.43,3.93,3.93,0,0,0-.39.49,1.33,1.33,0,0,0-.15.51v.09l-1-.67-2-1.63-.2.1-.18-.12.22.06-.18-.35-.22.16-.1-.07h0l.1-.21L83.54,22l-.12,0-.07.15-.13-.1h0l.1-.17L83,21.61l-.11.16a2,2,0,0,1-.46-.52v0L79.09,19l.11-.17-.09-.06-.19-.11-.38-.24c-.8-.57-1.13-.59-1.66-.11a19.43,19.43,0,0,1-1.53,1.24,3.54,3.54,0,0,0-.83,1l-.26.39a3.84,3.84,0,0,1-.54.55l-.29.27,0,0v.17a7.18,7.18,0,0,0-.9,1.23,4.21,4.21,0,0,1-1.61,1.73l-.52-.44-1.31-1.1-1.47-1.22-1.79-1.48c-.19-.16-.38-.34-.56-.51L65,19.95a14.15,14.15,0,0,0-2-1.47c-.37-.24-.76-.49-1.12-.75-.72-.52-1.09-.31-1.44,0l-.77.64c-.36.31-.74.62-1.11.92a6.1,6.1,0,0,1-.64.42l-.35.22a1.71,1.71,0,0,0-.24.19l-.52.5c-.39.37-.79.75-1.2,1.11a2,2,0,0,1-.37.24,2,2,0,0,0-.44.29,9.83,9.83,0,0,0-.7.77l-.33.39c-.22.24-.44.5-.67.73s-.24.23-.38.35l-.13.11-.6-.43L50.36,23l-.52-.34c-.23-.14-.46-.29-.68-.46L47.58,21,46,19.73a6.11,6.11,0,0,0-.61-.39l-.45-.28-.67-.47c-.36-.26-.73-.53-1.12-.76a1.19,1.19,0,0,0-1.52.23l-.1.16a4.81,4.81,0,0,1-.39.58c-.17.2-.36.4-.54.59l-.32.34L40,20a3.42,3.42,0,0,1-.42.45c-.22.18-.46.36-.69.52l-.51.38a1.68,1.68,0,0,0-.29.31L37.8,22c-.28.35-.58.71-.86,1.08a3.34,3.34,0,0,0-.28.46l-.1.18-.78,1.4a1.92,1.92,0,0,1-1.1-.54,2.49,2.49,0,0,0-.8-.49L31.36,22l.23.42-.43-.34.08-.1L31,21.77l-.11.15-.09-.07.06-.15-.32-.28-.1.15L30,21.21h0l0-.08.1-.14-3.5-2.31.09-.15-.13,0a1.17,1.17,0,0,0-1.45.55,1.12,1.12,0,0,1-.27.24l-.2.16-.39.36c-.37.33-.74.67-1.08,1a5.8,5.8,0,0,0-.52.69,6.89,6.89,0,0,1-.41.56,3.67,3.67,0,0,1-.51.47l-.27.23,0,0V23l-2,2.55-.88-.78-.67-.59c-.51-.45-1-.92-1.57-1.37l-1.69-1.4-1.16-1-.32-.29a4.16,4.16,0,0,0-.48-.42c-.77-.54-1.56-1.07-2.33-1.58l-.12-.08a.85.85,0,0,0-1,0,14.08,14.08,0,0,0-1.56,1.07,5.41,5.41,0,0,0-.56.55,5.75,5.75,0,0,1-.49.49,4.82,4.82,0,0,1-.65.44l-.34.21a1.76,1.76,0,0,0-.24.19l-.55.52c-.41.38-.83.78-1.25,1.16a1.69,1.69,0,0,1-.33.21,2,2,0,0,0-.34.21,1.08,1.08,0,0,0-.22.28,1.14,1.14,0,0,1-.14.2c-.42.43-.85.86-1.27,1.27L1,25.16l-.23.21,0,0c-.2-.16-.34-.23-.46-.19s-.18.15-.23.31l0,.05,0,0c.49.63.9.56,1.16.39a7,7,0,0,0,2.07-2.08.5.5,0,0,1,.21-.14,1,1,0,0,0,.22-.12l1.19-1,1.38-1.13,1.06-.86,0,0c.33-.27.66-.54,1-.83a.4.4,0,0,0,.11-.21v0l1.47-.9a9.16,9.16,0,0,1,2.56,1.78l5.13,4.37.51.44h0l1.38,1.15.07,0a5.48,5.48,0,0,0,1.93-2.28v-.06l.24-.3c.22-.27.44-.55.67-.82s.33-.36.49-.53l.35-.37a2,2,0,0,0,.42-.63l1.17-1,.07-.09,1.33-1.17,2.26,1.72h0l.74.58,1.48,1.16c.75.57,1.48,1.13,2.23,1.67.41.29.83.58,1.24.86l1,.71a5.49,5.49,0,0,1,.5.41l.25.22.09.08.06-.1a16.77,16.77,0,0,0,.78-1.49,9.06,9.06,0,0,1,1.49-2.41l.26-.23c.19-.16.38-.33.58-.48a5.06,5.06,0,0,0,1.38-1.45A1.59,1.59,0,0,1,41,20a2.9,2.9,0,0,0,.29-.25c.42-.44.76-.81,1.05-1.16a.62.62,0,0,1,.73,0l.37.25c.41.27.84.56,1.26.83a22.87,22.87,0,0,1,3,2.13A16.75,16.75,0,0,0,50,23.4l1.82,1.35.77.83.07-.05.15-.09a2.08,2.08,0,0,0,.34-.25l.69-.67c.34-.34.69-.68,1-1s.93-.8,1.39-1.19l.89-.75.63-.56c.32-.29.65-.58,1-.86a3.3,3.3,0,0,1,.62-.36l.32-.16a.19.19,0,0,0,.1-.06l.61-.77.11-.14.11-.08.26-.2c.3-.23.65-.16,1.18.23s1,.7,1.44,1l1,.72a1.81,1.81,0,0,1,.25.24,2.46,2.46,0,0,0,.23.22L70,25l1.08.77.06,0a7.11,7.11,0,0,0,1.74-1.62,3.85,3.85,0,0,0,.37-.64,2,2,0,0,1,.76-1,.21.21,0,0,0,.07-.07l.31-.41,1.19-1.56a.39.39,0,0,0,.07-.18l1.4-1.11,0,0a.91.91,0,0,1,.83-.46l3,2.27,2.38,1.94a15.53,15.53,0,0,1,1.9,1.36A15,15,0,0,0,87.61,26l.1,0,0-.1.2-.43c.16-.34.31-.67.48-1a2.84,2.84,0,0,1,.22-.34c.07-.1.14-.19.2-.3s.13-.24.19-.37a3.09,3.09,0,0,1,.31-.55c.23-.3.48-.59.73-.87l.49-.57a.66.66,0,0,0,.11-.22.36.36,0,0,1,.08-.16c.17-.12.35-.24.53-.35A6.76,6.76,0,0,0,92,20.3a3.34,3.34,0,0,0,.49-.52l.24-.29c.24-.26.5-.53.8-.82l.28-.26c.13-.12.26-.24.38-.36a.41.41,0,0,1,.33-.13,1,1,0,0,1,.65.35,8.77,8.77,0,0,0,1.92,1.53l.29.19a16.29,16.29,0,0,1,2.42,1.85,18.27,18.27,0,0,0,1.51,1.26l.69.55,0,0a1.28,1.28,0,0,0,.4.25L103.78,25l1.32,1.12.39-.35Z"/><path d="M1.29,40.11l1.1-1.19a.82.82,0,0,0,.32-.26l0,0,.49-.54a10.61,10.61,0,0,0,1.05-1.27A9.4,9.4,0,0,1,6,35l.22-.19a5.14,5.14,0,0,0,1.37-1.54A.58.58,0,0,1,8,32.93a.62.62,0,0,1,.52.13l.5.36.39.27,1.11.83.35.29a5.69,5.69,0,0,0,.67.51c.27.17.55.31.83.45s.45.23.66.35a.62.62,0,0,1,.16.18,1,1,0,0,0,.17.2l.7.57c.35.28.71.57,1.05.87a5.33,5.33,0,0,1,.52.56l.32.36.3.29a5,5,0,0,1,.35.35c.29.33.56.65.85,1l.41.49.08,0a8.82,8.82,0,0,0,1.79-1.67,9.21,9.21,0,0,1,1.41-1.37L22.79,36,25,33.72a1.45,1.45,0,0,1,1,.48l1.85,1.14a.59.59,0,0,0,.13.18l1.74,1.54.49.43.07.05a3.41,3.41,0,0,1,1.14,1,6.45,6.45,0,0,0,.6.64,12,12,0,0,0,2.32,1.61l.07,0,.8-.77,3.47-4.23a1.47,1.47,0,0,0,.15-.23,1,1,0,0,1,.16-.23l.76-.72c.36-.33.72-.67,1.06-1s.69-.46,1.09-.22l.32.19.14.08.22.19.85.73a.3.3,0,0,0,.12.05l.36.15a5.33,5.33,0,0,1,.76.36c.44.27.88.57,1.31.86l.83.56,1.17.75c.6.38,1.23.78,1.83,1.19s1,.68,1.42,1l.93.67a3.35,3.35,0,0,0,.43.24l.18.1.09,0,.47-.84,1.32-1.34a9.91,9.91,0,0,0,1.71-1.64,13.29,13.29,0,0,1,2.17-2.13c.33-.27.65-.55,1-.82l.28-.25a.65.65,0,0,1,.74,0c.43.35.89.72,1.48,1.15.12.09.25.17.38.25a2.77,2.77,0,0,1,.55.4,8.61,8.61,0,0,0,1.9,1.43c.26.15.51.32.76.48l.34.22A15.65,15.65,0,0,1,68.32,40c.42.5.86,1,1.33,1.48l.08.08.07-.09.17-.22a3.13,3.13,0,0,1,.34-.41l.78-.71c.31-.28.63-.56.93-.86.56-.54,1.08-1.1,1.62-1.67.36-.38.7-.77,1.05-1.16l.46-.51.06-.08,1.62-1.71,1.8,1.2v0l1.65,1.1a3.27,3.27,0,0,0,.65.63l.48.37.69.53c.33.27.66.55,1,.83l.34.29,0,0,0,0a9.32,9.32,0,0,0,2.75,2.26l.08,0,.93-1.11.05-.08h0l3.38-4.2.49-.61A5.34,5.34,0,0,1,93,33.7l1.83.92,0,.06a.59.59,0,0,0,.16.19l1.27.81.05,0,1.38.87L99.5,37.7l1.56,1a1.52,1.52,0,0,0,.26.12.83.83,0,0,1,.29.15A11.94,11.94,0,0,0,104.43,41a.73.73,0,0,0,.6.08.81.81,0,0,0,.44-.5l0-.05,0,0c-.12-.17-.22-.28-.36-.29s-.22.07-.34.2l-.07,0-.31-.22-.35-.26-1.73-1.27a2,2,0,0,1-.22-.21,1.79,1.79,0,0,0-.31-.27,3.17,3.17,0,0,0-.41-.21,2.75,2.75,0,0,1-.41-.21c-.56-.38-1.12-.77-1.67-1.15L98.51,36a2.84,2.84,0,0,0-.3-.19l-.42-.21a7.92,7.92,0,0,1-.82-.44c-.23-.15-.46-.32-.68-.49a9.2,9.2,0,0,0-.76-.54c-.56-.35-1.2-.7-2-1.07a.88.88,0,0,0-1,0l-.1.09c-.58.51-1.17,1-1.74,1.57a2.43,2.43,0,0,0-.33.43,3.28,3.28,0,0,1-.21.29l-.81,1c-.39.46-.79.93-1.18,1.4s-.72.91-1.06,1.36l-.46.6-.58.76L83.13,38l-.07-.17,0,0-.35-.22a6.29,6.29,0,0,1-.69-.48c-.21-.18-.42-.37-.62-.56a9.9,9.9,0,0,0-.77-.69c-.47-.37-1-.71-1.46-1l-.52-.35-.25-.16A2,2,0,0,1,78,34a1.57,1.57,0,0,0-1.63-.53l-.16.05.15.16L73.7,36l.15.15v0l-.31.34-.15-.15-.24.3.12.15,0,0-.16-.15-.15.27.12.09-.34.38.07-.41-1.71,2a1.57,1.57,0,0,0-.63.5,1.19,1.19,0,0,1-.88.53h0l-1.32-1.42-.17-.18a5.62,5.62,0,0,0-.44-.45c-.42-.37-.85-.74-1.27-1.09l-.44-.37a2.85,2.85,0,0,0-.39-.3L64.89,36c-.29-.17-.6-.34-.89-.53a6.08,6.08,0,0,1-.59-.46l-.33-.27-.45-.34c-.25-.19-.52-.39-.76-.59a8.39,8.39,0,0,1-.62-.59L61.11,33a1.36,1.36,0,0,0-1.59-.21,10,10,0,0,0-.84.77l-.49.47c-.11.1-.23.19-.35.28a3.64,3.64,0,0,0-.47.4c-.39.41-.77.83-1.15,1.25s-.75.82-1.13,1.22a5.5,5.5,0,0,1-.51.45c-.13.11-.27.22-.4.34l-1.22,1.18-.42.41-.18-.12-.51-.35c-.31-.23-.61-.47-.91-.71l0,0L50.41,38c-.32-.26-.64-.53-1-.77a3.21,3.21,0,0,0-.54-.29,3.28,3.28,0,0,1-.47-.24c-.55-.36-1.09-.75-1.62-1.12l-.7-.49a2.81,2.81,0,0,0-.3-.19l-.43-.22c-.27-.13-.55-.27-.81-.43-.49-.3-1-.62-1.46-.92l-1-.64a1,1,0,0,0-1.43,0c-.27.26-.56.51-.84.75A8.28,8.28,0,0,0,38.36,35l-.13.18c-.12.17-.24.35-.37.5l-1.24,1.48-1,1.22-.9,1.1-.35.43a7.26,7.26,0,0,1-2.27-1.74,12.24,12.24,0,0,0-1.36-1.23l-.07-.17,0,0-.39-.27a6.64,6.64,0,0,1-.75-.56l-.41-.39a6,6,0,0,0-1.17-1c-.67-.39-1.34-.81-2-1.25s-1-.45-1.62.13a3.39,3.39,0,0,1-.3.24l-.14.11-.09.08.17.17-2.5,2.23v0a1.13,1.13,0,0,1-.25.49L21,36.61l-.21.23,0,.11.14.14L21,37l-.12.14L20.7,37l-.24.2.16.2.2-.17-.21.21-.14-.08-.16-.06,0,.32.25-.08-.23.19,0-.05-.21-.09-1.37,1.63-.8.68-.07-.13a1.94,1.94,0,0,0-.32-.49,6.73,6.73,0,0,0-.56-.49c-.17-.14-.35-.28-.51-.44s-.41-.42-.6-.63-.49-.53-.76-.78a14.2,14.2,0,0,0-1.57-1.26,8.32,8.32,0,0,0-.82-.47c-.25-.13-.51-.27-.75-.43-.75-.5-1.46-1-2.11-1.53l-.35-.3a2.58,2.58,0,0,0-1.36-.77l0-.05H7.69l0,0a5.42,5.42,0,0,0-1.22,1.38l-.3.42a4.4,4.4,0,0,1-.66.67c-.14.12-.27.24-.4.37l0,0c-.34.34-.69.69-1,1.06s-.42.54-.61.81A5.69,5.69,0,0,1,2,38.37a2.45,2.45,0,0,0-.46.45L1.4,39,0,40.47v.31l.49.33Z"/><path d="M105.37,54.74l-.34-.26-1.57-1.19-.25-.2a4.12,4.12,0,0,0-.61-.44,9.82,9.82,0,0,1-1.94-1.52c-.29-.27-.59-.55-.91-.81s-.94-.73-1.41-1.07l0,0-.54-.37a7.67,7.67,0,0,1-.92-.67l-.45-.42a9.3,9.3,0,0,0-1.72-1.37h-.46l0,.06a1.64,1.64,0,0,0-1.08.79c-.08.1-.15.2-.24.3a18.55,18.55,0,0,1-1.54,1.52,5.28,5.28,0,0,1-.59.43,5.08,5.08,0,0,0-.65.48A8.28,8.28,0,0,0,89,51.22a7.42,7.42,0,0,0-.47.78c-.11.21-.23.43-.37.63a4,4,0,0,1-.34.43,3.93,3.93,0,0,0-.39.49,1.33,1.33,0,0,0-.15.51v.09l-1-.67-2-1.63-.2.1-.18-.12.22.06-.18-.35-.22.16-.1-.07h0l.1-.21-.18-.11-.12,0-.07.15-.13-.1h0l.1-.17L83,50.9l-.11.16a2,2,0,0,1-.46-.52v0l-3.33-2.24.11-.17L79.1,48l-.19-.11-.38-.24c-.8-.57-1.13-.59-1.66-.11a19.43,19.43,0,0,1-1.53,1.24,3.54,3.54,0,0,0-.83,1l-.26.39a3.84,3.84,0,0,1-.54.55l-.29.27,0,0v.17a7.18,7.18,0,0,0-.9,1.23,4.21,4.21,0,0,1-1.61,1.73l-.52-.44-1.31-1.1-1.47-1.22-1.79-1.48c-.19-.16-.38-.34-.56-.51L65,49.24a14.15,14.15,0,0,0-2-1.47c-.37-.24-.76-.49-1.12-.75-.72-.52-1.09-.31-1.44,0l-.77.64c-.36.31-.74.62-1.11.92a6.1,6.1,0,0,1-.64.42l-.35.22a1.71,1.71,0,0,0-.24.19l-.52.5c-.39.37-.79.75-1.2,1.11a2,2,0,0,1-.37.24,2,2,0,0,0-.44.29,9.83,9.83,0,0,0-.7.77l-.33.39c-.22.24-.44.5-.67.73s-.24.23-.38.35l-.13.11-.6-.43-1.64-1.16-.52-.34c-.23-.14-.46-.29-.68-.46l-1.57-1.22L46,49a6.11,6.11,0,0,0-.61-.39l-.45-.28-.67-.47c-.36-.26-.73-.53-1.12-.76a1.19,1.19,0,0,0-1.52.23l-.1.16a4.81,4.81,0,0,1-.39.58c-.17.2-.36.4-.54.59l-.32.34-.23.27a3.42,3.42,0,0,1-.42.45c-.22.18-.46.36-.69.52l-.51.38a1.68,1.68,0,0,0-.29.31l-.31.39c-.28.35-.58.71-.86,1.08a3.34,3.34,0,0,0-.28.46l-.1.18-.78,1.4a1.92,1.92,0,0,1-1.1-.54,2.49,2.49,0,0,0-.8-.49l-2.52-2.1.23.42-.43-.34.08-.1L31,51.06l-.11.15-.09-.07.06-.15-.32-.28-.1.15L30,50.5h0l0-.08.1-.14L26.59,48l.09-.15-.13,0a1.17,1.17,0,0,0-1.45.55,1.12,1.12,0,0,1-.27.24l-.2.16-.39.36c-.37.33-.74.67-1.08,1a5.8,5.8,0,0,0-.52.69,6.89,6.89,0,0,1-.41.56,3.67,3.67,0,0,1-.51.47l-.27.23,0,0v.18l-2,2.55-.88-.78-.67-.59c-.51-.45-1-.92-1.57-1.37l-1.69-1.4-1.16-1-.32-.29a4.16,4.16,0,0,0-.48-.42c-.77-.54-1.56-1.07-2.33-1.58l-.12-.08a.85.85,0,0,0-1,0,14.08,14.08,0,0,0-1.56,1.07,5.41,5.41,0,0,0-.56.55,5.75,5.75,0,0,1-.49.49,4.82,4.82,0,0,1-.65.44l-.34.21a1.76,1.76,0,0,0-.24.19l-.55.52c-.41.38-.83.78-1.25,1.16a1.69,1.69,0,0,1-.33.21,2,2,0,0,0-.34.21,1.08,1.08,0,0,0-.22.28,1.14,1.14,0,0,1-.14.2c-.42.43-.85.86-1.27,1.27L1,54.44l-.23.21,0,0c-.2-.16-.34-.23-.46-.19s-.18.15-.23.31l0,.05,0,0c.49.63.9.56,1.16.39a7,7,0,0,0,2.07-2.08.5.5,0,0,1,.21-.14A1,1,0,0,0,3.7,53L4.9,52l1.38-1.13L7.33,50l0,0c.33-.27.66-.54,1-.83a.4.4,0,0,0,.11-.21v0L9.93,48a9.16,9.16,0,0,1,2.56,1.78l5.13,4.37.51.44h0l1.38,1.15.07,0A5.48,5.48,0,0,0,21.5,53.4v-.06l.24-.3c.22-.27.44-.55.67-.82s.33-.36.49-.53l.35-.37a2,2,0,0,0,.42-.63l1.17-1,.07-.09,1.33-1.17,2.26,1.72h0l.74.58,1.48,1.16c.75.57,1.48,1.13,2.23,1.67.41.29.83.58,1.24.86l1,.71a5.49,5.49,0,0,1,.5.41l.25.22.09.08.06-.1a16.77,16.77,0,0,0,.78-1.49,9.06,9.06,0,0,1,1.49-2.41l.26-.23c.19-.16.38-.33.58-.48a5.06,5.06,0,0,0,1.38-1.45,1.59,1.59,0,0,1,.39-.39,2.9,2.9,0,0,0,.29-.25c.42-.44.76-.81,1.05-1.16a.62.62,0,0,1,.73,0l.37.25c.41.27.84.56,1.26.83a22.87,22.87,0,0,1,3,2.13A16.75,16.75,0,0,0,50,52.69L51.79,54l.77.83.07-.05.15-.09a2.08,2.08,0,0,0,.34-.25l.69-.67c.34-.34.69-.68,1-1s.93-.8,1.39-1.19l.89-.75.63-.56c.32-.29.65-.58,1-.86a3.3,3.3,0,0,1,.62-.36l.32-.16a.19.19,0,0,0,.1-.06l.61-.77.11-.14.11-.08.26-.2c.3-.23.65-.16,1.18.23s1,.7,1.44,1l1,.72a1.81,1.81,0,0,1,.25.24,2.46,2.46,0,0,0,.23.22l5,4.22,1.08.77.06,0a7.11,7.11,0,0,0,1.74-1.62,3.85,3.85,0,0,0,.37-.64,2,2,0,0,1,.76-1,.21.21,0,0,0,.07-.07l.31-.41,1.19-1.56a.39.39,0,0,0,.07-.18l1.4-1.11,0,0a.91.91,0,0,1,.83-.46l3,2.27,2.38,1.94a15.53,15.53,0,0,1,1.9,1.36,15,15,0,0,0,2.39,1.66l.1,0,0-.1.2-.43c.16-.34.31-.67.48-1a2.84,2.84,0,0,1,.22-.34c.07-.1.14-.19.2-.3s.13-.24.19-.37a3.09,3.09,0,0,1,.31-.55c.23-.3.48-.59.73-.87l.49-.57a.66.66,0,0,0,.11-.22.36.36,0,0,1,.08-.16c.17-.12.35-.24.53-.35a6.76,6.76,0,0,0,.67-.45,3.34,3.34,0,0,0,.49-.52l.24-.29c.24-.26.5-.53.8-.82l.28-.26c.13-.12.26-.24.38-.36a.41.41,0,0,1,.33-.13,1,1,0,0,1,.65.35,8.77,8.77,0,0,0,1.92,1.53l.29.19a16.29,16.29,0,0,1,2.42,1.85,18.27,18.27,0,0,0,1.51,1.26l.69.55,0,0a1.28,1.28,0,0,0,.4.25l1.37,1.07,1.32,1.12.39-.35Z"/><path d="M1.29,69.4l1.1-1.19a.82.82,0,0,0,.32-.26l0,0,.49-.54a10.61,10.61,0,0,0,1.05-1.27A9.4,9.4,0,0,1,6,64.26l.22-.19a5.14,5.14,0,0,0,1.37-1.54A.58.58,0,0,1,8,62.22a.62.62,0,0,1,.52.13l.5.36.39.27,1.11.83.35.29a5.69,5.69,0,0,0,.67.51c.27.17.55.31.83.45s.45.23.66.35a.62.62,0,0,1,.16.18,1,1,0,0,0,.17.2l.7.57c.35.28.71.57,1.05.87a5.33,5.33,0,0,1,.52.56l.32.36.3.29a5,5,0,0,1,.35.35c.29.33.56.65.85,1l.41.49.08,0a8.82,8.82,0,0,0,1.79-1.67,9.21,9.21,0,0,1,1.41-1.37l1.65-1.93L25,63a1.45,1.45,0,0,1,1,.48l1.85,1.14a.59.59,0,0,0,.13.18l1.74,1.54.49.43.07.05a3.41,3.41,0,0,1,1.14,1,6.45,6.45,0,0,0,.6.64,12,12,0,0,0,2.32,1.61l.07,0,.8-.77,3.47-4.23a1.47,1.47,0,0,0,.15-.23,1,1,0,0,1,.16-.23l.76-.72c.36-.33.72-.67,1.06-1s.69-.46,1.09-.22l.32.19.14.08.22.19.85.73a.3.3,0,0,0,.12.05l.36.15a5.33,5.33,0,0,1,.76.36c.44.27.88.57,1.31.86l.83.56,1.17.75c.6.38,1.23.78,1.83,1.19s1,.68,1.42,1l.93.67a3.35,3.35,0,0,0,.43.24l.18.1.09,0,.47-.84,1.32-1.34A9.91,9.91,0,0,0,56.37,66a13.29,13.29,0,0,1,2.17-2.13c.33-.27.65-.55,1-.82l.28-.25a.65.65,0,0,1,.74,0c.43.35.89.72,1.48,1.15.12.09.25.17.38.25a2.77,2.77,0,0,1,.55.4,8.61,8.61,0,0,0,1.9,1.43c.26.15.51.32.76.48l.34.22a15.65,15.65,0,0,1,2.4,2.43c.42.5.86,1,1.33,1.48l.08.08.07-.09.17-.22a3.13,3.13,0,0,1,.34-.41l.78-.71c.31-.28.63-.56.93-.86.56-.54,1.08-1.1,1.62-1.67.36-.38.7-.77,1.05-1.16l.46-.51.06-.08,1.62-1.71,1.8,1.2v0l1.65,1.1a3.27,3.27,0,0,0,.65.63l.48.37.69.53c.33.27.66.55,1,.83l.34.29,0,0,0,0a9.32,9.32,0,0,0,2.75,2.26l.08,0,.93-1.11.05-.08h0l3.38-4.2.49-.61A5.34,5.34,0,0,1,93,63l1.83.92,0,.06a.59.59,0,0,0,.16.19l1.27.81.05,0,1.38.87L99.5,67l1.56,1a1.52,1.52,0,0,0,.26.12.83.83,0,0,1,.29.15,11.94,11.94,0,0,0,2.82,2.06.73.73,0,0,0,.6.08.81.81,0,0,0,.44-.5l0-.05,0,0c-.12-.17-.22-.28-.36-.29s-.22.07-.34.2l-.07,0-.31-.22-.35-.26-1.73-1.27a2,2,0,0,1-.22-.21,1.79,1.79,0,0,0-.31-.27,3.17,3.17,0,0,0-.41-.21,2.75,2.75,0,0,1-.41-.21c-.56-.38-1.12-.77-1.67-1.15l-.74-.52a2.84,2.84,0,0,0-.3-.19l-.42-.21A7.92,7.92,0,0,1,97,64.5c-.23-.15-.46-.32-.68-.49a9.2,9.2,0,0,0-.76-.54c-.56-.35-1.2-.7-2-1.07a.88.88,0,0,0-1,0l-.1.09c-.58.51-1.17,1-1.74,1.57a2.43,2.43,0,0,0-.33.43,3.28,3.28,0,0,1-.21.29l-.81,1c-.39.46-.79.93-1.18,1.4s-.72.91-1.06,1.36l-.46.6-.58.76-2.95-2.58-.07-.17,0,0-.35-.22a6.29,6.29,0,0,1-.69-.48c-.21-.18-.42-.37-.62-.56a9.9,9.9,0,0,0-.77-.69c-.47-.37-1-.71-1.46-1l-.52-.35-.25-.16a2,2,0,0,1-.37-.25,1.57,1.57,0,0,0-1.63-.53l-.16.05.15.16L73.7,65.31l.15.15v0l-.31.34-.15-.15-.24.3.12.15,0,0-.16-.15-.15.27.12.09-.34.38.07-.41-1.71,2a1.57,1.57,0,0,0-.63.5,1.19,1.19,0,0,1-.88.53h0L68.23,68l-.17-.18a5.62,5.62,0,0,0-.44-.45c-.42-.37-.85-.74-1.27-1.09l-.44-.37a2.85,2.85,0,0,0-.39-.3l-.65-.38c-.29-.17-.6-.34-.89-.53a6.08,6.08,0,0,1-.59-.46L63.09,64l-.45-.34c-.25-.19-.52-.39-.76-.59a8.39,8.39,0,0,1-.62-.59l-.15-.15a1.36,1.36,0,0,0-1.59-.21,10,10,0,0,0-.84.77l-.49.47c-.11.1-.23.19-.35.28a3.64,3.64,0,0,0-.47.4c-.39.41-.77.83-1.15,1.25s-.75.82-1.13,1.22a5.5,5.5,0,0,1-.51.45c-.13.11-.27.22-.4.34l-1.22,1.18-.42.41-.18-.12-.51-.35c-.31-.23-.61-.47-.91-.71l0,0-.46-.38c-.32-.26-.64-.53-1-.77a3.21,3.21,0,0,0-.54-.29,3.28,3.28,0,0,1-.47-.24c-.55-.36-1.09-.75-1.62-1.12l-.7-.49a2.81,2.81,0,0,0-.3-.19L45.37,64c-.27-.13-.55-.27-.81-.43-.49-.3-1-.62-1.46-.92l-1-.64a1,1,0,0,0-1.43,0c-.27.26-.56.51-.84.75a8.28,8.28,0,0,0-1.47,1.48l-.13.18c-.12.17-.24.35-.37.5l-1.24,1.48-1,1.22-.9,1.1-.35.43a7.26,7.26,0,0,1-2.27-1.74,12.24,12.24,0,0,0-1.36-1.23L30.64,66l0,0-.39-.27a6.64,6.64,0,0,1-.75-.56l-.41-.39a6,6,0,0,0-1.17-1c-.67-.39-1.34-.81-2-1.25s-1-.45-1.62.13a3.39,3.39,0,0,1-.3.24l-.14.11-.09.08.17.17-2.5,2.23v0a1.13,1.13,0,0,1-.25.49L21,65.9l-.21.23,0,.11.14.14.07-.07-.12.14-.16-.19-.24.2.16.2.2-.17-.21.21-.14-.08-.16-.06,0,.32.25-.08L20.3,67l0-.05-.21-.09-1.37,1.63-.8.68L17.86,69a1.94,1.94,0,0,0-.32-.49A6.73,6.73,0,0,0,17,68c-.17-.14-.35-.28-.51-.44s-.41-.42-.6-.63-.49-.53-.76-.78a14.2,14.2,0,0,0-1.57-1.26,8.32,8.32,0,0,0-.82-.47c-.25-.13-.51-.27-.75-.43-.75-.5-1.46-1-2.11-1.53l-.35-.3a2.58,2.58,0,0,0-1.36-.77l0-.05H7.69l0,0a5.42,5.42,0,0,0-1.22,1.38l-.3.42a4.4,4.4,0,0,1-.66.67c-.14.12-.27.24-.4.37l0,0c-.34.34-.69.69-1,1.06s-.42.54-.61.81A5.69,5.69,0,0,1,2,67.66a2.45,2.45,0,0,0-.46.45l-.18.2L0,69.76v.31l.49.33Z"/><path d="M105.37,84l-.34-.26-1.57-1.19-.25-.2a4.12,4.12,0,0,0-.61-.44,9.82,9.82,0,0,1-1.94-1.52c-.29-.27-.59-.55-.91-.81s-.94-.73-1.41-1.07l0,0-.54-.37a7.67,7.67,0,0,1-.92-.67l-.45-.42a9.3,9.3,0,0,0-1.72-1.37h-.46l0,.06a1.64,1.64,0,0,0-1.08.79c-.08.1-.15.2-.24.3a18.55,18.55,0,0,1-1.54,1.52,5.28,5.28,0,0,1-.59.43,5.08,5.08,0,0,0-.65.48A8.28,8.28,0,0,0,89,80.51a7.42,7.42,0,0,0-.47.78c-.11.21-.23.43-.37.63a4,4,0,0,1-.34.43,3.93,3.93,0,0,0-.39.49,1.33,1.33,0,0,0-.15.51v.09l-1-.67-2-1.63-.2.1-.18-.12.22.06-.18-.35-.22.16-.1-.07h0l.1-.21-.18-.11-.12,0-.07.15-.13-.1h0l.1-.17L83,80.19l-.11.16a2,2,0,0,1-.46-.52v0l-3.33-2.24.11-.17-.09-.06-.19-.11L78.53,77c-.8-.57-1.13-.59-1.66-.11a19.43,19.43,0,0,1-1.53,1.24,3.54,3.54,0,0,0-.83,1l-.26.39a3.84,3.84,0,0,1-.54.55l-.29.27,0,0v.17a7.18,7.18,0,0,0-.9,1.23,4.21,4.21,0,0,1-1.61,1.73L70.36,83l-1.31-1.1L67.58,80.7l-1.79-1.48c-.19-.16-.38-.34-.56-.51L65,78.52a14.15,14.15,0,0,0-2-1.47c-.37-.24-.76-.49-1.12-.75-.72-.52-1.09-.31-1.44,0l-.77.64c-.36.31-.74.62-1.11.92a6.1,6.1,0,0,1-.64.42l-.35.22a1.71,1.71,0,0,0-.24.19l-.52.5c-.39.37-.79.75-1.2,1.11a2,2,0,0,1-.37.24,2,2,0,0,0-.44.29,9.83,9.83,0,0,0-.7.77l-.33.39c-.22.24-.44.5-.67.73s-.24.23-.38.35l-.13.11-.6-.43-1.64-1.16-.52-.34c-.23-.14-.46-.29-.68-.46l-1.57-1.22L46,78.3a6.11,6.11,0,0,0-.61-.39l-.45-.28-.67-.47c-.36-.26-.73-.53-1.12-.76a1.19,1.19,0,0,0-1.52.23l-.1.16a4.81,4.81,0,0,1-.39.58c-.17.2-.36.4-.54.59l-.32.34-.23.27a3.42,3.42,0,0,1-.42.45c-.22.18-.46.36-.69.52l-.51.38a1.68,1.68,0,0,0-.29.31l-.31.39c-.28.35-.58.71-.86,1.08a3.34,3.34,0,0,0-.28.46l-.1.18-.78,1.4a1.92,1.92,0,0,1-1.1-.54,2.49,2.49,0,0,0-.8-.49l-2.52-2.1.23.42-.43-.34.08-.1L31,80.34l-.11.15-.09-.07.06-.15L30.57,80l-.1.15L30,79.79h0l0-.08.1-.14-3.5-2.31.09-.15-.13,0a1.17,1.17,0,0,0-1.45.55,1.12,1.12,0,0,1-.27.24l-.2.16-.39.36c-.37.33-.74.67-1.08,1a5.8,5.8,0,0,0-.52.69,6.89,6.89,0,0,1-.41.56,3.67,3.67,0,0,1-.51.47l-.27.23,0,0v.18l-2,2.55-.88-.78-.67-.59c-.51-.45-1-.92-1.57-1.37L14.62,80l-1.16-1-.32-.29a4.16,4.16,0,0,0-.48-.42c-.77-.54-1.56-1.07-2.33-1.58l-.12-.08a.85.85,0,0,0-1,0,14.08,14.08,0,0,0-1.56,1.07,5.41,5.41,0,0,0-.56.55,5.75,5.75,0,0,1-.49.49,4.82,4.82,0,0,1-.65.44l-.34.21a1.76,1.76,0,0,0-.24.19l-.55.52c-.41.38-.83.78-1.25,1.16a1.69,1.69,0,0,1-.33.21,2,2,0,0,0-.34.21,1.08,1.08,0,0,0-.22.28,1.14,1.14,0,0,1-.14.2c-.42.43-.85.86-1.27,1.27L1,83.73l-.23.21,0,0c-.2-.16-.34-.23-.46-.19s-.18.15-.23.31l0,.05,0,0c.49.63.9.56,1.16.39a7,7,0,0,0,2.07-2.08.5.5,0,0,1,.21-.14,1,1,0,0,0,.22-.12l1.19-1,1.38-1.13,1.06-.86,0,0c.33-.27.66-.54,1-.83a.4.4,0,0,0,.11-.21v0l1.47-.9a9.16,9.16,0,0,1,2.56,1.78l5.13,4.37.51.44h0L19.5,85l.07,0a5.48,5.48,0,0,0,1.93-2.28v-.06l.24-.3c.22-.27.44-.55.67-.82s.33-.36.49-.53l.35-.37a2,2,0,0,0,.42-.63l1.17-1,.07-.09,1.33-1.17,2.26,1.72h0l.74.58,1.48,1.16c.75.57,1.48,1.13,2.23,1.67.41.29.83.58,1.24.86l1,.71a5.49,5.49,0,0,1,.5.41L36,85l.09.08.06-.1a16.77,16.77,0,0,0,.78-1.49,9.06,9.06,0,0,1,1.49-2.41l.26-.23c.19-.16.38-.33.58-.48A5.06,5.06,0,0,0,40.62,79a1.59,1.59,0,0,1,.39-.39,2.9,2.9,0,0,0,.29-.25c.42-.44.76-.81,1.05-1.16a.62.62,0,0,1,.73,0l.37.25c.41.27.84.56,1.26.83a22.87,22.87,0,0,1,3,2.13A16.75,16.75,0,0,0,50,82l1.82,1.35.77.83.07-.05.15-.09a2.08,2.08,0,0,0,.34-.25l.69-.67c.34-.34.69-.68,1-1s.93-.8,1.39-1.19l.89-.75.63-.56c.32-.29.65-.58,1-.86a3.3,3.3,0,0,1,.62-.36l.32-.16a.19.19,0,0,0,.1-.06l.61-.77.11-.14.11-.08.26-.2c.3-.23.65-.16,1.18.23s1,.7,1.44,1l1,.72a1.81,1.81,0,0,1,.25.24,2.46,2.46,0,0,0,.23.22l5,4.22,1.08.77.06,0a7.11,7.11,0,0,0,1.74-1.62,3.85,3.85,0,0,0,.37-.64,2,2,0,0,1,.76-1,.21.21,0,0,0,.07-.07l.31-.41,1.19-1.56a.39.39,0,0,0,.07-.18l1.4-1.11,0,0a.91.91,0,0,1,.83-.46l3,2.27,2.38,1.94a15.53,15.53,0,0,1,1.9,1.36,15,15,0,0,0,2.39,1.66l.1,0,0-.1L88,84c.16-.34.31-.67.48-1a2.84,2.84,0,0,1,.22-.34c.07-.1.14-.19.2-.3S89,82.17,89,82a3.09,3.09,0,0,1,.31-.55c.23-.3.48-.59.73-.87l.49-.57a.66.66,0,0,0,.11-.22.36.36,0,0,1,.08-.16c.17-.12.35-.24.53-.35a6.76,6.76,0,0,0,.67-.45,3.34,3.34,0,0,0,.49-.52l.24-.29c.24-.26.5-.53.8-.82l.28-.26c.13-.12.26-.24.38-.36a.41.41,0,0,1,.33-.13,1,1,0,0,1,.65.35,8.77,8.77,0,0,0,1.92,1.53l.29.19a16.29,16.29,0,0,1,2.42,1.85,18.27,18.27,0,0,0,1.51,1.26l.69.55,0,0a1.28,1.28,0,0,0,.4.25l1.37,1.07,1.32,1.12.39-.35Z"/></g></g></svg>