<svg xmlns="http://www.w3.org/2000/svg" viewBox="0 0 219.45 217.46"><title>pattern-circle</title><g id="Layer_2" data-name="Layer 2"><g id="Layer_1-2" data-name="Layer 1"><path d="M133.75,1.61a1.6,1.6,0,0,1-.38.34,3.12,3.12,0,0,0-.29.22l-.56.51c-.52.47-1.06.95-1.54,1.47a8.23,8.23,0,0,0-.74,1,9.79,9.79,0,0,1-.58.8,5.24,5.24,0,0,1-.72.67l-.38.32,0,0v.25l-2.81,3.62-1.25-1.1-.95-.84c-.73-.65-1.48-1.31-2.23-2s-1.59-1.33-2.4-2l-1.65-1.36c-.16-.13-.3-.27-.45-.42a5.93,5.93,0,0,0-.68-.6c-1.09-.77-2.22-1.52-3.31-2.24l-.17-.11a1.21,1.21,0,0,0-1.46,0,20,20,0,0,0-2.22,1.52,7.71,7.71,0,0,0-.8.78,8.14,8.14,0,0,1-.7.69,6.86,6.86,0,0,1-.93.62l-.49.3a2.51,2.51,0,0,0-.34.27l-.78.73c-.58.54-1.17,1.11-1.77,1.65a2.4,2.4,0,0,1-.47.3,2.88,2.88,0,0,0-.49.3,1.53,1.53,0,0,0-.31.4,1.61,1.61,0,0,1-.2.28c-.59.61-1.2,1.22-1.8,1.81l-.36.36-.31.29v.12h0l.16.43-.17.15v.37a.94.94,0,0,0,.62-.16,10,10,0,0,0,2.94-2.95.7.7,0,0,1,.3-.19,1.43,1.43,0,0,0,.32-.18l1.7-1.38,2-1.6L108.51,4l0,0c.46-.38.94-.77,1.39-1.17a.57.57,0,0,0,.15-.3l0-.06L112.2,1.1a13,13,0,0,1,3.64,2.53l7.28,6.2.72.63h0l2,1.63.09-.07a7.78,7.78,0,0,0,2.74-3.23.35.35,0,0,0,0-.08l.33-.42c.31-.39.63-.79,1-1.17s.46-.51.69-.75l.49-.53a2.81,2.81,0,0,0,.6-.9l1.66-1.47.09-.13,1.89-1.67,3.21,2.44h0l1,.83c.7.55,1.4,1.11,2.11,1.65,1.06.81,2.1,1.61,3.17,2.37.58.42,1.18.82,1.76,1.22l1.48,1a7.8,7.8,0,0,1,.71.59l.35.31.13.11.09-.15A23.84,23.84,0,0,0,150.52,10a13.19,13.19,0,0,1,2.05-3.35l-1.06-.43c-.32.39-.64.79-.94,1.19a4.76,4.76,0,0,0-.39.65l-.14.26-1.11,2a2.73,2.73,0,0,1-1.56-.77,3.52,3.52,0,0,0-1.14-.69l-3.58-3,.32.59-.62-.49.12-.14-.31-.34-.15.21-.13-.1.09-.21L141.52,5l-.14.21-.63-.5v0l0-.11.14-.2-5-3.27-1.2-.29A2,2,0,0,0,133.75,1.61Z"/><polygon points="99.36 11.12 99.2 10.69 99.18 10.68 99.18 11.28 99.36 11.12"/><path d="M177.93,25.65c-.53.58-1.06,1.16-1.6,1.73a7.83,7.83,0,0,1-.72.64c-.19.16-.39.32-.57.49-.59.55-1.17,1.12-1.74,1.67l-.6.58-.26-.17c-.25-.17-.49-.32-.72-.49-.44-.32-.87-.67-1.29-1l-.07-.05-.66-.54c-.45-.37-.91-.75-1.4-1.1a4.54,4.54,0,0,0-.76-.41,4.69,4.69,0,0,1-.67-.35c-.78-.52-1.55-1.06-2.3-1.59l-1-.7a4,4,0,0,0-.43-.27l-.61-.31c-.38-.19-.78-.38-1.15-.61-.7-.42-1.39-.87-2.07-1.31L157.9,21a1.43,1.43,0,0,0-2,.06c-.38.37-.79.73-1.19,1.07a11.76,11.76,0,0,0-2.09,2.1l-.18.26c-.17.24-.34.49-.53.72l-1.76,2.1L148.65,29l-1.28,1.56-.49.61a10.31,10.31,0,0,1-3.22-2.48,17.38,17.38,0,0,0-1.93-1.75l-.1-.25,0,0L141,26.3A9.46,9.46,0,0,1,140,25.5l-.58-.56a8.57,8.57,0,0,0-1.66-1.37c-1-.55-1.91-1.15-2.82-1.77s-1.45-.64-2.3.18a4.78,4.78,0,0,1-.42.35l-.2.16-.13.11.24.24L128.53,26v.07a1.61,1.61,0,0,1-.35.7l-.24-.23-.3.33,0,.15.19.2.11-.09-.17.19-.22-.27-.34.28.23.28.28-.24-.29.3-.2-.11-.23-.09-.06.45.36-.11a4,4,0,0,1-.32.27l0-.07-.3-.13-1.95,2.32-1.14,1-.1-.18a2.75,2.75,0,0,0-.46-.7,9.52,9.52,0,0,0-.8-.69c-.24-.2-.5-.4-.72-.62s-.58-.6-.85-.9-.69-.76-1.07-1.11a20.17,20.17,0,0,0-2.23-1.79,11.77,11.77,0,0,0-1.16-.67c-.36-.19-.73-.39-1.07-.61-1.06-.71-2.07-1.44-3-2.17-.17-.14-.34-.28-.5-.43a3.67,3.67,0,0,0-1.93-1.1l-.06-.08H109l0,0a7.7,7.7,0,0,0-1.74,2l-.42.6a6.26,6.26,0,0,1-.94.95c-.19.17-.39.34-.57.53l-.06.06c-.48.48-1,1-1.43,1.51-.31.37-.6.77-.87,1.15A8.07,8.07,0,0,1,101,29a3.49,3.49,0,0,0-.66.64l-.25.28-.9.95v1l.12.14,0,.07,0,.07a1.62,1.62,0,0,1-.14.24v0l.75-.94,1.56-1.7a1.17,1.17,0,0,0,.45-.37l0,0c.23-.26.46-.52.7-.77a15.08,15.08,0,0,0,1.49-1.8,13.37,13.37,0,0,1,2.46-2.62l.31-.27a7.3,7.3,0,0,0,1.94-2.18.83.83,0,0,1,.55-.45.89.89,0,0,1,.73.18c.23.18.48.34.72.51l.55.38c.59.43,1.11.81,1.57,1.17l.5.41a8.09,8.09,0,0,0,.95.72c.38.24.79.44,1.18.64s.64.32.94.5a.87.87,0,0,1,.23.26,1.48,1.48,0,0,0,.25.29l1,.81c.5.4,1,.81,1.49,1.24a7.6,7.6,0,0,1,.73.79c.15.18.3.35.45.52s.28.28.43.42.35.32.5.5c.41.46.8.93,1.21,1.42l.58.7.11-.07a12.53,12.53,0,0,0,2.55-2.36,13.09,13.09,0,0,1,2-2l2.34-2.74,3.12-3.21a2.05,2.05,0,0,1,1.45.68l2.62,1.62a.84.84,0,0,0,.18.26l2.47,2.19.7.62a.39.39,0,0,0,.1.07,4.84,4.84,0,0,1,1.61,1.39,9.17,9.17,0,0,0,.86.9,17.09,17.09,0,0,0,3.3,2.29l.09.05,1.14-1.09,4.94-6a2.08,2.08,0,0,0,.21-.33,1.48,1.48,0,0,1,.22-.33c.35-.35.71-.68,1.07-1s1-1,1.51-1.46,1-.65,1.55-.31l.46.28.19.11.32.27,1.21,1a.43.43,0,0,0,.17.08l.51.22a7.56,7.56,0,0,1,1.08.52c.63.39,1.25.81,1.86,1.22l1.18.79,1.66,1.07c.86.55,1.74,1.11,2.6,1.69.68.46,1.37,1,2,1.44l1.32,1a4.76,4.76,0,0,0,.61.35l.26.14.13.07.67-1.2,1.87-1.9a14.08,14.08,0,0,0,2.43-2.33,17.5,17.5,0,0,1,2.69-2.69l-.75-.64a4.24,4.24,0,0,0-.53.45C179,24.46,178.47,25.06,177.93,25.65Z"/><path d="M198.78,51.48l-.73-.62-1.86-1.57-2.09-1.73-2.54-2.11c-.27-.23-.54-.48-.8-.72l-.28-.26a20.09,20.09,0,0,0-2.84-2.09c-.53-.34-1.07-.69-1.59-1.07-1-.74-1.55-.44-2,0l-1.09.91c-.51.43-1,.88-1.58,1.31a8.68,8.68,0,0,1-.92.6l-.5.31a2.4,2.4,0,0,0-.34.28l-.75.71c-.55.53-1.13,1.07-1.71,1.58a2.85,2.85,0,0,1-.53.34,2.87,2.87,0,0,0-.63.41,14,14,0,0,0-1,1.1l-.48.55c-.31.35-.62.7-1,1-.17.17-.35.32-.54.49l-.18.16-.86-.61-2.33-1.65c-.24-.17-.49-.33-.74-.49s-.66-.42-1-.65c-.75-.57-1.49-1.15-2.23-1.73s-1.52-1.19-2.29-1.77a8.68,8.68,0,0,0-.87-.56c-.21-.13-.44-.26-.64-.4l-.95-.67c-.51-.37-1-.75-1.58-1.09a1.7,1.7,0,0,0-2.16.33L157,42a6.86,6.86,0,0,1-.56.83c-.24.29-.51.57-.77.84l-.46.49-.33.38a4.85,4.85,0,0,1-.59.64c-.31.26-.65.51-1,.74s-.49.35-.72.53a2.38,2.38,0,0,0-.41.44l-.44.55c-.4.5-.82,1-1.22,1.53a4.76,4.76,0,0,0-.39.65l-.14.26-1.11,2a2.73,2.73,0,0,1-1.56-.77,3.52,3.52,0,0,0-1.14-.69l-3.58-3L143,48l-.62-.49.12-.14-.31-.34-.15.21-.13-.1L142,47l-.45-.39-.14.21-.63-.5v0l0-.11.14-.2-5-3.28.13-.21-.19-.05a1.67,1.67,0,0,0-2.06.78,1.6,1.6,0,0,1-.38.34,3.12,3.12,0,0,0-.29.22l-.56.51c-.52.47-1.06.95-1.54,1.47a8.25,8.25,0,0,0-.74,1,9.79,9.79,0,0,1-.58.8,5.24,5.24,0,0,1-.72.67l-.38.32,0,0v.25l-2.81,3.62-1.25-1.1-.95-.84c-.73-.65-1.48-1.31-2.23-2s-1.59-1.33-2.4-2l-1.65-1.36c-.16-.13-.3-.27-.45-.42a5.93,5.93,0,0,0-.68-.6c-1.09-.77-2.22-1.52-3.31-2.24l-.17-.11a1.21,1.21,0,0,0-1.46,0,20,20,0,0,0-2.22,1.52,7.71,7.71,0,0,0-.8.78,8.18,8.18,0,0,1-.7.69,6.88,6.88,0,0,1-.93.62l-.49.3a2.51,2.51,0,0,0-.34.27l-.78.73c-.58.54-1.17,1.11-1.77,1.65a2.4,2.4,0,0,1-.47.3,2.88,2.88,0,0,0-.49.3,1.53,1.53,0,0,0-.31.4,1.61,1.61,0,0,1-.2.28c-.59.61-1.2,1.22-1.8,1.81l-.36.36-.31.29v.12h0l.16.43-.17.15v.37a.94.94,0,0,0,.62-.16,10,10,0,0,0,2.94-2.95.71.71,0,0,1,.3-.19,1.42,1.42,0,0,0,.32-.18l1.7-1.38,2-1.6,1.5-1.23,0,0c.46-.38.94-.77,1.39-1.17a.57.57,0,0,0,.15-.3l0-.06,2.08-1.28a13,13,0,0,1,3.64,2.53l7.28,6.2.72.63h0l2,1.63.09-.07a7.78,7.78,0,0,0,2.74-3.23.35.35,0,0,0,0-.08l.33-.42c.31-.39.63-.79,1-1.17s.46-.51.69-.75l.49-.53a2.8,2.8,0,0,0,.6-.9l1.66-1.47.09-.13,1.89-1.67,3.21,2.44h0l1,.83c.7.55,1.4,1.11,2.11,1.65,1.06.81,2.1,1.61,3.17,2.37.58.42,1.18.82,1.76,1.22l1.48,1a7.8,7.8,0,0,1,.71.59l.35.31.13.11.09-.15a23.81,23.81,0,0,0,1.11-2.11,12.88,12.88,0,0,1,2.11-3.42l.37-.32c.26-.23.54-.47.82-.68a7.18,7.18,0,0,0,2-2.05,2.27,2.27,0,0,1,.56-.55,4.08,4.08,0,0,0,.42-.36c.6-.62,1.08-1.14,1.5-1.64a.88.88,0,0,1,1,0l.53.35c.58.39,1.19.79,1.79,1.17a32.49,32.49,0,0,1,4.2,3,23.79,23.79,0,0,0,3.25,2.31l2.59,1.91,1.09,1.18.11-.07.21-.13a3,3,0,0,0,.49-.35l1-1c.48-.48,1-1,1.49-1.43s1.32-1.14,2-1.69l1.27-1.07.9-.8c.45-.41.92-.83,1.4-1.22a4.7,4.7,0,0,1,.88-.51l.45-.23a.27.27,0,0,0,.14-.08l.86-1.09.15-.2.16-.12.37-.29c.42-.33.92-.23,1.67.33s1.37,1,2,1.46l1.45,1a2.6,2.6,0,0,1,.36.34,3.47,3.47,0,0,0,.32.32l7.11,6,1.54,1.09.08-.06a10.1,10.1,0,0,0,2.47-2.3,5.46,5.46,0,0,0,.53-.91,7.27,7.27,0,0,1,.35-.64l-.65-1c-.28.37-.55.76-.79,1.14A6,6,0,0,1,198.78,51.48Z"/><path d="M99.32,32.2l0-.07,0-.07-.12-.14v.52A1.62,1.62,0,0,0,99.32,32.2Z"/><polygon points="99.36 52.72 99.2 52.29 99.18 52.28 99.18 52.88 99.36 52.72"/><path d="M209.77,65.07l-.36-.22a2.76,2.76,0,0,1-.53-.36,2.22,2.22,0,0,0-2.31-.76l-.23.07.22.22-3.77,3.28.22.21v.07l-.44.49-.22-.21-.34.43.17.21-.06.06-.23-.21-.21.39.16.13-.48.53.11-.58-2.42,2.89a2.24,2.24,0,0,0-.89.7,1.69,1.69,0,0,1-1.26.76h0l-1.87-2-.24-.26a8,8,0,0,0-.62-.64c-.59-.53-1.21-1-1.8-1.55l-.62-.53a4.06,4.06,0,0,0-.55-.43l-.92-.53c-.42-.24-.85-.48-1.26-.75a8.63,8.63,0,0,1-.84-.65l-.47-.38-.64-.48c-.36-.27-.73-.55-1.08-.84a12,12,0,0,1-.88-.84l-.21-.22a1.93,1.93,0,0,0-2.26-.3,14.14,14.14,0,0,0-1.19,1.09c-.23.23-.46.45-.7.67s-.33.27-.49.39a5.17,5.17,0,0,0-.67.56c-.55.58-1.1,1.18-1.64,1.77s-1.06,1.16-1.6,1.73a7.83,7.83,0,0,1-.72.64c-.19.16-.39.32-.57.49-.59.55-1.17,1.12-1.74,1.67l-.6.58-.26-.17c-.25-.17-.49-.32-.72-.49-.44-.32-.87-.67-1.29-1l-.07-.05-.66-.54c-.45-.37-.91-.75-1.4-1.1a4.56,4.56,0,0,0-.76-.41,4.67,4.67,0,0,1-.67-.35c-.78-.52-1.55-1.06-2.3-1.59l-1-.7a4,4,0,0,0-.43-.27l-.61-.31c-.38-.19-.78-.38-1.15-.61-.7-.42-1.39-.87-2.07-1.31l-1.42-.91a1.43,1.43,0,0,0-2,.06c-.38.37-.79.73-1.19,1.07a11.77,11.77,0,0,0-2.09,2.1l-.18.26c-.17.24-.34.49-.53.72l-1.76,2.1-1.46,1.74-1.28,1.56-.49.61a10.31,10.31,0,0,1-3.22-2.48,17.38,17.38,0,0,0-1.93-1.75l-.1-.25,0,0L141,67.9a9.43,9.43,0,0,1-1.06-.79l-.58-.56a8.57,8.57,0,0,0-1.66-1.37c-1-.55-1.91-1.15-2.82-1.77s-1.45-.64-2.3.18a4.78,4.78,0,0,1-.42.35l-.2.16-.13.11.24.24-3.56,3.17v.07a1.61,1.61,0,0,1-.35.7l-.24-.23-.3.33,0,.15.19.2.11-.09-.17.19-.22-.27-.34.28.23.28.28-.24-.29.3-.2-.11-.23-.09-.06.45.36-.11a4,4,0,0,1-.32.27l0-.07-.3-.13-1.95,2.32-1.14,1-.1-.18a2.76,2.76,0,0,0-.46-.7,9.56,9.56,0,0,0-.8-.69c-.24-.2-.5-.4-.72-.62s-.58-.6-.85-.9-.69-.76-1.07-1.11a20.17,20.17,0,0,0-2.23-1.79,11.77,11.77,0,0,0-1.16-.67c-.36-.19-.73-.39-1.07-.61-1.06-.71-2.07-1.44-3-2.17-.17-.14-.34-.28-.5-.43a3.67,3.67,0,0,0-1.93-1.1l-.06-.08H109l0,0a7.7,7.7,0,0,0-1.74,2l-.42.6a6.26,6.26,0,0,1-.94.95c-.19.17-.39.34-.57.53l-.06.06c-.48.48-1,1-1.43,1.51-.31.37-.6.77-.87,1.15a8.07,8.07,0,0,1-2,2.14,3.5,3.5,0,0,0-.66.64l-.25.28-.9.95v1l.12.14,0,.07,0,.07a1.62,1.62,0,0,1-.14.24v0l.75-.94,1.56-1.7a1.17,1.17,0,0,0,.45-.37l0,0c.23-.26.46-.52.7-.77a15.08,15.08,0,0,0,1.49-1.8,13.36,13.36,0,0,1,2.46-2.62l.31-.27a7.3,7.3,0,0,0,1.94-2.18.83.83,0,0,1,.55-.45.89.89,0,0,1,.73.18c.23.18.48.34.72.51l.55.38c.59.43,1.11.81,1.57,1.17l.5.41a8.09,8.09,0,0,0,.95.72c.38.24.79.44,1.18.64s.64.32.94.5a.87.87,0,0,1,.23.26,1.47,1.47,0,0,0,.25.29l1,.81c.5.4,1,.81,1.49,1.24a7.6,7.6,0,0,1,.73.79c.15.18.3.35.45.52s.28.28.43.42.35.32.5.5c.41.46.8.93,1.21,1.42l.58.7.11-.07a12.53,12.53,0,0,0,2.55-2.36,13.1,13.1,0,0,1,2-2l2.34-2.74L133.59,64a2.06,2.06,0,0,1,1.45.68l2.62,1.62a.84.84,0,0,0,.18.26l2.47,2.19.7.62a.39.39,0,0,0,.1.07,4.84,4.84,0,0,1,1.61,1.39,9.17,9.17,0,0,0,.86.9,17.08,17.08,0,0,0,3.3,2.29l.09.05L148.12,73l4.94-6a2.09,2.09,0,0,0,.21-.33,1.48,1.48,0,0,1,.22-.33c.35-.35.71-.68,1.07-1s1-1,1.51-1.46,1-.65,1.55-.31l.46.28.19.11.32.27,1.21,1a.43.43,0,0,0,.17.08l.51.22a7.56,7.56,0,0,1,1.08.52c.63.39,1.25.81,1.86,1.22l1.18.79,1.66,1.07c.86.55,1.74,1.11,2.6,1.69.68.46,1.37,1,2,1.44l1.32,1a4.76,4.76,0,0,0,.61.35l.26.14.13.07.67-1.2,1.87-1.9a14.08,14.08,0,0,0,2.43-2.33,18.87,18.87,0,0,1,3.08-3c.46-.38.92-.78,1.36-1.17l.4-.36a.92.92,0,0,1,1.06.05c.6.5,1.27,1,2.1,1.64.17.13.36.25.54.36a3.94,3.94,0,0,1,.78.57,12.24,12.24,0,0,0,2.7,2c.37.21.73.45,1.08.69l.48.31a22.22,22.22,0,0,1,3.4,3.45c.6.7,1.22,1.43,1.89,2.11l.12.12.1-.13.24-.31a4.43,4.43,0,0,1,.48-.58c.36-.34.73-.68,1.11-1s.89-.8,1.32-1.22c.79-.77,1.54-1.56,2.3-2.38.51-.54,1-1.09,1.49-1.65l.65-.73.08-.12,2.3-2.43,2.55,1.7,0,0,2.34,1.56.09.1c-.23-.58-.46-1.15-.69-1.72l-1-.68Z"/><path d="M217.49,89.94l-.26-.17.31.09-.25-.49-.31.22-.14-.1,0,0,.14-.3-.25-.16-.17,0-.1.22-.18-.15h0l.15-.25-.51-.39-.15.23a2.85,2.85,0,0,1-.66-.75l0,0-4.73-3.18.15-.24-.13-.08-.27-.16c-.18-.11-.37-.22-.54-.34-1.14-.81-1.6-.84-2.36-.15a27.62,27.62,0,0,1-2.17,1.77,5,5,0,0,0-1.18,1.39c-.12.19-.24.37-.38.55a5.45,5.45,0,0,1-.76.78l-.41.38,0,0v.25a10.19,10.19,0,0,0-1.28,1.74,6,6,0,0,1-2.29,2.45l-.73-.62-1.86-1.57-2.09-1.73-2.54-2.11c-.27-.23-.54-.48-.8-.72l-.28-.26A20.09,20.09,0,0,0,187.63,84c-.53-.34-1.07-.69-1.59-1.07-1-.74-1.55-.44-2,0l-1.09.91c-.51.43-1,.88-1.58,1.31a8.72,8.72,0,0,1-.92.6l-.5.31a2.4,2.4,0,0,0-.34.28l-.75.71c-.55.53-1.13,1.07-1.71,1.58a2.85,2.85,0,0,1-.53.34,2.87,2.87,0,0,0-.63.41,13.94,13.94,0,0,0-1,1.1l-.48.55c-.31.35-.62.7-1,1-.17.17-.35.32-.54.49l-.18.16-.86-.61-2.33-1.65c-.24-.17-.49-.33-.74-.49s-.66-.42-1-.65c-.75-.57-1.49-1.15-2.23-1.73s-1.52-1.19-2.29-1.77a8.68,8.68,0,0,0-.87-.56c-.21-.13-.44-.26-.64-.4l-.95-.67c-.51-.37-1-.75-1.58-1.09a1.7,1.7,0,0,0-2.16.33l-.14.22a6.84,6.84,0,0,1-.56.83c-.24.29-.51.57-.77.84l-.46.49-.33.38a4.85,4.85,0,0,1-.59.64c-.31.26-.65.51-1,.74s-.49.35-.72.53a2.38,2.38,0,0,0-.41.44l-.44.55c-.4.5-.82,1-1.22,1.53a4.76,4.76,0,0,0-.39.65l-.14.26-1.11,2a2.73,2.73,0,0,1-1.56-.77,3.53,3.53,0,0,0-1.14-.69l-3.58-3,.32.59-.62-.49.12-.14-.31-.34-.15.21-.13-.1.09-.21-.45-.39-.14.21-.63-.5v0l0-.11.14-.2-5-3.28.13-.21L135.8,84a1.67,1.67,0,0,0-2.06.78,1.6,1.6,0,0,1-.38.34,3.08,3.08,0,0,0-.29.22l-.56.51c-.52.47-1.06.95-1.54,1.47a8.25,8.25,0,0,0-.74,1,9.79,9.79,0,0,1-.58.8,5.24,5.24,0,0,1-.72.67l-.38.32,0,0v.25L125.69,94l-1.25-1.1-.95-.84c-.73-.65-1.48-1.31-2.23-2s-1.59-1.33-2.4-2l-1.65-1.36c-.16-.13-.3-.27-.45-.42a5.93,5.93,0,0,0-.68-.6c-1.09-.77-2.22-1.52-3.31-2.24l-.17-.11a1.21,1.21,0,0,0-1.46,0A20,20,0,0,0,108.91,85a7.73,7.73,0,0,0-.8.78,8.15,8.15,0,0,1-.7.69,6.88,6.88,0,0,1-.93.62l-.49.3a2.51,2.51,0,0,0-.34.27l-.78.73c-.58.54-1.17,1.11-1.77,1.65a2.4,2.4,0,0,1-.47.3,2.88,2.88,0,0,0-.49.3,1.53,1.53,0,0,0-.31.4,1.61,1.61,0,0,1-.2.28c-.59.61-1.2,1.22-1.8,1.81l-.36.36-.31.29v.12h0l.16.43-.17.15v.37a.94.94,0,0,0,.62-.16,10,10,0,0,0,2.94-2.95.71.71,0,0,1,.3-.19,1.42,1.42,0,0,0,.32-.18l1.7-1.38,2-1.6,1.5-1.23,0,0c.46-.38.94-.77,1.39-1.17a.57.57,0,0,0,.15-.3l0-.06,2.08-1.28a13,13,0,0,1,3.64,2.53l7.28,6.2.72.63h0l2,1.63.09-.07A7.78,7.78,0,0,0,128.63,92a.35.35,0,0,0,0-.08l.33-.42c.31-.39.63-.79,1-1.17s.46-.51.69-.75l.49-.53a2.81,2.81,0,0,0,.6-.9l1.66-1.47.09-.13,1.89-1.67,3.21,2.44h0l1,.83c.7.55,1.4,1.11,2.11,1.65,1.06.81,2.1,1.61,3.17,2.37.58.42,1.18.82,1.76,1.22l1.48,1a7.8,7.8,0,0,1,.71.59l.35.31.13.11.09-.15a23.81,23.81,0,0,0,1.11-2.11,12.88,12.88,0,0,1,2.11-3.42l.37-.32c.26-.23.54-.47.82-.68a7.18,7.18,0,0,0,2-2.05,2.26,2.26,0,0,1,.56-.55,4.11,4.11,0,0,0,.42-.36c.6-.62,1.08-1.14,1.5-1.64a.88.88,0,0,1,1,0l.53.35c.58.39,1.19.79,1.79,1.17a32.47,32.47,0,0,1,4.2,3A23.79,23.79,0,0,0,169.07,91l2.59,1.91,1.09,1.18.11-.07.21-.13a3,3,0,0,0,.49-.35l1-1c.48-.48,1-1,1.49-1.43s1.32-1.14,2-1.69l1.27-1.07.9-.8c.45-.41.92-.83,1.4-1.22a4.7,4.7,0,0,1,.88-.51l.45-.23a.27.27,0,0,0,.14-.08l.86-1.09.15-.2.16-.12.37-.29c.42-.33.92-.23,1.67.33s1.37,1,2,1.46l1.45,1a2.6,2.6,0,0,1,.36.34,3.47,3.47,0,0,0,.32.32l7.11,6,1.54,1.09.08-.06a10.1,10.1,0,0,0,2.47-2.3,5.46,5.46,0,0,0,.53-.91,2.79,2.79,0,0,1,1.08-1.36.3.3,0,0,0,.1-.1l.44-.58,1.69-2.21a.55.55,0,0,0,.1-.26l2-1.58,0,0a1.29,1.29,0,0,1,1.17-.65l4.31,3.22,3.38,2.76a17.49,17.49,0,0,1,2,1.42c-.08-.52-.16-1-.24-1.55l-.46-.38Z"/><path d="M99.32,73.8l0-.07,0-.07-.12-.14V74A1.62,1.62,0,0,0,99.32,73.8Z"/><polygon points="99.36 94.32 99.2 93.89 99.18 93.88 99.18 94.48 99.36 94.32"/><path d="M216.07,111.45l0,0-.5-.32a8.93,8.93,0,0,1-1-.68c-.3-.25-.59-.53-.88-.8a14,14,0,0,0-1.09-1c-.67-.52-1.39-1-2.08-1.47l-.74-.5-.36-.22a2.76,2.76,0,0,1-.53-.36,2.22,2.22,0,0,0-2.31-.76l-.23.07.22.22-3.77,3.28.22.21v.07l-.44.49-.22-.21-.34.43.17.21-.06.06-.23-.21-.21.39.16.13-.48.53.11-.58-2.42,2.89a2.24,2.24,0,0,0-.89.7,1.69,1.69,0,0,1-1.26.76h0l-1.87-2-.24-.26a7.92,7.92,0,0,0-.62-.64c-.59-.53-1.21-1-1.8-1.55l-.62-.53a4.06,4.06,0,0,0-.55-.43l-.92-.53c-.42-.24-.85-.48-1.26-.75a8.63,8.63,0,0,1-.84-.65l-.47-.38-.64-.48c-.36-.27-.73-.55-1.08-.84a12,12,0,0,1-.88-.84l-.21-.22a1.93,1.93,0,0,0-2.26-.3,14.19,14.19,0,0,0-1.19,1.09c-.23.23-.46.45-.7.67s-.33.27-.49.39a5.17,5.17,0,0,0-.67.56c-.55.58-1.1,1.18-1.64,1.77s-1.06,1.16-1.6,1.73a7.82,7.82,0,0,1-.72.64c-.19.16-.39.32-.57.49-.59.55-1.17,1.12-1.74,1.67l-.6.58-.26-.17c-.25-.17-.49-.32-.72-.49-.44-.32-.87-.67-1.29-1l-.07-.05-.66-.54c-.45-.37-.91-.75-1.4-1.1a4.56,4.56,0,0,0-.76-.41,4.67,4.67,0,0,1-.67-.35c-.78-.52-1.55-1.06-2.3-1.59l-1-.7a4,4,0,0,0-.43-.27l-.61-.31c-.38-.19-.78-.38-1.15-.61-.7-.42-1.39-.87-2.07-1.31l-1.42-.91a1.43,1.43,0,0,0-2,.06c-.38.37-.79.73-1.19,1.07a11.77,11.77,0,0,0-2.09,2.1l-.18.26c-.17.24-.34.49-.53.72l-1.76,2.1-1.46,1.74-1.28,1.56-.49.61a10.31,10.31,0,0,1-3.22-2.48,17.35,17.35,0,0,0-1.93-1.75l-.1-.25,0,0-.55-.38a9.43,9.43,0,0,1-1.06-.79l-.58-.56a8.57,8.57,0,0,0-1.66-1.37c-1-.55-1.91-1.15-2.82-1.77s-1.45-.64-2.3.18a4.83,4.83,0,0,1-.42.35l-.2.16-.13.11.24.24-3.56,3.17v.07a1.61,1.61,0,0,1-.35.7l-.24-.23-.3.33,0,.15.19.2.11-.09-.17.19-.22-.27-.34.28.23.28.28-.24-.29.3-.2-.11-.23-.09-.06.45.36-.11a4,4,0,0,1-.32.27l0-.07-.3-.13-1.95,2.32-1.14,1-.1-.18a2.76,2.76,0,0,0-.46-.7,9.56,9.56,0,0,0-.8-.69c-.24-.2-.5-.4-.72-.62s-.58-.6-.85-.9-.69-.76-1.07-1.11a20.2,20.2,0,0,0-2.23-1.79,11.82,11.82,0,0,0-1.16-.67c-.36-.19-.73-.39-1.07-.61-1.06-.71-2.07-1.44-3-2.17-.17-.14-.34-.28-.5-.43a3.67,3.67,0,0,0-1.93-1.1l-.06-.08H109l0,0a7.7,7.7,0,0,0-1.74,2l-.42.6a6.26,6.26,0,0,1-.94.95c-.19.17-.39.34-.57.53l-.06.06c-.48.48-1,1-1.43,1.51-.31.37-.6.77-.87,1.15a8.07,8.07,0,0,1-2,2.14,3.5,3.5,0,0,0-.66.64l-.25.28-.9.95v1l.12.14,0,.07,0,.07a1.63,1.63,0,0,1-.14.24v0l.75-.94,1.56-1.7a1.17,1.17,0,0,0,.45-.37l0,0c.23-.26.46-.52.7-.77a15.08,15.08,0,0,0,1.49-1.8,13.36,13.36,0,0,1,2.46-2.62l.31-.27a7.3,7.3,0,0,0,1.94-2.18.83.83,0,0,1,.55-.45.89.89,0,0,1,.73.18c.23.18.48.34.72.51l.55.38c.59.43,1.11.81,1.57,1.17l.5.41a8.12,8.12,0,0,0,.95.72c.38.24.79.44,1.18.64s.64.32.94.5a.87.87,0,0,1,.23.26,1.47,1.47,0,0,0,.25.29l1,.81c.5.4,1,.81,1.49,1.24a7.6,7.6,0,0,1,.73.79c.15.17.3.35.45.52s.28.28.43.42.35.32.5.5c.41.46.8.93,1.21,1.42l.58.7.11-.07a12.53,12.53,0,0,0,2.55-2.36,13.1,13.1,0,0,1,2-2l2.34-2.74,3.12-3.21a2.06,2.06,0,0,1,1.45.68l2.62,1.62a.84.84,0,0,0,.18.26l2.47,2.19.7.62a.38.38,0,0,0,.1.07,4.85,4.85,0,0,1,1.61,1.39,9.17,9.17,0,0,0,.86.9,17.09,17.09,0,0,0,3.3,2.29l.09.05,1.14-1.09,4.94-6a2.09,2.09,0,0,0,.21-.33,1.48,1.48,0,0,1,.22-.33c.35-.35.71-.68,1.07-1s1-1,1.51-1.46,1-.65,1.55-.31l.46.28.19.11.32.27,1.21,1a.44.44,0,0,0,.17.08l.51.22a7.56,7.56,0,0,1,1.08.52c.63.39,1.25.81,1.86,1.22l1.18.79,1.66,1.07c.86.55,1.74,1.11,2.6,1.69.68.46,1.37,1,2,1.44l1.32,1a4.76,4.76,0,0,0,.61.35l.26.14.13.07.67-1.2,1.87-1.9a14.08,14.08,0,0,0,2.43-2.33,18.87,18.87,0,0,1,3.08-3c.46-.38.92-.78,1.36-1.17l.4-.36a.92.92,0,0,1,1.06.05c.6.5,1.27,1,2.1,1.64.17.13.36.24.54.36a4,4,0,0,1,.78.57,12.24,12.24,0,0,0,2.7,2c.37.21.73.45,1.08.69l.48.31a22.22,22.22,0,0,1,3.4,3.45c.6.7,1.22,1.43,1.89,2.11l.12.12.1-.13.24-.31a4.41,4.41,0,0,1,.48-.58c.36-.34.73-.68,1.11-1s.89-.8,1.32-1.22c.79-.77,1.54-1.56,2.3-2.38.51-.54,1-1.09,1.49-1.65l.65-.73.08-.12,2.3-2.43,2.55,1.7,0,0,2.34,1.56a4.65,4.65,0,0,0,.92.9l.68.52c.33.25.66.5,1,.76.47.38.94.79,1.4,1.18l.48.41,0,0,0,.06a11.54,11.54,0,0,0,2.75,2.48c0-.42.05-.84.08-1.26l-3.27-2.86Z"/><path d="M216.84,131.09l0,0,.14-.3-.25-.16-.17,0-.1.22-.18-.15h0l.15-.25L216,130l-.15.23a2.85,2.85,0,0,1-.66-.75l0,0-4.73-3.18.15-.24-.13-.08-.27-.16c-.18-.11-.37-.22-.54-.34-1.14-.81-1.6-.84-2.36-.15a27.62,27.62,0,0,1-2.17,1.77,5,5,0,0,0-1.18,1.39c-.12.19-.24.37-.38.55a5.44,5.44,0,0,1-.76.78l-.41.38,0,0v.25a10.19,10.19,0,0,0-1.28,1.74,6,6,0,0,1-2.29,2.45l-.73-.62-1.86-1.57-2.09-1.73-2.54-2.11c-.27-.23-.54-.48-.8-.72l-.28-.26a20.07,20.07,0,0,0-2.84-2.09c-.53-.34-1.07-.69-1.59-1.07-1-.74-1.55-.44-2,0l-1.09.91c-.51.43-1,.88-1.58,1.31a8.72,8.72,0,0,1-.92.6l-.5.31a2.42,2.42,0,0,0-.34.28l-.75.71c-.55.53-1.13,1.07-1.71,1.58a2.84,2.84,0,0,1-.53.34,2.88,2.88,0,0,0-.63.42,13.94,13.94,0,0,0-1,1.1l-.48.55c-.31.35-.62.7-1,1-.17.17-.35.32-.54.49l-.18.16-.86-.61L169.63,132c-.24-.17-.49-.33-.74-.49s-.66-.42-1-.65c-.75-.57-1.49-1.15-2.23-1.73s-1.52-1.19-2.29-1.77a8.68,8.68,0,0,0-.87-.56c-.21-.13-.44-.26-.64-.4l-.95-.67c-.51-.37-1-.75-1.58-1.09a1.7,1.7,0,0,0-2.16.33l-.14.22a6.84,6.84,0,0,1-.56.83c-.24.29-.51.57-.77.84l-.46.49-.33.38a4.85,4.85,0,0,1-.59.64c-.31.26-.65.51-1,.74s-.49.35-.72.53a2.38,2.38,0,0,0-.41.44l-.44.55c-.4.5-.82,1-1.22,1.53a4.76,4.76,0,0,0-.39.65l-.14.26-1.11,2a2.73,2.73,0,0,1-1.56-.77,3.53,3.53,0,0,0-1.14-.69l-3.58-3,.32.59-.62-.49.12-.14-.31-.34-.15.21-.13-.1.09-.21-.45-.39-.14.21-.63-.5v0l0-.11.14-.2-5-3.28.13-.21-.19-.05a1.67,1.67,0,0,0-2.06.78,1.6,1.6,0,0,1-.38.34,3.08,3.08,0,0,0-.29.22l-.56.51c-.52.47-1.06.95-1.54,1.47a8.27,8.27,0,0,0-.74,1,9.75,9.75,0,0,1-.58.8,5.24,5.24,0,0,1-.72.67l-.38.32,0,0V132l-2.81,3.62-1.25-1.1-.95-.84c-.73-.65-1.48-1.31-2.23-2s-1.59-1.33-2.4-2l-1.65-1.36c-.16-.13-.3-.27-.45-.42a5.93,5.93,0,0,0-.68-.6c-1.09-.77-2.22-1.52-3.31-2.24l-.17-.11a1.21,1.21,0,0,0-1.46,0,20,20,0,0,0-2.22,1.52,7.73,7.73,0,0,0-.8.78,8.15,8.15,0,0,1-.7.69,6.86,6.86,0,0,1-.93.62l-.49.3a2.49,2.49,0,0,0-.34.27l-.78.73c-.58.54-1.17,1.11-1.77,1.65a2.41,2.41,0,0,1-.47.3,2.88,2.88,0,0,0-.49.3,1.53,1.53,0,0,0-.31.4,1.61,1.61,0,0,1-.2.28c-.59.61-1.2,1.22-1.8,1.81l-.36.36-.31.29v.12h0l.16.43-.17.15v.37a.94.94,0,0,0,.62-.16,10,10,0,0,0,2.94-2.95.71.71,0,0,1,.3-.19,1.43,1.43,0,0,0,.32-.18l1.7-1.38,2-1.6,1.5-1.23,0,0c.46-.38.94-.77,1.39-1.17a.57.57,0,0,0,.15-.3l0-.06,2.08-1.28a13,13,0,0,1,3.64,2.53l7.28,6.2.72.63h0l2,1.63.09-.07a7.78,7.78,0,0,0,2.74-3.23.35.35,0,0,0,0-.08l.33-.42c.31-.39.63-.79,1-1.17s.46-.51.69-.75l.49-.53a2.8,2.8,0,0,0,.6-.9l1.66-1.47.09-.13,1.89-1.67,3.21,2.44h0l1,.83c.7.55,1.4,1.11,2.11,1.65,1.06.81,2.1,1.61,3.17,2.37.58.42,1.18.82,1.76,1.22l1.48,1a7.84,7.84,0,0,1,.71.59l.35.31.13.11.09-.15a23.77,23.77,0,0,0,1.11-2.11,12.88,12.88,0,0,1,2.11-3.42L153,131c.26-.23.54-.47.82-.68a7.18,7.18,0,0,0,2-2.05,2.26,2.26,0,0,1,.56-.55,4.11,4.11,0,0,0,.42-.36c.6-.62,1.08-1.14,1.5-1.64a.88.88,0,0,1,1,0l.53.35c.58.39,1.19.79,1.79,1.17a32.47,32.47,0,0,1,4.2,3,23.81,23.81,0,0,0,3.25,2.31l2.59,1.91,1.09,1.18.11-.07.21-.13a3,3,0,0,0,.49-.35l1-1c.48-.48,1-1,1.49-1.43s1.32-1.14,2-1.68l1.27-1.07.9-.8c.45-.41.92-.83,1.4-1.22a4.7,4.7,0,0,1,.88-.51l.45-.23a.27.27,0,0,0,.14-.08l.86-1.09.15-.2.16-.12.37-.29c.42-.33.92-.23,1.67.33s1.37,1,2,1.46l1.45,1a2.6,2.6,0,0,1,.36.34,3.47,3.47,0,0,0,.32.32l7.11,6,1.54,1.09.08-.06a10.11,10.11,0,0,0,2.47-2.3,5.46,5.46,0,0,0,.53-.91,2.8,2.8,0,0,1,1.08-1.37.3.3,0,0,0,.1-.1l.44-.58,1.69-2.21a.55.55,0,0,0,.1-.26l2-1.58,0,0a1.29,1.29,0,0,1,1.17-.65l4.31,3.22,3.38,2.76c.17.1.32.22.49.32.09-.4.18-.8.26-1.2l-.22.16Z"/><path d="M99.32,115.4l0-.07,0-.07-.12-.14v.52A1.63,1.63,0,0,0,99.32,115.4Z"/><polygon points="99.36 135.92 99.2 135.49 99.18 135.48 99.18 136.08 99.36 135.92"/><path d="M209.77,148.27l-.36-.22a2.77,2.77,0,0,1-.53-.36,2.22,2.22,0,0,0-2.31-.76l-.23.07.22.22-3.77,3.28.22.21v.07l-.44.49-.22-.21-.34.43.17.21-.06.06-.23-.21-.21.39.16.13-.48.53.11-.58-2.42,2.89a2.24,2.24,0,0,0-.89.7,1.69,1.69,0,0,1-1.26.76h0l-1.87-2-.24-.26a7.92,7.92,0,0,0-.62-.64c-.59-.53-1.21-1-1.8-1.55l-.62-.53a4.06,4.06,0,0,0-.55-.43l-.92-.53c-.42-.24-.85-.48-1.26-.75a8.63,8.63,0,0,1-.84-.65l-.47-.38-.64-.48c-.36-.27-.73-.55-1.08-.84a12,12,0,0,1-.88-.84l-.21-.22a1.93,1.93,0,0,0-2.26-.3,14.19,14.19,0,0,0-1.19,1.09c-.23.23-.46.45-.7.67s-.33.27-.49.39a5.18,5.18,0,0,0-.67.56c-.55.58-1.1,1.18-1.64,1.77s-1.06,1.16-1.6,1.73a7.79,7.79,0,0,1-.72.64c-.19.16-.39.32-.57.49-.59.55-1.17,1.12-1.74,1.67l-.6.58-.26-.17c-.25-.17-.49-.32-.72-.49-.44-.32-.87-.67-1.29-1l-.07-.05-.66-.54c-.45-.37-.91-.75-1.4-1.09a4.54,4.54,0,0,0-.76-.41,4.67,4.67,0,0,1-.67-.35c-.78-.52-1.55-1.06-2.3-1.59l-1-.7a4,4,0,0,0-.43-.27l-.61-.31c-.38-.19-.78-.38-1.15-.61-.7-.42-1.39-.87-2.07-1.31l-1.42-.91a1.43,1.43,0,0,0-2,.06c-.38.37-.79.73-1.19,1.07a11.77,11.77,0,0,0-2.09,2.1l-.18.26c-.17.24-.34.49-.53.72l-1.76,2.1-1.46,1.74-1.28,1.56-.49.61a10.31,10.31,0,0,1-3.22-2.48,17.35,17.35,0,0,0-1.93-1.75l-.1-.25,0,0-.55-.38a9.45,9.45,0,0,1-1.06-.79l-.58-.56a8.57,8.57,0,0,0-1.66-1.37c-1-.55-1.91-1.15-2.82-1.77s-1.45-.64-2.3.18a4.83,4.83,0,0,1-.42.35l-.2.16-.13.11.24.24-3.56,3.17v.07a1.61,1.61,0,0,1-.35.7l-.24-.23-.3.33,0,.15.19.2.11-.09-.17.19-.22-.27-.34.28.23.28.28-.24-.29.3-.2-.11-.23-.09-.06.45.36-.11a4,4,0,0,1-.32.27l0-.07-.3-.13L124.71,155l-1.14,1-.1-.18a2.76,2.76,0,0,0-.46-.7,9.56,9.56,0,0,0-.8-.69c-.24-.2-.5-.4-.72-.62s-.58-.6-.85-.9-.69-.76-1.07-1.11a20.2,20.2,0,0,0-2.23-1.79,11.82,11.82,0,0,0-1.16-.67c-.36-.19-.73-.39-1.07-.61-1.06-.71-2.07-1.44-3-2.17-.17-.14-.34-.28-.5-.43a3.67,3.67,0,0,0-1.93-1.1l-.06-.08H109l0,0a7.7,7.7,0,0,0-1.74,2l-.42.6a6.26,6.26,0,0,1-.94.95c-.19.17-.39.34-.57.53l-.06.06c-.48.48-1,1-1.43,1.51-.31.37-.6.77-.87,1.15a8.07,8.07,0,0,1-2,2.14,3.5,3.5,0,0,0-.66.64l-.25.28-.9.95v1l.12.14,0,.07,0,.07a1.63,1.63,0,0,1-.14.24v0l.75-.94,1.56-1.7a1.17,1.17,0,0,0,.45-.37l0,0c.23-.26.46-.52.7-.77a15.08,15.08,0,0,0,1.49-1.8,13.36,13.36,0,0,1,2.46-2.62l.31-.27a7.3,7.3,0,0,0,1.94-2.18.83.83,0,0,1,.55-.45.89.89,0,0,1,.73.18c.23.18.48.34.72.51l.55.38c.59.43,1.11.81,1.57,1.17l.5.41a8.09,8.09,0,0,0,.95.72c.38.24.79.44,1.18.64s.64.32.94.5a.87.87,0,0,1,.23.26,1.46,1.46,0,0,0,.25.29l1,.81c.5.4,1,.81,1.49,1.24a7.6,7.6,0,0,1,.73.79c.15.17.3.35.45.52s.28.28.43.42.35.32.5.5c.41.46.8.93,1.21,1.42l.58.7.11-.07a12.53,12.53,0,0,0,2.55-2.36,13.1,13.1,0,0,1,2-2l2.34-2.74,3.12-3.21a2.05,2.05,0,0,1,1.45.68l2.62,1.62a.84.84,0,0,0,.18.26l2.47,2.19.7.62a.38.38,0,0,0,.1.07,4.85,4.85,0,0,1,1.61,1.39,9.17,9.17,0,0,0,.86.9,17.09,17.09,0,0,0,3.3,2.29l.09.05,1.14-1.09,4.94-6a2.09,2.09,0,0,0,.21-.33,1.47,1.47,0,0,1,.22-.33c.35-.35.71-.68,1.07-1s1-1,1.51-1.46,1-.65,1.55-.31l.46.28.19.11.32.27,1.21,1a.44.44,0,0,0,.17.08l.51.22a7.56,7.56,0,0,1,1.08.52c.63.39,1.25.81,1.86,1.22l1.18.79,1.66,1.07c.86.55,1.74,1.11,2.6,1.69.68.46,1.37,1,2,1.44l1.32,1a4.73,4.73,0,0,0,.61.35l.26.14.13.07.67-1.2,1.87-1.9a14.09,14.09,0,0,0,2.43-2.33,18.87,18.87,0,0,1,3.08-3c.46-.38.92-.78,1.36-1.17l.4-.36a.92.92,0,0,1,1.06.05c.6.5,1.27,1,2.1,1.64.17.13.36.24.54.36a4,4,0,0,1,.78.57,12.22,12.22,0,0,0,2.7,2c.37.21.73.45,1.08.69l.48.31a22.23,22.23,0,0,1,3.4,3.45c.6.7,1.22,1.43,1.89,2.11l.12.12.1-.13.24-.31a4.43,4.43,0,0,1,.48-.58c.36-.34.73-.68,1.11-1s.89-.8,1.32-1.22c.79-.77,1.54-1.56,2.3-2.38.51-.54,1-1.09,1.49-1.65l.65-.73.08-.12,2.3-2.43,2.55,1.7,0,0,1.34.9.39-1-1-.68Z"/><path d="M194.09,172.36l-2.54-2.11c-.27-.23-.54-.48-.8-.72l-.28-.26a20.07,20.07,0,0,0-2.84-2.09c-.53-.34-1.07-.69-1.59-1.07-1-.74-1.55-.44-2,0l-1.09.91c-.51.43-1,.88-1.58,1.31a8.68,8.68,0,0,1-.92.6l-.5.31a2.42,2.42,0,0,0-.34.28l-.75.71c-.55.53-1.13,1.07-1.71,1.58a2.85,2.85,0,0,1-.53.34,2.87,2.87,0,0,0-.63.42,14,14,0,0,0-1,1.1l-.48.55c-.31.35-.62.7-1,1-.17.17-.35.32-.54.49l-.18.16-.86-.61-2.33-1.65c-.24-.17-.49-.33-.74-.49s-.66-.42-1-.65c-.75-.57-1.49-1.15-2.23-1.73s-1.52-1.19-2.29-1.77a8.68,8.68,0,0,0-.87-.56c-.21-.13-.44-.26-.64-.4l-.95-.67c-.51-.37-1-.75-1.58-1.09a1.7,1.7,0,0,0-2.16.33l-.14.22a6.84,6.84,0,0,1-.56.83c-.24.29-.51.57-.77.84l-.46.49-.33.38a4.85,4.85,0,0,1-.59.64c-.31.26-.65.51-1,.74s-.49.35-.72.53a2.38,2.38,0,0,0-.41.44l-.44.55c-.4.5-.82,1-1.22,1.53a4.76,4.76,0,0,0-.39.65l-.14.26-1.11,2a2.73,2.73,0,0,1-1.56-.77,3.53,3.53,0,0,0-1.14-.69l-3.58-3,.32.59-.62-.49.12-.14-.31-.34-.15.21-.13-.1.09-.21-.45-.39-.14.21-.63-.5v0l0-.11.14-.2-5-3.28.13-.21-.19-.05a1.67,1.67,0,0,0-2.06.78,1.6,1.6,0,0,1-.38.34,3.08,3.08,0,0,0-.29.22l-.56.51c-.52.47-1.06.95-1.54,1.47a8.27,8.27,0,0,0-.74,1,9.75,9.75,0,0,1-.58.8,5.24,5.24,0,0,1-.72.67l-.38.32,0,0v.25l-2.81,3.62-1.25-1.1-.95-.84c-.73-.65-1.48-1.31-2.23-2s-1.59-1.33-2.4-2L117.21,170c-.16-.13-.3-.27-.45-.42a5.93,5.93,0,0,0-.68-.6c-1.09-.77-2.22-1.52-3.31-2.24l-.17-.11a1.21,1.21,0,0,0-1.46,0,20,20,0,0,0-2.22,1.52,7.7,7.7,0,0,0-.8.78,8.15,8.15,0,0,1-.7.69,6.86,6.86,0,0,1-.93.62l-.49.3a2.49,2.49,0,0,0-.34.27l-.78.73c-.58.54-1.17,1.11-1.77,1.65a2.42,2.42,0,0,1-.47.3,2.89,2.89,0,0,0-.49.3,1.53,1.53,0,0,0-.31.4,1.61,1.61,0,0,1-.2.28c-.59.61-1.2,1.22-1.8,1.81l-.36.36-.31.29v.12h0l.16.43-.17.15V178a.94.94,0,0,0,.62-.16,10,10,0,0,0,2.94-2.95.71.71,0,0,1,.3-.19,1.44,1.44,0,0,0,.32-.18l1.7-1.38,2-1.6,1.5-1.23,0,0c.46-.38.94-.77,1.39-1.17a.57.57,0,0,0,.15-.3l0-.06,2.08-1.28a13,13,0,0,1,3.64,2.53l7.28,6.2.72.63h0l2,1.63.09-.07a7.78,7.78,0,0,0,2.74-3.23.35.35,0,0,0,0-.08l.33-.42c.31-.39.63-.79,1-1.17s.46-.51.69-.75l.49-.53a2.8,2.8,0,0,0,.6-.9l1.66-1.47.09-.13,1.89-1.67,3.21,2.44h0l1,.83c.7.55,1.4,1.11,2.11,1.65,1.06.81,2.1,1.61,3.17,2.37.58.42,1.18.82,1.76,1.22l1.48,1a7.8,7.8,0,0,1,.71.59l.35.31.13.11.09-.15a23.77,23.77,0,0,0,1.11-2.11,12.88,12.88,0,0,1,2.11-3.42l.37-.32c.26-.23.54-.47.82-.68a7.18,7.18,0,0,0,2-2.05,2.26,2.26,0,0,1,.56-.55,4.11,4.11,0,0,0,.42-.36c.6-.62,1.08-1.14,1.5-1.64a.88.88,0,0,1,1,0l.53.35c.58.39,1.19.79,1.79,1.17a32.47,32.47,0,0,1,4.2,3,23.81,23.81,0,0,0,3.25,2.31l2.59,1.91,1.09,1.18.11-.07.21-.13a3,3,0,0,0,.49-.35l1-1c.48-.48,1-1,1.49-1.43s1.32-1.14,2-1.68l1.27-1.07.9-.8c.45-.41.92-.83,1.4-1.22a4.7,4.7,0,0,1,.88-.51l.45-.23a.27.27,0,0,0,.14-.08l.86-1.09.15-.2.16-.12.37-.29c.42-.33.92-.23,1.67.33s1.37,1,2,1.46l1.45,1a2.58,2.58,0,0,1,.36.34,3.47,3.47,0,0,0,.32.32l5.94,5,.6-.78-.77-.65Z"/><path d="M99.32,157l0-.07,0-.07-.12-.14v.52A1.63,1.63,0,0,0,99.32,157Z"/><polygon points="99.36 177.53 99.2 177.09 99.18 177.08 99.18 177.68 99.36 177.53"/><path d="M182.63,187.56a14.14,14.14,0,0,0-1.19,1.09c-.23.23-.46.45-.7.67s-.33.27-.49.39a5.21,5.21,0,0,0-.67.56c-.55.58-1.1,1.18-1.64,1.77s-1.06,1.16-1.6,1.73a7.79,7.79,0,0,1-.72.64c-.19.16-.39.32-.57.49-.59.55-1.17,1.12-1.74,1.67l-.6.58-.26-.17c-.25-.17-.49-.32-.72-.49-.44-.32-.87-.67-1.29-1l-.07-.05-.66-.54c-.45-.37-.91-.75-1.4-1.09a4.54,4.54,0,0,0-.76-.41,4.64,4.64,0,0,1-.67-.35c-.78-.52-1.55-1.06-2.3-1.59l-1-.7a4,4,0,0,0-.43-.27l-.61-.31c-.38-.19-.78-.38-1.15-.61-.7-.42-1.39-.87-2.07-1.31l-1.42-.91a1.43,1.43,0,0,0-2,.06c-.38.37-.79.73-1.19,1.07a11.77,11.77,0,0,0-2.09,2.1l-.18.26c-.17.24-.34.49-.53.72l-1.76,2.1-1.46,1.74L147.37,197l-.49.61a10.31,10.31,0,0,1-3.22-2.48,17.38,17.38,0,0,0-1.93-1.75l-.1-.25,0,0-.55-.38a9.43,9.43,0,0,1-1.06-.79l-.58-.56a8.57,8.57,0,0,0-1.66-1.37c-1-.55-1.91-1.15-2.82-1.77s-1.45-.64-2.3.18a4.87,4.87,0,0,1-.42.35l-.2.16-.13.11.24.24-3.56,3.17v.07a1.61,1.61,0,0,1-.35.7l-.24-.23-.3.33,0,.15.19.2.11-.09-.17.19-.22-.27-.34.28.23.28.28-.24-.29.3-.2-.11-.23-.09-.06.45.36-.11a4.07,4.07,0,0,1-.32.27l0-.07-.3-.13-1.95,2.32-1.14,1-.1-.18a2.76,2.76,0,0,0-.46-.7,9.56,9.56,0,0,0-.8-.69c-.24-.2-.5-.4-.72-.62s-.58-.6-.85-.9-.69-.76-1.07-1.11a20.23,20.23,0,0,0-2.23-1.79,11.82,11.82,0,0,0-1.16-.67c-.36-.19-.73-.39-1.07-.61-1.06-.71-2.07-1.44-3-2.17-.17-.14-.34-.28-.5-.43a3.67,3.67,0,0,0-1.93-1.1l-.06-.08H109l0,0a7.7,7.7,0,0,0-1.74,2l-.42.6a6.26,6.26,0,0,1-.94.95c-.19.17-.39.34-.57.53l-.06.06c-.48.48-1,1-1.43,1.51-.31.37-.6.77-.87,1.15a8.07,8.07,0,0,1-2,2.14,3.5,3.5,0,0,0-.66.64l-.25.28-.9.95v1s.08.08.12.15l0,.07,0,.07a1.63,1.63,0,0,1-.14.24v0l.75-.94,1.56-1.7a1.17,1.17,0,0,0,.45-.37l0,0c.23-.26.46-.52.7-.77a15.08,15.08,0,0,0,1.49-1.8,13.36,13.36,0,0,1,2.46-2.62l.31-.27a7.3,7.3,0,0,0,1.94-2.18.83.83,0,0,1,.55-.45.89.89,0,0,1,.73.18c.23.18.48.34.72.51l.55.38c.59.43,1.11.81,1.57,1.17l.5.41a8.09,8.09,0,0,0,.95.72c.38.24.79.44,1.18.64s.64.32.94.5a.87.87,0,0,1,.23.26,1.46,1.46,0,0,0,.25.29l1,.81c.5.4,1,.81,1.49,1.24a7.6,7.6,0,0,1,.73.79c.15.17.3.35.45.52s.28.28.43.42.35.32.5.5c.41.46.8.93,1.21,1.42l.58.7.11-.07a12.53,12.53,0,0,0,2.55-2.36,13.1,13.1,0,0,1,2-2l2.34-2.74,3.12-3.21a2.05,2.05,0,0,1,1.45.68l2.62,1.62a.84.84,0,0,0,.18.26l2.47,2.19.7.62a.38.38,0,0,0,.1.07,4.85,4.85,0,0,1,1.61,1.39,9.17,9.17,0,0,0,.86.9,17.09,17.09,0,0,0,3.3,2.29l.09.05,1.14-1.09,4.94-6a2.09,2.09,0,0,0,.21-.33,1.47,1.47,0,0,1,.22-.33c.35-.35.71-.68,1.07-1s1-1,1.51-1.46,1-.65,1.55-.31l.46.28.19.11.32.27,1.21,1a.44.44,0,0,0,.17.08l.51.22a7.56,7.56,0,0,1,1.08.52c.63.39,1.25.81,1.86,1.22l1.18.79,1.66,1.07c.86.55,1.74,1.11,2.6,1.69.68.46,1.37,1,2,1.44l1.32,1,.19.11q1.24-.86,2.45-1.75l.89-.9a14.09,14.09,0,0,0,2.43-2.33,18.87,18.87,0,0,1,3.08-3c.46-.38.92-.78,1.36-1.17l.4-.36a.92.92,0,0,1,1.06.05l.08.07L185,188l-.09-.09A1.93,1.93,0,0,0,182.63,187.56Z"/><path d="M141.43,213.09l.18-.05-.09-.08Z"/><path d="M118.86,213l-1.65-1.36c-.16-.13-.3-.27-.45-.42a5.93,5.93,0,0,0-.68-.6c-1.09-.77-2.22-1.52-3.31-2.24l-.17-.11a1.21,1.21,0,0,0-1.46,0,20,20,0,0,0-2.22,1.52,7.73,7.73,0,0,0-.8.78,8.15,8.15,0,0,1-.7.69,6.86,6.86,0,0,1-.93.62l-.49.3a2.49,2.49,0,0,0-.34.27l-.78.73c-.58.54-1.17,1.11-1.77,1.65a2.41,2.41,0,0,1-.47.3,2.89,2.89,0,0,0-.49.3,1.53,1.53,0,0,0-.31.4,1.61,1.61,0,0,1-.2.28c-.4.41-.81.82-1.21,1.22l1.63.13a9.51,9.51,0,0,0,.67-.92.71.71,0,0,1,.3-.19,1.44,1.44,0,0,0,.32-.18l1.7-1.38,2-1.6,1.5-1.23,0,0c.46-.38.94-.77,1.39-1.17a.57.57,0,0,0,.15-.3l0-.06,2.08-1.28a13,13,0,0,1,3.64,2.52l6.34,5.4,1.29-.15c-.72-.64-1.46-1.3-2.2-1.93S119.67,213.63,118.86,213Z"/><path d="M130.63,214.38l.49-.53a2.8,2.8,0,0,0,.6-.9l1.66-1.47.09-.13,1.89-1.67,3.21,2.44h0l1,.83.61.48,1.1-.33-.57-.45v0l0-.11.14-.2-5-3.28.13-.21-.19-.05a1.67,1.67,0,0,0-2.06.78,1.6,1.6,0,0,1-.38.34,3.08,3.08,0,0,0-.29.22l-.56.51c-.52.47-1.06.95-1.54,1.47a8.27,8.27,0,0,0-.74,1,9.75,9.75,0,0,1-.58.8,5.24,5.24,0,0,1-.72.67l-.38.32,0,0v.25l-.81,1,1.53-.25c.24-.3.47-.6.72-.88S130.4,214.62,130.63,214.38Z"/><path d="M99.32,198.6l0-.07,0-.07c0-.06-.08-.1-.12-.15v.52A1.63,1.63,0,0,0,99.32,198.6Z"/><path d="M98.86,11.56a1,1,0,0,0,.32.09v-.37Z"/><path d="M99.18,10.56h0l-.06.05.07.05Z"/><path d="M87.39,2.66l.41.27a23.13,23.13,0,0,1,3.44,2.63,26,26,0,0,0,2.14,1.79l1,.78,0,0a1.83,1.83,0,0,0,.57.36L96.93,10l1.87,1.59.06-.06a2,2,0,0,1-.72-.63l0-.06,0-.07c.08-.23.16-.39.33-.44s.37.05.66.27h0l-.39-.3L96.5,8.64l-.36-.28a5.85,5.85,0,0,0-.87-.62,14,14,0,0,1-2.76-2.15c-.41-.38-.84-.78-1.29-1.15-.65-.53-1.34-1-2-1.52l-.06,0c-.25-.18-.51-.35-.77-.52a10.91,10.91,0,0,1-1.3-1l-.64-.6L86.17.53,85,.79A14,14,0,0,0,87.39,2.66Z"/><path d="M70.57,9A21.3,21.3,0,0,0,74,11.4l.14.07.07-.14.29-.61c.23-.49.44-1,.68-1.41a4,4,0,0,1,.31-.49c.1-.14.2-.28.28-.42s.18-.34.27-.52a4.37,4.37,0,0,1,.44-.78c.33-.43.69-.84,1-1.24s.47-.54.7-.81a.94.94,0,0,0,.15-.31.5.5,0,0,1,.12-.23c.24-.18.5-.34.76-.49a9.62,9.62,0,0,0,.95-.64,4.75,4.75,0,0,0,.69-.73c.11-.14.23-.28.35-.41l.64-.67-2,.55-.52.49a7.49,7.49,0,0,1-.83.61,7.21,7.21,0,0,0-.92.68,11.77,11.77,0,0,0-1.58,1.8,10.52,10.52,0,0,0-.67,1.11c-.16.3-.33.61-.52.89a5.75,5.75,0,0,1-.49.61,5.59,5.59,0,0,0-.55.7,1.88,1.88,0,0,0-.21.72l0,.12L72,8.91,69.2,6.59l-.28.14-.26-.17.31.09-.25-.49-.31.22-.14-.1,0,0L68.42,6l-1.24.51.69.57A22,22,0,0,1,70.57,9Z"/><path d="M99.18,10.68l-.07-.05h0c-.28-.22-.48-.33-.66-.27s-.25.21-.33.44l0,.07,0,.06a2,2,0,0,0,.72.63l.32-.28Z"/><path d="M99.15,32.5l0,0v0Z"/><path d="M98.81,32.92l.16-.2a.86.86,0,0,1-.23.16Z"/><path d="M98.79,31.65a.59.59,0,0,1,.39.27v-1l-.94,1,.06,0C98.48,31.75,98.63,31.64,98.79,31.65Z"/><path d="M98.86,53.16a1,1,0,0,0,.32.09v-.37Z"/><path d="M99.18,52.16h0l-.06.05.07.05Z"/><path d="M41.61,26.86c.37.21.73.45,1.08.69l.48.31a22.23,22.23,0,0,1,3.4,3.45c.6.7,1.22,1.43,1.89,2.11l.12.12.1-.13.24-.31a4.43,4.43,0,0,1,.48-.58c.36-.34.73-.68,1.1-1s.89-.8,1.32-1.22c.79-.77,1.54-1.56,2.3-2.38.51-.54,1-1.09,1.49-1.65l.65-.73.08-.12L58.65,23l2.55,1.7,0,0,2.34,1.56a4.64,4.64,0,0,0,.92.9l.68.52c.33.25.66.5,1,.76.47.38.94.79,1.4,1.18L68,30l0,0,0,.06a13.24,13.24,0,0,0,3.9,3.21l.11.06,1.32-1.57.07-.11h0l4.81-6,.7-.87a7.58,7.58,0,0,1,2.67-2.48l2.59,1.3.06.09a.83.83,0,0,0,.23.27c.59.4,1.21.78,1.8,1.15l.08,0,2,1.24,2.52,1.58,2.22,1.4a2.18,2.18,0,0,0,.37.17,1.18,1.18,0,0,1,.41.21,17,17,0,0,0,4,2.93,1,1,0,0,0,.85.12l0,0-.63-.42V32l.13-.14,0,0-.44-.31-.5-.36c-.82-.6-1.64-1.19-2.45-1.8a2.83,2.83,0,0,1-.31-.29,2.54,2.54,0,0,0-.44-.38,4.49,4.49,0,0,0-.59-.3,3.92,3.92,0,0,1-.59-.3c-.8-.53-1.6-1.1-2.37-1.64l-1.06-.74a4,4,0,0,0-.43-.27l-.6-.3a11.27,11.27,0,0,1-1.16-.62c-.33-.21-.65-.46-1-.7a13,13,0,0,0-1.08-.77c-.8-.5-1.71-1-2.77-1.52a1.25,1.25,0,0,0-1.48,0l-.15.13c-.82.72-1.67,1.46-2.47,2.23a3.45,3.45,0,0,0-.47.61,4.59,4.59,0,0,1-.3.41l-1.15,1.36c-.55.65-1.12,1.32-1.67,2s-1,1.3-1.5,1.94l-.65.86-.83,1.08L67.6,28.49l-.1-.25,0,0L67,27.9a9,9,0,0,1-1-.68c-.3-.25-.59-.53-.87-.8a14.13,14.13,0,0,0-1.09-1c-.67-.52-1.39-1-2.08-1.47l-.74-.5-.36-.22a2.78,2.78,0,0,1-.53-.36A2.22,2.22,0,0,0,58,22.13l-.23.07.22.22-3.77,3.28.22.21V26l-.44.49-.22-.21-.34.43.17.21-.06.06-.23-.21-.21.39.16.13-.48.53.1-.58-2.42,2.89a2.24,2.24,0,0,0-.89.7,1.69,1.69,0,0,1-1.26.76h0l-1.87-2-.24-.26a8,8,0,0,0-.62-.64c-.59-.53-1.21-1-1.8-1.55l-.62-.53a4.06,4.06,0,0,0-.55-.43l-.92-.53c-.42-.24-.85-.48-1.26-.75a8.67,8.67,0,0,1-.84-.65l-.47-.38L39,23.78l-.72.61a3.14,3.14,0,0,1,.58.44A12.24,12.24,0,0,0,41.61,26.86Z"/><path d="M99.15,32.5l-.18.22A1.2,1.2,0,0,0,99.15,32.5Z"/><path d="M99.18,31.91a.59.59,0,0,0-.39-.27c-.17,0-.32.1-.49.29l-.06,0-.13.14v.43l.63.42a.86.86,0,0,0,.23-.16l.18-.22,0-.06Z"/><path d="M23.09,51.29l1.09,1.18.11-.07.21-.13a3,3,0,0,0,.49-.35l1-1c.48-.48,1-1,1.49-1.43s1.32-1.14,2-1.69l1.27-1.07.9-.8c.45-.41.92-.83,1.4-1.22a4.7,4.7,0,0,1,.88-.51l.45-.23a.27.27,0,0,0,.14-.08l.86-1.09.15-.2.16-.12.37-.29c.42-.33.92-.23,1.67.33s1.37,1,2,1.46l1.45,1a2.6,2.6,0,0,1,.36.34,3.49,3.49,0,0,0,.32.32l7.11,6,1.54,1.09.08-.06A10.1,10.1,0,0,0,53,50.43a5.44,5.44,0,0,0,.53-.91,2.79,2.79,0,0,1,1.08-1.36.3.3,0,0,0,.1-.1l.44-.58,1.69-2.21A.56.56,0,0,0,57,45l2-1.58,0,0a1.29,1.29,0,0,1,1.17-.65l4.31,3.22,3.38,2.76a22,22,0,0,1,2.7,1.94A21.27,21.27,0,0,0,74,53l.14.07.07-.14.29-.61c.23-.49.44-1,.68-1.41a4,4,0,0,1,.31-.49c.1-.14.2-.28.28-.42s.18-.34.27-.52a4.38,4.38,0,0,1,.44-.78c.33-.43.69-.84,1-1.24s.47-.54.7-.81a.94.94,0,0,0,.15-.31.5.5,0,0,1,.12-.23c.24-.18.5-.34.76-.49a9.62,9.62,0,0,0,.95-.64,4.75,4.75,0,0,0,.69-.73c.11-.14.23-.28.35-.41.34-.37.71-.75,1.14-1.17l.4-.38c.18-.16.37-.33.54-.51a.58.58,0,0,1,.48-.18,1.35,1.35,0,0,1,.93.5,12.44,12.44,0,0,0,2.72,2.17l.41.27a23.12,23.12,0,0,1,3.44,2.63A26,26,0,0,0,93.38,49l1,.77,0,0a1.83,1.83,0,0,0,.57.36l1.95,1.51,1.87,1.59.06-.06a2,2,0,0,1-.72-.63l0-.06,0-.07c.08-.23.16-.39.33-.44s.37.05.66.27h0l-.39-.3L96.5,50.24,96.14,50a5.85,5.85,0,0,0-.87-.62,14,14,0,0,1-2.76-2.15c-.41-.38-.84-.78-1.29-1.15-.65-.53-1.34-1-2-1.52l-.06,0c-.25-.18-.51-.35-.77-.52a10.91,10.91,0,0,1-1.3-1l-.64-.6A13.22,13.22,0,0,0,84,40.44l0,0h-.62l0,.08a2.33,2.33,0,0,0-1.53,1.12c-.11.15-.22.29-.34.43a26.3,26.3,0,0,1-2.19,2.16,7.46,7.46,0,0,1-.83.61,7.21,7.21,0,0,0-.92.68,11.77,11.77,0,0,0-1.58,1.8,10.52,10.52,0,0,0-.67,1.11c-.16.3-.33.61-.52.89a5.75,5.75,0,0,1-.49.61,5.59,5.59,0,0,0-.55.7,1.88,1.88,0,0,0-.21.72l0,.12L72,50.51l-2.8-2.32-.28.14-.26-.17.31.09-.25-.49L68.4,48l-.14-.1,0,0,.14-.3-.25-.16-.17,0-.1.22-.18-.15h0l.15-.25-.51-.39-.15.23a2.85,2.85,0,0,1-.66-.75l0,0-4.73-3.18.15-.24-.13-.08-.27-.16c-.18-.11-.37-.22-.54-.34-1.14-.81-1.6-.84-2.36-.15a27.56,27.56,0,0,1-2.17,1.77,5,5,0,0,0-1.18,1.39c-.12.19-.24.37-.38.55a5.45,5.45,0,0,1-.76.78l-.41.38,0,0v.25A10.2,10.2,0,0,0,52.49,49a6,6,0,0,1-2.29,2.45l-.73-.62L47.6,49.29l-2.09-1.73L43,45.45c-.27-.23-.54-.48-.8-.72l-.28-.26a20.08,20.08,0,0,0-2.84-2.09c-.53-.34-1.07-.69-1.59-1.07-1-.74-1.55-.44-2,0l-1.09.91c-.51.43-1,.88-1.58,1.31a8.69,8.69,0,0,1-.92.6l-.5.31a2.42,2.42,0,0,0-.34.28l-.75.71c-.55.53-1.13,1.07-1.71,1.58a2.84,2.84,0,0,1-.53.34,2.87,2.87,0,0,0-.63.41,14,14,0,0,0-1,1.1l-.48.55c-.31.35-.62.7-1,1-.17.17-.35.32-.54.49l-.18.16-.86-.61L21.05,48.8c-.24-.17-.49-.33-.74-.49s-.66-.42-1-.65l-1-.76-.46.7a27.3,27.3,0,0,0,2.61,1.78Z"/><path d="M99.18,52.28l-.07-.05h0c-.28-.22-.48-.33-.66-.27s-.25.21-.33.44l0,.07,0,.06a2,2,0,0,0,.72.63l.32-.28Z"/><path d="M99.15,74.1l0,0v0Z"/><path d="M98.79,73.25a.59.59,0,0,1,.39.27v-1l-.94,1,.06,0C98.48,73.35,98.63,73.24,98.79,73.25Z"/><path d="M98.81,74.52l.16-.2a.86.86,0,0,1-.23.16Z"/><path d="M98.86,94.76a1,1,0,0,0,.32.09v-.37Z"/><path d="M99.18,93.76h0l-.06.05.07.05Z"/><path d="M99.15,74.1l-.18.22A1.2,1.2,0,0,0,99.15,74.1Z"/><path d="M9.71,63.94l.32.27,1.21,1a.43.43,0,0,0,.17.08l.51.22a7.56,7.56,0,0,1,1.08.52c.63.39,1.25.81,1.86,1.22l1.18.79,1.66,1.07c.86.55,1.74,1.11,2.6,1.69.68.46,1.37,1,2,1.44l1.32,1a4.76,4.76,0,0,0,.61.35l.26.14.13.07.67-1.2,1.87-1.9a14.07,14.07,0,0,0,2.43-2.33,18.87,18.87,0,0,1,3.08-3c.46-.38.92-.78,1.36-1.17l.4-.36a.92.92,0,0,1,1.06.05c.61.5,1.27,1,2.1,1.64.17.13.36.25.54.36a3.94,3.94,0,0,1,.78.57,12.24,12.24,0,0,0,2.7,2c.37.21.73.45,1.08.69l.48.31a22.22,22.22,0,0,1,3.4,3.45c.6.7,1.22,1.43,1.89,2.11l.12.12.1-.13.24-.31a4.43,4.43,0,0,1,.48-.58c.36-.34.73-.68,1.1-1s.89-.8,1.32-1.22c.79-.77,1.54-1.56,2.3-2.38.51-.54,1-1.09,1.49-1.65l.65-.73.08-.12,2.3-2.43,2.55,1.7,0,0,2.34,1.56a4.64,4.64,0,0,0,.92.9l.68.52c.33.25.66.5,1,.76.47.38.94.79,1.4,1.18l.48.41,0,0,0,.06a13.24,13.24,0,0,0,3.9,3.21l.11.06,1.32-1.57.07-.11h0l4.81-6,.7-.87A7.59,7.59,0,0,1,81.61,64l2.59,1.3.06.09a.83.83,0,0,0,.23.27c.59.4,1.21.78,1.8,1.15l.08,0,2,1.24,2.52,1.58,2.22,1.4a2.18,2.18,0,0,0,.37.17,1.18,1.18,0,0,1,.41.21,17,17,0,0,0,4,2.93,1,1,0,0,0,.85.12l0,0-.63-.42v-.43l.13-.14,0,0-.44-.31-.5-.36c-.82-.6-1.64-1.19-2.45-1.8a2.8,2.8,0,0,1-.31-.29,2.56,2.56,0,0,0-.44-.38,4.52,4.52,0,0,0-.59-.3,3.92,3.92,0,0,1-.59-.3c-.8-.53-1.6-1.1-2.37-1.64l-1.06-.74a4,4,0,0,0-.43-.27l-.6-.3a11.27,11.27,0,0,1-1.16-.62c-.33-.21-.65-.46-1-.7a13,13,0,0,0-1.08-.77c-.8-.5-1.71-1-2.77-1.52a1.25,1.25,0,0,0-1.48,0l-.15.13c-.82.72-1.67,1.46-2.47,2.23a3.45,3.45,0,0,0-.47.61,4.62,4.62,0,0,1-.3.41l-1.15,1.36c-.55.65-1.12,1.32-1.67,2s-1,1.3-1.5,1.94l-.65.86-.83,1.08L67.6,70.09l-.1-.25,0,0L67,69.5a9,9,0,0,1-1-.68c-.3-.25-.59-.53-.87-.8A14.08,14.08,0,0,0,64,67c-.67-.52-1.39-1-2.08-1.47l-.74-.5-.36-.22a2.76,2.76,0,0,1-.53-.36A2.22,2.22,0,0,0,58,63.73l-.23.07L58,64l-3.77,3.28.22.21v.07l-.44.49-.22-.21-.34.43.17.21-.06.06-.23-.21-.21.39.16.13-.48.53.1-.58-2.42,2.89a2.24,2.24,0,0,0-.89.7,1.69,1.69,0,0,1-1.26.76h0l-1.87-2-.24-.26a8,8,0,0,0-.62-.64c-.59-.53-1.21-1-1.8-1.55l-.62-.53a4.06,4.06,0,0,0-.55-.43l-.92-.53c-.42-.24-.85-.48-1.26-.75a8.63,8.63,0,0,1-.84-.65l-.47-.38L38.49,65c-.36-.27-.73-.55-1.08-.84a11.92,11.92,0,0,1-.88-.84l-.21-.22a1.93,1.93,0,0,0-2.26-.3,14.11,14.11,0,0,0-1.19,1.09c-.23.23-.46.45-.7.67s-.33.27-.49.39a5.18,5.18,0,0,0-.67.56c-.55.58-1.1,1.18-1.64,1.77S28.3,68.41,27.76,69a7.78,7.78,0,0,1-.72.64c-.19.16-.39.32-.57.49-.59.55-1.17,1.12-1.74,1.67l-.6.58-.26-.17c-.25-.17-.49-.32-.72-.49-.44-.32-.87-.67-1.29-1l-.07-.05-.66-.54c-.45-.37-.91-.75-1.4-1.1a4.55,4.55,0,0,0-.76-.41,4.66,4.66,0,0,1-.67-.35c-.78-.52-1.55-1.06-2.3-1.59L15,66a4,4,0,0,0-.43-.27L14,65.4c-.38-.19-.78-.38-1.15-.61-.7-.42-1.39-.87-2.07-1.31l-1.18-.75-.39.9.34.2Z"/><path d="M99.18,73.51a.59.59,0,0,0-.39-.27c-.17,0-.32.1-.49.29l-.06,0-.13.14v.43l.63.42a.86.86,0,0,0,.23-.16l.18-.22,0-.06Z"/><path d="M.84,95.29a23.87,23.87,0,0,0,1.11-2.11,12.87,12.87,0,0,1,2.11-3.42l.37-.32c.26-.23.54-.47.82-.68a7.18,7.18,0,0,0,2-2.05,2.27,2.27,0,0,1,.56-.55,4.13,4.13,0,0,0,.42-.36c.6-.62,1.08-1.14,1.5-1.64a.88.88,0,0,1,1,0l.53.35c.58.39,1.19.79,1.79,1.17a32.45,32.45,0,0,1,4.2,3A23.79,23.79,0,0,0,20.5,91l2.59,1.91,1.09,1.18.11-.07.21-.13a3,3,0,0,0,.49-.35l1-1c.48-.48,1-1,1.49-1.43s1.32-1.14,2-1.69l1.27-1.07.9-.8c.45-.41.92-.83,1.4-1.22a4.7,4.7,0,0,1,.88-.51l.45-.23a.27.27,0,0,0,.14-.08l.86-1.09.15-.2.16-.12.37-.29c.42-.33.92-.23,1.67.33s1.37,1,2,1.46l1.45,1a2.6,2.6,0,0,1,.36.34,3.49,3.49,0,0,0,.32.32l7.11,6,1.54,1.09.08-.06A10.1,10.1,0,0,0,53,92a5.44,5.44,0,0,0,.53-.91,2.79,2.79,0,0,1,1.08-1.36.3.3,0,0,0,.1-.1l.44-.58,1.69-2.21a.56.56,0,0,0,.1-.26L59,85l0,0a1.29,1.29,0,0,1,1.17-.65l4.31,3.22,3.38,2.76a22.07,22.07,0,0,1,2.7,1.94A21.27,21.27,0,0,0,74,94.6l.14.07.07-.14.29-.61c.23-.49.44-1,.68-1.41a4,4,0,0,1,.31-.49c.1-.14.2-.28.28-.42s.18-.34.27-.52a4.37,4.37,0,0,1,.44-.78c.33-.43.69-.84,1-1.24s.47-.54.7-.81a.94.94,0,0,0,.15-.31.5.5,0,0,1,.12-.23c.24-.18.5-.34.76-.49a9.62,9.62,0,0,0,.95-.64,4.75,4.75,0,0,0,.69-.73c.11-.14.23-.28.35-.41.34-.37.71-.75,1.14-1.17l.4-.38c.18-.16.37-.33.54-.51a.58.58,0,0,1,.48-.18,1.35,1.35,0,0,1,.93.5,12.44,12.44,0,0,0,2.72,2.17l.41.27a23.12,23.12,0,0,1,3.44,2.63,26,26,0,0,0,2.14,1.79l1,.77,0,0a1.83,1.83,0,0,0,.57.36l1.95,1.51,1.87,1.59.06-.06a2,2,0,0,1-.72-.63l0-.06,0-.07c.08-.23.16-.39.33-.44s.37.05.66.27h0l-.39-.3L96.5,91.84l-.36-.28a5.85,5.85,0,0,0-.87-.62,14,14,0,0,1-2.76-2.15c-.41-.38-.84-.78-1.29-1.15-.65-.53-1.34-1-2-1.52l-.06,0c-.25-.18-.51-.35-.77-.52a10.89,10.89,0,0,1-1.3-1l-.64-.6A13.22,13.22,0,0,0,84,82l0,0h-.62l0,.08a2.33,2.33,0,0,0-1.53,1.12c-.11.15-.22.29-.34.43a26.34,26.34,0,0,1-2.19,2.16,7.46,7.46,0,0,1-.83.61,7.21,7.21,0,0,0-.92.68,11.77,11.77,0,0,0-1.58,1.8A10.52,10.52,0,0,0,75.25,90c-.16.3-.33.61-.52.89a5.73,5.73,0,0,1-.49.61,5.61,5.61,0,0,0-.55.7,1.89,1.89,0,0,0-.21.72l0,.12L72,92.11l-2.8-2.32-.28.14-.26-.17.31.09-.25-.49-.31.22-.14-.1,0,0,.14-.3L68.18,89,68,89l-.1.22-.18-.15h0l.15-.25-.51-.39-.15.23a2.85,2.85,0,0,1-.66-.75l0,0-4.73-3.18.15-.24-.13-.08-.27-.16c-.18-.11-.37-.22-.54-.34-1.14-.81-1.6-.84-2.36-.15a27.62,27.62,0,0,1-2.17,1.77,5,5,0,0,0-1.18,1.39c-.12.19-.24.37-.38.55a5.45,5.45,0,0,1-.76.78l-.41.38,0,0v.25a10.19,10.19,0,0,0-1.28,1.74,6,6,0,0,1-2.29,2.45l-.73-.62L47.6,90.89l-2.09-1.73L43,87.05c-.27-.23-.54-.48-.8-.72l-.28-.26A20.08,20.08,0,0,0,39.06,84c-.53-.34-1.07-.69-1.59-1.07-1-.74-1.55-.44-2,0l-1.09.91c-.51.43-1,.88-1.58,1.31a8.73,8.73,0,0,1-.92.6l-.5.31a2.42,2.42,0,0,0-.34.28l-.75.71c-.55.53-1.13,1.07-1.71,1.58a2.84,2.84,0,0,1-.53.34,2.87,2.87,0,0,0-.63.41,13.92,13.92,0,0,0-1,1.1l-.48.55c-.31.35-.62.7-1,1-.17.17-.35.32-.54.49l-.18.16-.86-.61L21.05,90.4c-.24-.17-.49-.33-.74-.49s-.66-.42-1-.65c-.75-.57-1.49-1.15-2.23-1.73s-1.52-1.19-2.29-1.77a8.65,8.65,0,0,0-.87-.56c-.21-.13-.44-.26-.64-.4l-.95-.67c-.51-.37-1-.75-1.58-1.09a1.7,1.7,0,0,0-2.16.33l-.14.22a6.84,6.84,0,0,1-.56.83c-.24.29-.51.57-.77.84l-.46.49-.33.38a4.85,4.85,0,0,1-.59.64c-.31.26-.65.51-1,.74s-.49.35-.72.53a2.38,2.38,0,0,0-.41.44L3.21,89c-.4.5-.82,1-1.22,1.53a4.76,4.76,0,0,0-.39.65l-.14.26L1,92.32q-.21,1.5-.38,3l.13.11Z"/><path d="M99.18,93.88l-.07-.05h0c-.28-.22-.48-.33-.66-.27s-.25.21-.33.44l0,.07,0,.06a2,2,0,0,0,.72.63l.32-.28Z"/><path d="M98.79,114.85a.59.59,0,0,1,.39.27v-1l-.94,1,.06,0C98.48,114.95,98.63,114.84,98.79,114.85Z"/><path d="M98.81,116.12l.16-.2a.86.86,0,0,1-.23.16Z"/><path d="M99.15,115.7l0,0v0Z"/><path d="M98.86,136.36a1,1,0,0,0,.32.09v-.37Z"/><path d="M99.18,135.36h0l-.06.05.07.05Z"/><path d="M99.15,115.7l-.18.22A1.18,1.18,0,0,0,99.15,115.7Z"/><path d="M4.7,108.27a1.48,1.48,0,0,1,.22-.33c.35-.35.71-.68,1.07-1s1-1,1.51-1.46,1-.65,1.55-.31l.46.28.19.11.32.27,1.21,1a.44.44,0,0,0,.17.08l.51.22a7.57,7.57,0,0,1,1.08.52c.63.39,1.25.81,1.86,1.22l1.18.79,1.66,1.07c.86.55,1.74,1.11,2.6,1.69.68.46,1.37,1,2,1.44l1.32,1a4.76,4.76,0,0,0,.61.35l.26.14.13.07.67-1.2,1.87-1.9A14.07,14.07,0,0,0,29.59,110a18.87,18.87,0,0,1,3.08-3c.46-.38.92-.78,1.36-1.17l.4-.36a.92.92,0,0,1,1.06.05c.61.5,1.27,1,2.1,1.64.17.13.36.24.54.36a4,4,0,0,1,.78.57,12.24,12.24,0,0,0,2.7,2c.37.21.73.45,1.08.69l.48.31a22.22,22.22,0,0,1,3.4,3.45c.6.7,1.22,1.43,1.89,2.11l.12.12.1-.13.24-.31a4.41,4.41,0,0,1,.48-.58c.36-.34.73-.68,1.1-1s.89-.8,1.32-1.22c.79-.77,1.54-1.56,2.3-2.38.51-.54,1-1.09,1.49-1.65l.65-.73.08-.12,2.3-2.43,2.55,1.7,0,0,2.34,1.56a4.65,4.65,0,0,0,.92.9l.68.52c.33.25.66.5,1,.76.47.38.94.79,1.4,1.18l.48.41,0,0,0,.06a13.24,13.24,0,0,0,3.9,3.21l.11.06L73.37,115l.07-.11h0l4.81-6,.7-.87a7.59,7.59,0,0,1,2.67-2.48l2.59,1.3.06.09a.83.83,0,0,0,.23.27c.59.4,1.21.78,1.8,1.15l.08,0,2,1.24,2.52,1.58,2.22,1.4a2.16,2.16,0,0,0,.37.17,1.18,1.18,0,0,1,.41.21,17,17,0,0,0,4,2.93,1,1,0,0,0,.85.12l0,0-.63-.42v-.43l.13-.14,0,0-.44-.31-.5-.36c-.82-.6-1.64-1.19-2.45-1.8a2.8,2.8,0,0,1-.31-.29,2.56,2.56,0,0,0-.44-.38,4.55,4.55,0,0,0-.59-.3,3.89,3.89,0,0,1-.59-.3c-.8-.53-1.6-1.1-2.37-1.64l-1.06-.74a4,4,0,0,0-.43-.27l-.6-.3a11.27,11.27,0,0,1-1.16-.62c-.33-.21-.65-.46-1-.7a13,13,0,0,0-1.08-.77c-.8-.5-1.71-1-2.77-1.52a1.25,1.25,0,0,0-1.48,0l-.15.13c-.82.72-1.67,1.47-2.47,2.23a3.44,3.44,0,0,0-.47.61,4.66,4.66,0,0,1-.3.41l-1.15,1.36c-.55.65-1.12,1.32-1.67,2s-1,1.3-1.5,1.94l-.65.86-.83,1.08-4.19-3.66-.1-.25,0,0-.5-.32a8.93,8.93,0,0,1-1-.68c-.3-.25-.59-.53-.87-.8a14,14,0,0,0-1.09-1c-.67-.52-1.39-1-2.08-1.47l-.74-.5-.36-.22a2.76,2.76,0,0,1-.53-.36,2.22,2.22,0,0,0-2.31-.76l-.23.07.22.22-3.77,3.28.22.21v.07l-.44.49-.22-.21-.34.43.17.21-.06.06-.23-.21-.21.39.16.13-.48.53.1-.58-2.42,2.89a2.24,2.24,0,0,0-.89.7,1.69,1.69,0,0,1-1.26.76h0l-1.87-2-.24-.26a7.92,7.92,0,0,0-.62-.64c-.59-.53-1.21-1-1.8-1.55l-.62-.53a4.06,4.06,0,0,0-.55-.43l-.92-.53c-.42-.24-.85-.48-1.26-.75a8.63,8.63,0,0,1-.84-.65l-.47-.38-.64-.48c-.36-.27-.73-.55-1.08-.84a11.92,11.92,0,0,1-.88-.84l-.21-.22a1.93,1.93,0,0,0-2.26-.3,14.15,14.15,0,0,0-1.19,1.09c-.23.23-.46.45-.7.67s-.33.27-.49.39a5.18,5.18,0,0,0-.67.56c-.55.58-1.1,1.18-1.64,1.77s-1.06,1.16-1.6,1.73a7.78,7.78,0,0,1-.72.64c-.19.16-.39.32-.57.49-.59.55-1.17,1.12-1.74,1.67l-.6.58-.26-.17c-.25-.17-.49-.32-.72-.49-.44-.32-.87-.67-1.29-1l-.07-.05-.66-.54c-.45-.37-.91-.75-1.4-1.1a4.55,4.55,0,0,0-.76-.41,4.66,4.66,0,0,1-.67-.35c-.78-.52-1.55-1.06-2.3-1.59l-1-.7a4,4,0,0,0-.43-.27L14,107c-.38-.19-.78-.38-1.15-.61-.7-.42-1.39-.87-2.07-1.31l-1.42-.91a1.43,1.43,0,0,0-2,.06c-.38.37-.79.73-1.19,1.07A11.78,11.78,0,0,0,4,107.4l-.18.26c-.17.24-.34.49-.53.72l-1.76,2.1L.07,112.21,0,112.3c0,.55,0,1.11.07,1.66l4.41-5.37A2.1,2.1,0,0,0,4.7,108.27Z"/><path d="M99.18,115.11a.59.59,0,0,0-.39-.27c-.17,0-.32.1-.49.29l-.06,0-.13.14v.43l.63.42a.86.86,0,0,0,.23-.16l.18-.22,0-.06Z"/><path d="M4.43,131c.26-.23.54-.47.82-.68a7.18,7.18,0,0,0,2-2.05,2.27,2.27,0,0,1,.56-.55,4.13,4.13,0,0,0,.42-.36c.6-.62,1.08-1.14,1.5-1.64a.88.88,0,0,1,1,0l.53.35c.58.39,1.19.79,1.79,1.17a32.45,32.45,0,0,1,4.2,3,23.82,23.82,0,0,0,3.25,2.31l2.59,1.91,1.09,1.18.11-.07.21-.13a3,3,0,0,0,.49-.35l1-1c.48-.48,1-1,1.49-1.43s1.32-1.14,2-1.68L30.68,130l.9-.8c.45-.41.92-.83,1.4-1.22a4.7,4.7,0,0,1,.88-.51l.45-.23a.27.27,0,0,0,.14-.08l.86-1.09.15-.2.16-.12.37-.29c.42-.33.92-.23,1.67.33s1.37,1,2,1.46l1.45,1a2.6,2.6,0,0,1,.36.34,3.49,3.49,0,0,0,.32.32l7.11,6L50.48,136l.08-.06a10.11,10.11,0,0,0,2.47-2.3,5.44,5.44,0,0,0,.53-.91,2.8,2.8,0,0,1,1.08-1.37.3.3,0,0,0,.1-.1l.44-.58,1.69-2.21a.56.56,0,0,0,.1-.26l2-1.58,0,0a1.29,1.29,0,0,1,1.17-.65l4.31,3.22,3.38,2.76a22,22,0,0,1,2.7,1.94A21.27,21.27,0,0,0,74,136.2l.14.07.07-.14.29-.61c.23-.49.44-1,.68-1.41a4,4,0,0,1,.31-.49c.1-.14.2-.28.28-.42s.18-.34.27-.52a4.37,4.37,0,0,1,.44-.78c.33-.43.69-.84,1-1.24s.47-.54.7-.81a.94.94,0,0,0,.15-.31.5.5,0,0,1,.12-.23c.24-.18.5-.34.76-.49a9.62,9.62,0,0,0,.95-.64,4.76,4.76,0,0,0,.69-.73c.11-.14.23-.28.35-.41.34-.37.71-.75,1.14-1.17l.4-.38c.18-.16.37-.33.54-.51a.58.58,0,0,1,.48-.18,1.35,1.35,0,0,1,.93.5,12.44,12.44,0,0,0,2.72,2.17l.41.27a23.12,23.12,0,0,1,3.44,2.63,26,26,0,0,0,2.14,1.79l1,.77,0,0a1.83,1.83,0,0,0,.57.36l1.95,1.51,1.87,1.59.06-.06a2,2,0,0,1-.72-.63l0-.06,0-.07c.08-.23.16-.39.33-.44s.37.05.66.27h0l-.39-.3-2.22-1.69-.36-.28a5.85,5.85,0,0,0-.87-.62,14,14,0,0,1-2.76-2.15c-.41-.38-.84-.78-1.29-1.15-.65-.53-1.34-1-2-1.52l-.06,0c-.25-.18-.51-.35-.77-.52a10.88,10.88,0,0,1-1.3-1l-.64-.6A13.21,13.21,0,0,0,84,123.64l0,0h-.62l0,.08a2.33,2.33,0,0,0-1.53,1.12c-.11.15-.22.29-.34.43a26.3,26.3,0,0,1-2.19,2.16,7.46,7.46,0,0,1-.83.61,7.21,7.21,0,0,0-.92.68,11.77,11.77,0,0,0-1.58,1.8,10.52,10.52,0,0,0-.67,1.11c-.16.3-.33.61-.52.89a5.73,5.73,0,0,1-.49.61,5.59,5.59,0,0,0-.55.7,1.89,1.89,0,0,0-.21.72l0,.12L72,133.71l-2.8-2.32-.28.14-.26-.17.31.09-.25-.49-.31.22-.14-.1,0,0,.14-.3-.25-.16-.17,0-.1.22-.18-.15h0l.15-.25-.51-.39-.15.23a2.85,2.85,0,0,1-.66-.75l0,0-4.73-3.18.15-.24-.13-.08-.27-.16c-.18-.11-.37-.22-.54-.34-1.14-.81-1.6-.84-2.36-.15a27.62,27.62,0,0,1-2.17,1.77,5,5,0,0,0-1.18,1.39c-.12.19-.24.37-.38.55a5.44,5.44,0,0,1-.76.78l-.41.38,0,0v.25a10.19,10.19,0,0,0-1.28,1.74,6,6,0,0,1-2.29,2.45l-.73-.62-1.86-1.57-2.09-1.73L43,128.66c-.27-.23-.54-.48-.8-.72l-.28-.26a20.06,20.06,0,0,0-2.84-2.09c-.53-.34-1.07-.69-1.59-1.07-1-.74-1.55-.44-2,0l-1.09.91c-.51.43-1,.88-1.58,1.31a8.73,8.73,0,0,1-.92.6l-.5.31a2.43,2.43,0,0,0-.34.28l-.75.71c-.55.53-1.13,1.07-1.71,1.58a2.83,2.83,0,0,1-.53.34,2.88,2.88,0,0,0-.63.42,13.92,13.92,0,0,0-1,1.1l-.48.55c-.31.35-.62.7-1,1-.17.17-.35.32-.54.49l-.18.16-.86-.61L21.05,132c-.24-.17-.49-.33-.74-.49s-.66-.42-1-.65c-.75-.57-1.49-1.15-2.23-1.73s-1.52-1.19-2.29-1.77a8.65,8.65,0,0,0-.87-.56c-.21-.13-.44-.26-.64-.4l-.95-.67c-.51-.37-1-.75-1.58-1.09a1.7,1.7,0,0,0-2.16.33l-.14.22a6.84,6.84,0,0,1-.56.83c-.24.29-.51.57-.77.84l-.46.49-.33.38a4.85,4.85,0,0,1-.59.64c-.31.26-.65.51-1,.74s-.49.35-.72.53a2.38,2.38,0,0,0-.41.44l-.44.55-.73.93c.11.5.22,1,.34,1.51a8.61,8.61,0,0,1,1.24-1.73Z"/><path d="M99.18,135.48l-.07-.05h0c-.28-.22-.48-.33-.66-.27s-.25.21-.33.44l0,.07,0,.06a2,2,0,0,0,.72.63l.32-.28Z"/><path d="M98.79,156.45a.59.59,0,0,1,.39.27v-1l-.94,1,.06,0C98.48,156.55,98.63,156.44,98.79,156.45Z"/><path d="M99.15,157.3l0,0v0Z"/><path d="M98.81,157.72l.16-.2a.85.85,0,0,1-.23.16Z"/><path d="M99.18,177h0l-.06.05.07.05Z"/><path d="M98.86,178a1,1,0,0,0,.32.09v-.37Z"/><path d="M9.05,146.76l.46.28.19.11.32.27,1.21,1a.44.44,0,0,0,.17.08l.51.22a7.57,7.57,0,0,1,1.08.52c.63.39,1.25.81,1.86,1.22l1.18.79,1.66,1.07c.86.55,1.74,1.11,2.6,1.69.68.46,1.37,1,2,1.44l1.32,1a4.74,4.74,0,0,0,.61.35l.26.14.13.07.67-1.2,1.87-1.9a14.08,14.08,0,0,0,2.43-2.33,18.87,18.87,0,0,1,3.08-3c.46-.38.92-.78,1.36-1.17l.4-.36a.92.92,0,0,1,1.06.05c.61.5,1.27,1,2.1,1.64.17.13.36.24.54.36a4,4,0,0,1,.78.57,12.22,12.22,0,0,0,2.7,2c.37.21.73.45,1.08.69l.48.31a22.23,22.23,0,0,1,3.4,3.45c.6.7,1.22,1.43,1.89,2.11l.12.12.1-.13.24-.31a4.43,4.43,0,0,1,.48-.58c.36-.34.73-.68,1.1-1s.89-.8,1.32-1.22c.79-.77,1.54-1.56,2.3-2.38.51-.54,1-1.09,1.49-1.65l.65-.73.08-.12,2.3-2.43,2.55,1.7,0,0,2.34,1.56a4.66,4.66,0,0,0,.92.9l.68.52c.33.25.66.5,1,.76.47.38.94.79,1.4,1.18l.48.41,0,0,0,.06a13.24,13.24,0,0,0,3.9,3.21l.11.06,1.32-1.57.07-.11h0l4.81-6,.7-.87a7.59,7.59,0,0,1,2.67-2.48l2.59,1.3.06.09a.83.83,0,0,0,.23.27c.59.39,1.21.78,1.8,1.15l.08,0,2,1.24,2.52,1.58,2.22,1.4a2.14,2.14,0,0,0,.37.17,1.19,1.19,0,0,1,.41.21,17,17,0,0,0,4,2.93,1,1,0,0,0,.85.12l0,0-.63-.42v-.43l.13-.14,0,0-.44-.31-.5-.36c-.82-.6-1.64-1.19-2.45-1.8a2.8,2.8,0,0,1-.31-.29,2.56,2.56,0,0,0-.44-.38,4.55,4.55,0,0,0-.59-.3,3.89,3.89,0,0,1-.59-.3c-.8-.53-1.6-1.1-2.37-1.64l-1.06-.74a4,4,0,0,0-.43-.27l-.6-.3a11.27,11.27,0,0,1-1.16-.62c-.33-.21-.65-.46-1-.7a13,13,0,0,0-1.08-.77c-.8-.5-1.71-1-2.77-1.52a1.25,1.25,0,0,0-1.48,0l-.15.13c-.82.72-1.67,1.46-2.47,2.23a3.44,3.44,0,0,0-.47.61,4.66,4.66,0,0,1-.3.41l-1.15,1.36c-.55.65-1.12,1.32-1.67,2s-1,1.3-1.5,1.94l-.65.86L71.78,157l-4.19-3.66-.1-.25,0,0-.5-.32a8.93,8.93,0,0,1-1-.68c-.3-.25-.59-.53-.87-.8a14,14,0,0,0-1.09-1c-.67-.52-1.39-1-2.08-1.47l-.74-.5-.36-.22a2.77,2.77,0,0,1-.53-.36,2.22,2.22,0,0,0-2.31-.76l-.23.07.22.22-3.77,3.28.22.21v.07l-.44.49-.22-.21-.34.43.17.21-.06.06-.23-.21-.21.39.16.13-.48.53.1-.58-2.42,2.89a2.24,2.24,0,0,0-.89.7,1.69,1.69,0,0,1-1.26.76h0l-1.87-2-.24-.26a7.92,7.92,0,0,0-.62-.64c-.59-.53-1.21-1-1.8-1.55l-.62-.53a4.06,4.06,0,0,0-.55-.43l-.92-.53c-.42-.24-.85-.48-1.26-.75a8.63,8.63,0,0,1-.84-.65l-.47-.38-.64-.48c-.36-.27-.73-.55-1.08-.84a11.92,11.92,0,0,1-.88-.84l-.21-.22a1.93,1.93,0,0,0-2.26-.3,14.15,14.15,0,0,0-1.19,1.09c-.23.23-.46.45-.7.67s-.33.27-.49.39a5.19,5.19,0,0,0-.67.56c-.55.58-1.1,1.18-1.64,1.77s-1.06,1.16-1.6,1.73a7.74,7.74,0,0,1-.72.64c-.19.16-.39.32-.57.49-.59.55-1.17,1.12-1.74,1.67l-.6.58-.26-.17c-.25-.17-.49-.32-.72-.49-.44-.32-.87-.67-1.29-1l-.07-.05-.66-.54c-.45-.37-.91-.75-1.4-1.09a4.53,4.53,0,0,0-.76-.41,4.66,4.66,0,0,1-.67-.35c-.78-.52-1.55-1.06-2.3-1.59l-1-.7a4,4,0,0,0-.43-.27L14,148.6c-.38-.19-.78-.38-1.15-.61-.7-.42-1.39-.87-2.07-1.31l-1.42-.91a1.43,1.43,0,0,0-2,.06c-.15.15-.32.28-.48.43l.41,1.08.29-.28C8,146.5,8.49,146.41,9.05,146.76Z"/><path d="M99.15,157.3l-.18.22A1.19,1.19,0,0,0,99.15,157.3Z"/><path d="M99.18,156.72a.59.59,0,0,0-.39-.27c-.17,0-.32.1-.49.29l-.06,0-.13.14v.43l.63.42a.85.85,0,0,0,.23-.16l.18-.22,0-.06Z"/><path d="M25,176.71l1-1c.48-.48,1-1,1.49-1.43s1.32-1.14,2-1.68l1.27-1.07.9-.8c.45-.41.92-.83,1.4-1.22a4.7,4.7,0,0,1,.88-.51l.45-.23a.27.27,0,0,0,.14-.08l.86-1.09.15-.2.16-.12L36,167c.42-.33.92-.23,1.67.33s1.37,1,2,1.46l1.45,1a2.59,2.59,0,0,1,.36.34,3.49,3.49,0,0,0,.32.32l7.11,6,1.54,1.09.08-.06a10.11,10.11,0,0,0,2.47-2.3,5.44,5.44,0,0,0,.53-.91A2.79,2.79,0,0,1,54.65,173a.3.3,0,0,0,.1-.1l.44-.58,1.69-2.21a.56.56,0,0,0,.1-.26l2-1.58,0,0a1.29,1.29,0,0,1,1.17-.65l4.31,3.22,3.38,2.76a22,22,0,0,1,2.7,1.94A21.27,21.27,0,0,0,74,177.8l.14.07.07-.14.29-.61c.23-.49.44-1,.68-1.41a4,4,0,0,1,.31-.49c.1-.14.2-.28.28-.42s.18-.34.27-.52a4.37,4.37,0,0,1,.44-.78c.33-.43.69-.84,1-1.24s.47-.54.7-.81a.94.94,0,0,0,.15-.31.5.5,0,0,1,.12-.23c.24-.18.5-.34.76-.49a9.54,9.54,0,0,0,.95-.64,4.75,4.75,0,0,0,.69-.73c.11-.14.23-.28.35-.41.34-.37.71-.75,1.14-1.17l.4-.38c.18-.16.37-.33.54-.51a.58.58,0,0,1,.48-.18,1.35,1.35,0,0,1,.93.5,12.45,12.45,0,0,0,2.72,2.17l.41.27A23.13,23.13,0,0,1,91.24,172a26.06,26.06,0,0,0,2.14,1.79l1,.77,0,0a1.83,1.83,0,0,0,.57.36l1.95,1.51L98.8,178l.06-.06a2,2,0,0,1-.72-.63l0-.06,0-.07c.08-.23.16-.39.33-.44s.37.05.66.27h0l-.39-.3L96.5,175l-.36-.28a5.85,5.85,0,0,0-.87-.62A14,14,0,0,1,92.51,172c-.41-.38-.84-.78-1.29-1.15-.65-.53-1.34-1-2-1.52l-.06,0c-.25-.18-.51-.35-.77-.52a10.88,10.88,0,0,1-1.3-1l-.64-.6A13.2,13.2,0,0,0,84,165.24l0,0h-.62l0,.08a2.33,2.33,0,0,0-1.53,1.12c-.11.15-.22.29-.34.43A26.3,26.3,0,0,1,79.26,169a7.46,7.46,0,0,1-.83.61,7.21,7.21,0,0,0-.92.68,11.77,11.77,0,0,0-1.58,1.8,10.5,10.5,0,0,0-.67,1.11c-.16.3-.33.61-.52.89a5.73,5.73,0,0,1-.49.61,5.59,5.59,0,0,0-.55.7,1.89,1.89,0,0,0-.21.72l0,.12L72,175.31,69.2,173l-.28.14-.26-.17.31.09-.25-.49-.31.22-.14-.1,0,0,.14-.3-.25-.16-.17,0-.1.22-.18-.15h0l.15-.25-.51-.4-.15.23a2.85,2.85,0,0,1-.66-.75l0,0-4.73-3.18.15-.24-.13-.08-.27-.16c-.18-.11-.37-.22-.54-.34-1.14-.81-1.6-.84-2.36-.15a27.67,27.67,0,0,1-2.17,1.77,5,5,0,0,0-1.18,1.39c-.12.19-.24.37-.38.55a5.45,5.45,0,0,1-.76.78l-.41.38,0,0v.25a10.2,10.2,0,0,0-1.28,1.74,6,6,0,0,1-2.29,2.45l-.73-.62-1.86-1.57-2.09-1.73L43,170.26c-.27-.23-.54-.48-.8-.72l-.28-.26a20.06,20.06,0,0,0-2.84-2.09c-.53-.34-1.07-.69-1.59-1.07-1-.74-1.55-.44-2,0l-1.09.91c-.51.43-1,.88-1.58,1.31a8.69,8.69,0,0,1-.92.6l-.5.31a2.43,2.43,0,0,0-.34.28l-.75.71c-.55.53-1.13,1.07-1.71,1.58a2.84,2.84,0,0,1-.53.34,2.88,2.88,0,0,0-.63.42,14,14,0,0,0-1,1.1l-.48.55c-.31.35-.62.7-1,1-.17.17-.35.32-.54.49l-.18.16-.86-.61-.83-.59q.94,1.22,1.91,2.42l0,0A3,3,0,0,0,25,176.71Z"/><path d="M99.18,177.08l-.07-.05h0c-.28-.22-.48-.33-.66-.27s-.25.21-.33.44l0,.07,0,.06a2,2,0,0,0,.72.63l.32-.28Z"/><path d="M98.79,198a.59.59,0,0,1,.39.27v-1l-.94,1,.06,0C98.48,198.15,98.63,198,98.79,198Z"/><path d="M98.81,199.33l.16-.2a.85.85,0,0,1-.23.16Z"/><path d="M99.15,198.9l0,0v0Z"/><path d="M50.51,197.91c.44-.39.89-.8,1.32-1.22.79-.77,1.54-1.56,2.3-2.38.51-.54,1-1.09,1.49-1.65l.65-.73.08-.12,2.3-2.43,2.55,1.7,0,0,2.34,1.56a4.66,4.66,0,0,0,.92.9l.68.52c.33.25.66.5,1,.76.47.38.94.79,1.4,1.18l.48.41,0,0,0,.06a13.24,13.24,0,0,0,3.9,3.21l.11.06,1.32-1.57.07-.11h0l4.81-6,.7-.87a7.59,7.59,0,0,1,2.67-2.48l2.59,1.3.06.09a.83.83,0,0,0,.23.27c.59.39,1.21.78,1.8,1.15l.08,0,2,1.24,2.52,1.58,2.22,1.4a2.14,2.14,0,0,0,.37.17,1.19,1.19,0,0,1,.41.21,17,17,0,0,0,4,2.93,1,1,0,0,0,.85.12l0,0-.63-.42v-.43l.13-.14,0,0-.44-.31-.5-.36c-.82-.6-1.64-1.19-2.45-1.8a2.8,2.8,0,0,1-.31-.29,2.56,2.56,0,0,0-.44-.38,4.49,4.49,0,0,0-.59-.3,3.89,3.89,0,0,1-.59-.3c-.8-.53-1.6-1.1-2.37-1.64l-1.06-.74a4,4,0,0,0-.43-.27l-.6-.3a11.27,11.27,0,0,1-1.16-.62c-.33-.21-.65-.46-1-.7a13,13,0,0,0-1.08-.77c-.8-.5-1.71-1-2.77-1.52A1.25,1.25,0,0,0,81,188l-.15.13c-.82.72-1.67,1.46-2.47,2.23a3.45,3.45,0,0,0-.47.61,4.63,4.63,0,0,1-.3.41l-1.15,1.36c-.55.65-1.12,1.32-1.67,2s-1,1.3-1.5,1.94l-.65.86-.83,1.08L67.6,194.9l-.1-.25,0,0-.5-.32a8.9,8.9,0,0,1-1-.68c-.3-.25-.59-.53-.87-.8a14,14,0,0,0-1.09-1c-.67-.52-1.39-1-2.08-1.47l-.74-.5-.36-.22a2.77,2.77,0,0,1-.53-.36,2.22,2.22,0,0,0-2.31-.76l-.23.07.22.22-3.77,3.28.22.21v.07l-.44.49-.22-.21-.34.43.17.21-.06.06-.23-.21-.21.39.16.13-.48.53.1-.58-2.42,2.89a2.24,2.24,0,0,0-.89.7,1.69,1.69,0,0,1-1.26.76h0l-1.87-2-.24-.26a7.92,7.92,0,0,0-.62-.64c-.59-.53-1.21-1-1.8-1.55l-.62-.53a4.06,4.06,0,0,0-.55-.43l-.92-.53c-.42-.24-.85-.48-1.26-.75a8.67,8.67,0,0,1-.84-.65l-.47-.38-.64-.48c-.36-.27-.73-.55-1.08-.84a12,12,0,0,1-.88-.84l-.21-.22a2,2,0,0,0-2.2-.33l1.06,1a.83.83,0,0,1,.31.15c.61.5,1.27,1,2.1,1.64.17.13.36.24.54.36a4,4,0,0,1,.78.57,12.22,12.22,0,0,0,2.7,2c.37.21.73.45,1.08.69l.48.31a22.23,22.23,0,0,1,3.4,3.45l0,.06q1.18.83,2.38,1.63a3.81,3.81,0,0,1,.4-.48C49.76,198.57,50.13,198.24,50.51,197.91Z"/><path d="M99.15,198.9l-.18.22A1.19,1.19,0,0,0,99.15,198.9Z"/><path d="M99.18,198.32a.59.59,0,0,0-.39-.27c-.17,0-.32.1-.49.29l-.06,0-.13.14v.43l.63.42a.85.85,0,0,0,.23-.16l.18-.22,0-.06Z"/><path d="M96.14,216.36a5.83,5.83,0,0,0-.87-.62,14,14,0,0,1-2.76-2.15c-.41-.38-.84-.78-1.29-1.15-.65-.53-1.34-1-2-1.52l-.06,0c-.25-.18-.51-.35-.77-.52a10.88,10.88,0,0,1-1.3-1l-.64-.6A13.21,13.21,0,0,0,84,206.85l0,0h-.62l0,.08A2.33,2.33,0,0,0,81.79,208c-.11.15-.22.29-.34.43a26.3,26.3,0,0,1-2.19,2.16,7.49,7.49,0,0,1-.83.61,7.19,7.19,0,0,0-.92.68c-.26.24-.51.5-.76.77l1.39.42,0,0a.94.94,0,0,0,.15-.31.5.5,0,0,1,.12-.23c.24-.18.5-.34.76-.49a9.54,9.54,0,0,0,.95-.64,4.75,4.75,0,0,0,.69-.73c.11-.14.23-.28.35-.41.34-.37.71-.75,1.14-1.17l.4-.38c.18-.16.37-.33.54-.51a.58.58,0,0,1,.48-.18,1.35,1.35,0,0,1,.93.5,12.45,12.45,0,0,0,2.72,2.17l.41.27a23.15,23.15,0,0,1,3.44,2.63,26,26,0,0,0,2.14,1.79l1,.77,0,0a1.82,1.82,0,0,0,.57.36l.33.26,1.63.2-.44-.34Z"/></g></g></svg>