<svg xmlns="http://www.w3.org/2000/svg" viewBox="0 0 320.17 71.9"><defs><style>.cls-1{fill:none;}.cls-2{fill:#fff;}.cls-3{fill:#333e48;}</style></defs><title>mountain-pattern</title><g id="Layer_2" data-name="Layer 2"><g id="Layer_1-2" data-name="Layer 1"><rect class="cls-1" x="0.01" y="0.03" width="320.16" height="71.83"/><path class="cls-2" d="M320,28.18l-9.53-5-4.12-3.12a3.82,3.82,0,0,1-1.21-.73l-.08-.06c-.68-.54-1.38-1.07-2.08-1.6a54.37,54.37,0,0,1-4.53-3.7,48.48,48.48,0,0,0-7.27-5.43L290.28,8a26.09,26.09,0,0,1-5.76-4.47,2.82,2.82,0,0,0-2-1,1.22,1.22,0,0,0-1,.4c-.35.38-.74.74-1.11,1.09s-.56.53-.83.8c-.88.89-1.65,1.71-2.36,2.48-.25.28-.48.57-.72.86a9.93,9.93,0,0,1-1.43,1.55,20.11,20.11,0,0,1-2,1.36c-.53.33-1.08.68-1.57,1.05a1.06,1.06,0,0,0-.24.48,2,2,0,0,1-.31.65c-.47.58-1,1.15-1.44,1.72-.72.84-1.47,1.72-2.14,2.62a9.21,9.21,0,0,0-.9,1.64c-.17.37-.35.74-.54,1.1s-.38.6-.58.9a8.46,8.46,0,0,0-.65,1c-.48,1-.92,1.94-1.39,3l-.58,1.28-.13.29-.29-.15a44.54,44.54,0,0,1-7.17-4.85,46.23,46.23,0,0,0-5.7-4L242.36,12,233.24,5.4a2.71,2.71,0,0,0-2.45,1.39l-.08.09-4.13,3.36a1.16,1.16,0,0,1-.19.55q-1.73,2.35-3.49,4.68L222,16.69a.63.63,0,0,1-.21.21,5.85,5.85,0,0,0-2.22,2.89,11.46,11.46,0,0,1-1.09,1.93,21.17,21.17,0,0,1-5.13,4.88l-.18.12-3.24-2.24-15-12.39a7.33,7.33,0,0,1-.68-.65,5.4,5.4,0,0,0-.76-.71c-1-.71-2-1.41-3.06-2.1-1.43-1-2.9-2-4.32-3-1.58-1.17-2.63-1.36-3.5-.66l-.77.61-.33.25-.31.42-1.78,2.3a.56.56,0,0,1-.29.18l-.95.49a9.83,9.83,0,0,0-1.83,1.09c-1,.82-2,1.72-2.91,2.58-.61.57-1.23,1.14-1.86,1.69-.87.77-1.75,1.52-2.63,2.27-1.36,1.16-2.76,2.36-4.09,3.58-1.06,1-2.09,2-3.08,3-.67.68-1.33,1.36-2,2a6.19,6.19,0,0,1-1,.75l-.43.29-.22.15-2.31-2.44-5.47-3.94a49.85,49.85,0,0,1-6.87-4.76,68.07,68.07,0,0,0-8.88-6.25c-1.27-.78-2.54-1.61-3.78-2.41l-1.11-.72a1.84,1.84,0,0,0-2.16.07c-.87,1.05-1.85,2.16-3.1,3.48a8.62,8.62,0,0,1-.87.77,4.74,4.74,0,0,0-1.16,1.17A15,15,0,0,1,118.27,16c-.6.45-1.16,1-1.71,1.45l-.77.68a27,27,0,0,0-4.34,7.22,49.9,49.9,0,0,1-2.28,4.46l-.19.31-.28-.23-.75-.64A16.33,16.33,0,0,0,106.46,28c-1-.71-2.08-1.4-3.12-2.08-1.23-.81-2.5-1.65-3.73-2.5-2.26-1.58-4.46-3.22-6.7-4.9-1.5-1.12-3-2.27-4.45-3.41l-2.22-1.71,0,0-6.77-5-3.92,3.54-.19.27-3.43,3.12a5.87,5.87,0,0,1-1.23,1.9c-.33.38-.68.74-1,1.11s-1,1-1.44,1.59c-.68.8-1.33,1.65-2,2.47l-.69.89a.75.75,0,0,1,0,.17,16.31,16.31,0,0,1-5.66,6.84l-.19.15L55.54,27v0L54,25.67,38.62,12.85c-1.81-2.09-4.91-3.74-7.68-5.2l-4.34,2.74,0,.13a1.19,1.19,0,0,1-.31.62c-.94.85-1.94,1.68-2.89,2.49l-.08.07-3.12,2.61-4.06,3.4c-1.17,1-2.34,2-3.52,2.94a3,3,0,0,1-.66.38,1.48,1.48,0,0,0-.63.41,25.65,25.65,0,0,1-6.77,6.92A3.25,3.25,0,0,1,.2,29.56V71.9L320,71.83Z"/><path class="cls-3" d="M315.21,24.51l-1-.75-4.7-3.49-.75-.58a12.25,12.25,0,0,0-1.84-1.29A29.24,29.24,0,0,1,301.08,14c-.88-.8-1.79-1.62-2.73-2.38-1.37-1.1-2.82-2.13-4.23-3.13l-.13-.1c-.53-.38-1.07-.73-1.62-1.08a22.83,22.83,0,0,1-2.75-2c-.46-.41-.91-.82-1.36-1.23a27.66,27.66,0,0,0-5.15-4L283,0h-1.29l-.08.17a4.88,4.88,0,0,0-3.17,2.38c-.23.31-.45.61-.7.9a55.2,55.2,0,0,1-4.54,4.58,15.7,15.7,0,0,1-1.73,1.29,15.12,15.12,0,0,0-1.91,1.44,24.64,24.64,0,0,0-3.28,3.8,22.07,22.07,0,0,0-1.38,2.35c-.33.63-.68,1.28-1.07,1.88a12,12,0,0,1-1,1.3,11.69,11.69,0,0,0-1.13,1.48,4,4,0,0,0-.42,1.51l0,.26-3.11-2-5.92-4.78-.59.3-.54-.35.66.18-.54-1-.65.48-.29-.2.07,0,.28-.63-.54-.33-.35-.09-.2.46-.38-.3.09,0,.3-.52-1.07-.82-.32.48a6,6,0,0,1-1.4-1.55l0-.1-10-6.55.31-.5-.27-.16-.56-.33c-.38-.22-.78-.46-1.15-.71-2.4-1.67-3.37-1.72-4.95-.26a57.83,57.83,0,0,1-4.5,3.75,10.53,10.53,0,0,0-2.43,2.94c-.25.39-.5.79-.77,1.17a11.42,11.42,0,0,1-1.58,1.66c-.28.26-.57.52-.85.81l-.09.09,0,.52a21.38,21.38,0,0,0-2.65,3.69c-1.28,2.08-2.48,4-4.73,5.19L211,22.69c-1.29-1.07-2.61-2.16-3.94-3.24l-4.42-3.58-5.38-4.35c-.58-.47-1.14-1-1.68-1.49L195,9.5a42.11,42.11,0,0,0-6-4.31c-1.11-.7-2.26-1.43-3.36-2.21-2.15-1.53-3.25-.88-4.29,0-.76.64-1.51,1.29-2.26,1.93-1.07.92-2.17,1.87-3.28,2.77A18.15,18.15,0,0,1,173.88,9c-.35.22-.71.43-1,.66a5.09,5.09,0,0,0-.7.59l-1.55,1.5c-1.15,1.12-2.33,2.27-3.54,3.36a6,6,0,0,1-1.1.72,6,6,0,0,0-1.3.88A29.26,29.26,0,0,0,162.58,19c-.31.38-.63.76-1,1.17-.64.73-1.29,1.49-2,2.2-.34.36-.72.69-1.11,1l-.38.34-1.81-1.27c-1.61-1.13-3.26-2.28-4.91-3.41-.51-.35-1-.67-1.57-1-.69-.42-1.39-.85-2-1.34-1.58-1.17-3.15-2.37-4.72-3.57s-3.22-2.46-4.84-3.66a18.18,18.18,0,0,0-1.84-1.15c-.45-.26-.92-.53-1.36-.82-.67-.45-1.34-.92-2-1.39-1.08-.77-2.2-1.56-3.35-2.24-1.61-1-3.84-.39-4.52.75l-.28.47a14.32,14.32,0,0,1-1.15,1.75c-.5.61-1.06,1.2-1.59,1.77-.32.34-.64.68-1,1s-.46.54-.68.81a10.16,10.16,0,0,1-1.23,1.36c-.64.56-1.35,1.08-2,1.58-.51.37-1,.75-1.5,1.14a5,5,0,0,0-.84.93L114,16.64c-.83,1.05-1.7,2.14-2.51,3.24a9.93,9.93,0,0,0-.81,1.38l-.29.54L108.11,26a5.73,5.73,0,0,1-3.28-1.58,7.4,7.4,0,0,0-2.4-1.42l-7.58-6.15.69,1.23-1.31-1,.24-.29-.66-.71-.31.44-.27-.21.19-.45-1-.81-.28.44-1.33-1,0,0-.09-.23.29-.43L80.53,7.06l.26-.44-.39-.11a3.49,3.49,0,0,0-4.3,1.69,3.34,3.34,0,0,1-.8.73,6.56,6.56,0,0,0-.59.48l-1.16,1.07c-1.08,1-2.19,2-3.18,3.12a17.26,17.26,0,0,0-1.52,2.08,20.51,20.51,0,0,1-1.19,1.69,10.93,10.93,0,0,1-1.5,1.42c-.26.22-.53.44-.79.68l-.1.09,0,.53-5.81,7.66-2.64-2.28-2-1.73c-1.54-1.34-3.13-2.72-4.72-4S46.7,16.94,45,15.58l-3.49-2.81c-.33-.27-.64-.57-1-.86a12.38,12.38,0,0,0-1.45-1.23c-2.31-1.58-4.69-3.13-7-4.62l-.36-.24a2.54,2.54,0,0,0-3.06.09,41.9,41.9,0,0,0-4.62,3.25,16.1,16.1,0,0,0-1.65,1.65A17.11,17.11,0,0,1,21,12.28a14.35,14.35,0,0,1-1.92,1.32c-.34.21-.68.42-1,.64a5.25,5.25,0,0,0-.7.58l-1.61,1.55c-1.19,1.16-2.43,2.35-3.68,3.49a5,5,0,0,1-1,.63,6,6,0,0,0-1,.65,3.2,3.2,0,0,0-.64.84,3.38,3.38,0,0,1-.41.59c-1.22,1.29-3.76,3.85-5,5.1l-.74.76c-.21.22-.44.43-.67.63l-.14.13A4.61,4.61,0,0,0,.2,28.24c-.35.11,0,.6-.19,1.08v.94c2.44,2.13,3.12,1.44,3.94.7,2.25-2,5.84-5.07,7.36-7.52a1.48,1.48,0,0,1,.63-.41,3,3,0,0,0,.66-.38c1.18-1,2.35-2,3.52-2.94l4.06-3.4,3.12-2.61.08-.07c1-.81,1.95-1.64,2.89-2.49a1.19,1.19,0,0,0,.31-.62l0-.13,4.34-2.74c2.77,1.46,5.87,3.12,7.68,5.2L54,25.67,55.56,27v0l4.15,3.36.19-.15a16.31,16.31,0,0,0,5.66-6.84.75.75,0,0,0,0-.17l.69-.89c.64-.82,1.29-1.66,2-2.47.46-.54,1-1.08,1.44-1.59s.69-.74,1-1.11a5.87,5.87,0,0,0,1.23-1.9l3.43-3.12.19-.27L79.5,8.32l6.77,5,0,0,2.22,1.71c1.48,1.15,3,2.29,4.45,3.41,2.24,1.68,4.43,3.32,6.7,4.9,1.23.86,2.5,1.7,3.73,2.5,1,.69,2.09,1.38,3.12,2.08A16.33,16.33,0,0,1,108,29.21l.75.64.28.23.19-.31a49.9,49.9,0,0,0,2.28-4.46,27,27,0,0,1,4.34-7.22l.77-.68c.55-.49,1.11-1,1.71-1.45a15,15,0,0,0,4.06-4.35,4.74,4.74,0,0,1,1.16-1.17,8.62,8.62,0,0,0,.87-.77c1.25-1.32,2.23-2.42,3.1-3.48a1.84,1.84,0,0,1,2.16-.07l1.11.72c1.23.8,2.5,1.64,3.78,2.41a68.07,68.07,0,0,1,8.88,6.25,49.85,49.85,0,0,0,6.87,4.76l5.47,3.94L158,26.67l.22-.15.43-.29a6.19,6.19,0,0,0,1-.75c.68-.67,1.35-1.35,2-2,1-1,2-2.06,3.08-3,1.33-1.22,2.73-2.42,4.09-3.58.88-.75,1.76-1.5,2.63-2.27.63-.55,1.25-1.12,1.86-1.69.94-.86,1.9-1.76,2.91-2.58a9.83,9.83,0,0,1,1.83-1.09l.95-.49a.56.56,0,0,0,.29-.18l1.78-2.3.31-.42.33-.25.77-.61c.87-.71,1.92-.51,3.5.66,1.42,1,2.89,2,4.32,3,1,.69,2,1.39,3.06,2.1a5.4,5.4,0,0,1,.76.71,7.33,7.33,0,0,0,.68.65l15,12.39,3.24,2.24.18-.12a21.17,21.17,0,0,0,5.13-4.88,11.46,11.46,0,0,0,1.09-1.93,5.85,5.85,0,0,1,2.22-2.89.63.63,0,0,0,.21-.21l.91-1.22q1.75-2.33,3.49-4.68a1.16,1.16,0,0,0,.19-.55l4.13-3.36.08-.09a2.71,2.71,0,0,1,2.45-1.39L242.36,12l7.15,5.71a46.23,46.23,0,0,1,5.7,4,44.54,44.54,0,0,0,7.17,4.85l.29.15.13-.29.58-1.28c.46-1,.91-2,1.39-3a8.46,8.46,0,0,1,.65-1c.2-.29.41-.58.58-.9s.37-.72.54-1.1a9.21,9.21,0,0,1,.9-1.64c.67-.9,1.42-1.77,2.14-2.62.49-.57,1-1.14,1.44-1.72a2,2,0,0,0,.31-.65,1.06,1.06,0,0,1,.24-.48c.5-.37,1-.72,1.57-1.05a20.11,20.11,0,0,0,2-1.36,9.93,9.93,0,0,0,1.43-1.55c.23-.29.47-.59.72-.86.71-.77,1.48-1.58,2.36-2.48.27-.27.55-.54.83-.8s.76-.71,1.11-1.09a1.22,1.22,0,0,1,1-.4,2.82,2.82,0,0,1,2,1A26.09,26.09,0,0,0,290.28,8l.87.55A48.48,48.48,0,0,1,298.41,14a54.37,54.37,0,0,0,4.53,3.7c.7.53,1.4,1.06,2.08,1.6l.08.06a3.82,3.82,0,0,0,1.21.73l4.12,3.12L320,30.44l.19-2.26Z"/></g></g></svg>