<svg xmlns="http://www.w3.org/2000/svg" viewBox="0 0 420.78 439.38"><defs><style>.cls-1{fill:#93989e;}.cls-1,.cls-2,.cls-3,.cls-4,.cls-5,.cls-6,.cls-7,.cls-8,.cls-9{stroke:#333e48;stroke-miterlimit:10;stroke-width:3px;}.cls-2{fill:#ccc;}.cls-3{fill:#71787f;}.cls-4{fill:#d4d5d7;}.cls-5{fill:#a8acb0;}.cls-6{fill:#333e48;}.cls-7{fill:#e9e9ea;}.cls-8{fill:#fc6;}.cls-9{fill:none;}</style></defs><title>representative</title><g id="Layer_2" data-name="Layer 2"><g id="Layer_2-2" data-name="Layer 2"><path class="cls-1" d="M126.19,128.54l1.72-37.73s-.64-8.36,19.72-5.79,80,7.72,80,7.72v35.8Z"/><path class="cls-1" d="M198,327.28l-3.22,57.66s-47.17,26.16-104.41,1.29l5.15-60.67Z"/><rect class="cls-2" x="107.49" y="23.83" width="205.8" height="410.95" transform="translate(-25.9 431.8) rotate(-88.06)"/><polygon class="cls-3" points="186.8 385.58 186.8 408.95 193.44 408.95 192.16 383.87 186.8 385.58"/><rect class="cls-3" x="194.52" y="342.28" width="8.57" height="41.59" rx="4.29" ry="4.29"/><path class="cls-3" d="M149.24,93.38s-8.58-3.65-9.87,0-1.93,35.16-1.93,35.16h8.15Z"/><polygon class="cls-3" points="150.52 62.08 149.24 88.24 155.03 88.24 155.03 61.44 150.52 62.08"/><path class="cls-3" d="M148.39,335s9-7.07,10.5-4.93-5.35,11.36-8.14,10.29S148.39,335,148.39,335Z"/><path class="cls-3" d="M135.13,60.58s-3.22-30,0-33.66,57.24-38.16,107.19,2.35c0,0,4.71.22,3.86,10.93a128.63,128.63,0,0,0,.1,20.37S138.78,68.3,135.13,60.58Z"/><path class="cls-3" d="M135.13,64.44s-3.22-30,0-33.66,57.24-38.16,107.19,2.35c0,0,4.71.22,3.86,10.93a128.63,128.63,0,0,0,.1,20.37S138.78,72.16,135.13,64.44Z"/><path class="cls-1" d="M239.38,50.72s3.43,12.86,2.36,15-.87,8.15-.87,8.15-5.4,28.72-7.27,28.94.64,8.57-1,8.57-2.89,15-2.89,15-11.9-10.07-19.83-7.29c0,0,.64-8.36,3.22-11.36S214.83,97,214.83,97l12.76-38.38Z"/><path class="cls-4" d="M175.71,228.09c-2.78,3.08-5.79-13.37-5.79-13.37s-7.93,10.93-13.08,3.65c-3.56-5-.75-19.35,1.29-27.66.91-3.69,1.69-6.2,1.69-6.2l11.58-1.93s0,2.52.3,5.58c.35,4.14,1.1,9.27,2.7,10.5C177.21,200.79,178.5,225,175.71,228.09Z"/><path class="cls-3" d="M172.08,35.5s-21.63-.21-26.92,10.5-5.52,14.37-7.59,16.08S160.11,72.8,160.11,72.8l1.15,36.87a13.8,13.8,0,0,1,12.65-2.5c7.82,2.06,17.72,0,17.72,0s-.46-.78,6,0,26.92-9.29,26.92-9.29.34-16.13-.12-19.56S239,49.65,239,49.65s1.42-8.21-.46-14.15c0,0-4.31-6.06-15.42-6S172.08,35.5,172.08,35.5Z"/><path class="cls-3" d="M171.74,188.14c-4.42-1.38-11.35,1.66-13.56,2.57.91-3.69,1.69-6.2,1.69-6.2l11.58-1.93S171.47,185.11,171.74,188.14Z"/><path class="cls-1" d="M143.77,61.44h-6.21s-1.29,13.08,0,16.94,1.93,3.3,1.5,6.15,3,7.23,3,7.23.42,10.78,2.57,14.79-2.36,22-2.36,22a25.89,25.89,0,0,0,5.36,8.36c3.65,3.64,5.58,17.15,4.5,22.29a6.18,6.18,0,0,0,3,7.07s1.72,24,2.36,24,10.62,1.59,16.93-.86c5.19-2-3-22.08-3-22.08l.22-42.66s-4.08-5.36-1.93-10.08S168,98.76,168,98.76L162.42,73.9Z"/><path class="cls-3" d="M95.47,400.37s-9-1.93-9.22,0S75.54,422,88.62,427.82s48,18.22,104.83,2.14c0,0,3.64,1.29,2.78-6.64s-.86-16.72-.86-16.72-8.58-2.36-15-1.5S118,417.31,95.47,400.37Z"/><path class="cls-3" d="M95.47,400.37s-9-1.93-9.22,0S75.54,422,88.62,427.82s48,18.22,104.83,2.14c0,0,3.64,1.29,2.78-6.64s-.86-16.72-.86-16.72-8.58-2.36-15-1.5S118,417.31,95.47,400.37Z"/><path class="cls-1" d="M95.47,397.8s-9-1.93-9.22,0-10.72,21.65,2.36,27.44,48,18.22,104.83,2.14c0,0,3.64,1.29,2.78-6.64s-.86-16.72-.86-16.72-8.58-2.36-15-1.5S118,414.74,95.47,397.8Z"/><path class="cls-3" d="M82.89,355.14l2.24-4.89S97.25,339,100,338.18s14.15-4.24,15.87-4.24,33-1.72,33-1.72l3.64,8.58-39.28,8.62L100,359.07Z"/><path class="cls-5" d="M177.27,223.51l-2.05,15.79-.79,6.08-9.22,1.29s-1-2.14-2.41-5.42c-4.28-10-12.33-30.48-7.66-34,6.21-4.72,7.72,10.93,7.72,10.93l7.07-3.43Z"/><circle class="cls-4" cx="187.93" cy="48.58" r="26.9"/><path class="cls-3" d="M172.23,63.59c5.55.26,11.64.29,16-3.22,1.8-1.44,3.81-5.06,6.43-4.37,2.33.61,3.3,3.77,5.72,4.47,1.76.51,3.58-.3,5.36-.64,2.57-.51,5.21-.08,7.82-.06s5.45-.48,7.23-2.39c2.41-2.57,2-6.59,1.8-10.12a54.47,54.47,0,0,1,.92-13.6c.87-4.45,2.22-9.43-.24-13.24-2.34-3.63-7.19-4.63-10.5-7.42-3.1-2.57-4.74-6.7-8-9.08C200.63.92,195,1.35,190,1.87L179,3c-2.84.3-5.79.64-8.12,2.33-4.21,3-4.79,9.38-8.78,12.72-1.78,1.48-4,2.21-6.07,3.32s-4,2.86-4.21,5.15c-.19,1.93.85,3.71,1.36,5.57,1.2,4.44-.68,9-1.88,13.47s-1.43,9.9,2.06,12.86c.71.6,4.4,5.63,5.08,6.26C160.75,66.88,169.87,63.48,172.23,63.59Z"/><ellipse class="cls-3" cx="190.12" cy="79.93" rx="0.64" ry="1.61"/><ellipse class="cls-3" cx="190.12" cy="86.63" rx="0.64" ry="1.61"/><path class="cls-3" d="M184.5,386s-12.58,19.45-51.88,17.36c-37-1.93-55.1-20.15-54.24-26.58S76,354.71,84,350.21c4.6-2.6,10.65-1.06,14.92.7a8.43,8.43,0,0,0,8.86-1.59c3.9-3.52,11.18-7.48,22.68-4.36a8.17,8.17,0,0,0,4.5-.08c4.78-1.46,16.17-4,24.44,1.63a8.36,8.36,0,0,0,9,.34l.12-.07c3.86-2.36,21.87,19.94,21.87,19.94S191.15,383.87,184.5,386Z"/><path class="cls-3" d="M184.5,386.66S171.92,406.1,132.62,404c-37-1.93-55.1-20.15-54.24-26.58S76,355.35,84,350.85c4.6-2.6,10.65-1.06,14.92.7a8.43,8.43,0,0,0,8.86-1.59c3.9-3.52,11.18-7.48,22.68-4.36a8.17,8.17,0,0,0,4.5-.08c4.78-1.46,16.17-4,24.44,1.63a8.36,8.36,0,0,0,9,.34l.12-.07c3.86-2.36,21.87,19.94,21.87,19.94S191.15,384.51,184.5,386.66Z"/><circle class="cls-5" cx="132.62" cy="370.59" r="25.62"/><path class="cls-6" d="M124,351.12c-2.8.69-5.55,2-6.92,4.2-.82,1.32-1.11,2.9-2.3,4-8.74,0-10,5.55-12.7,11.42-.84,1.79.52,3.92,1.3,5.78,2.56,6,5.3,12.36,10.94,16.67,9.18,7,23,6.69,35.34,6a6.2,6.2,0,0,0,2.9-.61c1.34-.81,1.5-2.37,1.73-3.73.93-5.83,4.37-11.12,6.62-16.68s3.17-12.1-.62-17C154.66,353.79,133.33,348.79,124,351.12Z"/><path class="cls-3" d="M175.21,239.3l-.79,6.08-9.22,1.29s-1-2.14-2.41-5.42l12.26-2.3Z"/><path class="cls-3" d="M184.93,373.58l5.36-6.22-1.07-34.3a55.64,55.64,0,0,0,1.07-7.51c.21-3.65-2.68-11.79-2.68-11.79a25.54,25.54,0,0,1,1.82-4.72c1.29-2.57-1.81-8.36-1.81-8.36s-4.62-15-2.69-22.51-.47-11.79-.47-11.79-1.88-8.36-1.67-11.79-4.29-6.65-4.29-6.65l-3.43-8.36-13.72,2.57V271.1s.86,27.66,0,33a19.61,19.61,0,0,0,1.71,10.5s-1.5,7.93-.21,10.93,3.86,10.29,3.86,10.29a16.72,16.72,0,0,0,.43,7.82c1.29,3.76,0,5.9,0,5.9Z"/><rect class="cls-3" x="181.92" y="135.56" width="58.53" height="76.32"/><rect class="cls-7" x="181.92" y="135.56" width="58.53" height="76.32"/><rect class="cls-8" x="76.17" y="224.14" width="58.53" height="76.32" transform="matrix(0.97, -0.25, 0.25, 0.97, -62.5, 34.89)"/><rect class="cls-7" x="211.18" y="144.44" width="58.53" height="76.32" transform="translate(-27.47 43.4) rotate(-9.76)"/><polygon class="cls-9" points="221.14 199.7 233.03 197.49 235.69 214.23 223.81 216.44 221.14 199.7"/><polygon class="cls-8" points="237.59 196.64 249.47 194.43 252.14 211.17 240.25 213.38 237.59 196.64"/><polygon class="cls-8" points="216.93 176.05 258.61 168.32 261.29 185.14 219.6 192.87 216.93 176.05"/><polygon class="cls-9" points="214.13 157.67 255.81 149.94 256.41 153.69 214.73 161.42 214.13 157.67"/><polygon class="cls-9" points="215.5 166.1 257.18 158.37 257.78 162.12 216.1 169.85 215.5 166.1"/><path class="cls-4" d="M214.83,114.82s-26.9,27-13.4,33.87,22.3-22.83,22.3-22.83l2.14-6.75Z"/></g></g></svg>