<svg xmlns="http://www.w3.org/2000/svg" viewBox="0 0 499.45 399.97"><defs><style>.cls-1{fill:#414b54;}.cls-1,.cls-2,.cls-3,.cls-4,.cls-5{stroke:#333e48;stroke-miterlimit:10;stroke-width:3px;}.cls-2{fill:#fc6;}.cls-3{fill:#71787f;}.cls-4{fill:#d4d5d7;}.cls-5{fill:#333e48;}</style></defs><title>runner</title><g id="Layer_2" data-name="Layer 2"><g id="Layer_2-2" data-name="Layer 2"><rect class="cls-1" x="1.5" y="357.33" width="496.45" height="4.33"/><rect class="cls-1" x="1.5" y="394.14" width="466.25" height="4.33"/><path class="cls-1" d="M405.81,361.31c.29-.48,7.22-12,9.62-36.07,2.2-22,.79-59.19-18.48-111-36.5-98.17,8.41-177.37,8.87-178.16l-2.22-1.29c-.12.2-11.7,20.39-18.55,52.55a229.26,229.26,0,0,0,9.5,127.79c36.44,98,9.35,144.39,9.07,144.85Z"/><circle class="cls-2" cx="414.79" cy="18.14" r="16.64"/><circle class="cls-2" cx="367.59" cy="75.12" r="16.64"/><circle class="cls-3" cx="403.44" cy="116.09" r="16.64"/><circle class="cls-3" cx="359.91" cy="150.66" r="16.64"/><circle class="cls-2" cx="416.24" cy="204.44" r="16.64"/><path class="cls-1" d="M385.2,361.8s13.3-32.73-26.59-57.27Z"/><circle class="cls-4" cx="328.94" cy="241.74" r="19.61"/><path class="cls-5" d="M325.38,217.34a19.9,19.9,0,0,1,11.42.23,19.43,19.43,0,0,1,9.09,7.44A46.64,46.64,0,0,1,351,235.74a37.52,37.52,0,0,1,1.84,6.29A21.52,21.52,0,0,1,349,258.45c.57-1.51-.87-3.17-2.46-3.49s-3.2.23-4.77.65a29.45,29.45,0,0,1-8.46,1,5.89,5.89,0,0,1-3.15-.75c-2.85-1.9-1.34-6.82-3.71-9.3a11,11,0,0,0-3.14-1.85c-3.92-2-6.51-6-7.73-10.24-.76-2.65-2.66-10.26-1-12.72C316,219.51,322.9,218,325.38,217.34Z"/><path class="cls-4" d="M275.57,220.11a11.67,11.67,0,0,1,8.93.5c5.12,2.4,14.16,8.21,13.82,19.21-.48,15.31-5.74,25.35-5.74,25.35l1,31.09,4.78,56.45s23.44,19.13,14.35,23.92-24.4-23-24.4-23l-12-32.05L272,290.53s-7.18-32.53,0-46.88C272,243.65,263.72,224.44,275.57,220.11Z"/><path class="cls-4" d="M218.44,269.48s8.13,34.44-20.57,44-66.49,25.83-66.49,25.83l-4.78,8.13-11-14.83,1.91-11.48,18.66-5.26s34.92-26.79,50.23-28.7l-1.91-17.7Z"/><path class="cls-4" d="M142,241.84l-10.14,16.64s-33.49,19.13-42.1,32.05-29.18,26.79-29.18,26.79l9.09,21.53s25.83-30.14,36.83-33,59.79-42.1,59.79-42.1Z"/><path class="cls-3" d="M232.28,183.53c3.73.59,7.47,1.17,11.16,2a136.62,136.62,0,0,1,24.86,8.6A291,291,0,0,1,301,211a63.26,63.26,0,0,1,8.12,5.51,14.79,14.79,0,0,1,4.22,5.06,16,16,0,0,1,1.11,4.41,39.42,39.42,0,0,1-.73,16,24.72,24.72,0,0,1-8.67,13.24,14.29,14.29,0,0,1-3.75,2.08,21.85,21.85,0,0,1-5.58.94c-6,.48-12.34.92-17.93-1.42-3.55-1.49-6.55-4-9.82-6-13.83-8.61-31.4-8.25-46.53-14.31a9.9,9.9,0,0,1-4-2.48,10.8,10.8,0,0,1-1.73-3.44L210,214.66c-1.21-3.35-2.42-6.71-3.44-10.13-1.06-3.57-1.91-7.21-2.76-10.84-.73-3.13-1.48-6.4-1.2-9.63.41-4.77,1.51-5,5.89-4.27Z"/><path class="cls-4" d="M289.92,220.11a11.67,11.67,0,0,1,8.93.5c5.12,2.4,14.16,8.21,13.82,19.21-.48,15.31-5.74,25.35-5.74,25.35l1,31.09,4.78,56.45s23.44,19.13,14.35,23.92-24.4-23-24.4-23l-12-32.05-4.31-31.09s-7.18-32.53,0-46.88C286.36,243.65,278.07,224.44,289.92,220.11Z"/><path class="cls-5" d="M206.88,179.57s-42.5-3.85-40.58,22.46,16.26,71.75,16.26,71.75l36.83,1.91s4.78-31.09-1.91-41.62Z"/><path class="cls-5" d="M177.3,188.16A47.9,47.9,0,0,0,161,208.25c-5.74,13.39-23,39.7-23,39.7L166.29,268l21-21.53Z"/><path class="cls-5" d="M126.59,337.41s9.09,3.35,2.87,10a60.57,60.57,0,0,0-9.57,13.87s1.91,12.44-6.22,12-11.48-17.22-9.57-23,4.31-33,4.31-33,16.74,1.44,16.26,3.83S121.81,335.5,126.59,337.41Z"/><path class="cls-5" d="M69.67,327.84s8.61,4.31,6.22,8.13-10,14.83-10,14.83,2.87,14.35-5.26,15.79-12.92-17.22-11.48-21,1.44-18.66,1.44-18.66-.48-14.83,4.31-14.83S67.75,314,67.75,314,65.84,327.37,69.67,327.84Z"/><rect class="cls-3" x="344.9" y="353.77" width="13.87" height="24.21"/></g></g></svg>