<svg xmlns="http://www.w3.org/2000/svg" viewBox="0 0 140.8 65.15"><defs><style>.cls-1{fill:#fc6;}</style></defs><title>shadow2</title><g id="Layer_2" data-name="Layer 2"><g id="Layer_1-2" data-name="Layer 1"><path class="cls-1" d="M43.23,3c-.28.06-.46.19-.5.33.11.59-.86.59-1.56.55-1.9-.11-3.75.44-5.67.06a4.66,4.66,0,0,0-1.27.13c-.91.14-1.81.3-2.73.43-3.07.45-6.21.94-8.42,2-3.91,1.94-7.47,4-9.91,6.47a19.24,19.24,0,0,1-3,2.63C6.88,17.81,5.52,20.33,4,22.79A37,37,0,0,0,.84,30.21a12.16,12.16,0,0,0-.58,7c1,4.35,2.18,8.67,6.83,12.6a50.65,50.65,0,0,0,16.34,9A113,113,0,0,0,51.32,64.5c3.24.27,6.55.37,9.84.46,4.2.11,8.39.15,12.57.18A49,49,0,0,0,79.29,65c3.46-.38,6.85-.89,10.26-1.36a99.08,99.08,0,0,0,26.25-7.29c4.66-2,8.3-4.57,12.38-6.88a4.42,4.42,0,0,0,1-.87c2.42-2.54,4.72-5.11,7.26-7.63,3.6-3.57,4-7.38,4-11.22v-4c1-2.39-.76-4.8-3.34-7.14-4.72-4.31-11.39-7.87-19.37-10.89-7.71-2.91-16.73-4.76-26-6.35A84.84,84.84,0,0,0,77.19,0c-4.45,0-8.92.24-13.35.48C56.73.88,50.06,2.1,43.23,3Z"/></g></g></svg>