<svg xmlns="http://www.w3.org/2000/svg" viewBox="0 0 140.72 58.59"><defs><style>.cls-1{fill:#fc6;}</style></defs><title>shadow1</title><g id="Layer_2" data-name="Layer 2"><g id="Layer_1-2" data-name="Layer 1"><path class="cls-1" d="M.34,35.33l.54,1.14q-.52-.62.32-.57c.31,1.07.41.59-.32.54l.51,1.09c0-1,1.28,1.18-.05,0C6.56,50.92,44.8,58,72,58.44q-2.36.12-1.87-.45c3.11,0,2.78-.12,1.9.46h0l4,0c-.82.48,2.07-1.16-.11,0,17.92.43,35.46-3.14,47.28-9.24,5.79-3,21-11.12,16.74-15.73,0,0,1.13-10.58-6.82-17.49-5-4.35-14-6.89-21.49-9.32C98.7,2.55,93.92.3,77.25,0,30.54-.75-3.82,15.76.34,35.33Z"/></g></g></svg>