<svg xmlns="http://www.w3.org/2000/svg" viewBox="0 0 523.17 487.54"><defs><style>.cls-1{fill:#f2f2f2;fill-rule:evenodd;isolation:isolate;}</style></defs><title>spot2</title><g id="Layer_2" data-name="Layer 2"><g id="Layer_2-2" data-name="Layer 2"><path class="cls-1" d="M517.07,192.94a83,83,0,0,0-2-9.37l0,0c-.16,1.56-.3,3.12-.44,4.67h-.76c-.29-2.32-.57-4.63-.87-7,.25-.07.51-.14.76-.24.43.84.87,1.69,1.31,2.53v0l0,.08,0,.1-1.93-9c0,.8-.06,1.62-.1,2.43-.28,0-.56.07-.84.12-.42-1.77-.82-3.53-1.24-5.3l.76-.22q.77,1.55,1.54,3.13c-.75-4.61-1.32-9.26-2.34-13.81a27.94,27.94,0,0,0-2.88-6.78c-.79-1.46-2.24-2.58-3-4-2.63-4.77-5.14-9.59-7.59-14.44-1.62-3.19-5.58-5.6-3.37-10.12.19-.4-.46-1.36-.89-1.93-3.39-4.45-6.3-9.45-10.37-13.17-5.87-5.38-12-10.45-18.32-15.33.95-.39,1.89-.8,2.93-1.23-1.82-6.5-8.2-5.34-12-8,.77-1.48,1.4-2.7,2.1-4.08-5.22-4.22-12-5.93-15.8-12.31-2.18-3.66-7.12-5.67-10.86-8.38-.92-.67-2-1.55-3-1.61-7.29-.53-12.07-5.81-16.37-10.29A68.94,68.94,0,0,0,386.76,33a56.38,56.38,0,0,1-5.43-2.69c-3.59-1.92-7.06-4.09-10.74-5.77-6.65-3-13.45-5.74-20.17-8.57-7-3-13.93-5.91-21.13-8.93-.43,2.07-.73,3.39-1,4.59C308,8.53,288,5.33,267.85,2.48c-5.07-.72-10.3-.34-15.44-.46l-.07,0c2.4.82,4.78,1.62,7.17,2.46-.1.38-.2.78-.29,1.18L248,4.44c0-.43-.08-.85-.11-1.28L252.33,2l-.06,0h.13l.15,0c-5-.11-9.94-.24-14.91-.35l3.79,1.06c-.05.46-.09.92-.14,1.38L232.52,4c0-.42,0-.84-.06-1.26L238,1.49C230.43,1,222.91.09,215.38,0c-3.91-.06-7.9,1-11.72,2-2.61.69-4.89,2.55-7.49,3.26-8.46,2.34-17,4.47-25.53,6.5-5.59,1.32-10.87,6.68-17.17,1.5-.56-.45-2.29.2-3.34.68-8.28,3.65-17.24,6.34-24.61,11.34-13.78,9.33-26.94,19.63-39.81,30.19C63.72,73.54,47,96,33.44,120.9c-1.37,2.53-1.63,5.29-5.9,6.5-3.53,1-5.83,6.37-8.66,9.8,3.28,4.91-2.55,6.17-3.8,9.26-1,2.39-3,4.42-3.7,6.85C8,165.54.48,176.62,1.12,190c.07,1.38-.1,16.43.42,17.58.08.18,1,0,1.54,0,.08-.22.15-.41.22-.62C5,198.56,3,189.3,9.62,182.13A103.42,103.42,0,0,1,3.3,206.94c0,.21-.07.41-.12.62h-.1l-.06.13c2.36,2.43,1.67,4.41-.41,6.76-.89,1-1.33,3.93-.67,4.54,4.3,3.86,1.75,7.53.79,11.76-2.13,9.41-4.88,18.85-.06,28.65,1.72,3.5,2.54,10.08.55,12.19-3.57,3.78-.76,7.35.29,7.79,4.76,1.94,4.65,6.22,4.77,9.54.44,11,7.88,20.79,5.67,32.24-.07.37.56.92.94,1.34,4.63,4.94,5.66,11.66,8.61,17.42,3.78,7.35,1.52,17.41,10.5,22.59,1.89,1.09,2.52,4.5,3.57,6.93.45,1.05.07,2.65.76,3.38q10.06,10.8,20.38,21.38c1.2,1.24,3.24,1.86,4,3.26,4.72,8.23,12.43,12.39,20.63,16.17,3.09,1.42,8,1.45,7.58,7.06,0,.29,2.73.81,5.81,1.68l-7.58-9.53c3.31.65,5.91,1.08,8.46,1.7,2.08.52,4.5.81,6.1,2.06,5,3.92,9,9.28,16.18,9.68a3.84,3.84,0,0,1,2.68,2c1.86,4.25,6,4.27,9.5,5.44,2.24.74,4.54,1.3,6.82,1.93-.13.42-.25.84-.37,1.27l-13-1.62c.14,6.26,3,9.06,8.6,9.7,4.61.55,8.73,2.26,10.31,7.49.18.63,4.06.85,4.09.75,1.65-6.62,7-3.79,10.81-4,2.46-.15,3.41,2,1.44,4.71L151,452.83c-.29.6-.57,1.17-.86,1.75l9.33,6.92c-4.31,5-10.84.47-16.08,3.14,11.95,7.77,25.68,7.39,38,11-.29,4.38-7.55,2.84-5.12,8.72,6.64,1,13.6,2.06,21,3.2,2.3-2.71,2.3-2.67,7.94-1,.75.22,2.29,0,2.43-.32,2.17-6,8.4-3.76,12.32-5.14a30.92,30.92,0,0,1,22.43.26l-3.91,3.54c6.37,0,11.53-.05,16.71,0,9.25.13,18.43-3.31,27.8-.41,2,.64,4.59-.4,6.92-.64,3.16-.34,6.35-.48,9.48-1,5.42-.93,10.87-1.86,16.18-3.29,3.64-1,7-2.89,10.59-4.24C341.5,469.5,357,464.2,372.1,457.86c9.15-3.85,18.36-8.32,26.17-14.3a120.09,120.09,0,0,1,20.27-12.62A41.49,41.49,0,0,0,423,428.3c-.17.33-.34.65-.51,1,.76-.72,1.5-1.46,2.22-2.24s1.69-1.29,2.49-2c.22-.54.43-1.07.66-1.61.77-.95,1.52-1.92,2.22-2.91,7.11-10.1,16-18.38,24.13-27.48,1.74-1.95,4.26-3.81,4.82-6.11,2-8.44,8.41-13.66,13.41-20,2.9-3.65,6.56-7.3,7.75-11.57,2.52-9,8.16-15.8,13.32-23.08,1.3-1.83,2.34-3.85,3.62-5.7,2.47-3.6,4.79-7.3,7.54-10.66,5.39-6.59,7.65-14.62,10.84-22.25a2.8,2.8,0,0,0-.58-2.44q-2.55-2.75-5.18-5.44a42.84,42.84,0,0,0,6-16.93,32.35,32.35,0,0,1,.84-3.67c.63-2.42,1.45-4.84,1.92-7.3.86-4.43,1.52-8.91,2.25-13.36.78-4.63,1.55-9.25,2.36-14l-2.92.06C519.21,218,518.26,205.47,517.07,192.94ZM7,257.38q-.46-2.62-.91-5.24L8,251.9c.06,1.78.13,3.55.19,5.32Zm7-25.51c.73,2.68,1.33,4.81,2,7.17C10.4,237.85,10.4,237.85,14,231.87Zm-1.4,40.06c.48-7.53-3-14.16,3.08-19.33C16,258.68,19.55,265.08,12.58,271.93Zm-.08-70.09c-1.21-6.76.37-12.71,6.12-17.13Q15.57,193.28,12.5,201.85Zm4.62-31.28c2.73-6.65,4.67-11.4,6.74-16.43C30,160.07,29.15,162.23,17.12,170.57ZM78.86,70.72c-.55,7.77-2.77,10.13-12.12,11.68ZM70.39,85.28c-1.87,1.18-3.22,2-5.33,3.4C65.63,84.84,66.5,83.22,70.39,85.28Zm-6,272.86q2.49,2.91,5,5.8c-.49.42-1,.85-1.47,1.28-1.63-2-3.28-3.93-4.91-5.89C63.52,358.94,64,358.55,64.44,358.14ZM58.93,89.62c1,6.56,1,6.56-6.86,10.66C54.73,96.14,56.55,93.32,58.93,89.62ZM54.5,342.81c1.45,1.64,2.82,3.36,4.23,5.06l-2.54,1.26-3-6.1C53.77,342.93,54.36,342.67,54.5,342.81Zm21.92,61.7a109.53,109.53,0,0,1-21.85-19.9c.62-.58,1.24-1.14,1.86-1.69Q67.13,393,77.8,403Zm8.91,5c-1.89-1.1-3.8-2.18-5.69-3.25l1.51-2.51c1.79,1.3,3.59,2.58,5.38,3.86C86.14,408.24,85.74,408.88,85.33,409.51ZM83.57,301.37c-6.69-10.88-10.42-22.77-9.89-35.71-.07-.16-.14-.34-.21-.51s0-.25,0-.38c-3.24-3.22-3.18-7-.68-11,.22,3.67.44,7.35.68,11,.09.09.16.18.25.27s0,.41,0,.62c4.57,11.35,9.08,22.7,13.73,34,1.88,4.58,4.06,9,6.68,14.84C88.12,311,86.23,305.69,83.57,301.37Zm13.08,25.77-5.72-8C94.1,320.26,97.71,321,96.65,327.13ZM97.6,57.38l9.56-7.77C106.09,54.68,102.22,56.47,97.6,57.38Zm6.64,277.31c-1.59-1.47-3.18-3-4.76-4.44l1.44-1.56,4.74,4.47Zm4.11,1.05c7.52,2.07,6.71,9,8.58,14.37l-10.95-10C106.88,338.42,107.65,337,108.35,335.75Zm8.39,52.43c-3.41-3-6.85-6.05-10.27-9.08.45-.51.9-1,1.34-1.52q5.14,4.51,10.33,9Zm9.92-198.6c.21-3.76.37-6.83.56-10.29l6.56,1.84C131.47,183.85,129.33,186.4,126.66,189.58ZM186,19.18c.09.74.19,1.51.29,2.27L176.58,23c-.15-1-.3-2-.45-3C179.41,19.74,182.69,19.46,186,19.18ZM183.22,89.4c-3.71,4.2-8.09,5.63-13.25,1.81C174.39,90.62,178.81,90,183.22,89.4Zm-31.88,19.34c4.6-3.81,7.13-11.32,15.42-8.57Q159,104.45,151.34,108.75Zm14.34,100.51c.49-2.59.17-5.35,1.41-6.66,5.34-5.72,7.55-14.57,18.11-17.16C176.79,192.7,179.08,206.18,165.68,209.26Zm36.21,36.22c-3.58-3.51-6.8-6.3-9.59-9.47s-1.69-6.28,1.69-9.81C195.89,233,205.67,235.56,201.89,245.48Zm-14.69-93-1.11-1.06c.95-1.41,1.58-3.38,2.91-4.16,3.72-2.18,7.77-3.77,11.61-5.79,2.68-1.42,5.19-2.82,8.42.71Zm35.86,309.8-13.53-1c4.75-4.28,9.15-1.87,13.63-.84C223.13,461.07,223.11,461.68,223.07,462.29ZM277.87,226l-10.58-1.37C274.38,220.17,274.52,220.18,277.87,226Zm-8.24,143.23c3.25-3.2,5.85-7.44,11.9-6.1ZM325.92,34.83c-3.74,5.15-8.35,1.39-12.66,1.62C316.93,32.19,321.54,34.3,325.92,34.83Zm-5.19,330.53c-8.76,1.29-17.37,3.6-26,5.54-2.78.62-5.53,1.4-9.31,2.36,1.79-3.47,2.64-5.85,4.1-7.72,1.11-1.43,2.94-2.93,4.61-3.14,6.31-.84,12.71-.95,19-1.78,2.16-.29,4.12-2,6.24-2.87,3.3-1.4,3.76-1.09,5.58,3.15l9.27-1.4C327.53,365,327.44,364.38,320.73,365.36ZM345.95,41c-3.05-.27-7.55-.66-12.37-1.06,5.83-7,9.45-.17,12.37,1.06l1.26.11A1.78,1.78,0,0,1,345.95,41Zm41.81,222c-1.06.86-1.67,1.73-2.32,1.79a17.78,17.78,0,0,0-10.37,3.8c-3.44,2.66-7.88,5.09-13.6,1.85,6.56-6.14,12.94-11.95,19.12-18a100.15,100.15,0,0,0,6.67-7.89l-4.7,4.21c-1.43-5.8.37-11,3.4-11.16,4.94-.28,3.27,3.17,2.53,5.84,1.68.26,3.37.53,6.27,1-3.79,5.94-7.16,11.2-10.5,16.44ZM365.06,59.09c4.26-3.69,5.6,1,7.9,2.22Zm23.75,7.1c-9.77-10.13-23.73-11.31-35.11-17.8-.2-.1-.32-.35-1.12-1.27,5.07-.37,9.5-2.06,12.42,3,.54,1,2.56,1.09,3.94,1.51,11.62,3.62,21.45,10.48,31.32,17.27.6.39.89,1.26,2.3,3.37C396.92,69.89,391.69,69.17,388.81,66.19Zm48.94,334.07c-.83,1.65-1.7,3.27-2.56,4.92,1.08-2.77,2.16-5.54,3.28-8.29,4.92-12.11,10.92-23.73,17-35.31C450.21,374.75,444.17,387.61,437.75,400.26Zm55.56-260c.64,1.93,1.29,3.87,1.94,5.81l-1.34.49c-.78-1.85-1.56-3.72-2.34-5.59Zm1.07,77.31c-.17-.43-.31-.86-.49-1.29,0-.71-.07-1.41-.09-2.13C494,215.27,494.2,216.4,494.37,217.55ZM495.79,264s0,.08,0,.12H496c-.17,2.39-.38,4.76-.63,7.14a15.75,15.75,0,0,0-1.34-.88c.69-2.46,1.22-4.37,1.76-6.27l-.2,0c0-.14.05-.26.08-.39-1-1.88-1.94-3.8-3.2-6.24,0-.15,0-.29.06-.43,4,1.76,4.1,2,3.14,6.68Zm1,.7c0-.18,0-.36,0-.52H497A2,2,0,0,0,496.77,264.7Zm9.18-32.14c-3.65-1.52-2-4.84-2.8-7.39C506.23,226.77,505.63,229.86,505.95,232.56Zm-3.61,25.72c-.5.46-.29,1.71-.35,2.59a53.62,53.62,0,0,1-3.16,14,12.34,12.34,0,0,0-1.6-2c2.47-5.09,2.65-10.64,3.4-16.05,2.19-2,1.55-4,1.32-5.9.09-.12.22-.28.42-.56C503.32,253.38,505,255.82,502.34,258.29Zm2.86-12a1.14,1.14,0,0,1-.11-.79c-.29-1.88-.69-4.63-1.14-7.6,5,2.5,1.44,5.67,1.14,7.6A1.14,1.14,0,0,0,505.2,246.29Z"/></g></g></svg>