<svg xmlns="http://www.w3.org/2000/svg" viewBox="0 0 467.1 469.92"><defs><style>.cls-1{fill:#f2f2f2;fill-rule:evenodd;isolation:isolate;}</style></defs><title>spot1</title><g id="Layer_2" data-name="Layer 2"><g id="Layer_2-2" data-name="Layer 2"><path class="cls-1" d="M445.46,144.3a3,3,0,0,0-2.36-1.66c-4.25.36-4.23-2.88-3.94-5.22.79-6.35-3.13-12.52-.4-18.92.46-1.09-.49-2.84-.94-4.24-1-3.05-2.12-6.05-3.07-9.11-3.2-10.26-6.77-20.72-14.64-28.09C406.19,64,391.29,52.13,373.75,44c-6.45-3-13.07-6-18.85-10.05C339.43,23,321.35,18.44,303.75,13.38c-17.32-5-35.38-7.58-53.23-10.55A182.86,182.86,0,0,0,200.68.91c-31.19,3.35-62.15,7.27-90.37,22.79C85.09,37.56,63.14,55.24,45.92,78.22,25.11,106,10.82,137,4.68,171.3,2.76,182.11,2,193.17,1.36,204.15c-.8,14-1.09,28-1.3,41.95-.09,6.18-.28,12.57,1.12,18.52,2.69,11.55,6.41,22.86,9.78,34.24,10,33.65,28.73,62.44,52.28,87.6C77.79,402,96,414.17,112.57,427.76a27,27,0,0,0,6.24,3.47c18.24,8.09,36.67,15.75,54.73,24.24,25.63,12,52.89,13.37,80.44,13.49,8.91,0,17.84,0,28.85,0,17.15,3.31,34.39-2.55,51.22-11.13,30.87-15.75,56.43-38,78.06-64.65,20.89-25.74,34.1-55.82,45.55-86.69,5.85-15.78,9.55-32.13,9.46-48.87-.08-14.86-1.72-29.76-3.46-44.54C460.82,189.35,452.05,167.09,445.46,144.3ZM134.56,340.49l-14.2-13,9.47-7.65c2.36,7.41,4.33,13.54,6.29,19.68Zm24-240c-1.28-6.64-.58-12.77,4.19-19.39C167.08,90.11,160.79,94.74,158.55,100.45ZM268.31,358.58V335.32C271.88,341.2,271.66,347.91,268.31,358.58Zm15.37,27.59c-3.4-7.55-1.32-15-.78-22.44.51-7.26.82-14.53,1.65-21.79C284.19,356.71,287.22,371.52,283.68,386.17ZM297,301.75l-.36,0V286.68H297Zm2.07-45.51-.83-.43V238.9l.83,0Zm1.6-25.24H300V219.71h.67ZM312.46,370.1l1.78-.32c.35,2.16.71,4.31,1.29,7.88C310.77,374.88,313.2,372.18,312.46,370.1Zm37.19-17.16c-.69-2.7-1.21-4.74-2.22-8.75C350.9,347.56,355.6,348.52,349.64,352.94Zm15.78-57.49c-2.54-4.95-3.44-23.39-1.55-36.06C368,270.95,365.25,282.86,365.42,295.44Zm-.75-67.07V206.65C372.48,216.18,372.61,218.83,364.68,228.37Zm20.84,70c-.66-10.81-2.83-20.11,1.21-29.38C392.67,275.63,392.4,284.15,385.52,298.4Zm15.79,31.12c6.33-21.47,13.47-42.75,14.68-65.47C419,287.65,414.42,309.59,401.3,329.52Z"/></g></g></svg>