<?xml version="1.0" encoding="utf-8"?>
<!-- Generator: Adobe Illustrator 21.0.2, SVG Export Plug-In . SVG Version: 6.00 Build 0)  -->
<svg version="1.1" id="Layer_1" xmlns="http://www.w3.org/2000/svg" xmlns:xlink="http://www.w3.org/1999/xlink" x="0px" y="0px"
	 viewBox="0 0 652.2 527.7" style="enable-background:new 0 0 652.2 527.7;" xml:space="preserve">
<style type="text/css">
	.st0{fill:#9E9E9E;stroke:#333E48;stroke-width:3;stroke-miterlimit:10;}
	.st1{fill:#434343;stroke:#333E48;stroke-width:3;stroke-miterlimit:10;}
	.st2{fill:#868686;stroke:#333E48;stroke-width:3;stroke-miterlimit:10;}
	.st3{opacity:0.1;fill:#414141;stroke:#333E48;stroke-width:3;stroke-miterlimit:10;enable-background:new    ;}
	.st4{fill:#5A5A5A;stroke:#333E48;stroke-width:3;stroke-miterlimit:10;}
	.st5{fill:#686868;stroke:#333E48;stroke-width:3;stroke-miterlimit:10;}
	.st6{fill:#999999;stroke:#333E48;stroke-width:3;stroke-miterlimit:10;}
	.st7{fill:#565656;stroke:#333E48;stroke-width:3;stroke-miterlimit:10;}
	.st8{fill:#E6E6E6;stroke:#333E48;stroke-width:3;stroke-miterlimit:10;}
	.st9{opacity:0.1;fill:#414141;enable-background:new    ;}
	.st10{fill:#838383;stroke:#333E48;stroke-width:3;stroke-miterlimit:10;}
	.st11{opacity:0.1;}
	.st12{fill:#414141;stroke:#333E48;stroke-width:3;stroke-miterlimit:10;}
	.st13{fill:#FFCC66;stroke:#333E48;stroke-width:3;stroke-miterlimit:10;}
	.st14{fill:#999999;}
	.st15{fill:#666666;stroke:#333E48;stroke-width:3;stroke-miterlimit:10;}
	.st16{fill:#D0D0D0;stroke:#333E48;stroke-width:3;stroke-miterlimit:10;}
	.st17{opacity:5.000000e-02;fill:#414141;stroke:#333E48;stroke-width:3;stroke-miterlimit:10;enable-background:new    ;}
	.st18{fill:#D5D5D5;stroke:#333E48;stroke-width:3;stroke-miterlimit:10;}
	.st19{fill:#AAAAAA;stroke:#333E48;stroke-width:3;stroke-miterlimit:10;}
	.st20{fill:#626262;stroke:#333E48;stroke-width:3;stroke-miterlimit:10;}
	.st21{fill:#656565;stroke:#333E48;stroke-width:3;stroke-miterlimit:10;}
	.st22{opacity:5.000000e-02;}
	.st23{fill:#686868;}
	.st24{fill:#E8E8E8;stroke:#333E48;stroke-width:3;stroke-miterlimit:10;}
</style>
<title>students</title>
<g id="Layer_2">
	<g id="Layer_1-2">
		<path class="st0" d="M271.3,310.1c-2.7,11.7-13.3-6-15.7-10.3l-0.5-0.9l1.1-5.4l6.1-2.5c1,0.5,1.9,1.1,2.7,1.8
			C268.4,295.4,273.3,301,271.3,310.1z"/>
		<path class="st0" d="M353.7,290.9c0,0.1,0,0.2-0.1,0.3c0,0.1,0,0.2-0.1,0.3c-1,3.7-7.2,24.3-13.2,18.6c-6.5-6.2-3.4-20.7-3.4-20.7
			l0,0l13.8-1.4l2.7,2.8l0,0L353.7,290.9z"/>
		<path class="st1" d="M345.7,392.4l0.4,39.4c-5.4,8.9-5,16.9-5,16.9l-17.8,0.7c-4.3-2.9-1.2-11.1-1.2-11.1V418
			c0,0-2.8-19.8-1.4-25.3s-5.6-15.6-5.6-15.6l-1-11.1c-3.4-4.4-5-28.8-5-28.8l-3.6-12.3c0.1,0.5,2,10.8,0,12.7s-2.8,10.3-2.8,10.3
			s1.9,23.2,0,27.9s0.5,7.4,0.5,7.4l0.4,24.1c-1,5.1-1,10.4,0.2,15.6c1.9,9.1,0,23.2,0,23.2h-19l0.1-9.8l-3.1-8.3
			c0,0-2.1-34.3-3.8-41.8c-1-4.4-0.4-9,1.8-13c0,0-3.5-5.7-3.4-9.6s-2.7-11.6-2.7-11.6l-4.1-28c0.1-5.4-0.5-10.7-2-15.9
			c-2.4-8-5.9-18.4-5.9-18.4l4,0.4l20.2,1.8c0,0,49-3.3,51.2-0.6c0.5,0.9,0.8,1.9,0.9,2.9c2.2,9.9,5.1,40.9,5.1,40.9
			s5.9,24.2,3.4,26.5s-2.2,10.2-2.2,10.2C347.9,378.8,345.7,392.4,345.7,392.4z"/>
		<path class="st2" d="M304.2,460.9c-0.1,2.2-2.6,2.3-2.6,2.3c-7.2,1.1-8.7,3.9-8.7,3.9c-4.7,4.2-10.9,6.3-17.2,5.8
			c-8.8-0.9-8-2.4-7.5-5.3c0.1-0.5,0.1-1.1,0.1-1.6c0-4,3-5.1,7.8-8.1s4.6-5.5,6.6-7.7s2.2-6.4,2.2-6.4c2.2-3.9,8,0.6,8,0.6
			c0.3,1.4,8.8,1.2,8.8,1.2s1.1,4.5,1.7,4.8c0.4,0.2,0.7,3.7,0.8,6.8C304.3,458.6,304.3,460.1,304.2,460.9z"/>
		<path class="st3" d="M304.2,460.9c-0.1,2.2-2.6,2.3-2.6,2.3c-7.2,1.1-8.7,3.9-8.7,3.9c-4.7,4.2-10.9,6.3-17.2,5.8
			c-8.8-0.9-8-2.4-7.5-5.3c3.9,1,11.5,2.3,15.9,0c6.1-3.3,10.5-5.6,10.5-5.6l9.7-4.9C304.3,458.6,304.3,460.1,304.2,460.9z"/>
		<path class="st2" d="M358.3,472.7c-0.5,0.9-1.3,1.5-2.2,1.8h-0.2c-2.9,0.6-14.2,0.6-14.2,0.6s-11.4-8.8-14.9-9
			c-2.2-0.2-4.1-1.4-5.3-3.2c0,0,0.1-2,0.3-4.4c0.3-2.8,0.7-6.1,1.6-7c1.5-1.6,1.9-3.8,5.3-2.4c0,0,4.9-8.6,10.7-2l6,9.1
			c0,0,1.1,3.8,8.7,7.8c3,1.6,4.4,3.5,4.8,5.3C359.1,470.4,358.9,471.6,358.3,472.7z"/>
		<path class="st3" d="M358.3,472.7c-0.7,0.6-1.4,1.2-2.2,1.8h-0.2c-2.9,0.6-14.2,0.6-14.2,0.6s-11.4-8.8-14.9-9
			c-2.2-0.2-4.1-1.4-5.3-3.2c0,0,0.1-2,0.3-4.4c3.5,1,8.8,2.9,10.3,4.9c2.2,3,8.8,7.3,8.8,7.3s12.4-1.2,17.9-1.4
			C359,470.5,358.9,471.7,358.3,472.7z"/>
		<path class="st0" d="M310,163.8L293.7,181c0,0-19.8-1.5-16.3-7.3c1.8-3,2-9.2,1.9-14.6c-0.1-5.2-0.7-9.7-0.7-9.7
			s27.7-13.8,25.6-0.9c-0.5,2.4-0.5,4.9-0.1,7.4C305.3,162.4,310,163.8,310,163.8z"/>
		<path class="st0" d="M310,140.5c0,11.3-9.2,20.4-20.5,20.4s-20.4-9.2-20.4-20.5s9.2-20.4,20.5-20.4c4.6,0,9.1,1.6,12.7,4.5
			C307.2,128.4,310,134.3,310,140.5z"/>
		<path class="st3" d="M337.8,293.9c-5.1,12.1-37.8,12.4-37.8,12.4v-13.2l-2-0.1c0.9,3.8-1.2,13-1.2,13
			c-25.9,3.6-32.2-11.1-32.2-11.1l0.9-5l20.2,1.8c0,0,49-3.3,51.2-0.6C337.4,292,337.7,292.9,337.8,293.9z"/>
		<path class="st4" d="M300,304.7v-13.2l-2-0.1c0.9,3.8-1.2,13-1.2,13c-19.5,2.8-27.9-4.9-30.8-8.9c-0.5-0.7-1-1.4-1.4-2.2l7.9-44.5
			l1.9-65.4l2.8-11.5l0.7-5.5v-0.1h0.1l2,0.9l12,5.2l13.7-10.4l0.2-0.1l0.7-0.5l1.1,0.9l2.8,2.3l9,58.3c0,0,15.6,44.9,18.6,63
			c0.1,0.7,0.2,1.4,0.3,2C340.4,304.4,300,304.7,300,304.7z"/>
		<circle class="st5" cx="293.5" cy="173.7" r="1.2"/>
		<circle class="st5" cx="294" cy="184.3" r="1.2"/>
		<circle class="st5" cx="295.2" cy="201.5" r="1.2"/>
		<circle class="st5" cx="297.1" cy="220" r="1.2"/>
		<circle class="st5" cx="298.3" cy="237.4" r="1.2"/>
		<circle class="st5" cx="299.5" cy="255.9" r="1.2"/>
		<circle class="st5" cx="299" cy="274.2" r="1.2"/>
		<path class="st3" d="M278.7,255.3c0,0-1.3,17-3.7,22s-3.5,18.9-3.5,18.9l-5.5-0.6c-0.5-0.7-1-1.4-1.4-2.2l7.9-44.5l1.9-65.4
			l2.8-11.5l0.7-5.5h0.1c0.6-0.3,1.4-0.3,2,0l0.3,0.1c-0.1,0.2-0.2,0.5-0.2,0.7c-2.2,6.8-3,19.3-3,19.3s3.1,22.8,3.5,33.4
			S278.7,255.3,278.7,255.3z"/>
		<path class="st6" d="M250.3,205.9l-5,3l-4.6,20.4c0,0-5.8,17.3-1.3,29.7c4.4,12.4,7,19.5,7,19.5s1.8,14.1,4.4,15.2
			s3.8,1.8,3.8,1.8l0.5,3.4c0,0,7.2-2.5,9.8-6.8s-1.9-15-1.9-15s-3.8-9.1-2.8-13.4s-2-15.4-2-15.6s-1.4-6.5,0.7-11.1
			s0.5-19.2,0.5-19.2L250.3,205.9z"/>
		<path class="st3" d="M338.3,290.1c0,0-13.4,5-17.6,0.6s-3.8-25.1-3.8-25.1s-4.1-38.2-6.6-44.5s-1.2-51.6-1.2-51.6
			s-1.7-5.9-3.2-7.4c-0.1-0.1,0.2-0.1,0.2-0.1l1.8,0.4l2.8,2.3l9,58.3c0,0,15.6,44.9,18.6,63L338.3,290.1z"/>
		<path class="st6" d="M339.4,185.4l9.8,5.1c0,0,8.1,21.1,9.4,30.1c0,0,6,24.2,1.9,34.1s-3.8,29.7-3.8,29.7s-2.4,3.6-3.4,2.7
			s0.4,3.8,0.4,3.8s-18.6,1.7-16.8-1.1c3.8-5.7,5.4-17.4,5.4-17.4s1.8-36.1,0.3-42S339.4,185.4,339.4,185.4z"/>
		<path class="st3" d="M306.9,319.3c6.7,3.8,14.2,6.2,21.9,6.9L306.9,319.3z"/>
		<path class="st3" d="M286.3,332.6c0,0,8,10,11.6,10.3S286.3,332.6,286.3,332.6z"/>
		<path class="st3" d="M297.5,371.8c-0.4,0.2-4.5,9-8.8,9.3S297.5,371.8,297.5,371.8z"/>
		<path class="st3" d="M334.4,391.2c0,0,7.9-1.8,9.6,3.9C344,395,343.5,393.3,334.4,391.2z"/>
		<path class="st3" d="M329.1,423.5c0,0,9.6-2,11.6,0.7S329.1,423.5,329.1,423.5z"/>
		<path class="st3" d="M302,428.1c0,0.1-9.7,2-9.4,3.2s10.4,1.1,10.7-0.9C303.6,429.4,303,428.3,302,428.1L302,428.1z"/>
		<path class="st3" d="M325.9,436.5c0,0,16-2,15,1.4S325.9,436.5,325.9,436.5z"/>
		<path class="st3" d="M302.3,124.5c-0.3,0.3-0.6,0.6-1,0.8c-2.5,1.5-3.2,3.7-4.4,6.3c-1.1,2.4-2.3,4.9-4.6,6.2
			c-2.9,1.7-6.7,1.1-9.7,2.6c-2.7,1.4-4.3,4.3-4,7.4c0.2,1.2,0.5,2.3,0.9,3.4c0.7,2.4,1,4.9,0.9,7.4c0,0.1,0,0.1,0,0.2
			c-10.1-5-14.2-17.3-9.2-27.4s17.3-14.2,27.4-9.2C300,122.8,301.2,123.6,302.3,124.5L302.3,124.5z"/>
		<path class="st7" d="M301.8,118.4c-2.2-4.7-7.1-7.7-12.1-9.2c-3.8-1.2-7.9-1.3-11.8-0.2c-2.1,0.8-4.2,1.8-6.2,2.9
			c-3.8,1.9-8,3.4-10.8,6.6c-0.7,0.7-1.1,1.6-1.1,2.6c0.3,0.7,0.6,1.3,1.1,1.9c0.7,1.5,0.7,3.3,0.1,4.8c-0.7,1.5-1.3,3-1.8,4.6
			c-0.5,1.6-0.1,3.4,1,4.6c0.6,0.5,1.2,0.9,1.8,1.2c0.6,0.6,1.2,1.2,1.7,1.9l3.4,4.6c1.6,2,3,4.2,4.2,6.5c0.7,1.7,1.6,3.4,2.6,5
			c1.1,1.6,2.8,2.5,4.7,2.5c0.3,0,0.6-0.1,0.8-0.4c0.1-0.1,0.1-0.3,0.1-0.5c0.1-2.5-0.2-5-0.9-7.3c-0.4-1.1-0.7-2.2-0.9-3.4
			c-0.3-3.1,1.3-6,4-7.4c3-1.5,6.8-0.9,9.7-2.6c2.2-1.4,3.5-3.9,4.6-6.2c1.2-2.6,1.9-4.8,4.4-6.3S303,120.8,301.8,118.4z"/>
		<path class="st3" d="M283.3,179.1l8.8-6.1c0,0-12.8-7.6-14.3-6.5s-2.6,10.6-2.6,10.6L283.3,179.1z"/>
		<path class="st8" d="M283.3,178.7l8.8-6.2c0,0-12.8-7.6-14.3-6.5s-2.6,11.2-2.6,11.2L283.3,178.7z"/>
		<path class="st5" d="M279.2,166l-0.3-0.1c-0.8-0.4-1.8-0.3-2.5,0.3l-26.3,21.3c0,0-5.7,7.9-4.9,21.5l15.5,21.9c0,0,1.8-7.4,3.9-6
			c0,0,3,38.1,0,43.5s-4.3,26-4.3,26l10.2,1.1c0,0,1.1-13.9,3.5-18.9s3.7-22,3.7-22s2.1-24.7,1.8-35.4s-3.4-33.5-3.4-33.5
			S276.8,172.5,279.2,166z"/>
		<path class="st8" d="M305.3,174.7l-10.9-4c0,0,13.9-15.2,15.6-6.8L305.3,174.7z"/>
		<path class="st5" d="M306,160.7l29,6.2c0,0,8,1.8,13.7,21.8s-7.9,44.5-7.9,44.5l-3-2.6l1.5,58.4c0,0-13.4,5-17.6,0.6
			s-3.8-25.1-3.8-25.1s-4.1-38.2-6.6-44.5s-1.3-51.6-1.3-51.6S306.4,162.4,306,160.7z"/>
		<path class="st3" d="M301.6,118.4c-1.4-2.8-3.6-5.1-6.4-6.7c2,1.5,3.7,3.4,4.8,5.6c1.2,2.5,0.9,5-1.5,6.4s-3.2,3.7-4.4,6.3
			c-1.1,2.4-2.3,4.9-4.6,6.2c-2.9,1.7-6.7,1.1-9.7,2.6c-2.7,1.4-4.3,4.4-4,7.4c0.2,1.1,0.5,2.3,0.9,3.4c0.7,2.4,1,4.9,0.9,7.4
			c0,0.2,0,0.3-0.1,0.5c-0.2,0.2-0.4,0.4-0.7,0.4c-0.8,0.1-1.5-0.1-2.2-0.4c1,1,2.4,1.5,3.8,1.5c0.4,0.1,0.8-0.2,0.8-0.6
			c0-0.1,0-0.1,0-0.2c0.1-2.5-0.2-5-0.9-7.4c-0.4-1.1-0.7-2.2-0.9-3.4c-0.3-3.1,1.3-6,4-7.4c3-1.5,6.8-0.9,9.7-2.6
			c2.2-1.4,3.5-3.9,4.6-6.2c1.2-2.6,1.9-4.8,4.4-6.3S302.9,120.8,301.6,118.4z"/>
		<path class="st9" d="M415,450l8.9,1.8l6.6-5.8v-1.4c0,0.6-0.4,1.2-0.9,1.5l-0.1,0.1c-3.1,1.6-6.5,2.3-10,2l-3.5-0.3
			c-0.3,0-0.6,0.1-0.9,0.2v0.5L415,450z"/>
		<polygon class="st10" points="438.1,448.8 437.2,466.1 431.4,464.6 430.1,457.4 		"/>
		<polygon class="st3" points="438.1,448.8 437.2,466.1 431.4,464.6 430.1,457.4 		"/>
		<path class="st6" d="M459.5,468.4l8.9,1.8l6.6-5.8V448l0.1-2.2v-0.1l0,0v-0.5l1.2-18.2c0,0,8.9-30.3,10.3-36.1
			c1-4.1,0.6-16.6,0.2-23.5c-0.1-2.8-0.2-4.7-0.2-4.7L467,358l-0.4,15l-1.4,52.8c-0.1,3.4-0.8,6.7-2,9.8l-0.1,0.2
			c-1.7,4.4-2.7,9.1-2.9,13.8l-0.7,16.8v0.5V468.4z"/>
		<path class="st3" d="M475.1,445.2v0.5l0,0V445.2L475.1,445.2z"/>
		<path class="st2" d="M473.9,465L473.9,465c0.7-0.3,1.1-0.9,1.1-1.6l0.1-17.6c0,0,1.9-1.4,1.5,4.8s-0.8,15.5-0.8,15.5
			s-0.1,10.1-9.7,10.1c0,0-9.6,1.8-9.6-3.7s4-5.7,4-5.7l3.5,0.3C467.4,467.3,470.9,466.6,473.9,465z"/>
		<path class="st6" d="M413.2,464.6c0.2,4,11.9,1.7,11.9,1.7L433,451c0,0,6.6-5.1,3.3-9.5c-0.2-0.2-0.3-0.5-0.5-0.8l0,0l0,0
			c-0.1-0.1-0.1-0.2-0.2-0.4l0,0c-2.4-4.7-1.2-12.4-1.2-12.4s3.1-22.4,4.1-28.3c0.8-4.2,0.4-17.8,0.2-25.5c-0.1-3.2-0.2-5.3-0.2-5.3
			l-19.5-5.2v5.8c0,4.8-0.2,11.5-0.7,15.9c-0.8,7.4,2.1,32,2.1,32l1,22.4c0.2,3.8-0.7,7.6-2.5,10.9c-2.4,4.5-5.6,10.8-5.9,13.5
			C413.2,464.4,413.2,464.5,413.2,464.6z"/>
		<path class="st3" d="M413.2,464.6c0.2,4,11.9,1.7,11.9,1.7L433,451c0,0,6.6-5.1,3.3-9.5c-0.2-0.2-0.3-0.5-0.5-0.8
			c-0.1,2.3-2.6,8.1-2.6,8.1s-6.5,13-8.6,16s-11.1-0.6-11.4-0.7C413.2,464.3,413.2,464.5,413.2,464.6z"/>
		<path class="st2" d="M435.6,440.3c0,0,3.9-0.9,2.7,9.1l0,0c0.1,2.3-1,4.5-3,5.7c-4.5,3-7.8,7.5-9.2,12.7l0,0c0,3.2-2.2,6-5.4,6.8
			c-3.5,0.8-7.8,1.5-10.3,0.8c-4.7-1.3-2.6-4.5-2.6-4.5l5.4-6.4c0,0,9.3,3.7,11.4,0.7s8.6-16,8.6-16S436.8,441.2,435.6,440.3z"/>
		<path class="st3" d="M467,359.8l-0.4,15.1c5.2-0.5,9-1.2,9.6-2.2c1.4-2.1,6.4-3,10.7-3.4c-0.1-2.8-0.2-4.7-0.2-4.7L467,359.8z"/>
		<path class="st3" d="M419.1,371.4c0.5-1,1.2-1.9,2.1-2.6c2.1-1.1,1.8,7.4,1.8,7.4s6.9,0.1,15.7,0c-0.1-3.2-0.2-5.3-0.2-5.3
			l-19.5-5.2C419.1,365.5,419.1,368,419.1,371.4z"/>
		<path class="st1" d="M416.9,373.4c0,0,2.3-6.2,4.4-7.4s1.8,7.4,1.8,7.4s50.5,0.5,53.1-3.5s17.2-3.7,17.2-3.7s-0.5-48.7-1.6-67.1
			s-3-35.1-7.6-40.2c-3-3.3-7.2-13.9-9.8-20.9c-1.4-3.9-2.4-6.7-2.4-6.7l-48.2,2.8l-0.4,3.9l-5.1,51.2c0,0-0.7,56.5-2.8,69.4
			S416.9,373.4,416.9,373.4z"/>
		<g class="st11">
			<path class="st12" d="M472.2,369.9c2.5-3.9,17.2-3.7,17.2-3.7s-0.5-48.7-1.6-67.1s-3-35.1-7.6-40.2c-3-3.3-7.2-13.9-9.8-20.9
				c-1.2-3.2-2-5.7-2.3-6.4l3.8-0.2c0,0,0.9,2.8,2.4,6.7c2.6,7.1,6.8,17.6,9.8,20.9c4.6,5,6.4,21.8,7.6,40.2s1.6,67.1,1.6,67.1
				s-14.7-0.2-17.2,3.7c-2.2,3.3-39.4,3.5-50.1,3.5C439.8,373.3,470.3,372.9,472.2,369.9z"/>
			<path class="st12" d="M417.4,366c0.9-0.5,1.4,0.9,1.6,2.7c-0.8,1.5-1.6,3.1-2.2,4.7c0,0-1.3-0.7-1.9-4.4
				C415.5,367.8,416.3,366.8,417.4,366z"/>
		</g>
		<path class="st7" d="M431.8,113.5c-3.3,4.6,0,11-3.5,15.5c-1.2,1.5-3,2.5-4.2,3.9c-2.3,2.7-2.2,6.3-1.1,9.4s3.1,6,4.5,9
			c0.6,1.3,1.1,2.8,0.5,4.1c-0.6,0.9-1.3,1.7-2,2.4c-2.3,2.6-2.4,6.1-1.1,9.2s3.6,5.6,5.9,8.2c0.9,1,2.1,2.1,3.6,2.1
			c0.8-0.1,1.6-0.3,2.3-0.7c11-5.6,15.7-18.9,10.5-30.2c-1.9-4.6-5.2-9.1-5.2-14c0-3.9,2-7.6,2.4-11.5c0.4-4.7-2.4-12.2-8-14.3
			C436.6,109.6,433.5,111.2,431.8,113.5z"/>
		<path class="st3" d="M431.8,113.5c-3.3,4.6,0,11-3.5,15.5c-1.2,1.5-3,2.5-4.2,3.9c-2.3,2.7-2.2,6.3-1.1,9.4s3.1,6,4.5,9
			c0.6,1.3,1.1,2.8,0.5,4.1c-0.6,0.9-1.3,1.7-2,2.4c-2.3,2.6-2.4,6.1-1.1,9.2s3.6,5.6,5.9,8.2c0.9,1,2.1,2.1,3.6,2.1
			c0.8-0.1,1.6-0.3,2.3-0.7c11-5.6,15.7-18.9,10.5-30.2c-1.9-4.6-5.2-9.1-5.2-14c0-3.9,2-7.6,2.4-11.5c0.4-4.7-2.4-12.2-8-14.3
			C436.6,109.6,433.5,111.2,431.8,113.5z"/>
		<path class="st3" d="M468.8,279.1c-6.7,0.4-13,3.2-18.8,6.5s-11.5,6.9-17.8,9.2"/>
		<path class="st3" d="M464.7,294.9c-6.6,0.6-12.8,3.6-17.4,8.4c-1.6,1.7-3,3.6-4.7,5.3c-2.6,2.5-5.8,4.3-9.3,5.3"/>
		<path class="st3" d="M466.1,306.9c-5.3,1.5-10.2,4.4-14,8.4c-1,1.1-2,2.3-3,3.4c-5.5,5.9-13.4,9.1-20.9,12.1"/>
		<path class="st6" d="M465.5,140.6c0.1,5.4,0.6,10.7,1.4,16c0.6,3.8,1.5,7.1,2.8,8.6c3.7,4.4-17.9,10.2-17.9,10.2l-12.7-9.9
			c0,0,10.1-9.3,5.4-18.4S465.5,140.6,465.5,140.6z"/>
		<path class="st3" d="M423.4,238h51c-1.4-3.9-2.4-6.7-2.4-6.7l-48.2,2.8L423.4,238z"/>
		<path class="st4" d="M420.1,237.1h54.5c-1.5-5.5,0-10.6,2.2-14.5c1.5-2.7,3.5-5.2,5.7-7.4l0.4-0.3l19-4.2l1-0.2
			c0,0,0.2-34.6-12.1-39.4c-7.1-2.7-13.7-6.4-19.6-11.2l-16.8,5.2l-12.4-6.2c-4,4.3-14.5,2.6-14.5,2.6c-17.3,2-17.3,15-17.3,15
			s10.1,23.6,10.9,23.6S420.1,237.1,420.1,237.1z"/>
		<path class="st3" d="M438.9,215.1c0,0-11.1-2.5-14.9-6.8"/>
		<path class="st3" d="M495,202.2l-12.9,10.6c0.1,0.8,0.2,1.7,0.4,2.5l0.4-0.3l19-4.2L495,202.2z"/>
		<path class="st3" d="M460.1,233.4c0,0,2.8,1.6,7.1,3.7h7.4c-1.5-5.5,0-10.6,2.2-14.5l-13.1-4.2
			C468.2,222.6,460.1,233.4,460.1,233.4z"/>
		<path class="st4" d="M417.8,172.3l-7.6,4.1l-7.5,19c0,0-7.8,20.8-7,26.3c0,0-2.8,13,2.1,15.3l12.8,5.8c0.6,0.3,1.3,0,1.6-0.6
			c0.1-0.3,0.1-0.7,0-1c-1.8-3.4-3.8-8.8-0.6-11.8l-3.7-7.6L421,200l4.4-7.5L417.8,172.3z"/>
		<path class="st3" d="M434.8,210.8c0.7,2.7,2.9,6.9,10.3,8.4l8.1,6.7l8.6,3.9l3.5,1.6l1.5-10.8l-3.4-1.9l-4-2.2
			c0,0-8.9-16.2-23.1-9.4C435.1,207.8,434.5,209.3,434.8,210.8z"/>
		<path class="st6" d="M435.3,209.8c0.7,2.7,2.9,6.9,10.3,8.4l8.1,6.7l8.7,3.9l3.5,1.6l1.5-10.8l-3.4-1.9l-3.9-2.1
			c0,0-8.9-16.2-23.1-9.4C435.7,206.9,435,208.4,435.3,209.8z"/>
		<circle class="st3" cx="451.2" cy="134.9" r="19.8"/>
		<circle class="st6" cx="451.2" cy="134.4" r="19.8"/>
		<path class="st3" d="M463.5,176.6l-5.9-11.5c0,0,8.7-3.5,9.3-7.6s8.3,4.8,6.7,7.7S463.5,176.6,463.5,176.6z"/>
		<path class="st4" d="M463.5,175.7l-5.9-11.5c0,0,8.7-3.5,9.3-7.6s8.3,4.8,6.7,7.7S463.5,175.7,463.5,175.7z"/>
		<path class="st13" d="M414.9,205.5l32.8,44.1c0,0-12.1,6.6-28.8-5.2l-7.2-8.6l-20.5-34.6L414.9,205.5z"/>
		<path class="st6" d="M408.4,229.5l3-0.1c0,0,18.3-17.7,22.8-8.8S422.8,238,422.8,238l-4.8,2.6l-6.3,1.9l-4-5.4L408.4,229.5z"/>
		<path class="st3" d="M412.8,239.1c0.4,1,0.4,2.1,0.1,3.1c-0.1,0.3-0.3,0.5-0.5,0.6s-0.4,0.1-0.6,0.1c-1.6-0.1-3-0.8-4.1-2
			c-1-1.2-1.9-2.5-2.7-3.9c-0.8-1.4-1.7-3-1.4-4.6s1.9-3,3.4-4c3-2,3.1,0.3,3.8,2.9S412.1,236.5,412.8,239.1z"/>
		<path class="st4" d="M412.4,239.1c0.4,1,0.4,2.1,0.1,3.1c-0.1,0.3-0.3,0.5-0.5,0.6s-0.4,0.1-0.6,0.1c-1.6-0.1-3-0.8-4.1-2
			s-2-2.5-2.7-3.9c-0.8-1.4-1.7-3-1.4-4.6s1.9-3,3.4-4c3-2,3.1,0.3,3.8,2.9S411.6,236.5,412.4,239.1z"/>
		<polygon class="st3" points="421,200.1 422.6,197.5 421.2,202.3 		"/>
		<path class="st3" d="M462.4,228.9l3.5,1.6l1.5-10.8l-3.4-1.9C466.4,220.5,464.3,225.4,462.4,228.9z"/>
		<path class="st3" d="M476.6,216.3c0,0-11.4,0.7-16.2-2.4"/>
		<g class="st11">
			<path class="st12" d="M475.1,223.6c1.5-2.7,3.5-5.2,5.7-7.4c0.5-0.3,1.1-0.6,1.7-0.9l17.7-3.6l1-0.2c0,0,0.2-34.6-12.1-39.4
				c-6.9-2.6-13.3-6.2-19.1-10.8l1.3-0.4c5.9,4.7,12.5,8.5,19.6,11.1c12.3,4.8,12.1,39.4,12.1,39.4h-1.8l-18.1,3.5l-1,1
				c-2.3,2.3-4.2,4.9-5.8,7.7c-2.4,4.4-2.9,9.6-1.5,14.5h-1.9C471.4,232.6,473,227.5,475.1,223.6z"/>
			<path class="st12" d="M426.7,162.5c0.3,0,0.6-0.1,0.9-0.1c1.2,0.2,2.5,0.3,3.8,0.3C429.8,162.7,428.3,162.6,426.7,162.5z"/>
			<path class="st12" d="M452.7,166l-11.2-5.7c0.2-0.2,0.4-0.4,0.6-0.6l11.7,5.9L452.7,166z"/>
		</g>
		<path class="st4" d="M495.5,201.3l7.5,9.2l1.5,25c0,0,2,12.7-12.6,9.6s-31.4-12.5-31.4-12.5s8.1-10.9,3.7-15l20.8,6.7
			c0,0,3.5-0.8,0.8-3.8s-3.2-8.6-3.2-8.6L495.5,201.3z"/>
		<path class="st3" d="M498.8,227.6l4.1,4.8C500.8,231.7,499.2,229.9,498.8,227.6z"/>
		<polygon class="st3" points="491.8,226.9 498.2,235.1 495,235.9 		"/>
		<path class="st3" d="M427.6,125.4c-0.6-1.8-0.3-3.8,0.7-5.4s1.9-3.3,2.7-5c0.9-2.6,0.7-5.6,1.7-8.1c1.8-4.5,7-6.6,11.6-8.1
			c1.3-0.6,2.8-0.8,4.2-0.6c1.9,0.4,3.1,2.2,4.6,3.3c6.3,4.7,16.5-0.5,22.6,4.5c2.3,1.9,3.5,4.9,3.8,7.9c0.2,3,0.2,6,0,9
			c-0.1,5.3,0.9,11,4.8,14.5c1.2,1.1,2.6,1.8,3.8,2.9c1.3,1,1.9,2.6,1.9,4.2c-0.2,0.7-0.4,1.4-0.6,2.1c-0.8,2.8,0.4,5.6,1.8,8.1
			c4.2,7.4,11.8,13.4,20.2,13.6c-0.6,4.3-5,6.8-9,8.5c-5,2.2-10.3,4.4-15.8,4.2s-11.3-3.8-12.2-9.2c-0.3-1.9-0.3-4.1-1.9-5.1
			c-1-0.6-2.2-0.4-3.3-0.9c-1.5-0.6-2.3-2.3-2.8-3.9c-1-3.2-1.6-6.6-1.6-10c-0.1-4,0.5-8.4-1.8-11.7c-2.1-3.1-5.9-4.6-8.3-7.4
			c-2.2-2.6-4.7-5.8-8.4-6.2C441.2,125.8,430.7,132.7,427.6,125.4z"/>
		<path class="st7" d="M427.6,124.4c-0.6-1.8-0.3-3.8,0.7-5.4s1.9-3.2,2.7-4.9c0.9-2.6,0.7-5.6,1.7-8.1c1.8-4.5,7-6.6,11.6-8.1
			c1.3-0.6,2.8-0.8,4.2-0.6c1.9,0.4,3.1,2.2,4.6,3.3c6.3,4.7,16.5-0.5,22.6,4.5c2.3,1.9,3.5,4.9,3.8,7.9c0.2,3,0.2,6,0,9
			c-0.1,5.3,0.9,11,4.8,14.5c1.2,1.1,2.6,1.8,3.8,2.9c1.3,1,1.9,2.6,1.9,4.2c-0.2,0.7-0.4,1.4-0.6,2.1c-0.8,2.8,0.4,5.6,1.8,8.1
			c4.3,7.3,11.7,13.4,20.2,13.6c-0.6,4.3-5,6.8-9,8.5c-5,2.2-10.3,4.4-15.8,4.2s-11.3-3.8-12.2-9.2c-0.3-1.9-0.3-4.1-1.9-5.1
			c-1-0.6-2.2-0.4-3.3-0.9c-1.5-0.6-2.3-2.3-2.8-3.9c-1-3.2-1.6-6.6-1.6-10c-0.1-4,0.5-8.4-1.8-11.7c-2.1-3.1-5.9-4.6-8.3-7.4
			c-2.2-2.6-4.7-5.8-8.4-6.2C441.2,124.9,430.7,131.8,427.6,124.4z"/>
		<path class="st3" d="M441.7,175.2L453,166c0,0-7.8-4.2-8.7-7.8s-7.1,1.7-6.5,4.9S441.7,175.2,441.7,175.2z"/>
		<path class="st4" d="M442.1,173.8l11.3-9.2c0,0-7.8-4.2-8.6-7.8s-7.1,1.7-6.5,4.9S442.1,173.8,442.1,173.8z"/>
		<g class="st11">
			<path class="st12" d="M432.2,111.7c0.9-2.5,0.7-5.2,1.5-7.7c-0.4,0.5-0.7,1.1-1,1.8c-1,2.6-0.7,5.5-1.7,8.1v0.1
				C431.5,113.3,431.9,112.5,432.2,111.7z"/>
			<path class="st12" d="M503.7,173.6c-5,2.2-10.3,4.4-15.8,4.2s-11.3-3.8-12.2-9.2c-0.3-1.9-0.3-4.1-1.9-5.1
				c-1-0.6-2.2-0.4-3.3-0.9c-1.5-0.6-2.3-2.3-2.8-3.9c-1-3.2-1.6-6.6-1.6-10c-0.1-4,0.5-8.4-1.8-11.7c-2.1-3.1-5.9-4.6-8.3-7.4
				c-2.2-2.6-4.7-5.8-8.4-6.2c-5.1-0.7-15.6,6.2-18.6-1.1c-0.5-1.4-0.4-2.9,0.2-4.3c-0.2,0.4-0.4,0.7-0.6,1.1
				c-1,1.6-1.2,3.6-0.7,5.4c3,7.4,13.6,0.4,18.6,1.1c3.7,0.5,6.1,3.7,8.4,6.2c2.4,2.8,6.2,4.4,8.3,7.4c2.3,3.3,1.8,7.7,1.8,11.7
				c0.1,3.4,0.6,6.8,1.6,10c0.5,1.6,1.2,3.3,2.8,3.9c1,0.4,2.3,0.3,3.3,0.9c1.6,1,1.6,3.3,1.9,5.1c1,5.4,6.7,8.9,12.2,9.2
				s10.8-1.9,15.8-4.2c3.6-1.6,7.7-3.9,8.8-7.5C509.6,170.7,506.5,172.3,503.7,173.6z"/>
		</g>
		<circle class="st14" cx="453.9" cy="172.8" r="1.4"/>
		<circle class="st14" cx="453.9" cy="180.5" r="1.4"/>
		<circle class="st14" cx="453.9" cy="188.2" r="1.4"/>
		<path class="st6" d="M635.4,377.6c4.9,14.2-0.8,37.2-3.5,47.5c-1.8,7.4-2.9,15-3.5,22.6c-6,1-12.1,0.9-18.1-0.4l4.3-21.2
			c-3.1-12.5,0-46.1,0-46.1s-7-13-7.6-32.7c-0.6-19.4-5.4-25.7-5.5-25.9l0,0c-9.9,5.1-22.4,60.3-22.4,60.3c1,13.4-0.2,33.9-4.3,45
			c-2.5,7.1-3.5,14.5-3.1,22c-1.4,1.2-3.4,1.4-5.6,1.1c-5.9-1-12.9-6-12.9-6s2.3-60,3.9-62.3s0-15.2,0-15.2l2.7-21
			c0,0-0.4-35.6,3.5-41.8c3.4-5.3,4.2-14.7,4.3-17.1v-0.6l6-7.1c0,0,57.6-4.3,61.9,0c1.1,1.1,1.7,3.5,2.1,6.5
			c1.2,9.3-0.2,24.5-0.2,24.5s-1.7,11.3-4.2,22.8c-1.5,6.9-1.5,14.1,0,21C632.3,361.6,633.1,369.8,635.4,377.6z"/>
		<path class="st15" d="M631.8,467.8c-2.6,3.4-17.7,2-20.3,0.9c-1.6-0.6-1.5-3.6-1-6.6c0.3-1.9,0.7-3.9,0.8-5.4
			c0.4-3.7-0.5-6.9,0.3-10.5c0.4-1.6,4.3-3.1,5.6-3.5c1.8-0.5,3.7-0.4,5.3,0.3c2.7,1.2,7.1,3.6,6.3,7c-1.1,4.7,2.9,11.4,2.9,11.4
			c0.3,0.4,0.6,0.8,0.8,1.3C633.3,464.4,633,466.4,631.8,467.8z"/>
		<path class="st3" d="M631.8,467.8c-2.6,3.4-17.7,2-20.3,0.9c-1.6-0.6-1.5-3.6-1-6.6c1.6,0.8,4.4,1.4,9,1c1.1-0.1,2.2-0.1,3.2-0.1
			c3.3,0.1,6.6,0.1,9.8-0.2C633.3,464.4,633,466.4,631.8,467.8z"/>
		<path class="st16" d="M625.6,165.5l-2.5,12.3l-12.3,20.7l-15.2-6.5c0,0-20.6-21.6-7.6-24.7c1.5-0.3,3-1,4.3-1.9
			c2.3-1.8,3.5-4.6,3.4-7.4c-0.1-3.1-0.8-6.1-2.1-8.8l26.5-8.3c-1.1,3.5-1.7,7.1-1.9,10.7c-0.2,7.2,2.5,10.8,4.7,12.5
			C623.7,164.8,624.6,165.3,625.6,165.5z"/>
		<path class="st3" d="M620,140.9c-1.1,3.5-1.7,7.1-1.9,10.7c-0.5,0.6-1,1.1-1.5,1.6c-5.6,5.3-13.7,7.2-21,4.8
			c-0.1-3.1-0.8-6.1-2.1-8.8L620,140.9z"/>
		<path class="st16" d="M623.1,137.5c0,11.6-9.4,21-21,21s-21-9.4-21-21s9.4-21,21-21l0,0l0,0c11.5-0.1,20.9,9.2,21,20.8l0,0
			C623.1,137.3,623.1,137.4,623.1,137.5z"/>
		<path class="st3" d="M625.6,165.5l-2.5,12.3l-12.3,20.7l-15.2-6.5c0,0-20.6-21.6-7.6-24.7c1.5-0.3,3-1,4.3-1.9
			c-2.3,6.4,7.3,19.8,7.3,19.8c1.1,1.7,3.7,0.6,3.7,0.6c6.2-0.9,17.7-18.8,19.5-21.8C623.7,164.8,624.6,165.3,625.6,165.5z"/>
		<path class="st3" d="M637.5,285.2c-3.7,0.8-23.9,5.3-31.5,4.2c-8.4-1.2-24.8-2-24.8-2s-10.4,0.6-13.7-0.9v-0.6l6-7.1
			c0,0,57.6-4.3,61.9,0C636.4,279.7,637.1,282.1,637.5,285.2z"/>
		<path class="st4" d="M599.6,185.9c0,0-10.8-15-6.8-20.9l-18.3,7.5c0,0-11-1.3-15,15.1c-0.6,2.7-0.9,5.6-0.7,8.4
			c0.2,2.5-0.2,6.9-3,12.5c-4.5,9-3.5,29.8,5.8,31.9s12.5,1,12.5,1s-1.2,37.6-6.6,42s13.6,3.3,13.6,3.3s16.4,0.8,24.8,2.1
			s32.1-4.3,32.1-4.3s-3.5-15.8-4.7-25.9c-1.2-10.1-4.2-31.5-4.2-31.5l21-28.4c0,0,3.7-17.2-9.3-24.8s-17.8-9.5-17.8-9.5
			s-13,21.2-19.8,22.2C603.3,186.5,600.7,187.6,599.6,185.9z"/>
		<path class="st16" d="M606,243.1c0,0-22.7-5.6-24.8-10.3s-8-15.3-8-15.3l2.4-3.2l11,8.7c0,0,13.1,10.5,19.3,11.5
			S606,243.1,606,243.1z"/>
		<path class="st17" d="M606,243.1c0,0-22.7-5.6-24.8-10.3s-8-15.3-8-15.3l2.4-3.2l11,8.7c0,0,13.1,10.5,19.3,11.5
			S606,243.1,606,243.1z"/>
		<path class="st16" d="M625.6,216.3v12.3h-2c-9.8,0-19.4,2.5-28,7.2L592,238l-1,0.6l-6.4-14.4l6-5.4h0.3c1.5,0.1,7.8,0.7,10.4-0.2
			s5.7-3.6,13.2-1.7c3.7,0.9,6.8,5.1,10.4,3.8L625.6,216.3z"/>
		<path class="st4" d="M650.2,198.5v11.2c0,0-3.5,35.4-14.6,39.3s-30.9-2.3-30.9-2.3s-5.1-13.6-2.7-14.4s21.2-5.8,21.2-5.8
			s-0.3-20.8,3.8-26.9"/>
		<path class="st3" d="M617.3,146.4c0.2-1.4,0-2.7-0.5-4s-1.9-2.1-3.3-1.9c-1.8,0.4-2.5,2.7-4.2,3.2c-1.5,0.3-3.1-0.5-3.8-1.9
			c-0.6-1.4-0.8-3-0.7-4.5v-5.1c0-1.9-0.1-3.9-1.2-5.4c-1.4-1.8-4.8-2.6-7-2.6c-1.5,0-2.9,0.6-4,1.6c-1.1,1.1-2.7,1.7-4.2,1.5
			c-1.4-0.2-2.6-1.2-3-2.6v-0.1c6.8-9.4,20-11.4,29.3-4.6c9.4,6.8,11.4,20,4.6,29.3c-0.8,1.1-1.7,2.1-2.7,3.1
			C617,150.6,617.2,148.5,617.3,146.4z"/>
		<path class="st15" d="M588.4,126.8c-1.4-0.2-2.6-1.2-3-2.6c-0.2-0.7-0.1-1.4-0.3-2c-0.5-1.6-2.2-2.5-3.4-3.7
			c-2.3-2.5-2.2-6.5-0.5-9.5c1.3-2.4,3.9-4.4,6.6-3.9c1.7,0.3,3.1,1.5,4.8,1.6s3.1-0.8,4.6-1.5c3.6-1.6,7.6-2,11.4-1
			c1.2,0.2,2.2,0.8,3.1,1.6c0.6,0.8,1.2,1.5,1.7,2.3c1.9,2.4,5.3,2.9,8.4,3.5s6.5,1.8,7.5,4.7c0.7,2,0,4.1-0.4,6.1
			c-0.1,0.4-0.1,0.9,0.1,1.2c0.5,0.8,1.7,0.5,2.6,0.6c1.7,0.4,2.2,2.6,2.2,4.4c0.1,2,0.1,4,0.2,6.1c0.1,0.8,0,1.5-0.2,2.2
			c-0.4,1.1-1,2-1.7,2.8l-6.8,8.1c-3,3.6-6.2,7.8-5.6,12.5c-1.4,0.6-3.1-0.6-3.6-2.1c-0.3-1.5-0.2-3.1,0.2-4.6
			c0.6-2.6,0.9-5.3,1.1-8c0.2-1.4,0-2.7-0.5-4s-1.9-2.1-3.3-1.9c-1.8,0.4-2.5,2.7-4.2,3.2c-1.5,0.3-3.1-0.5-3.8-1.9
			c-0.6-1.4-0.8-2.9-0.7-4.5v-5.2c0-1.9-0.1-3.9-1.2-5.4c-1.4-1.8-4.8-2.6-7-2.6c-1.5,0-2.9,0.6-4,1.6
			C591.5,126.4,590,127,588.4,126.8z"/>
		<path class="st3" d="M590.5,219.4c0,0-2.1,14.4,1.6,20.2c-5.8,2-12,2.9-18.1,2.5l-1.2-22.6L590.5,219.4L590.5,219.4z"/>
		<path class="st3" d="M592,238l-1,0.6l-6.4-14.4l6-5.4h0.3C590.8,219.5,589.1,231.9,592,238z"/>
		<path class="st4" d="M566.9,218.8h23.7c0,0-2.1,14.4,1.6,20.1c-5.8,2.1-12,2.9-18.1,2.5"/>
		<path class="st15" d="M572.8,459c-0.2,2.1-1.9,3.8-4,4.1c-5.6,0.8-19,3-22.4,4.6c-4.3,2.1-21.4,0.6-22.2-1.4
			c-0.2-0.8-0.1-1.7,0.3-2.5c0.6-1.3,1.5-2.3,2.8-3c0.4-0.2,0.8-0.4,1.2-0.5c3.2-1.1,9.3-3.4,10.9-5.7c0,0,7.6-6.6,9.7-10.2
			c0.8-1.4,2.3-2.4,4-2.5c1.8-0.1,3.8,0.8,4.6,4.8c0,0,9.9,5.6,12.5,0.7c0,0,0.4,7.6,2,9.7l0,0C572.7,457.5,572.9,458.3,572.8,459z"
			/>
		<path class="st3" d="M572.8,459c-0.2,2.1-1.9,3.8-4,4.1c-5.6,0.8-19,3-22.4,4.6c-4.3,2.1-21.4,0.6-22.2-1.4
			c-0.2-0.8-0.1-1.7,0.3-2.5c0.6-1.3,1.5-2.3,2.8-3c2.8,1.9,9,3.6,22.5,1.5c13-2,19.4-4,22.5-5.4l0,0
			C572.7,457.5,572.9,458.3,572.8,459z"/>
		<g class="st11">
			<path class="st12" d="M628.9,122.7L628.9,122.7c0.4-1.6,0.6-3.2,0.6-4.8c-0.1,1.3-0.3,2.5-0.6,3.8
				C628.8,122,628.8,122.4,628.9,122.7z"/>
			<path class="st12" d="M616.9,142c0.3,0.7,0.5,1.5,0.5,2.4c0.1-1.1-0.1-2.2-0.5-3.3c-0.5-1.3-1.9-2.1-3.3-1.9
				c-1.8,0.4-2.5,2.7-4.2,3.2c-1.5,0.3-3.1-0.5-3.8-1.9c-0.6-1.4-0.8-3-0.7-4.5v-5.1c0-1.9-0.1-3.9-1.2-5.4c-1.4-1.8-4.8-2.6-7-2.6
				c-1.5,0-2.9,0.6-4,1.6c-1.1,1.1-2.7,1.7-4.2,1.5c-1.4-0.2-2.6-1.2-3-2.6c-0.2-0.7-0.1-1.4-0.3-2c-0.5-1.6-2.2-2.5-3.4-3.7
				c-1.1-1.2-1.7-2.8-1.7-4.4c-0.2,1.9,0.5,3.8,1.7,5.3c1.2,1.2,2.9,2.1,3.4,3.7c0.2,0.6,0.2,1.4,0.3,2c0.4,1.4,1.6,2.4,3,2.6
				c1.6,0.2,3.1-0.4,4.2-1.5c1.1-1,2.5-1.6,4-1.6c2.2-0.1,5.6,0.7,7,2.6c1.2,1.5,1.2,3.5,1.2,5.4v5.1c-0.1,1.5,0.1,3.1,0.7,4.5
				c0.7,1.3,2.3,2.4,3.8,1.9c1.7-0.6,2.5-2.8,4.2-3.2C615,139.9,616.3,140.7,616.9,142z"/>
			<path class="st12" d="M633.8,136.3c-0.4,1.1-1,2-1.8,2.8l-6.8,8.2c-2.9,3.4-5.9,7.4-5.6,11.8c0.2-4,3-7.7,5.6-10.9l6.8-8.2
				c0.8-0.8,1.4-1.8,1.8-2.8c0.2-0.7,0.3-1.5,0.2-2.2C634,135.4,633.9,135.9,633.8,136.3z"/>
			<path class="st12" d="M616.1,157.7c-0.1-0.4-0.2-0.7-0.2-1.1c-0.1,0.7,0,1.4,0.2,2c0.5,1.5,2.2,2.7,3.6,2.1
				c0-0.3-0.1-0.6-0.1-0.9C618.2,160.4,616.5,159.2,616.1,157.7z"/>
		</g>
		<path class="st3" d="M547.7,446.2c0,0,2.2,3.8,9.9,0.5"/>
		<path class="st3" d="M613.6,447.1c0,0,6.7,7.9,15.2,2.6"/>
		<path class="st18" d="M190.4,310.9c0,0-4.8,11.7-6,23c-0.4,4-1,7.7-1.6,10.8c-1.3,6.9-1.8,13.8-1.5,20.8l0.1,2.9l1.6,7.7
			c0,0,3.8,24.9-6.6,43.1c0,0-6.1,11-6.3,16.1l-4.2,1.6l-8.4-2.4c0,0,4.1-14.5,2.7-24.8l0.8-33.1c0,0-5.5-8.3-5.6-23.3l-3.2-41.2
			L190.4,310.9z"/>
		<path class="st18" d="M152.1,305c0,0-1,16.1-9,27.1s-9.6,15.9-9.6,15.9l-9.8,19.8c-1.1,2.3-1.5,4.9-0.9,7.4l1,4.5
			c0,0,5.3,18-0.1,31.8l-2.6,26.8h-15c0,0-1.2-22.3-1.8-24.2s-3.6-38.5-3.6-38.5s-6.2-8.5-0.5-21.6c0,0,13-49.1,16.5-48.3
			S152.1,305,152.1,305z"/>
		<path class="st19" d="M163.7,435.2c2.3,0.9,4.9,0.6,6.9-0.9c-1.4,4-1.6,8.3-0.6,12.5c1.7,6.8-15.9-5.5-15.9-5.5l3.8-8.6
			C157.9,432.8,159.4,435.5,163.7,435.2z"/>
		<path class="st3" d="M165,435.6c2,0.4,4-0.1,5.6-1.2c-1.4,4-1.6,8.3-0.6,12.5c1.7,6.8-15.9-5.5-15.9-5.5l3.8-8.6
			c1,1.4,2.5,2.3,4.3,2.4C163.2,435.3,164.1,435.4,165,435.6z"/>
		<polygon class="st18" points="123.8,276.3 131.2,276.3 131.2,234.6 125.7,233.6 		"/>
		<polygon class="st17" points="123.8,276.3 131.2,276.3 131.2,234.6 125.7,233.6 		"/>
		<path class="st20" d="M159.5,438.4c2.8-0.1,5.4,1.4,6.7,3.9l2.6,2l1.2-2.9c2.7,4.8,3.7,10.3,2.9,15.8c0,0,0.4,2.6-3.5,3.9
			c0,0-2,0.9-1.5,4.5s-7,8.9-16.7,6.7c0,0-8.5,0.2-9.5-1.8s0.7-7.3,0.7-7.3s3.5-5.5,5.1-7.6c0,0,4.2-8.6,4.6-12.5
			S157.1,436.2,159.5,438.4z"/>
		<path class="st19" d="M121.2,441.9l0.1-5.9c0,0-8.4,2.4-15.3-0.3c0,0,0.6,5.9-0.4,6.7s3.2,8.4,3.2,8.4l4.6,4.8l7.9-2.9l2.2-6.8
			C123.5,446,121.8,441.9,121.2,441.9z"/>
		<path class="st3" d="M121.2,441.9l0.1-5.9c0,0-8.4,2.4-15.3-0.3c0,0,0.6,5.9-0.4,6.7s3.2,8.4,3.2,8.4l4.6,4.8l7.9-2.9l2.2-6.8
			C123.5,446,121.8,441.9,121.2,441.9z"/>
		<path class="st20" d="M105.1,439.8c0,0,4.5,0.5,3.9,6.2s0.2,0,0.2,0s4.8,1.9,6.5,4.6s4.8-2.4,5-3.9s2.2-2.1,2.2-2.1
			s7.5,13.9,6.2,17.7s-17.4,4.7-17.4,4.7s-2.9-1.6-9.7,3.5s-20.8,1.2-20.8,1.2s-11.4-4.8-4.5-10s11.7-4.4,11.7-4.4l10.3-10
			C98.7,447.5,100.1,439.5,105.1,439.8z"/>
		<path class="st5" d="M158.8,110.8c2.9,1.7,4.9,4.6,7.6,6.5c3.9,2.8,9,3.8,12,7.5c2.5,3.2,2.8,7.6,2.1,11.6s-2.2,7.8-2.9,11.8
			s-0.6,8.4,1.8,11.7c0.3,0.4,0.7,0.8,1.1,1c0.6,0.1,1.2,0.1,1.7,0c4-0.5,7.9,2.4,9.7,6s2,7.9,1.8,12c0,3.3-0.7,6.7-2,9.7
			c-2.5,5.1-7.7,8.3-12.8,10.7c-3.3,1.6-6.8,3-10.2,4.1c-2.4,0.8-4.9,1.5-7.4,1.1c-4.3-0.7-7.3-4.6-11.4-6.1
			c-3.3-1.2-7-0.8-10.5-0.5c-3,0.3-6.5,0.3-8.5-1.9c-2.7-2.8-1.5-7.4-0.1-11c-4.3-0.3-7.6-4-7.3-8.3c0.1-1.6,0.7-3.2,1.8-4.5
			c1.3-1.6,3.4-3.4,2.3-5.2c-0.3-0.5-0.8-0.9-1.3-1.2c-4.1-2.3-9.7-3.3-11.4-7.6c-1.1-2.8,0-6,1.4-8.7s3.1-5.3,3.5-8.3
			c0.5-4.2-1.9-8.6-0.7-12.6c0.6-1.8,1.6-3.3,2.9-4.7c3.7-4.1,8.1-7.4,13.1-9.7c4.9-2.3,9.9-2.8,15.1-3.9
			C153.2,109.7,155.8,109,158.8,110.8z"/>
		<path class="st18" d="M131.2,173.8c0,0-12-0.6-14.2,9.6s4.9,24.8,4.9,24.8L131.2,173.8z"/>
		<path class="st17" d="M131.2,173.8c0,0-12-0.6-14.2,9.6s4.9,24.8,4.9,24.8L131.2,173.8z"/>
		<path class="st18" d="M123.5,204.1l4.5,3.6l21.2,0.9l13.2-9.1l13.4-23.1c-8.2-2.1-11.5-7.8-12.8-13.1c-0.8-3.6-0.9-7.3-0.3-10.9
			c0,0-21.5-11.1-18.9,6.2c0.4,2.1,0.4,4.3,0.2,6.5c-1.2,10.2-11.1,8.3-11.1,8.3l-3.8,5.9l-4.3,14.4L123.5,204.1z"/>
		<path class="st3" d="M144,158.8c0.4,2.1,0.4,4.3,0.2,6.5c6.2,2.8,13.4,2.2,19-1.8c-0.8-3.6-0.9-7.3-0.3-10.9
			C162.9,152.6,141.3,141.4,144,158.8z"/>
		<circle class="st18" cx="152.1" cy="147.1" r="19.1"/>
		<path class="st4" d="M138.6,200.5c0.5,0,0.9,0.1,1.4,0.1c2.5,0.2,13,0.8,18.9-6.3c6.7-8,15.5-17.8,15.9-18.2l0,0l9,2.7
			c0,0-7.1-2.5-11.9,10.7c-2.1,5.7-0.2,12.2,4.6,15.8c1.8,1.3,3.8,2.1,5.9,2.5l0,0v5.8l0,0l-3.7,16.3c-1,4.6-0.9,9.4,0.4,13.9
			l5.6,19.9l0,0c-0.9,0.6-35.8,24.3-59.1,7.9l0,0c0.1-0.7,3-24.1,1-35.5c-0.5-2.9-0.8-5.9-1-8.8v-0.2c-0.2-2.6-1.4-5-3.4-6.8
			c-2.1-1.9-4.9-6.9-2.1-20.1c0.7-3.3,1.8-6.5,3.1-9.5L131,173l0,0l7.2,0.1c-0.6,0.8-9,11.2-9.9,17.9
			C127.4,197.7,126.3,199.7,138.6,200.5z"/>
		<path class="st18" d="M189.9,182c0,0,7.1,6,9.8,19.8s8.9,36.5,8.9,36.5s2.5,9.9-6,19.8c-8.5,9.8-14.2,17.5-14.2,17.5l-5.6,8.3
			c-1,1.4-2.4,2.4-4.1,2.9c-2.6,0.7-6.5,1.2-9.9-0.7c-2.6-1.4-3.7-4.6-2.5-7.3l1.2-2.9c0,0-11.6,7.3-12.6,3.3s13.4-8.1,13.4-8.1
			s12-2,14.4-7.7c0,0,12.9-16.5,11.8-22.2L182.1,208c0,0-15.5-2.1-10.2-19.5S189.9,182,189.9,182z"/>
		<path class="st21" d="M115.7,307.4c0,0,28.3,5.7,35,4.9l0.7,2.4c0,0,10.8,2.4,35.1-1.5c1.6-0.3,3.2-0.5,4.9-0.8l0.6-0.1
			c0,0,0.3-1.8,0.6-4.9c0.6-7,0.8-20.5-4.1-34.3l-4.1-12.6c0,0-25.3,15.1-42,13.8c-1.5-0.1-3-0.2-4.5-0.3c-3.4-0.1-8.8,0-12.2-2.8
			l-7.2,1.2V293c0,3-0.6,6-1.7,8.8c-0.2,0.4-0.3,0.8-0.5,1.2C115.6,304.5,115.4,306,115.7,307.4z"/>
		<path class="st3" d="M151.4,308.3v6.4c0,0,12.4,2.8,40.6-2.4c0,0,0.3-1.8,0.6-4.9C183.9,308.9,160.1,312.2,151.4,308.3z"/>
		<path class="st3" d="M115.7,307.4c0,0,28.3,5.7,35,4.9l0.7,2.4v-6.4c-3.2,1.3-26.3-4.2-34.6-6.3c-0.2,0.4-0.3,0.8-0.5,1.2
			C115.6,304.5,115.4,306,115.7,307.4z"/>
		<g class="st22">
			<path class="st12" d="M140.9,274.3c-1.5-0.1-3-0.2-4.5-0.3c-3.3-0.1-8.4,0-11.9-2.6l1.2-0.2c3.5,2.8,8.8,2.6,12.2,2.8
				c1.5,0,3,0.2,4.5,0.3c0.5,0,1,0.1,1.5,0.1C142.9,274.4,141.9,274.4,140.9,274.3z"/>
			<path class="st12" d="M185,313.3c1.6-0.3,3.2-0.5,4.9-0.8l0.6-0.1c0,0,0.3-1.8,0.6-4.9c0.6-7,0.8-20.5-4.1-34.3l-3.9-11.9
				c0.8-0.5,1.2-0.7,1.2-0.7l4.1,12.6c4.9,13.8,4.7,27.3,4.1,34.3c-0.3,3.1-0.6,4.9-0.6,4.9l-0.6,0.1c-1.7,0.3-3.4,0.6-4.9,0.8
				c-8.4,1.4-17,2.2-25.5,2.2C169,315.3,177.1,314.6,185,313.3z"/>
			<path class="st12" d="M149.2,312.3L149.2,312.3l-0.8,0.1L149.2,312.3z"/>
		</g>
		<path class="st18" d="M119.7,255.9c1.7-12.8,4.8-20.4,6.4-23.4c0.1,0.4,0.2,1.7,0.3,2.1c0.3,1.9,0,4.2,0.1,6.6l-1.6,29l2.2,9.1
			c2,7.2-5.4,1.5-5.4,1.5c-1.5,3.4-4.4,3-4.4,3l-0.4-5.2c-0.4-4.9,0.1-9.9,1.3-14.6C118.8,261.3,119.3,258.6,119.7,255.9z"/>
		<path class="st17" d="M119.7,255.9c1.7-12.8,4.8-20.4,6.4-23.4c0.1,0.4,0.2,1.7,0.3,2.1c0.3,1.9,0,4.2,0.1,6.6l-1.6,29l2.2,9.1
			c2,7.2-5.4,1.5-5.4,1.5c-1.5,3.4-4.4,3-4.4,3l-0.4-5.2c-0.4-4.9,0.1-9.9,1.3-14.6C118.8,261.3,119.3,258.6,119.7,255.9z"/>
		<path class="st18" d="M191.4,271.5c-1.4,1.8-2.1,2.8-2.1,2.8l-5.6,8.3c-1,1.4-2.4,2.4-4.1,2.9c-2.6,0.7-6.5,1.2-9.9-0.7
			c-2.6-1.4-3.6-4.6-2.5-7.3l1.2-2.9c0,0-11.6,7.3-12.6,3.3s13.5-8.1,13.5-8.1s12-2,14.4-7.7c0,0,1-1.3,2.5-3.4"/>
		<polygon class="st3" points="151.4,308.3 151.4,300 149.4,308.5 		"/>
		<path class="st3" d="M170.8,137.1c-1.3,1.6-3.1,2.5-5.1,2.7c-2,0.1-4,0.1-6,0c-3.1-0.1-6.4,0.4-9,2.3c-1.6,1.3-3,2.7-4.1,4.4
			c-3.9,4.7-9.2,9.1-15.3,8.6c-1.1,0-2.1-0.4-2.9-1.2c-0.5-0.8-0.8-1.7-0.7-2.6c-0.3-3.9-0.1-7.8,0.4-11.7c0.2-2.4,0.8-4.8,1.8-7
			c1.1-2.2,2.5-4.3,4.2-6.1c2.1-2.4,4.6-4.4,7.4-5.9c2.8-1.5,6.1-1.9,9.3-1.2c3.6,1,6.5,3.8,10,5.3
			C164.6,126.5,175.2,130.9,170.8,137.1z"/>
		<path class="st23" d="M170.8,136.3c-1.3,1.6-3.1,2.5-5.1,2.7c-2,0.1-4,0.1-6,0c-3.1-0.1-6.4,0.4-9,2.3c-1.6,1.3-3,2.7-4.1,4.4
			c-3.9,4.7-9.2,9.1-15.3,8.6c-1.1,0-2.1-0.4-2.9-1.2c-0.5-0.8-0.8-1.7-0.7-2.6c-0.3-3.9-0.1-7.8,0.4-11.7c0.2-2.4,0.8-4.8,1.8-7
			c1.1-2.2,2.5-4.2,4.2-6c2.1-2.4,4.6-4.4,7.4-5.9c2.8-1.5,6.1-1.9,9.3-1.2c3.6,1,6.5,3.8,10,5.3
			C164.6,125.7,175.2,130.1,170.8,136.3z"/>
		<polygon class="st18" points="125.7,271.2 125.6,273.5 125.1,271.4 		"/>
		<polygon class="st17" points="125.7,271.2 125.6,273.5 125.1,271.4 		"/>
		<g class="st11">
			<path class="st12" d="M174.2,203.1c0.7,0.9,1.6,1.7,2.5,2.4c1.8,1.3,3.8,2.1,5.9,2.5v0.7c-1.9-0.4-3.8-1.2-5.4-2.4
				C176.1,205.4,175,204.3,174.2,203.1z"/>
			<path class="st12" d="M126.2,228v0.2c0.2,3,0.6,5.9,1.1,8.9c1.9,10.8-0.6,32.2-0.9,35.2l-0.6-0.4l0,0c0.1-0.7,3-24.1,1-35.5
				c-0.5-2.9-0.8-5.9-1-8.8v-0.2c-0.1-1.7-0.7-3.4-1.7-4.8C125.3,224.1,126.1,226,126.2,228z"/>
			<path class="st12" d="M137.7,174.1l-6.1-0.1l0,0l-7.8,17.7c-1.4,3.1-2.4,6.2-3.1,9.5c-2.3,10.7-0.8,16,0.9,18.7
				c-2-2.3-4-7.6-1.5-19.4c0.7-3.3,1.7-6.5,3.1-9.5l7.8-17.7l0,0l7.2,0.1C138.1,173.6,137.9,173.8,137.7,174.1z"/>
			<path class="st12" d="M183.8,178.8h0.1H183.8z"/>
			<path class="st12" d="M181.6,178.7l-6.1-1.8c-0.4,0.4-9.2,10.2-15.9,18.2c-6,7.1-16.4,6.6-18.9,6.3c-0.5-0.1-0.9-0.1-1.4-0.1
				c-6.8-0.4-9.5-1.2-10.4-3c1.3,1.2,4.1,1.9,9.9,2.2c0.5,0,0.9,0.1,1.4,0.1c2.5,0.2,13,0.8,18.9-6.3c6.7-8,15.5-17.8,15.9-18.2l0,0
				l8.9,2.7C183.1,178.6,182.3,178.6,181.6,178.7z"/>
		</g>
		<path class="st3" d="M109,448.9c0,0-8.6,2.4-10.3-1.3"/>
		<path class="st3" d="M163.8,447.1c0,0-10,2.6-12.3-1.4"/>
		<path class="st24" d="M7.8,452.7c9.6,14.9,29.6,16.4,29.6,16.4s4.4-22.5-5.3-37.4S2.5,415.4,2.5,415.4S-1.9,437.9,7.8,452.7z"/>
		<path class="st24" d="M57.8,458.3c-6.4,9.8-19.6,10.8-19.6,10.8s-2.9-14.9,3.5-24.7s19.6-10.8,19.6-10.8S64.2,448.5,57.8,458.3z"
			/>
	</g>
</g>
</svg>
