<svg width="887" height="1073" viewBox="0 0 887 1073" fill="none" xmlns="http://www.w3.org/2000/svg">
<path d="M874.691 424.325C873.592 417.286 872.053 410.467 870.295 403.649C869.855 407.168 869.636 410.467 869.416 413.987H867.657C866.998 408.928 866.339 403.868 865.679 398.589C866.119 398.369 866.778 398.369 867.438 398.149C868.317 399.909 869.416 401.889 870.295 403.649V403.868V404.088L866.119 384.292C866.119 386.051 865.899 387.811 865.899 389.571C865.24 389.571 864.58 389.791 864.141 389.791C863.261 385.831 862.382 382.092 861.503 378.133L863.261 377.693C864.36 379.892 865.459 382.312 866.558 384.512C864.8 374.393 863.701 364.055 861.503 354.157C859.964 348.877 857.986 343.818 855.129 339.199C853.37 335.9 850.293 333.48 848.535 330.4C842.82 319.842 837.325 309.284 831.83 298.726C828.313 291.687 819.521 286.408 824.357 276.509C824.796 275.629 823.257 273.43 822.378 272.33C814.905 262.651 808.531 251.653 799.519 243.295C786.551 231.416 773.143 220.418 759.295 209.64C761.493 208.76 763.471 207.88 765.669 207C761.713 192.703 747.646 195.342 739.293 189.403C741.052 186.104 742.37 183.464 743.909 180.385C732.479 171.146 717.533 167.407 709.18 153.329C704.345 145.19 693.574 140.791 685.222 134.852C683.244 133.312 680.826 131.553 678.628 131.333C662.582 130.233 652.032 118.575 642.58 108.676C627.194 92.8389 608.731 80.5209 588.289 72.6022C584.113 70.8425 580.157 68.8628 576.42 66.6632C568.507 62.4838 560.814 57.6446 552.901 53.9052C538.394 47.3063 523.228 41.3673 508.501 34.9883C493.115 28.3894 477.949 22.0104 462.123 15.4115C461.244 20.0307 460.584 22.8903 459.925 25.5298C415.086 18.7109 371.125 11.6721 326.945 5.51307C315.735 3.97332 304.305 4.85318 293.095 4.41325H292.876C298.151 6.17296 303.426 7.93268 308.701 9.91236C308.482 10.7922 308.262 11.6721 308.042 12.5519L283.204 9.69239C283.204 8.81254 282.985 7.93268 282.985 6.83286L292.656 4.19328H292.436H292.656H292.876C281.886 3.97332 271.115 3.75336 260.125 3.31343L268.478 5.73303C268.258 6.83286 268.258 7.71271 268.258 8.81254H249.135C249.135 7.93268 249.135 7.05282 248.915 5.953L261.004 3.09346C244.519 2.21361 228.034 0.233926 211.549 0.013962C202.977 -0.206002 194.185 2.21361 185.832 4.41325C180.117 5.953 175.062 10.1323 169.347 11.6721C150.664 16.7313 131.981 21.5705 113.298 25.9698C100.989 28.8293 89.3392 40.7074 75.4917 29.2692C74.1729 28.3894 70.4362 29.7091 68.2382 30.809C49.9947 38.7277 30.4323 44.6667 14.1669 55.6649C-16.1657 76.1216 -44.9597 98.7779 -73.3142 122.094C-121.89 161.688 -158.597 211.18 -188.49 265.951C-191.568 271.45 -192.007 277.609 -201.459 280.249C-209.152 282.448 -214.207 294.326 -220.581 301.805C-213.328 312.583 -226.076 315.443 -228.934 322.262C-231.132 327.541 -235.528 331.94 -237.067 337.439C-244.32 364.055 -260.805 388.471 -259.486 417.946C-259.267 421.026 -259.706 454.02 -258.607 456.66C-258.387 457.1 -256.409 456.66 -255.31 456.66C-255.09 456.22 -254.87 455.78 -254.87 455.34C-251.134 436.863 -255.53 416.406 -241.023 400.789C-243.441 419.486 -248.057 437.743 -254.87 455.34C-254.87 455.78 -255.09 456.22 -255.09 456.66L-255.31 456.88C-250.035 462.159 -251.573 466.558 -256.189 471.837C-258.168 474.037 -259.047 480.416 -257.728 481.736C-248.276 490.314 -253.771 498.233 -255.97 507.692C-260.585 528.368 -266.74 549.265 -256.189 570.821C-252.453 578.52 -250.694 593.038 -255.09 597.657C-263.003 606.016 -256.849 613.934 -254.431 614.814C-243.88 618.994 -244.32 628.452 -243.88 635.711C-243.001 659.907 -226.516 681.464 -231.352 706.539C-231.572 707.419 -230.033 708.519 -229.373 709.399C-219.263 720.177 -216.845 735.135 -210.471 747.673C-202.118 763.95 -207.173 785.947 -187.391 797.385C-183.215 799.804 -181.896 807.283 -179.478 812.562C-178.379 814.762 -179.259 818.281 -177.72 820.041C-162.993 835.878 -148.047 851.496 -132.88 867.113C-130.243 869.753 -125.847 871.293 -124.088 874.372C-113.758 892.409 -96.833 901.648 -78.8092 910.006C-71.9954 913.086 -61.2251 913.306 -62.1043 925.624C-62.1043 926.284 -56.1696 927.384 -49.3558 929.363L-66.0607 908.467C-58.8073 909.786 -53.0924 910.886 -47.3776 912.206C-42.7617 913.306 -37.4865 913.966 -33.9697 916.825C-22.9796 925.404 -14.1875 937.282 1.63824 938.162C4.27585 938.602 6.25406 940.362 7.57288 942.561C11.7491 951.8 20.761 952.02 28.4541 954.439C33.2897 955.979 38.3452 957.299 43.4006 958.619C43.1808 959.498 42.961 960.378 42.5214 961.478L13.9471 957.959C14.1669 971.816 20.5412 977.975 32.8501 979.295C42.961 980.395 51.9729 984.354 55.4897 995.793C55.9293 997.112 64.5016 997.772 64.5016 997.552C68.0184 983.035 79.8877 989.194 88.2402 988.754C93.7352 988.534 95.7134 993.153 91.3174 999.092L69.7768 996.672C69.1174 997.992 68.458 999.312 67.7986 1000.63L88.2402 1015.81C78.7887 1026.81 64.5016 1016.91 52.8521 1022.63C79.0085 1039.79 109.341 1038.91 136.377 1046.82C135.717 1056.5 119.672 1052.98 125.167 1065.96C139.674 1068.16 155.06 1070.58 171.325 1073C176.381 1067.06 176.381 1067.06 188.69 1070.8C190.448 1071.24 193.745 1070.8 193.965 1070.14C198.8 1056.94 212.428 1061.78 221 1058.92C236.826 1052.98 254.41 1053.2 270.236 1059.58L261.664 1067.28C275.731 1067.28 286.941 1067.28 298.371 1067.28C318.592 1067.5 338.814 1060.02 359.476 1066.4C363.872 1067.72 369.587 1065.52 374.642 1065.08C381.676 1064.42 388.709 1063.98 395.523 1062.88C407.392 1060.9 419.482 1058.7 431.131 1055.62C439.044 1053.42 446.517 1049.24 454.43 1046.38C488.06 1033.63 522.129 1021.97 555.319 1007.89C575.321 999.312 595.763 989.633 612.907 976.436C626.755 965.657 641.701 956.419 657.527 948.72C660.824 946.96 664.121 944.981 667.418 943.001C666.978 943.661 666.759 944.321 666.319 945.201C668.077 943.661 669.616 941.901 671.155 940.362C672.693 938.822 674.891 937.502 676.65 935.962C677.089 934.862 677.529 933.543 678.188 932.443C679.947 930.243 681.485 928.263 683.024 926.064C698.63 903.847 718.192 885.59 735.996 865.574C739.733 861.174 745.448 857.215 746.547 852.156C750.943 833.679 765.01 822.021 776 808.163C782.374 800.244 790.507 792.106 793.145 782.647C798.64 762.85 811.168 747.893 822.378 731.835C825.236 727.876 827.434 723.257 830.291 719.297C835.786 711.379 840.842 703.24 846.776 695.761C858.646 681.243 863.481 663.646 870.515 646.929C870.954 644.949 870.515 642.97 869.196 641.65C865.459 637.691 861.723 633.731 857.766 629.772C864.8 618.334 869.196 605.796 870.954 592.598C871.394 589.958 872.053 587.099 872.713 584.459C874.032 579.18 876.01 573.901 876.889 568.402C878.867 558.723 880.186 548.825 881.725 538.927C883.483 528.808 885.022 518.69 887 508.132L880.626 508.352C879.307 479.536 877.329 452.041 874.691 424.325Z" fill="#F2F2F2"/>
</svg>
