<svg xmlns="http://www.w3.org/2000/svg" viewBox="0 0 42.94 39.37"><defs><style>.cls-1{fill:#fc6;fill-rule:evenodd;}</style></defs><title>tick-square</title><g id="Layer_2" data-name="Layer 2"><g id="Layer_1-2" data-name="Layer 1"><path class="cls-1" d="M.86,1.24C5.76.11,10.61.18,15.46.17c4.35,0,8.7-.3,13-.11,3.62.16,7.3.25,10.77,1.58C41,2.33,41,2.35,41,4.39a49,49,0,0,1,.14,5.93,25.57,25.57,0,0,0-.2,5c.14,1.93.17,3.88.44,5.8a8.37,8.37,0,0,0,.55,3c.33.64-.51,1.85,0,2.84-1.36.52.24,1.09,0,1.75A5.91,5.91,0,0,0,41.95,31a4.61,4.61,0,0,1,0,1.46A1.83,1.83,0,0,0,42.31,34a3.94,3.94,0,0,1,.09,4.1,2.08,2.08,0,0,1-2.21,1c-2.09-.84-4.25-.53-6.36-.43-7.18.34-14.36,1-21.55.52C9.52,39,6.78,38.55,4,38.09c-2-.33-2.51-1.22-2.55-3.3-.06-2.71-.11-5.42-.27-8.12C.86,20.77.4,14.86,0,8.95A22,22,0,0,1,.86,1.24ZM4.7,2.41A3.13,3.13,0,0,0,4.57,3c0,1.57.27,3.12.44,4.68.26,2.28,0,4.6.15,6.9.08,1.79.39,3.58.5,5.37,0,.41-.36.84-.48,1.28a4.61,4.61,0,0,0-.12,1.15c1.47.25.76,1.43.89,2.18.1.6-.19,1.26-.12,1.87.35,3,.76,6,1.18,9.2,2.51.19,5,.45,7.5.54s5.18.11,7.76,0,5-.32,7.52-.58,5.09.12,7.88-.48c-1.55-2.28-.66-4.66-1.24-6.87A21.15,21.15,0,0,1,36.26,24c-.16-3.51-.42-7-.47-10.54,0-2.77.21-5.54.3-8.31A14.53,14.53,0,0,0,36,3.56c-.55-.09-1-.21-1.52-.24-1.7-.11-3.4-.19-5.1-.27A15.51,15.51,0,0,0,25.59,3a31.06,31.06,0,0,1-8.24.14Z"/></g></g></svg>