<svg xmlns="http://www.w3.org/2000/svg" viewBox="0 0 38.4 31.75"><defs><style>.cls-1{fill:#fff;fill-rule:evenodd;}</style></defs><title>tick-solo</title><g id="Layer_2" data-name="Layer 2"><g id="Layer_1-2" data-name="Layer 1"><path class="cls-1" d="M13.89,29.19c-.19.09-.46.13-.56.29a4,4,0,0,1-2.09,1.37c-.39.16-.71-.06-1-.55l-.44,1.12L9,30.78c-.52,1-1.29.61-1.93.23-1.75-1-3.33-2.37-3.74-4.43-.24-1.18-1.12-2.21-.85-3.5-.65-.55-.51-1.35-.68-2.06A60.62,60.62,0,0,1,.33,13.1a4.41,4.41,0,0,0-.14-.75c-.2-.7-.48-1.41.6-1.93a8.14,8.14,0,0,1,2,0,4.16,4.16,0,0,1,2.71,2,19.29,19.29,0,0,1,2,5.81c.15.63.22,1.28.35,1.93,0,.11.09.28.17.3.66.14.49.67.56,1.11.2,1.19.4,2.38.65,3.56.05.26.31.47.55.8.41-.47.77-.86,1.12-1.28l2.57-3.13c.32-.39.68-.7,1.31-.4-.08-1.18.91-1.77,1.45-2.59A22.9,22.9,0,0,1,19.72,15c.56-.55,1-1.25,1.49-1.85s.71-1.35,1.67-1.05c0-.5,1.14,0,.68-.83.58-.43.56-1.36,1.52-1.54.5-.1.88-.79,1.35-1.16.91-.73,1.85-1.44,2.76-2.15l.36.32.14-.08-.22-.55,1-1.1.18.77c.57-1.69,1.63-2.36,3.22-2.11l.09-1,.56.54,1.18-1.33.56.93L36.52,1l.46.21L37.82,0c.74.61.66,1.23.37,2.17L37.8.86c-.23.52-.59,1-.49,1.17.63.75-.68.79-.44,1.34-1.64,1.06-1.64,1.06-2.17,1.92-1,0-.17-.71-.44-1.09-.17.14-.32.35-.51.4s-.35-.13-.48-.19V6.3l-.7-.73a2,2,0,0,1-.51,1.54c-.37.3-1,.28-1.53.4.55,1,.54,1-.25,1.62l.32-1c-1.36.34-1,1.84-1.83,2.43l-.24-.43c-.48.59-.4,1.44-1.17,1.92-.54.34-.07,1.5-.88,1.91s-.37,1.51-1.1,2.11c-.32-.8.32-1.28.43-2.06a3.16,3.16,0,0,0-1.39,2.46l-.48-.82c-.71.55-.23,1.37-.62,2.21l-.41-1.31c-.68,1.59-.58,3.34-1.92,4.56l.54-1.57-.22-.08c-.2.63-.45,1.25-.58,1.9a1,1,0,0,1-1.16.83c-.42,1,.41,2-.56,3.07L19.15,24c-.32.37-1,.48-.79,1.18l-.63.06L18,26c-.14,0-.39,0-.39.08a10.08,10.08,0,0,0,0,1l-1,.13.34-.88-.15-.07-.71,1.14.55-.24c0,1.3-.77,1.95-2.23,2ZM26.57,9.1c-.87.87-.87.87-.83,1.86Zm5.92-5-.58,1C32.58,5,32.9,4.86,32.5,4.09ZM20.14,20.61l-.26-.13-.24,1.08.22.06Zm-1.28,0-.57.34.85.54ZM27.61,9.12l-.27.27.6.51.15-.15ZM29.94,7.3l-.2-.1-.33.67.19.1Zm-7,8.41.2.16a1.64,1.64,0,0,0,.31-.36,1.65,1.65,0,0,0,.07-.47l-.15,0Z"/><path class="cls-1" d="M12.11,30.73c.06.65.06.65-.82,1Z"/><path class="cls-1" d="M13.89,29.19h.5c0,.44-.14.68-.64.7Z"/><path class="cls-1" d="M29.59,10.85l-.31.49-.1,0,.24-.59Z"/></g></g></svg>