<svg xmlns="http://www.w3.org/2000/svg" viewBox="0 0 213.5 213.5"><defs><style>.cls-1{fill:#333e48;}.cls-2{fill:#fff;}</style></defs><title>welcome</title><g id="Layer_2" data-name="Layer 2"><g id="Layer_1-2" data-name="Layer 1"><circle class="cls-1" cx="106.75" cy="106.75" r="106.75"/><path class="cls-2" d="M106.11,121.84,75,107l31.08-14.84L137.19,107Zm0-8.27L122.35,107l-16.24-6.48L89.87,107Z"/><path class="cls-2" d="M72.72,193.72l9.9-21.11,1.86.55-2.27,14.72-.76,4.19,1.65-3.93,6.13-13.58,1.86.55-3.17,23.1-1.81-.53,2.51-16,.78-4.15-1.64,3.9L81.12,196.2l-1.58-.47,2.48-16,.75-4.16-1.61,3.91L74.5,194.25Z"/><path class="cls-2" d="M69.48,167.75l.66-1.23,6.13,3.3L65.33,190.13l-6-3.23.67-1.25,4.52,2.44,4.23-7.84-4-2.16.67-1.25,4,2.16,4.71-8.73Z"/><path class="cls-2" d="M60.65,161.37l.84-1.11,5.23,4L52.82,182.6l-1.34-1,13.06-17.28Z"/><path class="cls-2" d="M50.94,155.56c2.22-2.17,4-2.17,5.69-.4l.08.08c1.72,1.77,1.7,3.49-.54,5.67l-10.7,10.43c-2.22,2.17-4,2.14-5.69.4l0,0c-1.72-1.77-1.7-3.49.54-5.67l1.6-1.56,1.26,1.12-1.7,1.66c-1.29,1.26-1.59,2.4-.62,3.4l0,0c1,1,2.08.72,3.39-.55L55,159.68c1.31-1.28,1.61-2.42.66-3.4l-.08-.08c-1-1-2.12-.72-3.43.55l-1.91,1.86-1.09-1.29Z"/><path class="cls-2" d="M29.76,159.5l0,0c-1.54-2.25-1.24-4,1.34-5.74l12.31-8.45c2.56-1.75,4.29-1.43,5.83.82l0,0c1.56,2.27,1.26,4-1.32,5.76l-12.31,8.45C33.06,162.09,31.31,161.75,29.76,159.5Zm4.86-.56L47,150.46c1.51-1,2-2.13,1-3.5l0,0c-.94-1.36-2.13-1.31-3.64-.28L32,155.12c-1.48,1-2,2.12-1,3.48l0,0C31.94,160,33.12,160,34.62,158.95Z"/><path class="cls-2" d="M39.67,127.69l.64,1.55-15.18,6.11L22,136.54l3.39-.68,16.39-2.94.44,1.07-13.69,9.48-2.81,1.85,3-1.37,15.07-6.37.64,1.56-21.31,8.79-.79-1.9,14.63-10L39,134.67l-2.45.54-17.44,3.21-.8-1.93Z"/><path class="cls-2" d="M35.94,116.54l1.37-.26,1.32,6.83L16,127.49,14.7,120.8l1.39-.27,1,5,8.74-1.69-.87-4.47,1.4-.27.86,4.47,9.74-1.88Z"/><path class="cls-2" d="M22,67.64,42.43,78.79l-.66,1.83L27.21,77.47l-4.14-1,3.82,1.88,13.19,6.93-.66,1.83L16.55,82.55l.64-1.77,15.86,3.46,4.1,1-3.8-1.87L19,75.87l.56-1.55,15.87,3.43,4.11,1-3.81-1.84L21.32,69.38Z"/><path class="cls-2" d="M48.06,65.95l1.18.73L45.58,72.6,26,60.48l3.58-5.8,1.21.75-2.7,4.37,7.57,4.68L38,60.6l1.21.75-2.39,3.87,8.44,5.21Z"/><path class="cls-2" d="M54.95,57.51l1.06.9-4.25,5-17.55-15,1.09-1.28L51.79,61.22Z"/><path class="cls-2" d="M61.31,48.16c2,2.34,1.93,4.08.07,5.7l-.09.08c-1.86,1.61-3.58,1.49-5.63-.87L45.88,41.78c-2-2.34-1.91-4.1-.07-5.7l0,0c1.86-1.61,3.58-1.49,5.63.87l1.46,1.69-1.2,1.19L50.2,38c-1.18-1.36-2.3-1.73-3.35-.81l0,0c-1,.89-.84,2,.35,3.42L57,52c1.2,1.38,2.32,1.75,3.35.86l.09-.08c1.05-.91.85-2.08-.35-3.46l-1.75-2,1.35-1Z"/><path class="cls-2" d="M58.64,26.77l0,0c2.33-1.41,4-1,5.65,1.68L72,41.21c1.6,2.66,1.18,4.37-1.16,5.78l0,0c-2.36,1.42-4.06,1-5.67-1.66L57.46,32.56C55.85,29.91,56.3,28.18,58.64,26.77Zm.27,4.88L66.65,44.5c.94,1.56,2,2.11,3.43,1.25l0,0c1.42-.85,1.44-2.05.5-3.62L62.88,29.26c-.93-1.54-2-2.08-3.41-1.23l0,0C58,28.92,58,30.09,58.91,31.66Z"/><path class="cls-2" d="M89.8,38.55l-1.59.55L83,23.59l-1-3.25.47,3.43,2,16.54-1.1.38L74.72,26.45,73,23.53l1.19,3.09L79.69,42l-1.59.55-7.51-21.8,1.95-.67,9.13,15.2,1.21,2.19L82.49,35l-2.17-17.6,2-.68Z"/><path class="cls-2" d="M101.17,35.49l.18,1.38-6.9.92-3-22.85,6.76-.9.19,1.41-5.09.67,1.17,8.83,4.51-.6.19,1.41-4.51.6,1.3,9.83Z"/><path class="cls-2" d="M141.36,20l-10,21-1.86-.56,2.36-14.71.78-4.19-1.67,3.92-6.22,13.54-1.86-.56,3.33-23.08L128,16l-2.61,16-.8,4.15,1.66-3.89L133,17.46l1.58.48L132,34l-.78,4.16,1.64-3.9,6.75-14.77Z"/><path class="cls-2" d="M144.41,46l-.67,1.22-6.1-3.34,11.06-20.22,6,3.27L154,28.16l-4.5-2.46-4.27,7.81,4,2.18-.68,1.25-4-2.19-4.76,8.7Z"/><path class="cls-2" d="M153.21,52.44l-.85,1.11-5.2-4,14-18.31,1.34,1-13.18,17.2Z"/><path class="cls-2" d="M162.87,58.3c-2.24,2.15-4,2.14-5.69.36l-.08-.08c-1.71-1.78-1.68-3.5.58-5.67l10.76-10.36c2.24-2.15,4-2.12,5.69-.36l0,0c1.71,1.78,1.68,3.5-.58,5.67L172,49.45l-1.25-1.13,1.71-1.65c1.29-1.25,1.6-2.39.64-3.39l0,0c-.95-1-2.08-.74-3.39.53l-10.8,10.4c-1.32,1.27-1.62,2.41-.68,3.39l.08.08c1,1,2.12.74,3.43-.53l1.92-1.85,1.08,1.29Z"/><path class="cls-2" d="M184.1,54.52l0,0c1.53,2.26,1.22,4-1.38,5.73l-12.37,8.37c-2.57,1.74-4.3,1.4-5.83-.85l0,0c-1.54-2.28-1.23-4,1.36-5.75l12.37-8.37C180.82,51.9,182.57,52.26,184.1,54.52Zm-4.86.52-12.42,8.4c-1.51,1-2,2.12-1.07,3.49l0,0c.93,1.37,2.12,1.33,3.64.3l12.42-8.4c1.49-1,2-2.1,1-3.47l0,0C181.92,54,180.75,54,179.24,55Z"/><path class="cls-2" d="M174,86.25l-.63-1.56,15.22-6,3.19-1.17-3.4.65L171.94,81l-.44-1.08,13.76-9.38,2.83-1.83-3,1.35L170,76.33l-.63-1.56,21.38-8.65.77,1.91-14.7,9.92-2.12,1.33,2.45-.52,17.46-3.09.78,1.94Z"/><path class="cls-2" d="M177.63,97.43l-1.37.26L175,90.85l22.66-4.23,1.25,6.7-1.4.26-.94-5-8.75,1.63.84,4.48-1.4.26-.84-4.48-9.75,1.82Z"/><path class="cls-2" d="M195.19,136.76l-21.54-8.91.46-1.89,14.81,1.58,4.22.56-4-1.46-13.84-5.5.46-1.89,23.22,2.1-.45,1.83-16.14-1.76-4.19-.58,4,1.45,15.11,6-.4,1.6-16.14-1.73-4.19-.55,4,1.43,15.1,6Z"/><path class="cls-2" d="M169.41,141.19l-1.25-.6,3-6.27,20.78,10-3,6.14-1.28-.62,2.22-4.63-8-3.86-2,4.1-1.28-.62,2-4.1-8.94-4.29Z"/><path class="cls-2" d="M163.44,150.3l-1.15-.79,3.71-5.4,19,13-1,1.39-17.86-12.25Z"/><path class="cls-2" d="M158.08,160.25c-2.26-2.12-2.34-3.86-.66-5.66l.08-.08c1.68-1.8,3.41-1.85,5.69.29L174.09,165c2.26,2.12,2.32,3.88.66,5.66l0,0c-1.69,1.8-3.41,1.86-5.69-.29l-1.63-1.53,1.07-1.31,1.74,1.63c1.31,1.23,2.47,1.48,3.42.46l0,0c.93-1,.63-2.11-.71-3.36L162,156c-1.33-1.25-2.49-1.5-3.42-.5l-.08.08c-1,1-.63,2.15.71,3.4l1.95,1.82L159.92,162Z"/><path class="cls-2" d="M163,181.24l0,0c-2.17,1.64-3.9,1.42-5.79-1.07l-9-11.91c-1.87-2.48-1.63-4.22.55-5.87l0,0c2.2-1.66,3.93-1.44,5.82,1.06l9,11.91C165.42,177.83,165.15,179.59,163,181.24Zm-.78-4.83-9-12c-1.1-1.46-2.22-1.88-3.54-.89l0,0c-1.32,1-1.22,2.19-.11,3.65l9,12c1.08,1.43,2.21,1.86,3.52.86l0,0C163.39,179,163.3,177.87,162.2,176.41Z"/><path class="cls-2" d="M130.75,172.8l1.52-.71,6.8,14.87,1.33,3.12-.83-3.35-3.69-16.23,1-.49L147,183.24l2,2.72L147.5,183l-7.06-14.75,1.52-.71,9.76,20.88-1.86.87-10.68-14.14-1.44-2,.65,2.42,4,17.26-1.89.88Z"/><path class="cls-2" d="M119.77,177.05l-.33-1.35,6.76-1.64,5.42,22.41-6.62,1.6-.33-1.38,5-1.21-2.09-8.65-4.42,1.07-.33-1.38,4.42-1.07-2.33-9.64Z"/></g></g></svg>