<svg xmlns="http://www.w3.org/2000/svg" viewBox="0 0 269.3 415.65"><defs><style>.cls-1{fill:#6c737a;}.cls-1,.cls-10,.cls-2,.cls-3,.cls-4,.cls-5,.cls-6,.cls-7,.cls-8,.cls-9{stroke:#333e48;stroke-width:3px;}.cls-1,.cls-10,.cls-2,.cls-3,.cls-5,.cls-6,.cls-7{stroke-miterlimit:10;}.cls-2,.cls-4{fill:#bdc0c3;}.cls-3,.cls-8{fill:#d4d5d7;}.cls-4{stroke-linejoin:round;isolation:isolate;}.cls-5{fill:#586069;}.cls-6{fill:#7f858c;}.cls-7{fill:#a8acb0;}.cls-8,.cls-9{stroke-linejoin:bevel;}.cls-9{fill:none;}.cls-10{fill:#fc6;}</style></defs><title>worker</title><g id="Layer_2" data-name="Layer 2"><g id="Layer_1-2" data-name="Layer 1"><path class="cls-1" d="M149,83.22a29.23,29.23,0,0,1,3.85,2.5,25.46,25.46,0,0,1,3.85,4.22c5.5,7.12,10.58,15.39,10,24.37a9.92,9.92,0,0,1-2.86,7.05c-2.27,1.94-5.53,2-8.5,2-3.23,0-6.63,0-9.43-1.67s-5.13-4.91-8.44-4.84a4.32,4.32,0,0,1-1.41,0c-1.14-.37-1.37-1.87-2.12-2.82-1.28-1.71-4-1.28-6-.54s-4.25,1.86-6.23,1a6.48,6.48,0,0,1-2.71-2.71c-4.76-7.7-5.77-16.94-6.67-25.88-.55-5.44-4.76-24,6.85-19.77,5.13,1.85,9.93,5.54,14.6,8.25Z"/><path class="cls-1" d="M137.49,85.05a5.72,5.72,0,0,0,7-.28A10.61,10.61,0,0,0,148,78.13c1.28-.4,1.94,1.28,2.76,2.31,1.44,1.74,4.36,1.72,5.67,3.58.91,1.28.71,3.07,1.35,4.52.83,1.87,2.9,2.85,4.31,4.36a14.85,14.85,0,0,1,2.82,5.63l2.1,6.31a31.2,31.2,0,0,1,1.92,8.17,10.58,10.58,0,0,1-2.44,7.81c-2.82,3-7.45,3.36-11.54,3.27a14.85,14.85,0,0,1-4.05-.47c-3.63-1.13-6-4.78-6.91-8.47s-.86-7.54-1.42-11.31a44.34,44.34,0,0,0-3.21-10.75c-1.13-2.67-4.23-6.64-4.18-9.48C136.05,83.61,136.72,84.45,137.49,85.05Z"/><path class="cls-2" d="M142.1,72.06a21.18,21.18,0,0,1-1-5.63c0-3.85,1.76-7.47,3.53-10.9l-14.66,2c-1.77.24-3.75.6-4.75,2.08a5.13,5.13,0,0,0,0,4.73,24.19,24.19,0,0,1,1.74,4.58A22.87,22.87,0,0,0,127.4,73a8.72,8.72,0,0,0,1.89,2.66c4.19,4.64,7.34,10.12,10.47,15.55-.09-.15,8.84-7.07,8.48-9.33-.21-1.28-2.78-2.82-3.6-4.05A20.64,20.64,0,0,1,142.1,72.06Z"/><polygon class="cls-3" points="267.8 13.64 267.8 26.27 40.23 75.27 1.5 75.27 1.5 68.16 214.07 16.8 267.8 13.64"/><polygon class="cls-4" points="267.8 26.27 40.23 75.27 1.5 75.27 215.65 29.44 267.8 26.27"/><path class="cls-5" d="M94.1,380.61a16.76,16.76,0,0,0-20.39-4.34,5.37,5.37,0,0,0-1.87,1.46c-1.28,1.8-.46,4.27-.35,6.49.3,5.41-4,9.81-7.89,13.6-2.08,2-4.19,4.19-5.13,7s-.24,6.26,2.27,7.7a9.45,9.45,0,0,0,3.51,1,37.93,37.93,0,0,0,12.44.35c4.09-.78,8.11-3.1,9.88-6.88a7.25,7.25,0,0,1,1.65-2.73c2.26-1.78,5.72.31,8.29-1,2.12-1.05,2.21-2.71,2.23-4.89C98.82,392.31,97.92,385.49,94.1,380.61Z"/><path class="cls-5" d="M124.88,380.38c1.58,4.16,1.8,8.68,2,13.12.12,2.57.19,5.31-1.19,7.48s-4.09,3.31-6.68,3.85c-5.35,1.1-11.54.06-15-4.18-2.64-3.25-3.19-7.7-2.71-11.9.41-3.45,1.28-7.49-1.19-9.94-.64-.65-1.48-1.12-2.07-1.82-1.28-1.56-1.08-3.93-.38-5.85a25.41,25.41,0,0,0,2-5.78c.1-.95,17.37.67,19,1.45,2.17,1.06,1.83,2.85,2.49,5C122,374.8,123.78,377.51,124.88,380.38Z"/><path class="cls-6" d="M128.05,196.11c3.39,2.19,4.69,6.5,5.22,10.51,1.45,11-1.09,22-1.28,33.12-.18,15.51,4.31,31.3.47,46.32-2.3,9-.35,19.24-2.5,28.31-.64,2.69-1.82,5.23-2.44,7.93-1.28,5.84.06,11.94,1.87,17.65a18.23,18.23,0,0,1,1.09,4.78,17.21,17.21,0,0,1-1.87,7.23l-7.7,18.2c-.86,2-4.25,2.37-6.41,2.64-4.08.49-8.63.83-11.88-1.69s-4-6.76-4.53-10.71a164.19,164.19,0,0,1-1.28-22.87,18.84,18.84,0,0,0-.53-5.94c-.71-2.19-2.26-4.09-2.68-6.41-.54-3,1-6,1.55-9a27.05,27.05,0,0,0-.13-8.32c-.5-4.1-1.08-8.21-1.73-12.29-.92-5.71.4-11.34,1.28-17.06.83-5.37-.23-10.85-1.28-16.19a44.63,44.63,0,0,1-1.6,12.83c-.68,2-1.65,4-2.24,6.07-2.63,9.33,3,19.11,2.18,28.77-.37,4.52-2.14,9-1.64,13.43.35,3.26,1.86,6.25,2.9,9.35s1.58,6.66,0,9.56c-4.17,7.88-1.05,18.59,2.68,26.67a36,36,0,0,1,2,4.44c1.1,3.64.18,7.56.47,11.35A7.16,7.16,0,0,1,92,383c-.56-.59-1-1.28-1.58-1.9a15.66,15.66,0,0,0-5.36-3.35,7,7,0,0,0-3.85-.89,7.7,7.7,0,0,0-3.66,2.27,35.84,35.84,0,0,1-4,3.07,4.77,4.77,0,0,1-2.05.91,1.81,1.81,0,0,1-1.89-1,2.28,2.28,0,0,1-.14-.67,101.52,101.52,0,0,1-.76-11.67c0-6.71-8-11.33-9-18-.81-5.35.69-10.8.19-16.19-.24-2.77-1-5.49-1-8.26,0-1.8.41-3.55.55-5.34a39.92,39.92,0,0,0-.09-5.94l-.4-6.2c-.38-6.12-.81-12.37-3.22-18a61,61,0,0,1-5-20.63c-.26-4.49-.09-9-.6-13.48-.46-4.07-1.49-8.11-1.19-12.19.24-3.16,1.28-6.21,1.53-9.36.5-6.07-1.81-12-3.62-17.78s-3.14-12.25-.77-17.86a5.86,5.86,0,0,1,1.64-2.39,7.16,7.16,0,0,1,3-1.13,234.87,234.87,0,0,1,67-4.27A22.24,22.24,0,0,1,128.05,196.11Z"/><path class="cls-2" d="M51.26,65a7.34,7.34,0,0,1,0,3.58,8.11,8.11,0,0,1-1.35,2.26A58,58,0,0,1,43.33,78a11.92,11.92,0,0,0,6.14,6.07A35.67,35.67,0,0,0,58,86.48a12,12,0,0,0,4.46.31A11.84,11.84,0,0,0,66.26,85l11.42-6.84a22.81,22.81,0,0,0,4.75-3.42,11.69,11.69,0,0,0,3.31-8,2.21,2.21,0,0,0-.41-1.51,2.69,2.69,0,0,0-1.56-.65c-4-.89-7.18-4.14-9-7.84a41.51,41.51,0,0,1-3.12-11.89L59.49,51.27c-1.81,1-3.6,1.92-5.48,2.76-1.19.54-3.6,1-4.45,2.08C47.95,58.12,50.83,62.57,51.26,65Z"/><path class="cls-7" d="M43.41,74.25a13.53,13.53,0,0,0-3.94,5.32c-.8,2.57,0,5.27.72,7.81a233.06,233.06,0,0,1,7.7,33.08c1.08,7.7,1.48,15.51,2,23.29,1.08,15.88,2.64,41.2,4.73,57,7.7.35,15.2-1.9,22.83-2.72,14.26-1.51,29,1.95,42.92-1.28-3.39-13.38-6.77-36.22-10.16-49.59a94.62,94.62,0,0,1-3.1-16.1c-.3-3.91-.12-7.84-.06-11.78.12-7.7-.31-15.39-.73-23.09-.49-9-1-18-3.1-26.74a5,5,0,0,0-1.49-2.94c-1.28-.94-3-.6-4.48-.4A19.47,19.47,0,0,1,83.93,63c-1.69-1.15-4-2.57-5.54-1.28A5.52,5.52,0,0,0,77.1,64.4a13.66,13.66,0,0,1-8,7.91,40.19,40.19,0,0,1-11.36,2.33,5.58,5.58,0,0,1-3.53-.4c-1.82-1.12-1.95-5.13-4.25-5.4C47.92,68.62,44.77,73,43.41,74.25Z"/><path class="cls-8" d="M73.75,105.58C69,101.05,66.94,94.48,63.49,88.9a37.12,37.12,0,0,0-8.86-9.75,26.44,26.44,0,0,1-4.82-4.09c-1.22-1.5-2.14-3.5-4-4.08a4.82,4.82,0,0,0-4.32,1.19,42.54,42.54,0,0,0-3.21,3.41C32.85,81.22,23.29,82,19,88.52a10.6,10.6,0,0,0-2.3,4.81,37.28,37.28,0,0,0,6.85,26.81A9.11,9.11,0,0,0,28.28,124a14.85,14.85,0,0,0,.92,7.05,188.65,188.65,0,0,0,8.74,23.79,57.56,57.56,0,0,0-1.72,9.22c-.9,7.84-.06,15.79-.91,23.64-.69,6.41-2.57,12.66-2.63,19.09,0,1,.09,2.24,1,2.77a3,3,0,0,0,1.53.32l15.78.47c9.16.27,18.41.54,27.42-1.15a11.41,11.41,0,0,0,3.45-1.09c3.05-1.71,4.07-5.55,4.55-9a78.24,78.24,0,0,0,.76-13.42c1.91,6,4.18,18.29,10,20.9,3.05,1.39,6.54,1.28,9.89,1.19a186.18,186.18,0,0,0,21.54-2.22,2.83,2.83,0,0,0,3.14-3.3l.08-7c.15-14.23-3.37-33.82-4.75-48-.44-4.46-.4-9-1.49-13.35-.45-1.83-1.1-3.63-1.5-5.48a39.14,39.14,0,0,1-.64-5.48l-1-14.11c-.47-6.53-1.15-12.83-1.65-19.34A93.64,93.64,0,0,0,118,70.74c-1.12-3.85-3.44-8.21-7.45-8.68-2.14-.24-4.22.69-6.26,1.35a25.29,25.29,0,0,1-15.39-.06,21.68,21.68,0,0,0-4.8-1.28,4.71,4.71,0,0,0-4.39,1.82A6.58,6.58,0,0,0,79,67.11C78.4,79.92,77.28,93.12,73.75,105.58Z"/><line class="cls-9" x1="73.75" y1="105.58" x2="87.15" y2="185.71"/><path class="cls-1" d="M53.12,106c-5.91-6.23-12-12.58-19.6-16.55-3-1.56-6.41-2.74-9.74-2.15s-6.41,3.48-6.26,6.85c.1,2.09,1.37,3.94,1.77,6,.46,2.31-.21,4.77.51,7A11.85,11.85,0,0,0,22.37,111l9.08,10.76c3.85,4.49,7.7,9,12.65,12.15s11.36,4.55,16.8,2.35a20.65,20.65,0,0,0,9.21-8.45c2.26-3.59,3.85-7.52,6-11.22A55.73,55.73,0,0,1,88.9,101.06c-2.67-.69-6-1.67-7.7-3.85A12.71,12.71,0,0,1,80,95l-2.08-4.49A5.13,5.13,0,0,0,74.06,92a32.28,32.28,0,0,1-2.86,2.91c-1.81,1.36-4.26,1.73-5.9,3.28a15.64,15.64,0,0,0-1.72,2.15A14.39,14.39,0,0,1,53.12,106Z"/><path class="cls-2" d="M89.38,79.14c4.45-8.12,4.25-17.86,5.52-27a12.34,12.34,0,0,1,2.45-6.71c2.57-2.9,7.09-2.94,11-2.57,1.14.13,2.57.67,2.5,1.81a2.31,2.31,0,0,1-.58,1.09,30.52,30.52,0,0,0-6.34,16.83c2,1.4,5.13-1.48,7.07,0,1.28,1.08.69,3.21-.08,4.75q-2.68,5.35-5.53,10.62a34.11,34.11,0,0,1-5.86,8.45C97.87,88,96,89.19,94.3,90.72c-3.85,3.6-6.17,8.7-10.15,12.21a2.08,2.08,0,0,1-1.28.65,2.15,2.15,0,0,1-1.35-.6,19.45,19.45,0,0,1-4.85-5.86c-1.51-2.8-1.28-3.62,1.1-5.59C82.25,88,86.59,84.22,89.38,79.14Z"/><circle class="cls-2" cx="55.23" cy="39.33" r="20.55"/><path class="cls-10" d="M74.11,27.94a38.48,38.48,0,0,0-6.82-15.6A27.33,27.33,0,0,0,55.14,2.69,17.39,17.39,0,0,0,40,3.89a22,22,0,0,0-7.56,9.53c-3.32,7.16-4.55,15.91-.69,22.78,1.54-1.87,4.18-1,6.52-1.71,2.92-.83,5.4-2.78,8.18-4C54.87,26.78,65.13,29.78,74.11,27.94Z"/></g></g></svg>