<svg xmlns="http://www.w3.org/2000/svg" viewBox="0 0 23.77 22.89"><defs><style>.cls-1,.cls-2{fill:#fc6;}.cls-2{fill-rule:evenodd;}</style></defs><title>yellow-dot</title><g id="Layer_2" data-name="Layer 2"><g id="Layer_1-2" data-name="Layer 1"><circle class="cls-1" cx="12.2" cy="11.44" r="11.24"/><path class="cls-2" d="M23.65,9.09c0-.54-.18-1.08-.27-1.61A8.29,8.29,0,0,0,20,1.87,8.78,8.78,0,0,0,15.14.21a6.29,6.29,0,0,1-.93,0,13.6,13.6,0,0,0-4.9.1A10.61,10.61,0,0,0,5.1,2.15,18.3,18.3,0,0,0,1.56,5.55,5.36,5.36,0,0,0,.3,8.36C.21,9.1.15,9.84.08,10.59a5.14,5.14,0,0,0-.07,1c.1,1.05.23,2.1.38,3.14A8.74,8.74,0,0,0,2.7,19.1c.06.07.14.12.2.18a8.56,8.56,0,0,0,2,1.4,6.76,6.76,0,0,0,1.34.59,5.34,5.34,0,0,1,1.26.51,8.26,8.26,0,0,0,5.27,1,15.47,15.47,0,0,0,6.29-2.1,8.39,8.39,0,0,0,4.29-6.34c.06-.45.07-.91.12-1.36.08-.78.18-1.55.27-2.33h-.11C23.66,10.15,23.7,9.62,23.65,9.09Zm-2-4.77c-.23-.26-.42-.44-.58-.65a7.79,7.79,0,0,0-3.75-2.45c-.53-.18-1.06-.38-1.59-.57C17.87.66,21.15,2.7,21.7,4.33ZM19.5,2.7l-.07.08-1-.57A1.65,1.65,0,0,1,19.5,2.7Zm-2.58-1L14.5,1A4.65,4.65,0,0,1,16.92,1.65Zm-.11.61c.72.35,1.41.76,2.12,1.13a1.59,1.59,0,0,1,.71.86L19,3.78a7.72,7.72,0,0,0-3.79-1.56c-.94-.13-1.87-.24-2.81-.38A6.76,6.76,0,0,1,16.81,2.26ZM9.93,1.8A4.88,4.88,0,0,1,14,1.34C12.55,1.34,11.29,1.9,9.93,1.8Zm3-1.43a2.5,2.5,0,0,1-1.27.28,11.84,11.84,0,0,0-4.39.71c-.32.11-.62.24-.94.37A10.7,10.7,0,0,1,12.95.38ZM10.78,1a23.77,23.77,0,0,1-5.05,1.6A8.5,8.5,0,0,1,10.78,1ZM9.4,2.23c-2.47.72-4.1,2.55-5.9,4.26a2.73,2.73,0,0,1,.86-1.61A11.72,11.72,0,0,1,7.69,2.7a3.47,3.47,0,0,1,1.55-.49Zm-4.21,1c.54-.21,1.09-.41,1.63-.61l.06.07L4.47,4.23A1.27,1.27,0,0,1,5.19,3.25ZM5,2.55a1.41,1.41,0,0,1-1.14.9ZM4.09,3.83a3.21,3.21,0,0,1-.91,1.49C2.53,5.84,1.95,6.45,1.39,7A5.14,5.14,0,0,1,4.09,3.83ZM.73,9.06A6.14,6.14,0,0,1,3.25,5.7l-.44.67a8.21,8.21,0,0,0-1.3,3.9,16,16,0,0,1-.45,2.35,8,8,0,0,1-.5-2.55A3.18,3.18,0,0,1,.73,9.06ZM.44,12.44a4.66,4.66,0,0,1,.49,2A5.13,5.13,0,0,1,.44,12.44Zm.85,4.31L.95,16l.11,0,.34.8Zm.28-3.22L1.85,15A1.5,1.5,0,0,1,1.58,13.52Zm4.76,6.91a5.24,5.24,0,0,1-2.53-2.18,12.85,12.85,0,0,1-1.67-3.73,10.54,10.54,0,0,1-.26-2.77A2.82,2.82,0,0,1,2,11.11c.19-.68.42-1.36.59-2.05A5.72,5.72,0,0,1,4.15,6.28,21.85,21.85,0,0,1,7.28,3.55a12.07,12.07,0,0,1,3.6-1.42.82.82,0,0,1,.27,0,33.29,33.29,0,0,1,4.77.58,8.6,8.6,0,0,1,3.81,2.17,7.21,7.21,0,0,1,2,4,16,16,0,0,1,.33,2.16,5.31,5.31,0,0,1-.54,2.65,17,17,0,0,1-1.93,3.43,4.14,4.14,0,0,1-1.39,1.21,18.31,18.31,0,0,1-3.89,1.44c-.18,0-.36.12-.54.18l0,.18a27.57,27.57,0,0,0,3.63-1l-.26.2-.33.2a12.56,12.56,0,0,1-6.78,1.6A10.7,10.7,0,0,1,6.33,20.43Zm15.61-6.15a4.68,4.68,0,0,1-.21.52s-.13,0-.2.06h0v.53H21.4l.11-.46v-.06h0l.34-.61Zm-.57,2.15c-.62,2-4.15,4.42-6.65,4.64.5-.2.89-.37,1.29-.51a9.21,9.21,0,0,0,3.72-2.62A21.88,21.88,0,0,1,21.37,16.43Zm-6.51,5.51A11.85,11.85,0,0,1,10,22l-.42-.1-.24-.11c.53,0,1-.09,1.39-.1.6,0,1.21,0,1.81,0a10.93,10.93,0,0,0,6.81-2.34l.25-.19A7.74,7.74,0,0,1,14.87,21.94Zm4.23-1.61a14.07,14.07,0,0,0,3.36-4.17C22.28,17.38,20.47,19.6,19.09,20.32ZM20.26,3.89c1.32.43,2.62,2.55,2.57,4.64C21.92,7.06,21.49,5.28,20.26,3.89Z"/><path class="cls-2" d="M21.51,14.93v-.05h0Z"/></g></g></svg>