<svg width="178" height="167" viewBox="0 0 178 167" fill="none" xmlns="http://www.w3.org/2000/svg">
<path d="M176.093 66.0413C175.923 64.9458 175.685 63.8845 175.412 62.8232C175.344 63.371 175.31 63.8845 175.276 64.4322H175.004C174.901 63.6448 174.799 62.8574 174.697 62.0358C174.765 62.0016 174.867 62.0016 174.969 61.9673C175.106 62.2412 175.276 62.5493 175.412 62.8232V62.8574V62.8917L174.765 59.8105C174.765 60.0844 174.731 60.3583 174.731 60.6322C174.629 60.6322 174.527 60.6664 174.459 60.6664C174.322 60.0502 174.186 59.4682 174.05 58.852L174.322 58.7835C174.493 59.1258 174.663 59.5024 174.833 59.8448C174.561 58.27 174.391 56.6609 174.05 55.1204C173.812 54.2987 173.505 53.5113 173.063 52.7924C172.79 52.2789 172.313 51.9023 172.041 51.423C171.156 49.7797 170.304 48.1364 169.453 46.4932C168.908 45.3976 167.546 44.576 168.295 43.0354C168.364 42.8985 168.125 42.5561 167.989 42.385C166.831 40.8786 165.844 39.1669 164.448 37.866C162.439 36.0173 160.362 34.3055 158.216 32.628C158.557 32.4911 158.863 32.3541 159.204 32.2172C158.591 29.9919 156.412 30.4028 155.118 29.4784C155.39 28.9649 155.594 28.5541 155.833 28.0748C154.062 26.6369 151.747 26.0549 150.453 23.8639C149.704 22.5972 148.035 21.9125 146.741 20.9882C146.435 20.7485 146.06 20.4746 145.72 20.4404C143.234 20.2692 141.599 18.4548 140.135 16.9142C137.752 14.4493 134.891 12.5321 131.725 11.2997C131.078 11.0258 130.465 10.7177 129.886 10.3753C128.66 9.72488 127.468 8.97172 126.242 8.38972C123.995 7.36268 121.645 6.43833 119.364 5.44552C116.98 4.41847 114.631 3.42566 112.179 2.39862C112.043 3.11755 111.941 3.5626 111.839 3.97342C104.892 2.91214 98.082 1.81662 91.2378 0.858045C89.5012 0.618401 87.7305 0.755341 85.9939 0.686871H85.9599C86.7771 0.96075 87.5943 1.23463 88.4115 1.54274C88.3775 1.67968 88.3434 1.81662 88.3094 1.95356L84.4616 1.50851C84.4616 1.37157 84.4276 1.23463 84.4276 1.06345L85.9258 0.652636H85.8918H85.9258H85.9599C84.2573 0.618401 82.5888 0.584166 80.8862 0.515696L82.1802 0.89228C82.1461 1.06345 82.1461 1.20039 82.1461 1.37157H79.1837C79.1837 1.23463 79.1837 1.09769 79.1496 0.926515L81.0224 0.481462C78.4686 0.344522 75.9148 0.0364079 73.3609 0.00217302C72.033 -0.0320619 70.6709 0.344522 69.377 0.686871C68.4916 0.926515 67.7085 1.57698 66.8231 1.81662C63.9288 2.60403 61.0344 3.35719 58.1401 4.04189C56.2332 4.48694 54.4285 6.33563 52.2833 4.55541C52.079 4.41847 51.5001 4.62388 51.1596 4.79506C48.3334 6.02751 45.3028 6.95186 42.783 8.6636C38.084 11.8474 33.6233 15.3736 29.2307 19.0025C21.7054 25.1648 16.0189 32.8677 11.3879 41.3922C10.9112 42.248 10.8431 43.2066 9.3789 43.6174C8.18711 43.9598 7.40394 45.8085 6.41646 46.9725C7.54014 48.65 5.56518 49.095 5.12251 50.1563C4.782 50.9779 4.10098 51.6626 3.86262 52.5185C2.73894 56.6609 0.185104 60.461 0.38941 65.0485C0.423461 65.5278 0.355359 70.663 0.525615 71.0738C0.559666 71.1423 0.866126 71.0738 1.03638 71.0738C1.07043 71.0053 1.10448 70.9369 1.10448 70.8684C1.68335 67.9927 1.00233 64.8088 3.2497 62.3782C2.87514 65.2881 2.16007 68.1296 1.10448 70.8684C1.10448 70.9369 1.07043 71.0053 1.07043 71.0738L1.03638 71.1081C1.85361 71.9297 1.61525 72.6144 0.900177 73.436C0.593717 73.7784 0.457513 74.7712 0.661819 74.9766C2.12602 76.3118 1.27474 77.5442 0.934228 79.0163C0.219155 82.2344 -0.734276 85.4867 0.900177 88.8417C1.47905 90.0399 1.75145 92.2995 1.07043 93.0184C-0.155407 94.3193 0.798024 95.5518 1.17259 95.6887C2.80704 96.3392 2.73894 97.8113 2.80704 98.941C2.94324 102.707 5.49708 106.062 4.74795 109.965C4.7139 110.102 4.95226 110.273 5.05441 110.41C6.62076 112.087 6.99533 114.415 7.98281 116.367C9.27675 118.9 8.49358 122.323 11.5582 124.104C12.2051 124.48 12.4095 125.644 12.784 126.466C12.9543 126.808 12.8181 127.356 13.0564 127.63C15.3378 130.095 17.6533 132.525 20.0029 134.956C20.4115 135.367 21.0925 135.607 21.3649 136.086C22.9653 138.893 25.5872 140.331 28.3794 141.632C29.435 142.111 31.1035 142.145 30.9673 144.063C30.9673 144.165 31.8867 144.337 32.9423 144.645L30.3544 141.392C31.4781 141.598 32.3634 141.769 33.2487 141.974C33.9638 142.145 34.781 142.248 35.3258 142.693C37.0284 144.028 38.3904 145.877 40.8421 146.014C41.2507 146.082 41.5572 146.356 41.7615 146.699C42.4085 148.137 43.8046 148.171 44.9964 148.547C45.7455 148.787 46.5287 148.992 47.3118 149.198C47.2778 149.335 47.2437 149.472 47.1756 149.643L42.749 149.095C42.783 151.252 43.7705 152.211 45.6774 152.416C47.2437 152.587 48.6398 153.203 49.1847 154.984C49.2528 155.189 50.5807 155.292 50.5807 155.257C51.1256 152.998 52.9643 153.956 54.2583 153.888C55.1096 153.854 55.416 154.573 54.735 155.497L51.398 155.12C51.2958 155.326 51.1937 155.531 51.0915 155.737L54.2583 158.099C52.7941 159.811 50.5807 158.27 48.776 159.16C52.8281 161.831 57.5272 161.694 61.7155 162.926C61.6133 164.432 59.1276 163.885 59.9789 165.904C62.2262 166.247 64.6098 166.623 67.1296 167C67.9128 166.076 67.9128 166.076 69.8196 166.658C70.092 166.726 70.6028 166.658 70.6369 166.555C71.386 164.501 73.4971 165.254 74.8251 164.809C77.2768 163.885 80.0009 163.919 82.4526 164.912L81.1246 166.11C83.3039 166.11 85.0405 166.11 86.8111 166.11C89.9438 166.144 93.0765 164.98 96.2773 165.973C96.9584 166.178 97.8437 165.836 98.6269 165.768C99.7165 165.665 100.806 165.596 101.862 165.425C103.7 165.117 105.573 164.775 107.378 164.295C108.604 163.953 109.762 163.303 110.987 162.858C116.197 160.872 121.475 159.058 126.617 156.866C129.716 155.531 132.882 154.025 135.538 151.971C137.683 150.293 139.999 148.855 142.451 147.657C142.961 147.383 143.472 147.075 143.983 146.767C143.915 146.87 143.881 146.973 143.813 147.11C144.085 146.87 144.323 146.596 144.562 146.356C144.8 146.117 145.141 145.911 145.413 145.672C145.481 145.5 145.549 145.295 145.651 145.124C145.924 144.782 146.162 144.473 146.401 144.131C148.818 140.673 151.849 137.832 154.607 134.716C155.186 134.032 156.071 133.416 156.241 132.628C156.922 129.752 159.102 127.938 160.804 125.781C161.792 124.549 163.052 123.282 163.46 121.81C164.311 118.729 166.252 116.401 167.989 113.902C168.432 113.285 168.772 112.567 169.215 111.95C170.066 110.718 170.849 109.451 171.769 108.287C173.607 106.028 174.357 103.289 175.446 100.687C175.514 100.379 175.446 100.071 175.242 99.8654C174.663 99.2491 174.084 98.6329 173.471 98.0167C174.561 96.2365 175.242 94.2851 175.514 92.231C175.582 91.8202 175.685 91.3751 175.787 90.9643C175.991 90.1427 176.297 89.321 176.434 88.4651C176.74 86.9588 176.944 85.4182 177.183 83.8777C177.455 82.3029 177.694 80.7281 178 79.0848L177.013 79.119C176.808 74.6342 176.502 70.3549 176.093 66.0413Z" fill="#FFCC66"/>
</svg>
