<svg xmlns="http://www.w3.org/2000/svg" version="1.1" xmlns:xlink="http://www.w3.org/1999/xlink" xmlns:svgjs="http://svgjs.dev/svgjs" width="1500" height="178" viewBox="0 0 1500 178"><g transform="matrix(1,0,0,1,-0.9090909090909918,-0.6432888879069338)"><svg viewBox="0 0 396 47" data-background-color="#ffffff" preserveAspectRatio="xMidYMid meet" height="178" width="1500" xmlns="http://www.w3.org/2000/svg" xmlns:xlink="http://www.w3.org/1999/xlink"><g id="tight-bounds" transform="matrix(1,0,0,1,0.2400000000000091,0.16985717826756286)"><svg viewBox="0 0 395.52 46.66028564346489" height="46.66028564346489" width="395.52"><g><svg viewBox="0 0 658.2848281249314 77.65917808219177" height="46.66028564346489" width="395.52"><g><svg viewBox="0 0 395.52 77.65917808219177" height="77.65917808219177" width="395.52"><g id="textblocktransform"><svg viewBox="0 0 395.52 77.65917808219177" height="77.65917808219177" width="395.52" id="textblock"><g><svg viewBox="0 0 395.52 77.65917808219177" height="77.65917808219177" width="395.52"><g transform="matrix(1,0,0,1,0,0)"><svg width="395.52" viewBox="1.2 -37.75 197.07000000000002 38.7" height="77.65917808219177" data-palette-color="#6b7280"><path d="M6.45 0.6Q6.15 0.6 5.95 0.23 5.75-0.15 5.75-0.6L5.75-0.6Q5.75-2.2 5.9-5.4L5.9-5.4 6-10.25Q6-10.95 5.85-12.3L5.85-12.3Q5.65-13.5 5.65-14.3L5.65-14.3Q5.65-15.15 5.35-16.65L5.35-16.65Q5.05-18.25 5.05-18.95L5.05-18.95Q5.05-19.55 4.55-21.8L4.55-21.8Q4.4-22.25 4.35-22.53 4.3-22.8 4.25-22.9L4.25-22.9Q4.05-24.3 3.6-26.35L3.6-26.35Q2.75-31 1.95-33.7L1.95-33.7Q1.2-36.1 1.2-36.95L1.2-36.95Q1.2-37.3 1.5-37.52 1.8-37.75 2.2-37.75L2.2-37.75 2.8-37.35Q2.95-35.1 4.15-29.33 5.35-23.55 5.95-22.7L5.95-22.7Q6.05-22.95 6.45-27.05L6.45-27.05Q6.8-30.7 7.45-34.3L7.45-34.3Q8.05-37.6 8.9-37.6L8.9-37.6Q9.15-37.6 9.3-37.58 9.45-37.55 9.55-37.45L9.55-37.45Q9.65-37.35 9.65-37.05L9.65-37.05Q9.65-36.6 9.45-36L9.45-36 9.25-35 7.95-27.55Q7.7-26.1 7.5-23.98 7.3-21.85 7.3-20.25L7.3-20.25Q7.3-19.8 7.35-19.45L7.35-19.45Q7.4-19.05 7.4-18.6L7.4-18.6 7.1-17.85 7.1-17.45 7.2-15.5 7.3-14.45Q7.45-12.45 7.45-11.45L7.45-11.45Q7.45-3.55 7.35-1.35L7.35-1.35 7.5-1.2Q7.5-1.1 7.55-1.05L7.55-1.05 7.55-0.85Q7.55-0.25 7.28 0.18 7 0.6 6.45 0.6L6.45 0.6ZM21.4 0.95Q15.55 0.95 15.55-17.45L15.55-17.45 15.55-19.2Q15.55-33.15 19.15-33.15L19.15-33.15Q19.4-33.15 19.85-33L19.85-33Q21.45-32.45 23-32.3L23-32.3Q23.95-32.1 24.9-30.35L24.9-30.35Q25.95-28.55 26.47-25.6 27-22.65 27-19.55L27-19.55 26.9-19.3Q26.9-17.65 26.95-16.35L26.95-16.35 27-13.35Q27-10.8 26.8-8.75L26.8-8.75Q26.5-5.65 25.8-3.4L25.8-3.4Q25.35-2.05 24.77-1.15 24.2-0.25 23.35 0.35L23.35 0.35Q22.55 0.95 21.4 0.95L21.4 0.95ZM21.2-0.5Q23.15-0.5 24.1-3.25L24.1-3.25Q25.05-6.05 25.25-8.95L25.25-8.95Q25.45-11.95 25.45-13.75L25.45-13.75Q25.45-15.75 25.15-19.65L25.15-19.65Q24.9-24 24.9-25.55L24.9-25.55 24.7-25.95 24.8-26.2Q24.8-28.4 23.57-30 22.35-31.6 20.6-31.6L20.6-31.6Q18.3-31.6 17.85-29.4L17.85-29.4Q17.75-28.65 17.65-27.25L17.65-27.25Q17.65-23.55 17.35-22.2L17.35-22.2Q17.35-21.45 17.2-19.85L17.2-19.85 17.1-17.5Q17.1-16.4 17.15-15.55L17.15-15.55 17.2-13.55Q17.2-11.2 17.6-8.15L17.6-8.15Q17.9-5.9 18.3-4.35 18.7-2.8 19.45-1.7L19.45-1.7Q20.2-0.5 21.2-0.5L21.2-0.5ZM38.74 0.75Q37.95 0.75 37.02 0.23 36.09-0.3 35.49-1L35.49-1Q34.8-1.9 34.39-6.05 33.99-10.2 33.89-15.55L33.89-15.55Q33.89-16.75 33.84-17.35L33.84-17.35Q33.74-29.9 33.45-32.2L33.45-32.2 33.74-32.9Q34.89-32.75 34.89-30.15L34.89-30.15 35.05-16.9Q35.05-15.5 35.3-11.6L35.3-11.6Q35.59-8.1 35.59-6.3L35.59-6.3Q35.59-0.6 39.34-0.6L39.34-0.6Q41.64-0.6 42.3-11.1L42.3-11.1 42.34-12.1Q42.7-25.85 42.7-32.45L42.7-32.45 42.64-32.9Q42.59-33.1 42.59-33.35L42.59-33.35Q42.59-33.9 43.45-33.9L43.45-33.9Q44.05-33.9 44.2-33.6L44.2-33.6Q44.3-33.1 44.3-31.85L44.3-31.85Q44.3-28.05 44-26.75L44-26.75 44.05-26.45Q44.05-25.8 43.89-24.45L43.89-24.45 43.8-22.45 43.8-21.95Q43.84-21.75 43.84-21.45L43.84-21.45Q43.75-20.25 43.75-19.15L43.75-19.15Q43.7-18.8 43.7-18.05L43.7-18.05Q43.59-13.3 43.5-9.8L43.5-9.8Q43.34-5.45 42.3-2.45L42.3-2.45Q41.2 0.75 38.74 0.75L38.74 0.75ZM60.14 0.85L59.44 0.6Q58.84-0.05 58.14-2.85 57.44-5.65 56.84-9.15L56.84-9.15Q56.44-12 55.69-14.8L55.69-14.8Q55.09-17.3 54.54-17.3L54.54-17.3 54.39-17.3Q53.29-17.3 53.29-16.6L53.29-16.6Q53.29-13 53.69-5.65L53.69-5.65Q53.89-1.15 54.14-0.4L54.14-0.4 53.74 0.45 53.04 0.45 52.64 0.05Q51.84-23.05 51.84-31.45L51.84-31.45Q51.84-32 51.92-32.35 51.99-32.7 52.24-33L52.24-33Q52.44-33.35 52.94-33.35L52.94-33.35Q55.49-33.35 57.04-32.1 58.59-30.85 58.59-28.5L58.59-28.5 58.59-24.85Q58.59-23.9 57.97-22.3 57.34-20.7 56.59-19.35L56.59-19.35 55.94-18.1Q56.49-15.55 58.12-8.93 59.74-2.3 59.89-1.9L59.89-1.9Q59.94-1.85 60.02-1.65 60.09-1.45 60.34-1.05L60.34-1.05Q60.69-0.35 60.69 0.15L60.69 0.15Q60.69 0.85 60.14 0.85L60.14 0.85ZM53.54-18.55Q54.49-18.55 55.24-19.5 55.99-20.45 56.44-21.95L56.44-21.95Q57.24-25 57.24-26.8L57.24-26.8Q57.24-27.95 57.12-28.7 56.99-29.45 56.69-30.3L56.69-30.3Q56.09-32.05 53.84-32.05L53.84-32.05Q53.59-32.05 53.44-31.63 53.29-31.2 53.29-30.75L53.29-30.75Q53.29-27.4 53.39-24.7L53.39-24.7Q53.44-22 53.44-18.65L53.44-18.65 53.54-18.55ZM75.74 0.65Q75.04 0.65 74.89-0.5L74.89-0.5Q74.99-0.8 74.99-2.15L74.99-2.15Q74.99-6.75 75.14-15.8L75.14-15.8Q75.29-24.8 75.29-28.8L75.29-28.8 75.39-30.6 75.54-32.1Q75.54-32.45 75.89-32.45L75.89-32.45Q76.14-32.45 76.59-32.3L76.59-32.3 76.74-32.25Q76.74-31.15 76.69-30.25L76.69-30.25 76.69-28.3 76.69-22.85Q76.74-20.45 76.74-17.4L76.74-17.4Q76.69-17.15 76.69-16.3L76.69-16.3 76.64-15.25Q76.59-14.25 76.59-13.2L76.59-13.2Q76.59-12.05 76.64-11.1L76.64-11.1 76.69-8.95 76.54-8.55 76.59-8.6Q76.59-8.45 76.54-8.4L76.54-8.4 76.54-8.2Q76.54-7.8 76.69-7.5L76.69-7.5 76.54-2.7 76.54-2.4Q76.54-1.55 76.59-1.4L76.59-1.4Q76.59-1.15 76.84-1.15L76.84-1.15 79.44-1.05Q80.59-1.05 81.01-1.03 81.44-1 81.54-1L81.54-1 81.69-1Q81.94-1 82.19-0.73 82.44-0.45 82.44-0.15L82.44-0.15Q82.44 0.45 81.64 0.5L81.64 0.5Q80.79 0.45 77.49 0.45L77.49 0.45 77.59 0.5Q77.09 0.5 76.64 0.55L76.64 0.55Q76.24 0.65 75.74 0.65L75.74 0.65ZM92.49 0.95Q86.64 0.95 86.64-17.45L86.64-17.45 86.64-19.2Q86.64-33.15 90.24-33.15L90.24-33.15Q90.49-33.15 90.94-33L90.94-33Q92.54-32.45 94.09-32.3L94.09-32.3Q95.04-32.1 95.99-30.35L95.99-30.35Q97.04-28.55 97.56-25.6 98.09-22.65 98.09-19.55L98.09-19.55 97.99-19.3Q97.99-17.65 98.04-16.35L98.04-16.35 98.09-13.35Q98.09-10.8 97.89-8.75L97.89-8.75Q97.59-5.65 96.89-3.4L96.89-3.4Q96.44-2.05 95.86-1.15 95.29-0.25 94.44 0.35L94.44 0.35Q93.64 0.95 92.49 0.95L92.49 0.95ZM92.29-0.5Q94.24-0.5 95.19-3.25L95.19-3.25Q96.14-6.05 96.34-8.95L96.34-8.95Q96.54-11.95 96.54-13.75L96.54-13.75Q96.54-15.75 96.24-19.65L96.24-19.65Q95.99-24 95.99-25.55L95.99-25.55 95.79-25.95 95.89-26.2Q95.89-28.4 94.66-30 93.44-31.6 91.69-31.6L91.69-31.6Q89.39-31.6 88.94-29.4L88.94-29.4Q88.84-28.65 88.74-27.25L88.74-27.25Q88.74-23.55 88.44-22.2L88.44-22.2Q88.44-21.45 88.29-19.85L88.29-19.85 88.19-17.5Q88.19-16.4 88.24-15.55L88.24-15.55 88.29-13.55Q88.29-11.2 88.69-8.15L88.69-8.15Q88.99-5.9 89.39-4.35 89.79-2.8 90.54-1.7L90.54-1.7Q91.29-0.5 92.29-0.5L92.29-0.5ZM110.48 0.35Q108.18 0.35 107.08-0.2 105.98-0.75 105.46-2.33 104.93-3.9 104.53-7.35L104.53-7.35Q103.93-12.4 103.93-15.2L103.93-15.2Q103.93-16.9 104.13-19.1L104.13-19.1 104.43-22.25Q104.68-26 105.01-27.93 105.33-29.85 106.46-31.33 107.58-32.8 109.93-33.05L109.93-33.05Q110.18-33.1 110.73-33.1L110.73-33.1Q112.28-33.1 112.28-32.4L112.28-32.4Q112.28-32.1 111.96-31.88 111.63-31.65 111.28-31.65L111.28-31.65 110.78-31.7 110.33-31.75Q109.48-31.75 108.81-31.2 108.13-30.65 107.68-29.6L107.68-29.6Q106.63-27.1 106.33-24.7L106.33-24.7Q105.93-21.55 105.83-19.2L105.83-19.2 105.78-15.35Q105.78-12.9 105.93-11.7L105.93-11.7Q106.28-11.15 106.41-10.03 106.53-8.9 106.63-6.95L106.63-6.95Q106.73-5.2 107.08-3.98 107.43-2.75 108.33-1.95L108.33-1.95Q109.33-1.1 111.08-1.1L111.08-1.1Q112.53-1.1 113.13-2.7L113.13-2.7Q113.83-4.4 113.93-6.2L113.93-6.2Q114.08-8.45 114.08-10L114.08-10 114.08-12.75Q113.58-13.25 112.33-13.25L112.33-13.25 111.93-13.25Q111.68-13.2 111.38-13.2L111.38-13.2Q110.18-13.2 110.18-13.8L110.18-13.8Q110.18-14.65 111.38-14.65L111.38-14.65Q112.23-14.65 112.78-14.6L112.78-14.6 113.88-14.55Q114.83-14.4 115.38-14.2L115.38-14.2Q115.98-14 115.98-13.65L115.98-13.65Q115.98-13 115.68-11.8L115.68-11.8Q115.43-10.4 115.43-9.9L115.43-9.9Q115.43-7.8 115.53-6.1L115.53-6.1Q115.58-4.35 115.58-2.25L115.58-2.25Q113.03 0.35 110.48 0.35L110.48 0.35ZM126.73 0.95Q120.88 0.95 120.88-17.45L120.88-17.45 120.88-19.2Q120.88-33.15 124.48-33.15L124.48-33.15Q124.73-33.15 125.18-33L125.18-33Q126.78-32.45 128.33-32.3L128.33-32.3Q129.28-32.1 130.23-30.35L130.23-30.35Q131.28-28.55 131.81-25.6 132.33-22.65 132.33-19.55L132.33-19.55 132.23-19.3Q132.23-17.65 132.28-16.35L132.28-16.35 132.33-13.35Q132.33-10.8 132.13-8.75L132.13-8.75Q131.83-5.65 131.13-3.4L131.13-3.4Q130.68-2.05 130.11-1.15 129.53-0.25 128.68 0.35L128.68 0.35Q127.88 0.95 126.73 0.95L126.73 0.95ZM126.53-0.5Q128.48-0.5 129.43-3.25L129.43-3.25Q130.38-6.05 130.58-8.95L130.58-8.95Q130.78-11.95 130.78-13.75L130.78-13.75Q130.78-15.75 130.48-19.65L130.48-19.65Q130.23-24 130.23-25.55L130.23-25.55 130.03-25.95 130.13-26.2Q130.13-28.4 128.91-30 127.68-31.6 125.93-31.6L125.93-31.6Q123.63-31.6 123.18-29.4L123.18-29.4Q123.08-28.65 122.98-27.25L122.98-27.25Q122.98-23.55 122.68-22.2L122.68-22.2Q122.68-21.45 122.53-19.85L122.53-19.85 122.43-17.5Q122.43-16.4 122.48-15.55L122.48-15.55 122.53-13.55Q122.53-11.2 122.93-8.15L122.93-8.15Q123.23-5.9 123.63-4.35 124.03-2.8 124.78-1.7L124.78-1.7Q125.53-0.5 126.53-0.5L126.53-0.5ZM156.38 0.55Q156.38 0.05 154.88 0.05L154.88 0.05Q154.63-9.2 154.63-13.35L154.63-13.35 154.48-13.55 154.68-14Q154.68-14.9 154.48-15.85L154.48-15.85 153.73-16.05Q153.28-15.9 152.73-15.9L152.73-15.9Q152.33-15.9 151.08-16.15L151.08-16.15Q150.23-16.4 149.53-16.4L149.53-16.4 148.98-16.2Q148.98-14.45 148.93-13.05L148.93-13.05Q148.88-11.65 148.88-9.9L148.88-9.9 148.98-9.7Q148.98-8.3 149.13-5.5L149.13-5.5Q149.28-2.75 149.28-1.35L149.28-1.35Q149.28-0.8 149.08-0.43 148.88-0.05 148.48-0.05L148.48-0.05Q147.38-0.05 147.38-3.05L147.38-3.05Q147.38-5.6 147.43-7.65L147.43-7.65 147.48-12.2Q147.48-16.75 147.33-17.1L147.33-17.1Q147.58-17.6 147.58-20.4L147.58-20.4Q147.58-22.8 147.38-26.25L147.38-26.25 147.28-28.2 147.18-32.1Q147.18-32.45 147.43-32.75 147.68-33.05 148.03-33.05L148.03-33.05Q149.03-33.05 149.03-30.15L149.03-30.15Q149.03-26.75 148.98-24L148.98-24Q148.88-21.25 148.88-17.95L148.88-17.95Q148.88-17.35 152.68-17.35L152.68-17.35 152.88-17.35Q153.83-17.35 154.25-17.73 154.68-18.1 154.68-19L154.68-19Q154.68-21.65 154.33-25.9L154.33-25.9Q154.03-30.5 154.03-32.8L154.03-32.8Q154.03-33.1 154.28-33.33 154.53-33.55 154.88-33.55L154.88-33.55 155.33-33.4Q155.68-33.35 155.78-33.25L155.78-33.25Q155.78-29.35 156.08-21.6L156.08-21.6Q156.38-13.8 156.38-9.9L156.38-9.9Q156.38-4 156.73 0L156.73 0 156.38 0.55ZM153.23-17.95L153.23-18.05 153.33-17.95 153.23-17.95ZM164.67 0.65Q163.77 0.65 163.67-0.4L163.67-0.4 163.67-1.05Q163.72-1.3 163.72-1.65L163.72-1.65 163.52-1.85Q163.92-2.9 163.92-3.9L163.92-3.9Q163.92-5.05 163.77-7.2L163.77-7.2 163.67-10.5Q163.67-13 163.82-18L163.82-18Q164.02-22.45 164.02-25.55L164.02-25.55 163.92-28.55Q163.82-29.9 163.82-31.55L163.82-31.55Q163.82-32.3 164.17-32.63 164.52-32.95 165.27-32.95L165.27-32.95Q165.77-32.95 166.07-32.65L166.07-32.65Q166.17-32.6 167.52-32.45L167.52-32.45Q168.77-32.3 169.67-32L169.67-32Q170.62-31.7 170.62-31.25L170.62-31.25Q170.62-30.75 169.67-30.25L169.67-30.25Q166.82-31.2 165.62-31.2L165.62-31.2 165.37-30.9Q165.42-30.45 165.42-28.75L165.42-28.75Q165.42-26.6 165.32-24.9L165.32-24.9Q165.27-23.15 165.27-21L165.27-21Q165.27-19.6 165.97-19.6L165.97-19.6 166.77-19.65Q167.17-19.7 167.62-19.7L167.62-19.7Q169.57-19.7 169.57-18.8L169.57-18.8Q169.57-18.25 169.32-17.88 169.07-17.5 168.57-17.5L168.57-17.5Q167.82-17.5 167.42-17.9L167.42-17.9 165.82-18.15 165.57-18.15 165.32-17.9 165.32-17.75Q165.42-16.9 165.42-13.8L165.42-13.8Q165.42-11.85 165.37-10.25L165.37-10.25 165.32-6.7Q165.32-4.75 165.47-2.7L165.47-2.7Q165.52-1.55 165.97-1.18 166.42-0.8 167.62-0.8L167.62-0.8 168.52-0.85Q168.97-0.9 169.52-0.9L169.52-0.9Q170.97-0.9 170.97-0.25L170.97-0.25Q170.97 0.65 168.77 0.65L168.77 0.65 164.67 0.65ZM184.87 0.85L184.17 0.6Q183.57-0.05 182.87-2.85 182.17-5.65 181.57-9.15L181.57-9.15Q181.17-12 180.42-14.8L180.42-14.8Q179.82-17.3 179.27-17.3L179.27-17.3 179.12-17.3Q178.02-17.3 178.02-16.6L178.02-16.6Q178.02-13 178.42-5.65L178.42-5.65Q178.62-1.15 178.87-0.4L178.87-0.4 178.47 0.45 177.77 0.45 177.37 0.05Q176.57-23.05 176.57-31.45L176.57-31.45Q176.57-32 176.65-32.35 176.72-32.7 176.97-33L176.97-33Q177.17-33.35 177.67-33.35L177.67-33.35Q180.22-33.35 181.77-32.1 183.32-30.85 183.32-28.5L183.32-28.5 183.32-24.85Q183.32-23.9 182.7-22.3 182.07-20.7 181.32-19.35L181.32-19.35 180.67-18.1Q181.22-15.55 182.85-8.93 184.47-2.3 184.62-1.9L184.62-1.9Q184.67-1.85 184.75-1.65 184.82-1.45 185.07-1.05L185.07-1.05Q185.42-0.35 185.42 0.15L185.42 0.15Q185.42 0.85 184.87 0.85L184.87 0.85ZM178.27-18.55Q179.22-18.55 179.97-19.5 180.72-20.45 181.17-21.95L181.17-21.95Q181.97-25 181.97-26.8L181.97-26.8Q181.97-27.95 181.85-28.7 181.72-29.45 181.42-30.3L181.42-30.3Q180.82-32.05 178.57-32.05L178.57-32.05Q178.32-32.05 178.17-31.63 178.02-31.2 178.02-30.75L178.02-30.75Q178.02-27.4 178.12-24.7L178.12-24.7Q178.17-22 178.17-18.65L178.17-18.65 178.27-18.55ZM191.97 0.65Q191.07 0.65 190.97-0.4L190.97-0.4 190.97-1.05Q191.02-1.3 191.02-1.65L191.02-1.65 190.82-1.85Q191.22-2.9 191.22-3.9L191.22-3.9Q191.22-5.05 191.07-7.2L191.07-7.2 190.97-10.5Q190.97-13 191.12-18L191.12-18Q191.32-22.45 191.32-25.55L191.32-25.55 191.22-28.55Q191.12-29.9 191.12-31.55L191.12-31.55Q191.12-32.3 191.47-32.63 191.82-32.95 192.57-32.95L192.57-32.95Q193.07-32.95 193.37-32.65L193.37-32.65Q193.47-32.6 194.82-32.45L194.82-32.45Q196.07-32.3 196.97-32L196.97-32Q197.92-31.7 197.92-31.25L197.92-31.25Q197.92-30.75 196.97-30.25L196.97-30.25Q194.12-31.2 192.92-31.2L192.92-31.2 192.67-30.9Q192.72-30.45 192.72-28.75L192.72-28.75Q192.72-26.6 192.62-24.9L192.62-24.9Q192.57-23.15 192.57-21L192.57-21Q192.57-19.6 193.27-19.6L193.27-19.6 194.07-19.65Q194.47-19.7 194.92-19.7L194.92-19.7Q196.87-19.7 196.87-18.8L196.87-18.8Q196.87-18.25 196.62-17.88 196.37-17.5 195.87-17.5L195.87-17.5Q195.12-17.5 194.72-17.9L194.72-17.9 193.12-18.15 192.87-18.15 192.62-17.9 192.62-17.75Q192.72-16.9 192.72-13.8L192.72-13.8Q192.72-11.85 192.67-10.25L192.67-10.25 192.62-6.7Q192.62-4.75 192.77-2.7L192.77-2.7Q192.82-1.55 193.27-1.18 193.72-0.8 194.92-0.8L194.92-0.8 195.82-0.85Q196.27-0.9 196.82-0.9L196.82-0.9Q198.27-0.9 198.27-0.25L198.27-0.25Q198.27 0.65 196.07 0.65L196.07 0.65 191.97 0.65Z" opacity="1" transform="matrix(1,0,0,1,0,0)" fill="#6b7280" class="wordmark-text-0" data-fill-palette-color="primary" id="text-0"></path></svg></g></svg></g></svg></g></svg></g><g transform="matrix(1,0,0,1,413.8534681249315,2.50951274370815)"><svg viewBox="0 0 244.43135999999996 72.64015259477547" height="72.64015259477547" width="244.43135999999996"><g><svg xmlns="http://www.w3.org/2000/svg" xml:space="preserve" fill-rule="evenodd" clip-rule="evenodd" style="shape-rendering:geometricPrecision;text-rendering:geometricPrecision;image-rendering:optimizeQuality" viewBox="13890 188930 481410 143065.5046089457" x="0" y="0" height="72.64015259477547" width="244.43135999999996" class="icon-icon-0" data-fill-palette-color="accent" id="icon-0"><path d="M413580 246540c1260-1210 1210-1170 3880-1870 2250-590 3060-1140 4630-170-390 730 900 890-3120 1640-2200 410-3150 460-5390 400m49140 16180c-540-2970-12540 220-16900 360 2400-4660 5950-6100 10460-6660-1300 2520-1720 1460-2070 4490 3600-90 2140 80 2790-1960 400-1260 1420-1720 2480-2990 7310-410 8470 3290 12810-1810l-4020 480c480-1050 1180-2560 1870-3240 1590-1560 1900-260 2800-2660-2520-910-4280 1950-5410 3690-2780 4310-3900 2020-4550 280-60-150-170-590-280-760-4450 1010-2150 3330-7350 3010-3110-200 160 100-2970-970-6640 4570-7100 700-8800 3820 1520 1110 820 230 2090 680l1470 750c-2340 1350-3070 3280-5040 5310l-6840-160c650-2170 3920-6590 5460-8550 2370-3020 5680-6160 5150-8200 14320-2670 23460 1410 45150-4740-930 1970-2080 2780-3880 4330-1920 1660-2760 3940-5190 2910-50-120-140-440-140-360 10 80-80-290-70-350 420-1720 1020-870 1310-2890-2080-250-2510-510-4620 4620 770 1680-440 690 1470 1570-1250 950-2380 1520-4020 2610-1400 940-2060 1660-3890 2750-2960 1770-5520 3720-9270 4640m-38640-19430c1370-1060 3720-1510 5630-1550-1260 570-900 610-2330 1340-3990 2040-3010 450-3300 210m-269180-12300c1800-1070 7260 170 8980 910l8040 3440c1360 800 1490 1480 2990 2450 3300 2140 3620 240 8850 7840 3150-30 3040-200 4490-2250 2000-2840 1330-1650 5150-2110 1040-1760 1700-3200 2480-4640 10740-930 14940 1530 21880 1750 8040 250 14680 1020 22590 1270 5220 6530 7780 2340 8870 2270 6620 2090 4380 6870 9080 9050 1580-1460 1660-3670 3530-5370 3100-2830 2980 700 6980-260 2750-1620 410-6930 9510-9290 4700-1220 9260-2790 14690-4050 24760-5760 18070 6310 27840 7950-1050-13580 2620-13390 17790-14830 2840-270 6470-930 10350-870 1810 20 8120 910 9770 1430s2530 650 4230 1040c3240 740 800 340 4760 3220 3210 2340 4090 5390 5240 8780 760 2220 1220 1630-450 3170l580 820c70 90 230 310 300 400 2310 3040-1150 12200-1520 14130-3080 16260-2090 23550 4570 37210 2670 5450 740 14860-3910 16560-5510 2010-30940 5910-33250 5160-1770-1460-1050-2120-3790-2570-6600-1090-3810 4840-12530 5070-3060-3090-2920-9830-9650-3350-8050 7750-14550 9310-26010 9690-3890 130-18200 980-20650-50-2900-1220-4020-3590-8220-1060-2390 1430-350 940-3310 1260-2320 250-1180 890-4110 1130l-1840-2510c-4660-330-4650 1330-7570 3210-2470 1590-6010 1660-9110 2380-4930 1150-37400-2030-41890-3230-4680-1260-2480-4240-4450-7120-1430-2080-5090-2230-8020-3450l-260-3830-4260-130-610-4030c-6030-420-9870 7780-13290 10520l-3520-1880c-5900 2880-6680 5310-18440 1680-4260-1310-14120-3600-16160-7450-4210-7990-4020-9650-1280-18940 2630-8920 3090-7330 5380-18090 5390-25250-7470-25370-5230-37930 450-2470 2830-6500 4390-7070 0 0 10110-1310 10650-1310 2100 40 7810 770 10130 1230 3880 780 6910 820 9240 2650m-6310-4630c-1080 700-4400-10-5830-510 800-680 4740-840 5830 510m5100 620c110-130 240-310 290-410l610-1290c140-360 70-510 310-1110 160 290 310-160 300 910-20 1790 120-210-130 850-470 2060-540 1320-770 1730-2280 30-2710 300-3970-1300 590-1050-190-1800 1830-920l1230 1230c50-100 190 220 300 310m190710-4540c-220-2080 860-1330 1940-520z m6280-870c-2270-260-2010 130-2820-1690z m-5600-3280l1210 820c-590 450-1010 770-1570 1180z m-4880-1480l3160 480c-1260 2350-440 1030-1230 3590-590 1880 120 1250-2150 1690z m107920-11640c-2050 2160-1580 2140-5080 1130 3630-4650 2650-930 5570-2940-2280-1720-4390-2510-7850-1800 160 2030 600 2460 1290 3620-2040 680-3320-290-4890-1860l2190-2330c-5660-520-2450 3030-5790 580 400-250-220-150 1230-640l10930-1480c1650 470 940 3310 1600 1950 40-90 130 300 220 430 2340-1150 1960-990 4940-340-990 1680-2710 1950-4360 3680m14600 57550c-6850 5660-24500 9690-34560 9180-4400-230-6760-3060-10250-4510-1390 650-1270 730-2420 1320-3550-4490-610-5920-4230-8590-1030 650-330-180-1030 890-1290 2000-930 4180-6110 7200-5120 3000-4680-1730-9360 6330-4240 7320-17470 4500-17980 13170 2650-1200 3170-2720 5910-4070 3710-1820 13590-3840 16850-12060 6220-480 7600-2720 11040-6050l730-620c660 3310 1440 4920 3580 6580 2320-580 2400-1900 4770-990 1660 630 2520 1930 4540 2810 10450 4540 36630-5910 45910-11670l13720-8670 11470-11380v-2530c-7270 3290-14170 4210-23050 5210-20700 2350-12730-3210-24680-2870-1330-3400-3090-4110-6140-5970 1030-1180 2160-1840 3100-3600-4080 1850-2050 3310-8460 3310-4330 0-7970 700-12170 970 4990-5960 26010-9040 29080-17080-8020-2500-18860 3830-26940 2830 690-3170 8860-4460 12130-6090 4180-2100 8440-3600 12620-6100 1840-1110 3950-2510 5480-3580 2910-2040 15880-8870 17410-11170-2520-1540-4810 520-8010 760-3160 230-2090-720-3920-350-1160 240-1270 920-3350 1220-6120 890-12530 690-18740 1330-1270 140-16570 2980-16850 3110-3770 1690-380 1900-6680 2980-3020 510-5240 1750-6500 3640-2190-910-3760-2690-6620-3770-4120-1570-4170-1430-8070-360-3400-1910-3680-2800-8590-3520-6160-920-6000 140-10160 1770-5770-3070-13470-720-19940 390-16330 2790-13260 5340-17850 7010-370 5190-1620 1840-1600 6310 10 2460 540 5090 330 7510-4940 680-8900 710-13000 2760-5010 2490-5440 5160-7020 8100-50 80-170 250-260 370-3080-3590-5990-6090-11400-5960-8010 200-21850 3140-29030 6000-5870 2350-6020 3870-9660 8530-5530-1310-5990 1210-9070 3150-120-110-300-430-350-330l-890-1040c-580-690-480-590-1120-1310-3650-4100-5680-3150-10470-2350-1190-2030-1980-3140-5330-3350l-18120-1030c-7860-20-18060-3620-25430-1700-3900 1020-2930 2840-4970 4140-890 570-2340 650-3400 1350-1080 720-1430 1590-2480 2510-640-490-570-370-1350-1170-2960-3050-3830-3520-7500-5780-3270-2010-3120-2720-7060-3790-5110-1380-3210-2350-12750-3730 220-6670 1890-10580-3960-14080-5370-3200-19220-4590-24460-2460-9400 3830-12450-720-18500 9180-4420-2380-3110-5920-10880-4380-1240-1190-2170-2250-3160-3280-6220-980-13240-930-19260-2010-10730-1920-7360-3700-17040-1320-650-7400-7970-6920-18460-10920-4970-1890-10450-4080-14620-7180-2620-1940-900-2780-4910-2940-220 4100-360 2120 1630 3210l5090 4620c960 1240 490 1400 1860 2940 11410 12760 17620 14210 28010 21580 1980 1410 4840 2360 5060 5060-3360 2500-7750-190-11730-1410-3030-930-10790-2980-12970-2310 350 2920 5460 5860 8560 8530 3060 2640 7050 4880 12700 4110-510 1570-1170 2500-1270 4570 1850 1430 3000 2510 4850 4040 1370 1130 3810 2610 5310 3630 650 9010-3970 5670-10520 8150-4500 1710-9520 3420-14330 4280-2750 490-5400 310-8220 920-6460 1410-13480 1670-19170 5040-2520 1490-1880 310-2190 2910 3850 1320 19370-1340 31900 3170 4400 1580 8500 4280 12820 5290 8520 1990 8630-3450 13460-4530 1320 190 3680 4360 9440 7050 6320 2960 17190-1350 14620 4480-740 1690-780 1060-820 2930 2730 1660 7410 2560 11020 2350l1750-2010c1520 3290 2130 3780 4980 5510 690 420 1490 980 2020 460 1060-2440-1300-1950-3200-3560-540-460-2480-4480-2810-5130-3490 240-3030 310-4790 2030l-4960-600 1390-4210c-4920-5660-15960 110-22560-6130-1780-1690-2210-3250-4870-4820-5390-780-6720 4710-12060 4660-3440-30-8940-3450-11990-4760-9300-4010-19160-3780-30200-4200 4460-3030 22660-4550 29400-6070 5550-1260 8860-3400 13850-4270 2840-490 5180-330 6790-2240 1600-1890 1980-4290 1550-7280-2240-2220-2540-2100-5160-3680-1480-900-4000-3010-5110-4180l2010-5850c-4810-1130-5690 2640-11940-1520l-7840-6900c2890 940 7960 1670 11900 2880 4070 1260 7590 2920 10920-700 1350-3080-5710-6750-8170-8140-6310-3560-14260-8460-19170-13490l-4390-3470c-1400-1210-2940-2890-3500-5110 7060 2800 15060 6870 22570 8870 4320 1160 3910 2170 4320 6770 4850 780 3910-2420 8900-1150 7320 1880 15530 3310 23020 3580 7820 290 4540 1550 9090 4250 4510-550 3740-1520 7230 1270 2020 1610 3170 3770 6700 3640 160-6480 2240-6780 7830-8000 8530-1860 18660-4810 27360-1860 3370 1130 9660 4190 5830 7950-4670 3970-23240-40-28920 4190-1580 1170-2330 1750-3370 3420-2550 4060-2430 5130-2490 10700-4370-340-8470 950-12070 2610-160 70-660 300-790 370-90 50-250 210-320 250-70 50-210 190-310 280 3610 1580 8140-3430 12320-2050 2170 700 5540 8760 6120 11160-3090-710-12400-1830-14390 1770l780 310c3230 180 6240-1690 10290-1220 4410 520 5480 3810 5190 7950-3900-4010-16780-3320-20060-60 2390 770 7120-980 10600-1130 5730-240 6190 870 9640 3220-70 14310-13290 33310-7260 44190 5030 9060 6370 7190 16330 10860 7100 2610 15750 4310 21800 170 7650 3790 8130-5710 14510-8600 1530 1710 490 1550 2630 2740 4740 2640 810 3580 6450 5050 1090 290 1570 310 2340 660 5940 2680-470 8380 12810 9950 5390 640 34230 3520 37910 3080 2180-250 5730-1630 7760-2460 3340-1380 3680-2940 6280-4240 5590 2760 680 6570 11250 1220 5230-2650 3030-1620 7490 280 5690 2420 33710 830 39370-1750 2040-930 4890-3120 6580-4320 2230-1570 3320-4030 5450-5470 1380 610 780-50 2040 1620 1840 2460 2450 4390 6390 4190 6060-320 6030-2910 9100-5270 5290 1800-630 4280 20470 540 4250-760 17150-2820 20150-4510 1060-600 4550-6730 4700-9200 340-5620-490-7850-2570-11950-4430-8710-4690-12000-4320-23510 1900 760-740 370 2140 1550 4730-9630 14210-10060 19680-13280-3930-3100-18840 7420-21320 10780-640-3870 590-8470 1700-11850 1920-5850 1090-7170 1280-13450 1470-1130 5930-2840 7770-3540 2520-950 7290-1650 8910-2500-480-430 630-1560-4580-430-4460 970-7740 3460-12290 4360-1640-1920-2800-5440-3700-7690l6770-2160c870-80 790 90 1720-110 2190-490 620-140 1350-620-3610-2500-8270 1030-11300 1510-1610-1500-750-290-1570-2180l4790-1310c1430-630 690-270 1340-1050-1830-870-3390 110-5430 700-3330 940-2670-220-5730-1030 1180-2310 2360-2280 4790-2940 190-50 790-200 970-270 1240-460 890-400 1350-690-1410-770-3150-490-4980-10-2450 640-2030 990-3670 2330-8240-2900-13490-4450-20440-9190-590-6640 1470-6800 8020-8520 3860-1010 20240-5210 23670-2470 4940 3950 2070-3320 14400-520 4700 1070 2930 2070 5790 4050 6330-2600 7620-2370 14510 3790 2260-840 2950-2380 4940-3350 3020-1450 5220 110 7430-1550 2570-1930 1170-2560 5650-2950 2190-200 5000 130 6740 1460-1440 2000-7950 7540-8120 9930 1340-210 1410-500 2410-1730 2280-2830 4330-5030 7560-7210l4480 1770c-1140 2350-1770 1940-2490 3740 2070-240 2780-1560 3840-2850 2620 220 3070 470 5180 1160 1740-1950 7090-5910 7750-7230l-2740-2200c5270 40 2210 540 5740 2030 1350-1280 1340-2180 3140-2810 480-170 2260-440 2750-450 3720-80 860-240 2150 630-10540 5690-20240 13560-32000 16990-4320 1260-8460 2550-10350 5770 2710 4270 5800 1510 9850 1230 2010-140 1920 1880 5110 1300l610-2200 9830-1200c-90 280-220 330-280 560l-1380 1260c-2570 1750-13450 7150-15430 7040-2200-1000-4130-2780-5980-1950 620 2390-150 1100 4280 2420-2250 2290-10310 3860-9390 7930 420 190-400 260 1420 480l6750-560c2510-430 5490-760 8170-400-3720 3790-16800 4190-22470 6760l-2730 2360-5330 270c630 2310 610 1640 2640 1050 3620-1060 10980-1470 14780-1570 1540 1650 1010 1540 3030 2580l470-1710c20-60 80-240 130-360 2420-340 4740-300 7260-540 3060-300 5480 390 6410-1540-5870-740-5480 1300-10580-1570l4050-2470c1130 1060 1560 1810 3380 1710l-1050-2280 4990-210c-1190-1510-2190-1050-4570-1140l2120-1500c5060 1470 5430 1590 6360 6990 4300-80 4040-1170 8950 280-750 560 80 400-1770 890l-6810 890c-4440 500-4870 100-7250 2950-3270 80-8690-990-10370 1870 1580 810 4600-190 6400-330 2710-210 4730 140 7360 280-90-160-280-570-320-450-40 110-270-340-320-410-480-790-1900-1640 2560-2000-2160 4380-10580 13990-10680 18000 15700-160 7370-570 19200-2550 3420-570 6920-740 10420-970" class="" fill="#97978d" data-fill-palette-color="accent"></path><path d="M266000 288190c16390-100 66250-6550 84000-11860 1870-560 3240-1020 4880-1710 2490-1060 3410-1290 3600-3350-1940 50-5950 2770-9190 3790-13110 4120-44270 8330-58350 9790l-21840 2510c-450 60-1230 160-1650 270-1490 380-770 160-1450 560M271710 303210c2220 1240 41120-4190 46620-5330l32710-7260c1710-430 3510-790 5300-1240 5180-1290 4240-1590 4700-2550-870-460-18100 4170-20570 4780-19330 4790-25540 5560-45180 8180-6740 900-17330 1660-23580 3420M273050 273350c6170 1170 40520-4460 48170-5830l38820-8890c1020-270 2130-520 2950-790l2270-1340c-2260-1170-7320 1190-10170 1940l-33940 7830zM292130 259010c1930 970 7040-310 9070-660 29230-4970 28660-6470 53930-13150 2820-750 7400-370 9100-2510-450-290 700-1390-4460-110-18740 4620-25610 8720-48770 12930-3490 630-16840 2520-18870 3500M295620 245710c7340 2840 39640-6340 49380-9440 2390-760 13890-3140 15410-5070-2520-1280-11850 2670-15010 3670-4970 1580-10180 3040-15520 4450-8850 2340-15740 4350-25050 5190l-7820 550c-1310 310-850 270-1390 650M319350 310190c6420 210 38990-6340 40990-10680-1540-670-6700 2100-9100 2870-3590 1140-6830 1930-10490 2810-3900 930-6830 1630-10830 2550-3370 770-7710 1490-10570 2450M445270 252970c2180 1230 9380-1350 12390-1990 2690-570 10410-1390 12110-2720-2160-740-23160 2440-24500 4710M375220 258130c1510-430 2200-1940 4640-3300 1790-1010 3480-2110 5500-2970s3960-1810 5880-2600c3520-1450 4640-820 6060-2340-3800-1360-22370 6770-22080 11210M373940 277030c2550-140 1130-220 4370-3180 2800-2540 6340-4700 9990-6350 1770-800 4470-1500 6010-2440-4510-2560-18860 8180-20370 11970M376810 247940c2670-520 3130-3850 12360-6800 1500-480 3610-620 4950-1470-920-790-830-1260-5180 40-3930 1180-11400 4180-12130 8230M105900 273520c1620 580 4460-310 6700-130 4080 320 3000 1510 5420 2530 2390-5150-12170-5680-12120-2400M109990 266870c2340 1810 3970 30 7450 0 2950-20 3820 1570 6370 1620-1890-4090-9760-3390-12380-2580-2600 800 320 160-1440 960M106090 249340c2150 1720 1550-30 5890-140 3010-70 3930 1270 6240 2040-1690-5470-10500-3700-12130-1900M108190 279110c8800-210 5370 2790 7310 1060 2220-1970-6670-4980-7310-1060M108270 283800c1000 640-620 340 1880 630 650 80 1550 0 2390 100 2760 330 2060 1010 3620-120-1350-1290-3680-2040-6010-1740-3030 390-930 530-1880 1130M344700 311670c4360-110 8490-930 12260-1850-1850-1170-2780-270-5770 270zM146760 221200c1490-290 3640-1500 4550-3320-2930 290-4210 1040-4550 3320M137370 221570c2230-1100 400-320 1970-2320 1540-1960 1290 220 1400-2280-1720 690-4190 2010-3370 4600M420280 234210c-210-1230-270-1440-750-2200-780-1220-570-1190-2330-1390 110 2610 780 2910 3080 3590M421030 228780c710 1750 1970 2300 3980 2410-790-1590-1890-3610-3980-2410M133740 222770l2660-5100c-2050 160-920 30-2090 2020-2230 3780-700 2830-570 3080M144400 220430c1940-990 2520-1710 2610-3740-1880 910-2160 1220-2610 3740M357530 309090c2190-130 1950 240 3340-1100-1820-1470-1190-490-3340 1100M444530 231830c1690-530 450 340 1570-720-1630-570-1500 640-1570 720" class="" fill="#97978d" data-fill-palette-color="accent"></path></svg></g></svg></g></svg></g><defs></defs></svg><rect width="395.52" height="46.66028564346489" fill="none" stroke="none" visibility="hidden"></rect></g></svg></g></svg>